G04 EAGLE Gerber RS-274X export*
G75*
%MOMM*%
%FSLAX34Y34*%
%LPD*%
%INTop Copper*%
%IPPOS*%
%AMOC8*
5,1,8,0,0,1.08239X$1,22.5*%
G01*
%ADD10R,1.300000X1.500000*%
%ADD11C,1.524000*%
%ADD12R,1.500000X1.300000*%
%ADD13R,1.168400X1.600200*%
%ADD14R,1.450000X0.300000*%
%ADD15C,0.152400*%
%ADD16C,0.604000*%
%ADD17C,0.508000*%

G36*
X242510Y3822D02*
X242510Y3822D01*
X242576Y3824D01*
X242619Y3842D01*
X242666Y3850D01*
X242723Y3884D01*
X242783Y3909D01*
X242818Y3940D01*
X242859Y3965D01*
X242901Y4016D01*
X242949Y4060D01*
X242971Y4102D01*
X243000Y4139D01*
X243021Y4201D01*
X243052Y4260D01*
X243060Y4314D01*
X243072Y4351D01*
X243071Y4391D01*
X243079Y4445D01*
X243079Y75617D01*
X243061Y75716D01*
X243047Y75816D01*
X243042Y75826D01*
X243040Y75838D01*
X242988Y75925D01*
X242940Y76013D01*
X242932Y76021D01*
X242925Y76031D01*
X242847Y76094D01*
X242772Y76161D01*
X242760Y76165D01*
X242751Y76172D01*
X242656Y76205D01*
X242562Y76240D01*
X242550Y76240D01*
X242539Y76244D01*
X242439Y76241D01*
X242338Y76242D01*
X242326Y76238D01*
X242314Y76238D01*
X242222Y76200D01*
X242127Y76166D01*
X242118Y76158D01*
X242107Y76153D01*
X242032Y76085D01*
X241956Y76020D01*
X241949Y76009D01*
X241941Y76002D01*
X241920Y75961D01*
X241859Y75860D01*
X241433Y74830D01*
X238860Y72257D01*
X235499Y70865D01*
X216621Y70865D01*
X213260Y72257D01*
X210687Y74830D01*
X209651Y77332D01*
X209622Y77377D01*
X209602Y77427D01*
X209562Y77471D01*
X209530Y77521D01*
X209487Y77553D01*
X209450Y77593D01*
X209398Y77620D01*
X209351Y77655D01*
X209299Y77671D01*
X209251Y77696D01*
X209180Y77706D01*
X209136Y77719D01*
X209105Y77717D01*
X209065Y77723D01*
X171366Y77723D01*
X166887Y82201D01*
X166814Y82252D01*
X166745Y82308D01*
X166723Y82316D01*
X166703Y82330D01*
X166617Y82352D01*
X166533Y82380D01*
X166509Y82380D01*
X166486Y82386D01*
X166397Y82376D01*
X166308Y82374D01*
X166286Y82365D01*
X166263Y82362D01*
X166183Y82323D01*
X166101Y82289D01*
X166083Y82273D01*
X166062Y82263D01*
X166001Y82198D01*
X165935Y82138D01*
X165924Y82117D01*
X165908Y82100D01*
X165873Y82018D01*
X165832Y81938D01*
X165829Y81912D01*
X165820Y81893D01*
X165818Y81843D01*
X165805Y81753D01*
X165805Y81178D01*
X164912Y80285D01*
X157502Y80285D01*
X157460Y80278D01*
X157418Y80280D01*
X157351Y80258D01*
X157281Y80246D01*
X157245Y80224D01*
X157204Y80211D01*
X157131Y80157D01*
X157088Y80131D01*
X157075Y80115D01*
X157053Y80099D01*
X153603Y76649D01*
X153578Y76614D01*
X153547Y76585D01*
X153515Y76522D01*
X153474Y76464D01*
X153464Y76423D01*
X153444Y76385D01*
X153431Y76296D01*
X153418Y76247D01*
X153421Y76226D01*
X153417Y76200D01*
X153417Y45720D01*
X153428Y45655D01*
X153430Y45589D01*
X153448Y45546D01*
X153456Y45499D01*
X153490Y45442D01*
X153515Y45382D01*
X153546Y45347D01*
X153571Y45306D01*
X153622Y45264D01*
X153666Y45216D01*
X153708Y45194D01*
X153745Y45165D01*
X153807Y45144D01*
X153866Y45113D01*
X153920Y45105D01*
X153957Y45093D01*
X153997Y45094D01*
X154051Y45086D01*
X157604Y45086D01*
X158301Y44388D01*
X158356Y44350D01*
X158403Y44305D01*
X158447Y44287D01*
X158486Y44260D01*
X158549Y44243D01*
X158610Y44218D01*
X158657Y44216D01*
X158703Y44204D01*
X158768Y44211D01*
X158834Y44208D01*
X158879Y44222D01*
X158926Y44227D01*
X158985Y44256D01*
X159048Y44276D01*
X159092Y44309D01*
X159127Y44326D01*
X159154Y44355D01*
X159198Y44388D01*
X159896Y45086D01*
X172844Y45086D01*
X173737Y44193D01*
X173737Y38481D01*
X173748Y38416D01*
X173750Y38350D01*
X173768Y38307D01*
X173776Y38260D01*
X173810Y38203D01*
X173835Y38143D01*
X173866Y38108D01*
X173891Y38067D01*
X173942Y38025D01*
X173986Y37977D01*
X174028Y37955D01*
X174065Y37926D01*
X174127Y37905D01*
X174186Y37874D01*
X174240Y37866D01*
X174277Y37854D01*
X174317Y37855D01*
X174371Y37847D01*
X187027Y37847D01*
X189283Y35591D01*
X189356Y35541D01*
X189425Y35484D01*
X189447Y35477D01*
X189467Y35463D01*
X189553Y35441D01*
X189637Y35413D01*
X189661Y35413D01*
X189684Y35407D01*
X189773Y35417D01*
X189862Y35419D01*
X189884Y35428D01*
X189907Y35431D01*
X189987Y35470D01*
X190069Y35503D01*
X190087Y35519D01*
X190108Y35530D01*
X190169Y35595D01*
X190235Y35655D01*
X190246Y35676D01*
X190262Y35693D01*
X190297Y35775D01*
X190338Y35854D01*
X190341Y35881D01*
X190350Y35900D01*
X190352Y35950D01*
X190365Y36040D01*
X190365Y38707D01*
X190356Y38760D01*
X190356Y38813D01*
X190336Y38869D01*
X190326Y38928D01*
X190298Y38974D01*
X190280Y39024D01*
X190242Y39070D01*
X190211Y39121D01*
X190170Y39155D01*
X190136Y39196D01*
X190084Y39225D01*
X190037Y39262D01*
X189987Y39280D01*
X189940Y39306D01*
X189869Y39319D01*
X189825Y39334D01*
X189795Y39333D01*
X189756Y39341D01*
X188030Y39409D01*
X188000Y39405D01*
X187970Y39408D01*
X187889Y39389D01*
X187815Y39379D01*
X186855Y39455D01*
X186844Y39453D01*
X186830Y39456D01*
X185888Y39493D01*
X185276Y40210D01*
X185267Y40217D01*
X185259Y40229D01*
X184601Y40941D01*
X184595Y40964D01*
X184531Y41067D01*
X184510Y41106D01*
X184502Y41113D01*
X184496Y41123D01*
X177184Y49688D01*
X177132Y49730D01*
X177086Y49780D01*
X177045Y49801D01*
X177010Y49830D01*
X176946Y49852D01*
X176887Y49883D01*
X176834Y49890D01*
X176798Y49903D01*
X176757Y49902D01*
X176701Y49910D01*
X174846Y49910D01*
X172465Y52291D01*
X172465Y55659D01*
X174846Y58040D01*
X178214Y58040D01*
X180595Y55659D01*
X180595Y52970D01*
X180598Y52953D01*
X180596Y52935D01*
X180618Y52843D01*
X180634Y52749D01*
X180643Y52734D01*
X180647Y52717D01*
X180747Y52558D01*
X187887Y44195D01*
X187929Y44161D01*
X187965Y44119D01*
X188015Y44090D01*
X188060Y44053D01*
X188112Y44035D01*
X188160Y44008D01*
X188229Y43995D01*
X188272Y43980D01*
X188304Y43981D01*
X188344Y43973D01*
X189706Y43920D01*
X189783Y43931D01*
X189862Y43933D01*
X189894Y43946D01*
X189928Y43951D01*
X189997Y43988D01*
X190069Y44017D01*
X190095Y44041D01*
X190126Y44057D01*
X190178Y44116D01*
X190235Y44169D01*
X190251Y44199D01*
X190274Y44226D01*
X190302Y44299D01*
X190338Y44368D01*
X190343Y44407D01*
X190354Y44435D01*
X190355Y44482D01*
X190365Y44554D01*
X190365Y48382D01*
X191258Y49275D01*
X207522Y49275D01*
X208415Y48382D01*
X208415Y34118D01*
X207522Y33225D01*
X193180Y33225D01*
X193092Y33209D01*
X193004Y33200D01*
X192982Y33190D01*
X192959Y33186D01*
X192882Y33140D01*
X192803Y33101D01*
X192786Y33084D01*
X192766Y33071D01*
X192710Y33002D01*
X192649Y32938D01*
X192639Y32916D01*
X192624Y32897D01*
X192596Y32813D01*
X192561Y32731D01*
X192560Y32707D01*
X192553Y32685D01*
X192555Y32596D01*
X192551Y32507D01*
X192559Y32484D01*
X192559Y32460D01*
X192593Y32378D01*
X192620Y32293D01*
X192636Y32272D01*
X192643Y32253D01*
X192678Y32215D01*
X192731Y32143D01*
X194413Y30460D01*
X194448Y30436D01*
X194477Y30405D01*
X194540Y30373D01*
X194598Y30332D01*
X194639Y30322D01*
X194677Y30302D01*
X194766Y30289D01*
X194815Y30276D01*
X194836Y30279D01*
X194862Y30275D01*
X207522Y30275D01*
X208415Y29382D01*
X208415Y15118D01*
X207522Y14225D01*
X191258Y14225D01*
X190365Y15118D01*
X190365Y27778D01*
X190358Y27820D01*
X190360Y27862D01*
X190338Y27929D01*
X190326Y27999D01*
X190304Y28035D01*
X190291Y28076D01*
X190237Y28149D01*
X190211Y28192D01*
X190195Y28205D01*
X190179Y28227D01*
X185319Y33087D01*
X185284Y33112D01*
X185255Y33143D01*
X185192Y33175D01*
X185134Y33216D01*
X185093Y33226D01*
X185055Y33246D01*
X184966Y33259D01*
X184917Y33272D01*
X184896Y33269D01*
X184870Y33273D01*
X174371Y33273D01*
X174306Y33262D01*
X174240Y33260D01*
X174197Y33242D01*
X174150Y33234D01*
X174093Y33200D01*
X174033Y33175D01*
X173998Y33144D01*
X173957Y33119D01*
X173915Y33068D01*
X173867Y33024D01*
X173845Y32982D01*
X173816Y32945D01*
X173795Y32883D01*
X173764Y32824D01*
X173756Y32770D01*
X173744Y32733D01*
X173745Y32693D01*
X173737Y32639D01*
X173737Y26927D01*
X172844Y26034D01*
X159896Y26034D01*
X159198Y26732D01*
X159144Y26770D01*
X159097Y26815D01*
X159053Y26833D01*
X159014Y26860D01*
X158951Y26877D01*
X158890Y26902D01*
X158843Y26904D01*
X158797Y26916D01*
X158732Y26909D01*
X158666Y26912D01*
X158621Y26898D01*
X158574Y26893D01*
X158515Y26864D01*
X158452Y26844D01*
X158408Y26811D01*
X158373Y26794D01*
X158346Y26765D01*
X158301Y26732D01*
X157604Y26034D01*
X144656Y26034D01*
X143958Y26732D01*
X143904Y26770D01*
X143857Y26815D01*
X143813Y26833D01*
X143774Y26860D01*
X143711Y26877D01*
X143650Y26902D01*
X143603Y26904D01*
X143557Y26916D01*
X143492Y26909D01*
X143426Y26912D01*
X143381Y26898D01*
X143334Y26893D01*
X143275Y26864D01*
X143212Y26844D01*
X143168Y26811D01*
X143133Y26794D01*
X143106Y26765D01*
X143061Y26732D01*
X142364Y26034D01*
X129861Y26034D01*
X129819Y26027D01*
X129777Y26029D01*
X129710Y26007D01*
X129640Y25995D01*
X129604Y25973D01*
X129563Y25960D01*
X129490Y25906D01*
X129447Y25880D01*
X129434Y25864D01*
X129423Y25856D01*
X129422Y25856D01*
X129412Y25848D01*
X124797Y21233D01*
X104909Y21233D01*
X104844Y21222D01*
X104778Y21220D01*
X104735Y21202D01*
X104688Y21194D01*
X104631Y21160D01*
X104571Y21135D01*
X104536Y21104D01*
X104495Y21079D01*
X104453Y21028D01*
X104405Y20984D01*
X104383Y20942D01*
X104354Y20905D01*
X104333Y20843D01*
X104302Y20784D01*
X104294Y20730D01*
X104282Y20693D01*
X104283Y20653D01*
X104275Y20599D01*
X104275Y16388D01*
X103382Y15495D01*
X87118Y15495D01*
X86225Y16388D01*
X86225Y30652D01*
X87118Y31545D01*
X103382Y31545D01*
X104275Y30652D01*
X104275Y26441D01*
X104286Y26376D01*
X104288Y26310D01*
X104306Y26267D01*
X104314Y26220D01*
X104348Y26163D01*
X104373Y26103D01*
X104404Y26068D01*
X104429Y26027D01*
X104480Y25985D01*
X104524Y25937D01*
X104566Y25915D01*
X104603Y25886D01*
X104665Y25865D01*
X104724Y25834D01*
X104778Y25826D01*
X104815Y25814D01*
X104855Y25815D01*
X104909Y25807D01*
X122640Y25807D01*
X122682Y25814D01*
X122724Y25812D01*
X122791Y25834D01*
X122861Y25846D01*
X122897Y25868D01*
X122938Y25881D01*
X123011Y25935D01*
X123054Y25961D01*
X123067Y25977D01*
X123089Y25993D01*
X128337Y31241D01*
X128362Y31276D01*
X128393Y31305D01*
X128425Y31368D01*
X128466Y31426D01*
X128476Y31467D01*
X128496Y31505D01*
X128509Y31594D01*
X128522Y31643D01*
X128519Y31664D01*
X128523Y31690D01*
X128523Y44193D01*
X129416Y45086D01*
X142364Y45086D01*
X143061Y44388D01*
X143116Y44350D01*
X143163Y44305D01*
X143207Y44287D01*
X143246Y44260D01*
X143309Y44243D01*
X143370Y44218D01*
X143417Y44216D01*
X143463Y44204D01*
X143528Y44211D01*
X143594Y44208D01*
X143639Y44222D01*
X143686Y44227D01*
X143745Y44256D01*
X143808Y44276D01*
X143852Y44309D01*
X143887Y44326D01*
X143914Y44355D01*
X143958Y44388D01*
X144656Y45086D01*
X148209Y45086D01*
X148274Y45097D01*
X148340Y45099D01*
X148383Y45117D01*
X148430Y45125D01*
X148487Y45159D01*
X148547Y45184D01*
X148582Y45215D01*
X148623Y45240D01*
X148665Y45291D01*
X148713Y45335D01*
X148735Y45377D01*
X148764Y45414D01*
X148785Y45476D01*
X148816Y45535D01*
X148824Y45589D01*
X148836Y45626D01*
X148835Y45666D01*
X148843Y45720D01*
X148843Y78357D01*
X149689Y79203D01*
X149739Y79276D01*
X149796Y79345D01*
X149803Y79367D01*
X149817Y79387D01*
X149839Y79473D01*
X149867Y79557D01*
X149867Y79581D01*
X149873Y79604D01*
X149863Y79693D01*
X149861Y79782D01*
X149852Y79804D01*
X149849Y79827D01*
X149810Y79907D01*
X149777Y79989D01*
X149761Y80007D01*
X149750Y80028D01*
X149685Y80089D01*
X149625Y80155D01*
X149604Y80166D01*
X149587Y80182D01*
X149505Y80217D01*
X149426Y80258D01*
X149399Y80261D01*
X149380Y80270D01*
X149330Y80272D01*
X149240Y80285D01*
X149148Y80285D01*
X148255Y81178D01*
X148255Y81605D01*
X148248Y81647D01*
X148250Y81689D01*
X148228Y81757D01*
X148216Y81826D01*
X148194Y81863D01*
X148181Y81903D01*
X148127Y81976D01*
X148101Y82019D01*
X148085Y82032D01*
X148069Y82054D01*
X146361Y83763D01*
X145207Y84916D01*
X145207Y101704D01*
X148069Y104566D01*
X148094Y104601D01*
X148125Y104630D01*
X148157Y104693D01*
X148198Y104751D01*
X148208Y104792D01*
X148228Y104829D01*
X148241Y104919D01*
X148254Y104968D01*
X148251Y104989D01*
X148255Y105015D01*
X148255Y105442D01*
X149148Y106335D01*
X158058Y106335D01*
X158100Y106342D01*
X158142Y106340D01*
X158209Y106362D01*
X158279Y106374D01*
X158315Y106396D01*
X158356Y106409D01*
X158429Y106463D01*
X158472Y106489D01*
X158485Y106505D01*
X158507Y106521D01*
X171807Y119821D01*
X171857Y119894D01*
X171914Y119963D01*
X171921Y119985D01*
X171935Y120005D01*
X171957Y120091D01*
X171985Y120175D01*
X171985Y120199D01*
X171991Y120222D01*
X171981Y120311D01*
X171979Y120400D01*
X171970Y120422D01*
X171967Y120445D01*
X171928Y120525D01*
X171895Y120607D01*
X171879Y120625D01*
X171868Y120646D01*
X171803Y120707D01*
X171743Y120773D01*
X171722Y120784D01*
X171705Y120800D01*
X171623Y120835D01*
X171544Y120876D01*
X171517Y120879D01*
X171498Y120888D01*
X171448Y120890D01*
X171358Y120903D01*
X170773Y120903D01*
X170731Y120896D01*
X170689Y120898D01*
X170622Y120876D01*
X170552Y120864D01*
X170516Y120842D01*
X170475Y120829D01*
X170403Y120775D01*
X170359Y120749D01*
X170346Y120733D01*
X170325Y120717D01*
X168253Y118645D01*
X164487Y118645D01*
X161825Y121307D01*
X161825Y125073D01*
X164487Y127735D01*
X168253Y127735D01*
X170325Y125663D01*
X170360Y125638D01*
X170388Y125607D01*
X170451Y125575D01*
X170509Y125534D01*
X170550Y125524D01*
X170588Y125504D01*
X170677Y125491D01*
X170726Y125478D01*
X170747Y125481D01*
X170773Y125477D01*
X177200Y125477D01*
X177242Y125484D01*
X177284Y125482D01*
X177351Y125504D01*
X177421Y125516D01*
X177457Y125538D01*
X177498Y125551D01*
X177571Y125605D01*
X177614Y125631D01*
X177627Y125647D01*
X177649Y125663D01*
X198343Y146357D01*
X198393Y146430D01*
X198450Y146499D01*
X198457Y146521D01*
X198471Y146541D01*
X198493Y146627D01*
X198521Y146711D01*
X198521Y146735D01*
X198527Y146758D01*
X198517Y146847D01*
X198515Y146936D01*
X198506Y146958D01*
X198503Y146981D01*
X198464Y147061D01*
X198431Y147143D01*
X198415Y147161D01*
X198404Y147182D01*
X198339Y147243D01*
X198279Y147309D01*
X198258Y147320D01*
X198241Y147336D01*
X198159Y147371D01*
X198080Y147412D01*
X198053Y147415D01*
X198034Y147424D01*
X197984Y147426D01*
X197894Y147439D01*
X194969Y147439D01*
X194969Y156211D01*
X202741Y156211D01*
X202741Y152286D01*
X202756Y152198D01*
X202766Y152110D01*
X202776Y152088D01*
X202780Y152065D01*
X202826Y151988D01*
X202865Y151909D01*
X202882Y151892D01*
X202895Y151872D01*
X202964Y151816D01*
X203028Y151755D01*
X203050Y151745D01*
X203069Y151730D01*
X203153Y151702D01*
X203235Y151667D01*
X203259Y151666D01*
X203281Y151659D01*
X203370Y151661D01*
X203459Y151657D01*
X203482Y151665D01*
X203506Y151665D01*
X203588Y151699D01*
X203673Y151726D01*
X203694Y151742D01*
X203713Y151749D01*
X203751Y151784D01*
X203823Y151837D01*
X204490Y152503D01*
X204514Y152538D01*
X204545Y152567D01*
X204577Y152630D01*
X204618Y152688D01*
X204628Y152729D01*
X204648Y152767D01*
X204661Y152856D01*
X204674Y152905D01*
X204671Y152926D01*
X204675Y152952D01*
X204675Y165612D01*
X205568Y166505D01*
X219832Y166505D01*
X220725Y165612D01*
X220725Y149348D01*
X219832Y148455D01*
X207172Y148455D01*
X207130Y148448D01*
X207088Y148450D01*
X207021Y148428D01*
X206951Y148416D01*
X206915Y148394D01*
X206874Y148381D01*
X206801Y148327D01*
X206758Y148301D01*
X206745Y148285D01*
X206723Y148269D01*
X165299Y106845D01*
X165261Y106791D01*
X165216Y106743D01*
X165197Y106699D01*
X165171Y106660D01*
X165154Y106597D01*
X165128Y106536D01*
X165126Y106489D01*
X165115Y106443D01*
X165121Y106378D01*
X165118Y106312D01*
X165133Y106267D01*
X165138Y106220D01*
X165167Y106161D01*
X165187Y106098D01*
X165220Y106054D01*
X165237Y106019D01*
X165266Y105992D01*
X165299Y105948D01*
X165805Y105442D01*
X165805Y104867D01*
X165821Y104779D01*
X165830Y104691D01*
X165840Y104670D01*
X165844Y104646D01*
X165890Y104570D01*
X165929Y104490D01*
X165946Y104473D01*
X165959Y104453D01*
X166028Y104397D01*
X166092Y104336D01*
X166114Y104327D01*
X166133Y104312D01*
X166217Y104283D01*
X166299Y104248D01*
X166323Y104247D01*
X166345Y104240D01*
X166434Y104242D01*
X166523Y104238D01*
X166546Y104246D01*
X166570Y104246D01*
X166652Y104280D01*
X166737Y104307D01*
X166758Y104323D01*
X166777Y104331D01*
X166815Y104365D01*
X166887Y104419D01*
X170166Y107697D01*
X209065Y107697D01*
X209118Y107706D01*
X209173Y107706D01*
X209228Y107726D01*
X209286Y107736D01*
X209333Y107764D01*
X209384Y107782D01*
X209429Y107821D01*
X209479Y107851D01*
X209513Y107893D01*
X209555Y107928D01*
X209591Y107989D01*
X209621Y108025D01*
X209630Y108054D01*
X209651Y108088D01*
X210687Y110590D01*
X213260Y113163D01*
X216621Y114555D01*
X235499Y114555D01*
X238860Y113163D01*
X241433Y110590D01*
X241859Y109560D01*
X241913Y109476D01*
X241965Y109389D01*
X241974Y109382D01*
X241980Y109372D01*
X242061Y109311D01*
X242139Y109248D01*
X242150Y109244D01*
X242160Y109237D01*
X242256Y109208D01*
X242351Y109176D01*
X242363Y109176D01*
X242375Y109173D01*
X242475Y109179D01*
X242576Y109182D01*
X242587Y109187D01*
X242598Y109188D01*
X242690Y109229D01*
X242783Y109267D01*
X242792Y109275D01*
X242803Y109280D01*
X242875Y109350D01*
X242949Y109418D01*
X242955Y109429D01*
X242963Y109437D01*
X243005Y109528D01*
X243052Y109618D01*
X243054Y109631D01*
X243058Y109640D01*
X243062Y109686D01*
X243079Y109803D01*
X243079Y169445D01*
X243068Y169510D01*
X243066Y169576D01*
X243048Y169619D01*
X243040Y169666D01*
X243006Y169723D01*
X242981Y169783D01*
X242950Y169818D01*
X242925Y169859D01*
X242874Y169901D01*
X242830Y169949D01*
X242788Y169971D01*
X242751Y170000D01*
X242689Y170021D01*
X242630Y170052D01*
X242576Y170060D01*
X242539Y170072D01*
X242499Y170071D01*
X242445Y170079D01*
X4445Y170079D01*
X4380Y170068D01*
X4314Y170066D01*
X4271Y170048D01*
X4224Y170040D01*
X4167Y170006D01*
X4107Y169981D01*
X4072Y169950D01*
X4031Y169925D01*
X3989Y169874D01*
X3941Y169830D01*
X3919Y169788D01*
X3890Y169751D01*
X3869Y169689D01*
X3838Y169630D01*
X3830Y169576D01*
X3818Y169539D01*
X3819Y169499D01*
X3811Y169445D01*
X3811Y168596D01*
X3826Y168508D01*
X3836Y168420D01*
X3846Y168398D01*
X3850Y168375D01*
X3896Y168298D01*
X3935Y168219D01*
X3952Y168202D01*
X3965Y168182D01*
X4034Y168126D01*
X4098Y168065D01*
X4120Y168055D01*
X4139Y168040D01*
X4223Y168012D01*
X4305Y167977D01*
X4329Y167976D01*
X4351Y167969D01*
X4440Y167971D01*
X4529Y167967D01*
X4552Y167975D01*
X4576Y167975D01*
X4658Y168009D01*
X4743Y168036D01*
X4764Y168052D01*
X4783Y168059D01*
X4821Y168094D01*
X4893Y168147D01*
X5403Y168657D01*
X96857Y168657D01*
X98823Y166691D01*
X98858Y166666D01*
X98887Y166635D01*
X98950Y166603D01*
X99008Y166562D01*
X99049Y166552D01*
X99087Y166532D01*
X99176Y166519D01*
X99225Y166506D01*
X99246Y166509D01*
X99272Y166505D01*
X111932Y166505D01*
X112825Y165612D01*
X112825Y149348D01*
X111932Y148455D01*
X97668Y148455D01*
X96775Y149348D01*
X96775Y162008D01*
X96768Y162050D01*
X96770Y162092D01*
X96748Y162159D01*
X96736Y162229D01*
X96714Y162265D01*
X96701Y162306D01*
X96647Y162379D01*
X96621Y162422D01*
X96605Y162435D01*
X96589Y162457D01*
X95149Y163897D01*
X95114Y163922D01*
X95085Y163953D01*
X95022Y163985D01*
X94964Y164026D01*
X94923Y164036D01*
X94885Y164056D01*
X94796Y164069D01*
X94747Y164082D01*
X94726Y164079D01*
X94700Y164083D01*
X9271Y164083D01*
X9206Y164072D01*
X9140Y164070D01*
X9097Y164052D01*
X9050Y164044D01*
X8993Y164010D01*
X8933Y163985D01*
X8898Y163954D01*
X8857Y163929D01*
X8815Y163878D01*
X8767Y163834D01*
X8745Y163792D01*
X8716Y163755D01*
X8695Y163693D01*
X8664Y163634D01*
X8656Y163580D01*
X8644Y163543D01*
X8645Y163503D01*
X8637Y163449D01*
X8637Y63401D01*
X8644Y63359D01*
X8642Y63316D01*
X8664Y63249D01*
X8676Y63180D01*
X8698Y63143D01*
X8711Y63103D01*
X8765Y63030D01*
X8791Y62987D01*
X8807Y62973D01*
X8823Y62952D01*
X15652Y56122D01*
X15697Y56092D01*
X15735Y56053D01*
X15788Y56028D01*
X15836Y55994D01*
X15889Y55981D01*
X15938Y55958D01*
X15997Y55953D01*
X16054Y55938D01*
X16108Y55944D01*
X16162Y55940D01*
X16231Y55957D01*
X16277Y55962D01*
X16304Y55975D01*
X16343Y55985D01*
X19771Y57405D01*
X38649Y57405D01*
X42010Y56013D01*
X44583Y53440D01*
X45975Y50079D01*
X45975Y46441D01*
X44583Y43080D01*
X42010Y40507D01*
X38649Y39115D01*
X19771Y39115D01*
X16410Y40507D01*
X13837Y43080D01*
X12445Y46441D01*
X12445Y50079D01*
X13098Y51655D01*
X13110Y51708D01*
X13131Y51758D01*
X13133Y51817D01*
X13146Y51874D01*
X13138Y51928D01*
X13141Y51982D01*
X13123Y52038D01*
X13114Y52096D01*
X13089Y52144D01*
X13072Y52196D01*
X13030Y52253D01*
X13008Y52294D01*
X12984Y52314D01*
X12961Y52346D01*
X5589Y59718D01*
X4893Y60413D01*
X4820Y60464D01*
X4751Y60520D01*
X4729Y60528D01*
X4709Y60541D01*
X4623Y60564D01*
X4539Y60592D01*
X4515Y60591D01*
X4492Y60597D01*
X4403Y60588D01*
X4314Y60586D01*
X4292Y60577D01*
X4269Y60574D01*
X4189Y60535D01*
X4107Y60501D01*
X4089Y60485D01*
X4068Y60475D01*
X4007Y60410D01*
X3941Y60350D01*
X3930Y60329D01*
X3914Y60311D01*
X3879Y60229D01*
X3838Y60150D01*
X3835Y60124D01*
X3826Y60105D01*
X3824Y60054D01*
X3811Y59965D01*
X3811Y4445D01*
X3822Y4380D01*
X3824Y4314D01*
X3842Y4271D01*
X3850Y4224D01*
X3884Y4167D01*
X3909Y4107D01*
X3940Y4072D01*
X3965Y4031D01*
X4016Y3989D01*
X4060Y3941D01*
X4102Y3919D01*
X4139Y3890D01*
X4201Y3869D01*
X4260Y3838D01*
X4314Y3830D01*
X4351Y3818D01*
X4391Y3819D01*
X4445Y3811D01*
X242445Y3811D01*
X242510Y3822D01*
G37*
%LPC*%
G36*
X19771Y13715D02*
X19771Y13715D01*
X16410Y15107D01*
X13837Y17680D01*
X12445Y21041D01*
X12445Y24679D01*
X13837Y28040D01*
X16410Y30613D01*
X19771Y32005D01*
X38649Y32005D01*
X42010Y30613D01*
X44583Y28040D01*
X45619Y25538D01*
X45648Y25493D01*
X45668Y25443D01*
X45708Y25399D01*
X45740Y25349D01*
X45783Y25317D01*
X45820Y25277D01*
X45872Y25250D01*
X45919Y25215D01*
X45971Y25199D01*
X46019Y25174D01*
X46090Y25164D01*
X46134Y25151D01*
X46165Y25153D01*
X46205Y25147D01*
X51370Y25147D01*
X51412Y25154D01*
X51454Y25152D01*
X51521Y25174D01*
X51591Y25186D01*
X51627Y25208D01*
X51668Y25221D01*
X51741Y25275D01*
X51784Y25301D01*
X51797Y25317D01*
X51819Y25333D01*
X105689Y79203D01*
X105739Y79276D01*
X105796Y79345D01*
X105803Y79367D01*
X105817Y79387D01*
X105839Y79473D01*
X105867Y79557D01*
X105867Y79581D01*
X105873Y79604D01*
X105863Y79693D01*
X105861Y79782D01*
X105852Y79804D01*
X105849Y79827D01*
X105810Y79907D01*
X105777Y79989D01*
X105761Y80007D01*
X105750Y80028D01*
X105685Y80089D01*
X105625Y80155D01*
X105604Y80166D01*
X105587Y80182D01*
X105505Y80217D01*
X105426Y80258D01*
X105399Y80261D01*
X105380Y80270D01*
X105330Y80272D01*
X105240Y80285D01*
X105148Y80285D01*
X104452Y80982D01*
X104398Y81019D01*
X104350Y81064D01*
X104307Y81083D01*
X104268Y81110D01*
X104204Y81126D01*
X104143Y81152D01*
X104096Y81154D01*
X104050Y81166D01*
X103985Y81159D01*
X103919Y81162D01*
X103874Y81147D01*
X103827Y81143D01*
X103768Y81113D01*
X103706Y81093D01*
X103662Y81061D01*
X103626Y81043D01*
X103599Y81014D01*
X103555Y80982D01*
X103118Y80545D01*
X99353Y80545D01*
X96691Y83207D01*
X96691Y86846D01*
X96676Y86934D01*
X96666Y87022D01*
X96656Y87044D01*
X96652Y87067D01*
X96606Y87144D01*
X96567Y87223D01*
X96550Y87240D01*
X96537Y87260D01*
X96468Y87316D01*
X96404Y87377D01*
X96382Y87387D01*
X96363Y87402D01*
X96279Y87430D01*
X96197Y87465D01*
X96173Y87466D01*
X96151Y87473D01*
X96062Y87471D01*
X95973Y87475D01*
X95950Y87467D01*
X95926Y87467D01*
X95844Y87433D01*
X95759Y87406D01*
X95738Y87390D01*
X95719Y87383D01*
X95681Y87348D01*
X95609Y87295D01*
X94900Y86587D01*
X94876Y86552D01*
X94845Y86523D01*
X94813Y86460D01*
X94772Y86402D01*
X94762Y86361D01*
X94742Y86323D01*
X94729Y86234D01*
X94716Y86185D01*
X94719Y86164D01*
X94715Y86138D01*
X94715Y83207D01*
X92053Y80545D01*
X88287Y80545D01*
X85625Y83207D01*
X85625Y85823D01*
X85609Y85911D01*
X85600Y85999D01*
X85590Y86020D01*
X85586Y86044D01*
X85540Y86121D01*
X85501Y86200D01*
X85484Y86217D01*
X85471Y86237D01*
X85402Y86293D01*
X85338Y86354D01*
X85316Y86363D01*
X85297Y86378D01*
X85213Y86407D01*
X85131Y86442D01*
X85107Y86443D01*
X85085Y86450D01*
X84996Y86448D01*
X84907Y86452D01*
X84884Y86444D01*
X84860Y86444D01*
X84778Y86410D01*
X84693Y86383D01*
X84672Y86367D01*
X84653Y86359D01*
X84615Y86325D01*
X84543Y86271D01*
X71170Y72899D01*
X69644Y71373D01*
X46205Y71373D01*
X46152Y71364D01*
X46097Y71364D01*
X46042Y71344D01*
X45984Y71334D01*
X45937Y71306D01*
X45886Y71288D01*
X45841Y71249D01*
X45791Y71219D01*
X45757Y71177D01*
X45715Y71142D01*
X45679Y71081D01*
X45649Y71045D01*
X45640Y71016D01*
X45619Y70982D01*
X44583Y68480D01*
X42010Y65907D01*
X38649Y64515D01*
X19771Y64515D01*
X16410Y65907D01*
X13837Y68480D01*
X12445Y71841D01*
X12445Y75479D01*
X13837Y78840D01*
X16410Y81413D01*
X19771Y82805D01*
X38649Y82805D01*
X42010Y81413D01*
X44583Y78840D01*
X45619Y76338D01*
X45648Y76293D01*
X45668Y76243D01*
X45708Y76199D01*
X45740Y76149D01*
X45783Y76117D01*
X45820Y76077D01*
X45872Y76050D01*
X45919Y76015D01*
X45971Y75999D01*
X46019Y75974D01*
X46090Y75964D01*
X46134Y75951D01*
X46165Y75953D01*
X46205Y75947D01*
X67487Y75947D01*
X67529Y75954D01*
X67571Y75952D01*
X67639Y75974D01*
X67708Y75986D01*
X67745Y76008D01*
X67785Y76021D01*
X67858Y76075D01*
X67901Y76101D01*
X67914Y76117D01*
X67936Y76133D01*
X92400Y100597D01*
X103621Y100597D01*
X103686Y100608D01*
X103752Y100610D01*
X103795Y100628D01*
X103842Y100636D01*
X103899Y100670D01*
X103959Y100695D01*
X103994Y100726D01*
X104035Y100751D01*
X104077Y100802D01*
X104125Y100846D01*
X104147Y100888D01*
X104176Y100925D01*
X104197Y100987D01*
X104228Y101046D01*
X104236Y101100D01*
X104248Y101137D01*
X104247Y101177D01*
X104255Y101231D01*
X104255Y105442D01*
X105148Y106335D01*
X120008Y106335D01*
X120050Y106342D01*
X120092Y106340D01*
X120159Y106362D01*
X120229Y106374D01*
X120265Y106396D01*
X120306Y106409D01*
X120379Y106463D01*
X120422Y106489D01*
X120435Y106505D01*
X120457Y106521D01*
X146777Y132841D01*
X146802Y132876D01*
X146833Y132905D01*
X146865Y132968D01*
X146906Y133026D01*
X146916Y133067D01*
X146936Y133105D01*
X146949Y133194D01*
X146962Y133243D01*
X146959Y133264D01*
X146963Y133290D01*
X146963Y147821D01*
X146952Y147886D01*
X146950Y147952D01*
X146932Y147995D01*
X146924Y148042D01*
X146890Y148099D01*
X146865Y148159D01*
X146834Y148194D01*
X146809Y148235D01*
X146758Y148277D01*
X146714Y148325D01*
X146672Y148347D01*
X146635Y148376D01*
X146573Y148397D01*
X146514Y148428D01*
X146460Y148436D01*
X146423Y148448D01*
X146383Y148447D01*
X146329Y148455D01*
X142118Y148455D01*
X141225Y149348D01*
X141225Y165612D01*
X142118Y166505D01*
X156382Y166505D01*
X157275Y165612D01*
X157275Y149348D01*
X156382Y148455D01*
X152171Y148455D01*
X152106Y148444D01*
X152040Y148442D01*
X151997Y148424D01*
X151950Y148416D01*
X151893Y148382D01*
X151833Y148357D01*
X151798Y148326D01*
X151757Y148301D01*
X151715Y148250D01*
X151667Y148206D01*
X151645Y148164D01*
X151616Y148127D01*
X151595Y148065D01*
X151564Y148006D01*
X151556Y147952D01*
X151544Y147915D01*
X151545Y147882D01*
X151544Y147879D01*
X151544Y147870D01*
X151537Y147821D01*
X151537Y131133D01*
X121991Y101587D01*
X121966Y101552D01*
X121935Y101523D01*
X121903Y101460D01*
X121862Y101402D01*
X121852Y101361D01*
X121832Y101323D01*
X121819Y101234D01*
X121806Y101185D01*
X121809Y101164D01*
X121809Y101163D01*
X121802Y101156D01*
X121784Y101113D01*
X121757Y101074D01*
X121740Y101010D01*
X121715Y100950D01*
X121713Y100903D01*
X121701Y100857D01*
X121708Y100792D01*
X121705Y100726D01*
X121719Y100681D01*
X121724Y100634D01*
X121753Y100575D01*
X121773Y100512D01*
X121805Y100470D01*
X121805Y96159D01*
X121802Y96156D01*
X121784Y96113D01*
X121757Y96074D01*
X121740Y96010D01*
X121715Y95950D01*
X121713Y95903D01*
X121701Y95857D01*
X121708Y95792D01*
X121705Y95726D01*
X121719Y95681D01*
X121724Y95634D01*
X121753Y95575D01*
X121773Y95512D01*
X121806Y95468D01*
X121817Y95446D01*
X121818Y95394D01*
X121836Y95351D01*
X121844Y95304D01*
X121878Y95247D01*
X121903Y95187D01*
X121934Y95152D01*
X121959Y95111D01*
X122010Y95069D01*
X122054Y95021D01*
X122096Y94999D01*
X122133Y94970D01*
X122195Y94949D01*
X122254Y94918D01*
X122308Y94910D01*
X122345Y94898D01*
X122377Y94899D01*
X125361Y91915D01*
X125361Y79705D01*
X97723Y52067D01*
X97698Y52032D01*
X97667Y52004D01*
X97635Y51941D01*
X97594Y51883D01*
X97584Y51842D01*
X97564Y51804D01*
X97551Y51715D01*
X97538Y51666D01*
X97541Y51645D01*
X97537Y51619D01*
X97537Y51179D01*
X97548Y51114D01*
X97550Y51048D01*
X97568Y51005D01*
X97576Y50958D01*
X97610Y50901D01*
X97635Y50841D01*
X97666Y50806D01*
X97691Y50765D01*
X97742Y50723D01*
X97786Y50675D01*
X97828Y50653D01*
X97865Y50624D01*
X97927Y50603D01*
X97986Y50572D01*
X98040Y50564D01*
X98077Y50552D01*
X98117Y50553D01*
X98171Y50545D01*
X103382Y50545D01*
X104275Y49652D01*
X104275Y35388D01*
X103382Y34495D01*
X87118Y34495D01*
X86225Y35388D01*
X86225Y49652D01*
X87118Y50545D01*
X92329Y50545D01*
X92394Y50556D01*
X92460Y50558D01*
X92503Y50576D01*
X92550Y50584D01*
X92607Y50618D01*
X92667Y50643D01*
X92702Y50674D01*
X92743Y50699D01*
X92785Y50750D01*
X92833Y50794D01*
X92855Y50836D01*
X92884Y50873D01*
X92905Y50935D01*
X92936Y50994D01*
X92944Y51048D01*
X92956Y51085D01*
X92955Y51125D01*
X92963Y51179D01*
X92963Y53776D01*
X118390Y79203D01*
X118441Y79276D01*
X118497Y79345D01*
X118504Y79367D01*
X118518Y79387D01*
X118540Y79473D01*
X118569Y79557D01*
X118568Y79581D01*
X118574Y79604D01*
X118565Y79693D01*
X118562Y79782D01*
X118553Y79804D01*
X118551Y79827D01*
X118511Y79907D01*
X118478Y79989D01*
X118462Y80007D01*
X118451Y80028D01*
X118386Y80089D01*
X118326Y80155D01*
X118305Y80166D01*
X118288Y80182D01*
X118206Y80217D01*
X118127Y80258D01*
X118101Y80261D01*
X118081Y80270D01*
X118031Y80272D01*
X117941Y80285D01*
X113502Y80285D01*
X113460Y80278D01*
X113418Y80280D01*
X113351Y80258D01*
X113281Y80246D01*
X113245Y80224D01*
X113204Y80211D01*
X113131Y80157D01*
X113088Y80131D01*
X113075Y80115D01*
X113053Y80099D01*
X55053Y22099D01*
X53527Y20573D01*
X46205Y20573D01*
X46152Y20564D01*
X46097Y20564D01*
X46042Y20544D01*
X45984Y20534D01*
X45937Y20506D01*
X45886Y20488D01*
X45841Y20449D01*
X45791Y20419D01*
X45757Y20377D01*
X45715Y20342D01*
X45679Y20281D01*
X45649Y20245D01*
X45640Y20216D01*
X45619Y20182D01*
X44583Y17680D01*
X42010Y15107D01*
X38649Y13715D01*
X19771Y13715D01*
G37*
%LPD*%
G36*
X209118Y82306D02*
X209118Y82306D01*
X209173Y82306D01*
X209228Y82326D01*
X209286Y82336D01*
X209333Y82364D01*
X209384Y82382D01*
X209429Y82421D01*
X209479Y82451D01*
X209513Y82493D01*
X209555Y82528D01*
X209591Y82589D01*
X209621Y82625D01*
X209630Y82654D01*
X209651Y82688D01*
X210687Y85190D01*
X213260Y87763D01*
X216621Y89155D01*
X235499Y89155D01*
X238860Y87763D01*
X241433Y85190D01*
X241859Y84160D01*
X241913Y84076D01*
X241965Y83989D01*
X241974Y83982D01*
X241980Y83972D01*
X242061Y83911D01*
X242139Y83848D01*
X242150Y83844D01*
X242160Y83837D01*
X242256Y83808D01*
X242351Y83776D01*
X242363Y83776D01*
X242375Y83773D01*
X242475Y83779D01*
X242576Y83782D01*
X242587Y83787D01*
X242598Y83788D01*
X242690Y83829D01*
X242783Y83867D01*
X242792Y83875D01*
X242803Y83880D01*
X242875Y83950D01*
X242949Y84018D01*
X242955Y84029D01*
X242963Y84037D01*
X243005Y84128D01*
X243052Y84218D01*
X243054Y84231D01*
X243058Y84240D01*
X243062Y84286D01*
X243079Y84403D01*
X243079Y101017D01*
X243061Y101116D01*
X243047Y101216D01*
X243042Y101226D01*
X243040Y101238D01*
X242988Y101325D01*
X242940Y101413D01*
X242932Y101421D01*
X242925Y101431D01*
X242847Y101494D01*
X242772Y101561D01*
X242760Y101565D01*
X242751Y101572D01*
X242656Y101605D01*
X242562Y101640D01*
X242550Y101640D01*
X242539Y101644D01*
X242439Y101641D01*
X242338Y101642D01*
X242326Y101638D01*
X242314Y101638D01*
X242222Y101600D01*
X242127Y101566D01*
X242118Y101558D01*
X242107Y101553D01*
X242032Y101485D01*
X241956Y101420D01*
X241949Y101409D01*
X241941Y101402D01*
X241920Y101361D01*
X241859Y101260D01*
X241433Y100230D01*
X238860Y97657D01*
X235499Y96265D01*
X216621Y96265D01*
X213260Y97657D01*
X210687Y100230D01*
X209651Y102732D01*
X209622Y102777D01*
X209602Y102827D01*
X209562Y102871D01*
X209530Y102921D01*
X209487Y102953D01*
X209450Y102993D01*
X209398Y103020D01*
X209351Y103055D01*
X209299Y103071D01*
X209251Y103096D01*
X209180Y103106D01*
X209136Y103119D01*
X209105Y103117D01*
X209065Y103123D01*
X172323Y103123D01*
X172281Y103116D01*
X172239Y103118D01*
X172171Y103096D01*
X172102Y103084D01*
X172065Y103062D01*
X172025Y103049D01*
X171952Y102995D01*
X171909Y102969D01*
X171896Y102953D01*
X171874Y102937D01*
X166258Y97322D01*
X166221Y97268D01*
X166176Y97220D01*
X166157Y97176D01*
X166130Y97137D01*
X166114Y97074D01*
X166088Y97013D01*
X166086Y96966D01*
X166074Y96920D01*
X166081Y96855D01*
X166078Y96789D01*
X166093Y96744D01*
X166098Y96697D01*
X166127Y96638D01*
X166147Y96575D01*
X166180Y96531D01*
X166197Y96496D01*
X166226Y96469D01*
X166259Y96425D01*
X166313Y96370D01*
X166648Y95791D01*
X166821Y95145D01*
X166821Y94059D01*
X157145Y94059D01*
X157080Y94048D01*
X157015Y94046D01*
X156971Y94028D01*
X156924Y94020D01*
X156868Y93986D01*
X156807Y93961D01*
X156772Y93930D01*
X156731Y93905D01*
X156690Y93854D01*
X156641Y93810D01*
X156620Y93768D01*
X156590Y93731D01*
X156569Y93669D01*
X156539Y93610D01*
X156531Y93556D01*
X156518Y93519D01*
X156519Y93479D01*
X156511Y93425D01*
X156511Y93195D01*
X156523Y93130D01*
X156525Y93064D01*
X156542Y93021D01*
X156551Y92974D01*
X156584Y92917D01*
X156609Y92856D01*
X156641Y92822D01*
X156665Y92781D01*
X156716Y92739D01*
X156760Y92691D01*
X156802Y92669D01*
X156839Y92640D01*
X156901Y92618D01*
X156960Y92588D01*
X157014Y92580D01*
X157051Y92568D01*
X157091Y92569D01*
X157145Y92561D01*
X166821Y92561D01*
X166821Y91475D01*
X166648Y90829D01*
X166313Y90250D01*
X166259Y90195D01*
X166221Y90141D01*
X166176Y90093D01*
X166157Y90050D01*
X166130Y90011D01*
X166114Y89947D01*
X166088Y89887D01*
X166086Y89840D01*
X166074Y89794D01*
X166081Y89728D01*
X166078Y89663D01*
X166093Y89618D01*
X166098Y89571D01*
X166127Y89512D01*
X166147Y89449D01*
X166180Y89405D01*
X166197Y89370D01*
X166226Y89343D01*
X166258Y89298D01*
X173074Y82483D01*
X173109Y82458D01*
X173138Y82427D01*
X173201Y82395D01*
X173259Y82354D01*
X173300Y82344D01*
X173337Y82324D01*
X173427Y82311D01*
X173476Y82298D01*
X173497Y82301D01*
X173523Y82297D01*
X209065Y82297D01*
X209118Y82306D01*
G37*
%LPC*%
G36*
X19771Y115315D02*
X19771Y115315D01*
X16410Y116707D01*
X13837Y119280D01*
X12445Y122641D01*
X12445Y126279D01*
X13837Y129640D01*
X16410Y132213D01*
X19771Y133605D01*
X38649Y133605D01*
X42010Y132213D01*
X44583Y129640D01*
X45619Y127138D01*
X45648Y127093D01*
X45668Y127043D01*
X45708Y126999D01*
X45740Y126949D01*
X45783Y126917D01*
X45820Y126877D01*
X45872Y126850D01*
X45919Y126815D01*
X45971Y126799D01*
X46019Y126774D01*
X46090Y126764D01*
X46134Y126751D01*
X46165Y126753D01*
X46205Y126747D01*
X87037Y126747D01*
X87079Y126754D01*
X87121Y126752D01*
X87188Y126774D01*
X87258Y126786D01*
X87294Y126808D01*
X87335Y126821D01*
X87407Y126875D01*
X87451Y126901D01*
X87464Y126917D01*
X87485Y126933D01*
X88287Y127735D01*
X92053Y127735D01*
X94715Y125073D01*
X94715Y121307D01*
X92053Y118645D01*
X88287Y118645D01*
X85625Y121307D01*
X85625Y121539D01*
X85614Y121604D01*
X85612Y121670D01*
X85594Y121713D01*
X85586Y121760D01*
X85552Y121817D01*
X85527Y121877D01*
X85496Y121912D01*
X85471Y121953D01*
X85420Y121995D01*
X85376Y122043D01*
X85334Y122065D01*
X85297Y122094D01*
X85235Y122115D01*
X85176Y122146D01*
X85122Y122154D01*
X85085Y122166D01*
X85045Y122165D01*
X84991Y122173D01*
X46205Y122173D01*
X46152Y122164D01*
X46097Y122164D01*
X46042Y122144D01*
X45984Y122134D01*
X45937Y122106D01*
X45886Y122088D01*
X45841Y122049D01*
X45791Y122019D01*
X45757Y121977D01*
X45715Y121942D01*
X45679Y121881D01*
X45649Y121845D01*
X45640Y121816D01*
X45619Y121782D01*
X44583Y119280D01*
X42010Y116707D01*
X38649Y115315D01*
X19771Y115315D01*
G37*
%LPD*%
%LPC*%
G36*
X19771Y89915D02*
X19771Y89915D01*
X16410Y91307D01*
X13837Y93880D01*
X12445Y97241D01*
X12445Y100879D01*
X13837Y104240D01*
X16410Y106813D01*
X19771Y108205D01*
X38649Y108205D01*
X42010Y106813D01*
X44583Y104240D01*
X45975Y100879D01*
X45975Y100711D01*
X45986Y100646D01*
X45988Y100580D01*
X46006Y100537D01*
X46014Y100490D01*
X46048Y100433D01*
X46073Y100373D01*
X46104Y100338D01*
X46129Y100297D01*
X46180Y100255D01*
X46224Y100207D01*
X46266Y100185D01*
X46303Y100156D01*
X46365Y100135D01*
X46424Y100104D01*
X46478Y100096D01*
X46515Y100084D01*
X46555Y100085D01*
X46609Y100077D01*
X60367Y100077D01*
X60409Y100084D01*
X60451Y100082D01*
X60518Y100104D01*
X60588Y100116D01*
X60624Y100138D01*
X60665Y100151D01*
X60737Y100205D01*
X60781Y100231D01*
X60794Y100247D01*
X60815Y100263D01*
X62888Y102335D01*
X66653Y102335D01*
X69315Y99673D01*
X69315Y95907D01*
X66653Y93245D01*
X62888Y93245D01*
X60815Y95317D01*
X60780Y95342D01*
X60752Y95373D01*
X60689Y95405D01*
X60631Y95446D01*
X60590Y95456D01*
X60552Y95476D01*
X60463Y95489D01*
X60414Y95502D01*
X60393Y95499D01*
X60367Y95503D01*
X45679Y95503D01*
X45625Y95494D01*
X45571Y95494D01*
X45516Y95474D01*
X45458Y95464D01*
X45411Y95436D01*
X45360Y95418D01*
X45315Y95379D01*
X45265Y95349D01*
X45231Y95307D01*
X45189Y95272D01*
X45153Y95211D01*
X45123Y95175D01*
X45114Y95146D01*
X45093Y95112D01*
X44583Y93880D01*
X42010Y91307D01*
X38649Y89915D01*
X19771Y89915D01*
G37*
%LPD*%
%LPC*%
G36*
X134007Y128805D02*
X134007Y128805D01*
X131345Y131467D01*
X131345Y134398D01*
X131338Y134440D01*
X131340Y134482D01*
X131318Y134549D01*
X131306Y134619D01*
X131284Y134655D01*
X131271Y134696D01*
X131217Y134769D01*
X131191Y134812D01*
X131175Y134825D01*
X131159Y134847D01*
X121513Y144493D01*
X121513Y147821D01*
X121502Y147886D01*
X121500Y147952D01*
X121482Y147995D01*
X121474Y148042D01*
X121440Y148099D01*
X121415Y148159D01*
X121384Y148194D01*
X121359Y148235D01*
X121308Y148277D01*
X121264Y148325D01*
X121222Y148347D01*
X121185Y148376D01*
X121123Y148397D01*
X121064Y148428D01*
X121010Y148436D01*
X120973Y148448D01*
X120933Y148447D01*
X120879Y148455D01*
X116668Y148455D01*
X115775Y149348D01*
X115775Y165612D01*
X116668Y166505D01*
X130932Y166505D01*
X131825Y165612D01*
X131825Y149348D01*
X130932Y148455D01*
X126721Y148455D01*
X126656Y148444D01*
X126590Y148442D01*
X126547Y148424D01*
X126500Y148416D01*
X126443Y148382D01*
X126383Y148357D01*
X126348Y148326D01*
X126307Y148301D01*
X126265Y148250D01*
X126217Y148206D01*
X126195Y148164D01*
X126166Y148127D01*
X126145Y148065D01*
X126114Y148006D01*
X126106Y147952D01*
X126094Y147915D01*
X126095Y147882D01*
X126094Y147879D01*
X126094Y147870D01*
X126087Y147821D01*
X126087Y146650D01*
X126094Y146608D01*
X126092Y146566D01*
X126114Y146499D01*
X126126Y146429D01*
X126148Y146393D01*
X126161Y146352D01*
X126215Y146279D01*
X126241Y146236D01*
X126257Y146223D01*
X126273Y146201D01*
X134393Y138081D01*
X134428Y138056D01*
X134457Y138025D01*
X134520Y137993D01*
X134578Y137952D01*
X134619Y137942D01*
X134657Y137922D01*
X134746Y137909D01*
X134795Y137896D01*
X134816Y137899D01*
X134842Y137895D01*
X137773Y137895D01*
X140435Y135233D01*
X140435Y131467D01*
X137773Y128805D01*
X134007Y128805D01*
G37*
%LPD*%
%LPC*%
G36*
X30479Y151129D02*
X30479Y151129D01*
X30479Y160021D01*
X37630Y160021D01*
X39209Y159771D01*
X40730Y159276D01*
X42155Y158550D01*
X43449Y157610D01*
X44580Y156479D01*
X45520Y155185D01*
X46246Y153760D01*
X46741Y152239D01*
X46916Y151129D01*
X30479Y151129D01*
G37*
%LPD*%
%LPC*%
G36*
X11504Y151129D02*
X11504Y151129D01*
X11679Y152239D01*
X12174Y153760D01*
X12900Y155185D01*
X13840Y156479D01*
X14971Y157610D01*
X16265Y158550D01*
X17690Y159276D01*
X19211Y159771D01*
X20790Y160021D01*
X27941Y160021D01*
X27941Y151129D01*
X11504Y151129D01*
G37*
%LPD*%
%LPC*%
G36*
X30479Y139699D02*
X30479Y139699D01*
X30479Y148591D01*
X46916Y148591D01*
X46741Y147481D01*
X46246Y145960D01*
X45520Y144535D01*
X44580Y143241D01*
X43449Y142110D01*
X42155Y141170D01*
X40730Y140444D01*
X39209Y139949D01*
X37630Y139699D01*
X30479Y139699D01*
G37*
%LPD*%
%LPC*%
G36*
X20790Y139699D02*
X20790Y139699D01*
X19211Y139949D01*
X17690Y140444D01*
X16265Y141170D01*
X14971Y142110D01*
X13840Y143241D01*
X12900Y144535D01*
X12174Y145960D01*
X11679Y147481D01*
X11504Y148591D01*
X27941Y148591D01*
X27941Y139699D01*
X20790Y139699D01*
G37*
%LPD*%
%LPC*%
G36*
X194969Y158749D02*
X194969Y158749D01*
X194969Y167521D01*
X200535Y167521D01*
X201181Y167348D01*
X201760Y167013D01*
X202233Y166540D01*
X202568Y165961D01*
X202741Y165315D01*
X202741Y158749D01*
X194969Y158749D01*
G37*
%LPD*%
%LPC*%
G36*
X169519Y158749D02*
X169519Y158749D01*
X169519Y167521D01*
X175085Y167521D01*
X175731Y167348D01*
X176310Y167013D01*
X176783Y166540D01*
X177118Y165961D01*
X177291Y165315D01*
X177291Y158749D01*
X169519Y158749D01*
G37*
%LPD*%
%LPC*%
G36*
X159209Y158749D02*
X159209Y158749D01*
X159209Y165315D01*
X159382Y165961D01*
X159717Y166540D01*
X160190Y167013D01*
X160769Y167348D01*
X161415Y167521D01*
X166981Y167521D01*
X166981Y158749D01*
X159209Y158749D01*
G37*
%LPD*%
%LPC*%
G36*
X184659Y158749D02*
X184659Y158749D01*
X184659Y165315D01*
X184832Y165961D01*
X185167Y166540D01*
X185640Y167013D01*
X186219Y167348D01*
X186865Y167521D01*
X192431Y167521D01*
X192431Y158749D01*
X184659Y158749D01*
G37*
%LPD*%
%LPC*%
G36*
X169519Y147439D02*
X169519Y147439D01*
X169519Y156211D01*
X177291Y156211D01*
X177291Y149645D01*
X177118Y148999D01*
X176783Y148420D01*
X176310Y147947D01*
X175731Y147612D01*
X175085Y147439D01*
X169519Y147439D01*
G37*
%LPD*%
%LPC*%
G36*
X186865Y147439D02*
X186865Y147439D01*
X186219Y147612D01*
X185640Y147947D01*
X185167Y148420D01*
X184832Y148999D01*
X184659Y149645D01*
X184659Y156211D01*
X192431Y156211D01*
X192431Y147439D01*
X186865Y147439D01*
G37*
%LPD*%
%LPC*%
G36*
X161415Y147439D02*
X161415Y147439D01*
X160769Y147612D01*
X160190Y147947D01*
X159717Y148420D01*
X159382Y148999D01*
X159209Y149645D01*
X159209Y156211D01*
X166981Y156211D01*
X166981Y147439D01*
X161415Y147439D01*
G37*
%LPD*%
%LPC*%
G36*
X29209Y149859D02*
X29209Y149859D01*
X29209Y149861D01*
X29211Y149861D01*
X29211Y149859D01*
X29209Y149859D01*
G37*
%LPD*%
%LPC*%
G36*
X168249Y157479D02*
X168249Y157479D01*
X168249Y157481D01*
X168251Y157481D01*
X168251Y157479D01*
X168249Y157479D01*
G37*
%LPD*%
%LPC*%
G36*
X193699Y157479D02*
X193699Y157479D01*
X193699Y157481D01*
X193701Y157481D01*
X193701Y157479D01*
X193699Y157479D01*
G37*
%LPD*%
D10*
X212700Y157480D03*
X193700Y157480D03*
X149250Y157480D03*
X168250Y157480D03*
D11*
X218440Y105410D02*
X233680Y105410D01*
X233680Y80010D02*
X218440Y80010D01*
X36830Y22860D02*
X21590Y22860D01*
X21590Y48260D02*
X36830Y48260D01*
X36830Y73660D02*
X21590Y73660D01*
X21590Y99060D02*
X36830Y99060D01*
X36830Y124460D02*
X21590Y124460D01*
X21590Y149860D02*
X36830Y149860D01*
D12*
X199390Y41250D03*
X199390Y22250D03*
X95250Y42520D03*
X95250Y23520D03*
D13*
X135890Y35560D03*
X151130Y35560D03*
X166370Y35560D03*
D14*
X113030Y83310D03*
X157030Y83310D03*
X157030Y88310D03*
X113030Y88310D03*
X113030Y93310D03*
X113030Y98310D03*
X113030Y103310D03*
X157030Y93310D03*
X157030Y98310D03*
X157030Y103310D03*
D10*
X123800Y157480D03*
X104800Y157480D03*
D15*
X148833Y102096D02*
X147494Y100757D01*
X147494Y85863D02*
X148833Y84524D01*
X147494Y85863D02*
X147494Y100757D01*
X155816Y102096D02*
X157030Y103310D01*
X155816Y102096D02*
X148833Y102096D01*
X148833Y84524D02*
X155816Y84524D01*
X157030Y83310D01*
X178410Y123190D02*
X212700Y157480D01*
X178410Y123190D02*
X157792Y102572D01*
X156981Y102572D01*
X156505Y102096D01*
X155816Y102096D01*
X88900Y124460D02*
X29210Y124460D01*
X88900Y124460D02*
X90170Y123190D01*
D16*
X90170Y123190D03*
X166370Y123190D03*
D15*
X178410Y123190D01*
X151130Y77410D02*
X151130Y35560D01*
X151130Y77410D02*
X157030Y83310D01*
X157030Y93310D02*
X201260Y93310D01*
X201930Y93980D01*
D16*
X201930Y93980D03*
D15*
X168250Y146710D02*
X168250Y157480D01*
X168250Y146710D02*
X179070Y135890D01*
D16*
X179070Y135890D03*
D15*
X179070Y142850D02*
X193700Y157480D01*
X179070Y142850D02*
X179070Y135890D01*
X113030Y93310D02*
X98390Y93310D01*
X90170Y85090D01*
D16*
X90170Y85090D03*
X64770Y97790D03*
D15*
X30480Y97790D01*
X29210Y99060D01*
X121437Y92604D02*
X123074Y90967D01*
X123074Y80653D01*
X121437Y92604D02*
X113736Y92604D01*
X113030Y93310D01*
X95250Y52829D02*
X95250Y42520D01*
X95250Y52829D02*
X123074Y80653D01*
X93347Y98310D02*
X68697Y73660D01*
X93347Y98310D02*
X113030Y98310D01*
X68697Y73660D02*
X29210Y73660D01*
X176530Y53975D02*
X186977Y41739D01*
X199390Y41250D01*
D17*
X176530Y53975D03*
D15*
X113030Y83310D02*
X52580Y22860D01*
X29210Y22860D01*
X158244Y99524D02*
X165227Y99524D01*
X158244Y99524D02*
X157030Y98310D01*
X171113Y105410D02*
X226060Y105410D01*
X171113Y105410D02*
X165227Y99524D01*
X165227Y87096D02*
X158244Y87096D01*
X157030Y88310D01*
X172313Y80010D02*
X226060Y80010D01*
X172313Y80010D02*
X165227Y87096D01*
X166370Y35560D02*
X186080Y35560D01*
X199390Y22250D01*
X135890Y35560D02*
X123850Y23520D01*
X95250Y23520D01*
X120480Y103310D02*
X149250Y132080D01*
X120480Y103310D02*
X113030Y103310D01*
X149250Y132080D02*
X149250Y157480D01*
X29210Y48260D02*
X20281Y48260D01*
X6350Y62191D01*
X6350Y166370D01*
X95910Y166370D02*
X104800Y157480D01*
X95910Y166370D02*
X6350Y166370D01*
D16*
X101236Y85090D03*
D15*
X112324Y87604D02*
X113030Y88310D01*
X112324Y87604D02*
X104623Y87604D01*
X101236Y85090D02*
X101236Y84217D01*
X104623Y87604D01*
D16*
X135890Y133350D03*
D15*
X123800Y145440D01*
X123800Y157480D01*
M02*
