G04 EAGLE Gerber RS-274X export*
G75*
%MOMM*%
%FSLAX34Y34*%
%LPD*%
%INTop Copper*%
%IPPOS*%
%AMOC8*
5,1,8,0,0,1.08239X$1,22.5*%
G01*
%ADD10R,1.300000X1.500000*%
%ADD11C,1.524000*%
%ADD12R,1.500000X1.300000*%
%ADD13R,1.168400X1.600200*%
%ADD14R,1.450000X0.300000*%
%ADD15C,0.152400*%
%ADD16C,0.604000*%
%ADD17C,0.508000*%

G36*
X246320Y3822D02*
X246320Y3822D01*
X246386Y3824D01*
X246429Y3842D01*
X246476Y3850D01*
X246533Y3884D01*
X246593Y3909D01*
X246628Y3940D01*
X246669Y3965D01*
X246711Y4016D01*
X246759Y4060D01*
X246781Y4102D01*
X246810Y4139D01*
X246831Y4201D01*
X246862Y4260D01*
X246870Y4314D01*
X246882Y4351D01*
X246881Y4391D01*
X246889Y4445D01*
X246889Y211355D01*
X246878Y211420D01*
X246876Y211486D01*
X246858Y211529D01*
X246850Y211576D01*
X246816Y211633D01*
X246791Y211693D01*
X246760Y211728D01*
X246735Y211769D01*
X246684Y211811D01*
X246640Y211859D01*
X246598Y211881D01*
X246561Y211910D01*
X246499Y211931D01*
X246440Y211962D01*
X246386Y211970D01*
X246349Y211982D01*
X246309Y211981D01*
X246255Y211989D01*
X4445Y211989D01*
X4380Y211978D01*
X4314Y211976D01*
X4271Y211958D01*
X4224Y211950D01*
X4167Y211916D01*
X4107Y211891D01*
X4072Y211860D01*
X4031Y211835D01*
X3989Y211784D01*
X3941Y211740D01*
X3919Y211698D01*
X3890Y211661D01*
X3869Y211599D01*
X3838Y211540D01*
X3830Y211486D01*
X3818Y211449D01*
X3819Y211409D01*
X3811Y211355D01*
X3811Y173101D01*
X3822Y173036D01*
X3824Y172970D01*
X3842Y172927D01*
X3850Y172880D01*
X3884Y172823D01*
X3909Y172763D01*
X3940Y172728D01*
X3965Y172687D01*
X4016Y172645D01*
X4060Y172597D01*
X4102Y172575D01*
X4139Y172546D01*
X4201Y172525D01*
X4260Y172494D01*
X4314Y172486D01*
X4351Y172474D01*
X4391Y172475D01*
X4445Y172467D01*
X95587Y172467D01*
X97553Y170501D01*
X97588Y170476D01*
X97617Y170445D01*
X97680Y170413D01*
X97738Y170372D01*
X97779Y170362D01*
X97817Y170342D01*
X97906Y170329D01*
X97955Y170316D01*
X97976Y170319D01*
X98002Y170315D01*
X110662Y170315D01*
X111555Y169422D01*
X111555Y153158D01*
X110662Y152265D01*
X96398Y152265D01*
X95505Y153158D01*
X95505Y165818D01*
X95498Y165860D01*
X95500Y165902D01*
X95478Y165969D01*
X95466Y166039D01*
X95444Y166075D01*
X95431Y166116D01*
X95377Y166189D01*
X95351Y166232D01*
X95335Y166245D01*
X95319Y166267D01*
X93879Y167707D01*
X93844Y167732D01*
X93815Y167763D01*
X93752Y167795D01*
X93694Y167836D01*
X93653Y167846D01*
X93615Y167866D01*
X93526Y167879D01*
X93477Y167892D01*
X93456Y167889D01*
X93430Y167893D01*
X8001Y167893D01*
X7936Y167882D01*
X7870Y167880D01*
X7827Y167862D01*
X7780Y167854D01*
X7723Y167820D01*
X7663Y167795D01*
X7628Y167764D01*
X7587Y167739D01*
X7545Y167688D01*
X7497Y167644D01*
X7475Y167602D01*
X7446Y167565D01*
X7425Y167503D01*
X7394Y167444D01*
X7386Y167390D01*
X7374Y167353D01*
X7375Y167313D01*
X7367Y167259D01*
X7367Y67211D01*
X7374Y67169D01*
X7372Y67126D01*
X7394Y67059D01*
X7406Y66990D01*
X7428Y66953D01*
X7441Y66913D01*
X7495Y66840D01*
X7521Y66797D01*
X7537Y66783D01*
X7553Y66762D01*
X14382Y59932D01*
X14427Y59902D01*
X14465Y59863D01*
X14518Y59838D01*
X14566Y59804D01*
X14619Y59791D01*
X14668Y59768D01*
X14727Y59763D01*
X14784Y59748D01*
X14838Y59754D01*
X14892Y59750D01*
X14961Y59767D01*
X15007Y59772D01*
X15034Y59785D01*
X15073Y59795D01*
X18501Y61215D01*
X37379Y61215D01*
X40740Y59823D01*
X43313Y57250D01*
X44705Y53889D01*
X44705Y50251D01*
X43313Y46890D01*
X40740Y44317D01*
X37379Y42925D01*
X18501Y42925D01*
X15140Y44317D01*
X12567Y46890D01*
X11175Y50251D01*
X11175Y53889D01*
X11828Y55465D01*
X11840Y55518D01*
X11861Y55568D01*
X11863Y55627D01*
X11876Y55684D01*
X11868Y55738D01*
X11871Y55792D01*
X11853Y55848D01*
X11844Y55906D01*
X11819Y55954D01*
X11802Y56006D01*
X11760Y56063D01*
X11738Y56104D01*
X11714Y56124D01*
X11691Y56156D01*
X4893Y62953D01*
X4820Y63004D01*
X4751Y63060D01*
X4729Y63068D01*
X4709Y63081D01*
X4623Y63104D01*
X4539Y63132D01*
X4515Y63131D01*
X4492Y63137D01*
X4403Y63128D01*
X4314Y63126D01*
X4292Y63117D01*
X4269Y63114D01*
X4189Y63075D01*
X4107Y63041D01*
X4089Y63025D01*
X4068Y63015D01*
X4006Y62950D01*
X3941Y62890D01*
X3930Y62869D01*
X3914Y62851D01*
X3879Y62770D01*
X3838Y62690D01*
X3835Y62664D01*
X3826Y62645D01*
X3824Y62594D01*
X3811Y62505D01*
X3811Y4445D01*
X3822Y4380D01*
X3824Y4314D01*
X3842Y4271D01*
X3850Y4224D01*
X3884Y4167D01*
X3909Y4107D01*
X3940Y4072D01*
X3965Y4031D01*
X4016Y3989D01*
X4060Y3941D01*
X4102Y3919D01*
X4139Y3890D01*
X4201Y3869D01*
X4260Y3838D01*
X4314Y3830D01*
X4351Y3818D01*
X4391Y3819D01*
X4445Y3811D01*
X246255Y3811D01*
X246320Y3822D01*
G37*
%LPC*%
G36*
X189988Y18035D02*
X189988Y18035D01*
X189095Y18928D01*
X189095Y31588D01*
X189088Y31630D01*
X189090Y31672D01*
X189068Y31739D01*
X189056Y31809D01*
X189034Y31845D01*
X189021Y31886D01*
X188967Y31959D01*
X188941Y32002D01*
X188925Y32015D01*
X188909Y32037D01*
X184049Y36897D01*
X184014Y36922D01*
X183985Y36953D01*
X183922Y36985D01*
X183864Y37026D01*
X183823Y37036D01*
X183785Y37056D01*
X183696Y37069D01*
X183647Y37082D01*
X183626Y37079D01*
X183600Y37083D01*
X173101Y37083D01*
X173036Y37072D01*
X172970Y37070D01*
X172927Y37052D01*
X172880Y37044D01*
X172823Y37010D01*
X172763Y36985D01*
X172728Y36954D01*
X172687Y36929D01*
X172645Y36878D01*
X172597Y36834D01*
X172575Y36792D01*
X172546Y36755D01*
X172525Y36693D01*
X172494Y36634D01*
X172486Y36580D01*
X172474Y36543D01*
X172475Y36503D01*
X172467Y36449D01*
X172467Y30737D01*
X171574Y29844D01*
X158626Y29844D01*
X157928Y30542D01*
X157874Y30580D01*
X157827Y30625D01*
X157783Y30643D01*
X157744Y30670D01*
X157681Y30687D01*
X157620Y30712D01*
X157573Y30714D01*
X157527Y30726D01*
X157462Y30719D01*
X157396Y30722D01*
X157351Y30708D01*
X157304Y30703D01*
X157245Y30674D01*
X157182Y30654D01*
X157138Y30621D01*
X157103Y30604D01*
X157076Y30575D01*
X157031Y30542D01*
X156334Y29844D01*
X143386Y29844D01*
X142688Y30542D01*
X142634Y30580D01*
X142587Y30625D01*
X142543Y30643D01*
X142504Y30670D01*
X142441Y30687D01*
X142380Y30712D01*
X142333Y30714D01*
X142287Y30726D01*
X142222Y30719D01*
X142156Y30722D01*
X142111Y30708D01*
X142064Y30703D01*
X142005Y30674D01*
X141942Y30654D01*
X141898Y30621D01*
X141863Y30604D01*
X141836Y30575D01*
X141791Y30542D01*
X141094Y29844D01*
X128591Y29844D01*
X128549Y29837D01*
X128507Y29839D01*
X128440Y29817D01*
X128370Y29805D01*
X128334Y29783D01*
X128293Y29770D01*
X128220Y29716D01*
X128177Y29690D01*
X128164Y29674D01*
X128142Y29658D01*
X123527Y25043D01*
X103639Y25043D01*
X103574Y25032D01*
X103508Y25030D01*
X103465Y25012D01*
X103418Y25004D01*
X103361Y24970D01*
X103301Y24945D01*
X103266Y24914D01*
X103225Y24889D01*
X103183Y24838D01*
X103135Y24794D01*
X103113Y24752D01*
X103084Y24715D01*
X103063Y24653D01*
X103032Y24594D01*
X103024Y24540D01*
X103012Y24503D01*
X103013Y24463D01*
X103005Y24409D01*
X103005Y20198D01*
X102112Y19305D01*
X85848Y19305D01*
X84955Y20198D01*
X84955Y34462D01*
X85848Y35355D01*
X102112Y35355D01*
X103005Y34462D01*
X103005Y30251D01*
X103016Y30186D01*
X103018Y30120D01*
X103036Y30077D01*
X103044Y30030D01*
X103078Y29973D01*
X103103Y29913D01*
X103134Y29878D01*
X103159Y29837D01*
X103210Y29795D01*
X103254Y29747D01*
X103296Y29725D01*
X103333Y29696D01*
X103395Y29675D01*
X103454Y29644D01*
X103508Y29636D01*
X103545Y29624D01*
X103585Y29625D01*
X103639Y29617D01*
X121370Y29617D01*
X121412Y29624D01*
X121454Y29622D01*
X121521Y29644D01*
X121591Y29656D01*
X121627Y29678D01*
X121668Y29691D01*
X121741Y29745D01*
X121784Y29771D01*
X121797Y29787D01*
X121819Y29803D01*
X127067Y35051D01*
X127092Y35086D01*
X127123Y35115D01*
X127155Y35178D01*
X127196Y35236D01*
X127206Y35277D01*
X127226Y35315D01*
X127239Y35404D01*
X127243Y35420D01*
X127246Y35430D01*
X127246Y35432D01*
X127252Y35453D01*
X127249Y35474D01*
X127253Y35500D01*
X127253Y48003D01*
X128146Y48896D01*
X141094Y48896D01*
X141791Y48198D01*
X141846Y48160D01*
X141893Y48115D01*
X141937Y48097D01*
X141976Y48070D01*
X142039Y48053D01*
X142100Y48028D01*
X142147Y48026D01*
X142193Y48014D01*
X142258Y48021D01*
X142324Y48018D01*
X142369Y48032D01*
X142416Y48037D01*
X142475Y48066D01*
X142538Y48086D01*
X142582Y48119D01*
X142617Y48136D01*
X142644Y48165D01*
X142688Y48198D01*
X143386Y48896D01*
X146939Y48896D01*
X147004Y48907D01*
X147070Y48909D01*
X147113Y48927D01*
X147160Y48935D01*
X147217Y48969D01*
X147277Y48994D01*
X147312Y49025D01*
X147353Y49050D01*
X147395Y49101D01*
X147443Y49145D01*
X147465Y49187D01*
X147494Y49224D01*
X147515Y49286D01*
X147546Y49345D01*
X147554Y49399D01*
X147566Y49436D01*
X147565Y49476D01*
X147573Y49530D01*
X147573Y82167D01*
X148419Y83013D01*
X148469Y83086D01*
X148526Y83155D01*
X148533Y83177D01*
X148547Y83197D01*
X148569Y83283D01*
X148597Y83367D01*
X148597Y83391D01*
X148603Y83414D01*
X148593Y83503D01*
X148591Y83592D01*
X148582Y83614D01*
X148579Y83637D01*
X148540Y83717D01*
X148507Y83799D01*
X148491Y83817D01*
X148480Y83838D01*
X148415Y83899D01*
X148355Y83965D01*
X148334Y83976D01*
X148317Y83992D01*
X148235Y84027D01*
X148156Y84068D01*
X148129Y84071D01*
X148110Y84080D01*
X148060Y84082D01*
X147970Y84095D01*
X147878Y84095D01*
X146985Y84988D01*
X146985Y85415D01*
X146978Y85457D01*
X146980Y85499D01*
X146958Y85567D01*
X146946Y85636D01*
X146924Y85673D01*
X146911Y85713D01*
X146857Y85786D01*
X146831Y85829D01*
X146815Y85842D01*
X146799Y85864D01*
X145091Y87573D01*
X143937Y88726D01*
X143937Y105514D01*
X146799Y108376D01*
X146824Y108411D01*
X146855Y108440D01*
X146887Y108503D01*
X146928Y108561D01*
X146938Y108602D01*
X146958Y108639D01*
X146971Y108729D01*
X146984Y108778D01*
X146981Y108799D01*
X146985Y108825D01*
X146985Y109252D01*
X147878Y110145D01*
X156788Y110145D01*
X156830Y110152D01*
X156872Y110150D01*
X156939Y110172D01*
X157009Y110184D01*
X157045Y110206D01*
X157086Y110219D01*
X157159Y110273D01*
X157202Y110299D01*
X157215Y110315D01*
X157237Y110331D01*
X170537Y123631D01*
X170587Y123704D01*
X170644Y123773D01*
X170651Y123795D01*
X170665Y123815D01*
X170687Y123901D01*
X170715Y123985D01*
X170715Y124009D01*
X170721Y124032D01*
X170711Y124121D01*
X170709Y124210D01*
X170700Y124232D01*
X170697Y124255D01*
X170658Y124335D01*
X170625Y124417D01*
X170609Y124435D01*
X170598Y124456D01*
X170533Y124517D01*
X170473Y124583D01*
X170452Y124594D01*
X170435Y124610D01*
X170353Y124645D01*
X170274Y124686D01*
X170247Y124689D01*
X170228Y124698D01*
X170178Y124700D01*
X170088Y124713D01*
X169503Y124713D01*
X169461Y124706D01*
X169419Y124708D01*
X169352Y124686D01*
X169282Y124674D01*
X169246Y124652D01*
X169205Y124639D01*
X169133Y124585D01*
X169089Y124559D01*
X169076Y124543D01*
X169055Y124527D01*
X166983Y122455D01*
X163217Y122455D01*
X160555Y125117D01*
X160555Y128883D01*
X163217Y131545D01*
X166983Y131545D01*
X169055Y129473D01*
X169090Y129448D01*
X169118Y129417D01*
X169181Y129385D01*
X169239Y129344D01*
X169280Y129334D01*
X169318Y129314D01*
X169407Y129301D01*
X169456Y129288D01*
X169477Y129291D01*
X169503Y129287D01*
X175930Y129287D01*
X175972Y129294D01*
X176014Y129292D01*
X176081Y129314D01*
X176151Y129326D01*
X176187Y129348D01*
X176228Y129361D01*
X176301Y129415D01*
X176344Y129441D01*
X176357Y129457D01*
X176379Y129473D01*
X197073Y150167D01*
X197123Y150240D01*
X197180Y150309D01*
X197187Y150331D01*
X197201Y150351D01*
X197223Y150437D01*
X197251Y150521D01*
X197251Y150545D01*
X197257Y150568D01*
X197247Y150657D01*
X197245Y150746D01*
X197236Y150768D01*
X197233Y150791D01*
X197194Y150871D01*
X197161Y150953D01*
X197145Y150971D01*
X197134Y150992D01*
X197069Y151053D01*
X197009Y151119D01*
X196988Y151130D01*
X196971Y151146D01*
X196889Y151181D01*
X196810Y151222D01*
X196783Y151225D01*
X196764Y151234D01*
X196714Y151236D01*
X196624Y151249D01*
X193699Y151249D01*
X193699Y160021D01*
X201471Y160021D01*
X201471Y156096D01*
X201486Y156008D01*
X201496Y155920D01*
X201506Y155898D01*
X201510Y155875D01*
X201556Y155798D01*
X201595Y155719D01*
X201612Y155702D01*
X201625Y155682D01*
X201694Y155626D01*
X201758Y155565D01*
X201780Y155555D01*
X201799Y155540D01*
X201883Y155512D01*
X201965Y155477D01*
X201989Y155476D01*
X202011Y155469D01*
X202100Y155471D01*
X202189Y155467D01*
X202212Y155475D01*
X202236Y155475D01*
X202318Y155509D01*
X202403Y155536D01*
X202424Y155552D01*
X202443Y155559D01*
X202481Y155594D01*
X202553Y155647D01*
X203220Y156313D01*
X203244Y156348D01*
X203275Y156377D01*
X203307Y156440D01*
X203348Y156498D01*
X203358Y156539D01*
X203378Y156577D01*
X203391Y156666D01*
X203404Y156715D01*
X203401Y156736D01*
X203405Y156762D01*
X203405Y169422D01*
X204298Y170315D01*
X218562Y170315D01*
X219455Y169422D01*
X219455Y153158D01*
X218562Y152265D01*
X205902Y152265D01*
X205860Y152258D01*
X205818Y152260D01*
X205751Y152238D01*
X205681Y152226D01*
X205645Y152204D01*
X205604Y152191D01*
X205531Y152137D01*
X205488Y152111D01*
X205475Y152095D01*
X205453Y152079D01*
X164029Y110655D01*
X163991Y110601D01*
X163946Y110553D01*
X163927Y110509D01*
X163901Y110470D01*
X163884Y110407D01*
X163858Y110346D01*
X163856Y110299D01*
X163845Y110253D01*
X163851Y110188D01*
X163848Y110122D01*
X163863Y110077D01*
X163868Y110030D01*
X163897Y109971D01*
X163917Y109908D01*
X163950Y109864D01*
X163967Y109829D01*
X163996Y109802D01*
X164029Y109758D01*
X164535Y109252D01*
X164535Y108677D01*
X164551Y108589D01*
X164560Y108501D01*
X164570Y108480D01*
X164574Y108456D01*
X164620Y108380D01*
X164659Y108300D01*
X164676Y108283D01*
X164689Y108263D01*
X164758Y108207D01*
X164822Y108146D01*
X164844Y108137D01*
X164863Y108122D01*
X164947Y108093D01*
X165029Y108058D01*
X165053Y108057D01*
X165075Y108050D01*
X165164Y108052D01*
X165253Y108048D01*
X165276Y108056D01*
X165300Y108056D01*
X165382Y108090D01*
X165467Y108117D01*
X165488Y108133D01*
X165507Y108141D01*
X165545Y108175D01*
X165617Y108229D01*
X168896Y111507D01*
X207795Y111507D01*
X207848Y111516D01*
X207903Y111516D01*
X207958Y111536D01*
X208016Y111546D01*
X208063Y111574D01*
X208114Y111592D01*
X208159Y111631D01*
X208209Y111661D01*
X208243Y111703D01*
X208285Y111738D01*
X208321Y111799D01*
X208351Y111835D01*
X208360Y111864D01*
X208381Y111898D01*
X209417Y114400D01*
X211990Y116973D01*
X215351Y118365D01*
X234229Y118365D01*
X237590Y116973D01*
X240163Y114400D01*
X241555Y111039D01*
X241555Y107401D01*
X240163Y104040D01*
X237590Y101467D01*
X234229Y100075D01*
X215351Y100075D01*
X211990Y101467D01*
X209417Y104040D01*
X208381Y106542D01*
X208352Y106587D01*
X208332Y106637D01*
X208292Y106681D01*
X208260Y106731D01*
X208217Y106763D01*
X208180Y106803D01*
X208128Y106830D01*
X208081Y106865D01*
X208029Y106881D01*
X207981Y106906D01*
X207910Y106916D01*
X207866Y106929D01*
X207835Y106927D01*
X207795Y106933D01*
X171053Y106933D01*
X171011Y106926D01*
X170969Y106928D01*
X170901Y106906D01*
X170832Y106894D01*
X170795Y106872D01*
X170755Y106859D01*
X170682Y106805D01*
X170639Y106779D01*
X170626Y106763D01*
X170604Y106747D01*
X164988Y101132D01*
X164951Y101078D01*
X164906Y101030D01*
X164887Y100986D01*
X164860Y100947D01*
X164844Y100884D01*
X164818Y100823D01*
X164816Y100776D01*
X164804Y100730D01*
X164811Y100665D01*
X164808Y100599D01*
X164823Y100554D01*
X164828Y100507D01*
X164857Y100448D01*
X164877Y100385D01*
X164910Y100341D01*
X164927Y100306D01*
X164956Y100279D01*
X164989Y100235D01*
X165043Y100180D01*
X165378Y99601D01*
X165551Y98955D01*
X165551Y97869D01*
X155875Y97869D01*
X155810Y97858D01*
X155745Y97856D01*
X155701Y97838D01*
X155654Y97830D01*
X155598Y97796D01*
X155537Y97771D01*
X155502Y97740D01*
X155461Y97715D01*
X155420Y97664D01*
X155371Y97620D01*
X155350Y97578D01*
X155320Y97541D01*
X155299Y97479D01*
X155269Y97420D01*
X155261Y97366D01*
X155248Y97329D01*
X155249Y97289D01*
X155241Y97235D01*
X155241Y97005D01*
X155253Y96940D01*
X155255Y96874D01*
X155272Y96831D01*
X155281Y96784D01*
X155314Y96727D01*
X155339Y96666D01*
X155371Y96632D01*
X155395Y96591D01*
X155446Y96549D01*
X155490Y96501D01*
X155532Y96479D01*
X155569Y96450D01*
X155631Y96428D01*
X155690Y96398D01*
X155744Y96390D01*
X155781Y96378D01*
X155821Y96379D01*
X155875Y96371D01*
X165551Y96371D01*
X165551Y95285D01*
X165378Y94639D01*
X165043Y94060D01*
X164989Y94005D01*
X164951Y93951D01*
X164906Y93903D01*
X164887Y93860D01*
X164860Y93821D01*
X164844Y93757D01*
X164818Y93697D01*
X164816Y93650D01*
X164804Y93604D01*
X164811Y93538D01*
X164808Y93473D01*
X164823Y93428D01*
X164828Y93381D01*
X164857Y93322D01*
X164877Y93259D01*
X164910Y93215D01*
X164927Y93180D01*
X164956Y93153D01*
X164988Y93108D01*
X171804Y86293D01*
X171839Y86268D01*
X171868Y86237D01*
X171931Y86205D01*
X171989Y86164D01*
X172030Y86154D01*
X172067Y86134D01*
X172157Y86121D01*
X172206Y86108D01*
X172227Y86111D01*
X172253Y86107D01*
X207795Y86107D01*
X207848Y86116D01*
X207903Y86116D01*
X207958Y86136D01*
X208016Y86146D01*
X208063Y86174D01*
X208114Y86192D01*
X208159Y86231D01*
X208209Y86261D01*
X208243Y86303D01*
X208285Y86338D01*
X208321Y86399D01*
X208351Y86435D01*
X208360Y86464D01*
X208381Y86498D01*
X209417Y89000D01*
X211990Y91573D01*
X215351Y92965D01*
X234229Y92965D01*
X237590Y91573D01*
X240163Y89000D01*
X241555Y85639D01*
X241555Y82001D01*
X240163Y78640D01*
X237590Y76067D01*
X234229Y74675D01*
X215351Y74675D01*
X211990Y76067D01*
X209417Y78640D01*
X208381Y81142D01*
X208352Y81187D01*
X208332Y81237D01*
X208292Y81281D01*
X208260Y81331D01*
X208217Y81363D01*
X208180Y81403D01*
X208128Y81430D01*
X208081Y81465D01*
X208029Y81481D01*
X207981Y81506D01*
X207910Y81516D01*
X207866Y81529D01*
X207835Y81527D01*
X207795Y81533D01*
X170096Y81533D01*
X165617Y86011D01*
X165544Y86062D01*
X165475Y86118D01*
X165453Y86126D01*
X165433Y86140D01*
X165347Y86162D01*
X165263Y86190D01*
X165239Y86190D01*
X165216Y86196D01*
X165127Y86186D01*
X165038Y86184D01*
X165016Y86175D01*
X164993Y86172D01*
X164913Y86133D01*
X164831Y86099D01*
X164813Y86083D01*
X164792Y86073D01*
X164730Y86008D01*
X164665Y85948D01*
X164654Y85927D01*
X164638Y85910D01*
X164603Y85828D01*
X164562Y85748D01*
X164559Y85722D01*
X164550Y85703D01*
X164548Y85653D01*
X164535Y85563D01*
X164535Y84988D01*
X163642Y84095D01*
X156232Y84095D01*
X156190Y84088D01*
X156148Y84090D01*
X156081Y84068D01*
X156011Y84056D01*
X155975Y84034D01*
X155934Y84021D01*
X155861Y83967D01*
X155818Y83941D01*
X155805Y83925D01*
X155783Y83909D01*
X152333Y80459D01*
X152308Y80424D01*
X152277Y80395D01*
X152245Y80332D01*
X152204Y80274D01*
X152194Y80233D01*
X152174Y80195D01*
X152161Y80106D01*
X152148Y80057D01*
X152151Y80036D01*
X152147Y80010D01*
X152147Y49530D01*
X152158Y49465D01*
X152160Y49399D01*
X152178Y49356D01*
X152186Y49309D01*
X152220Y49252D01*
X152245Y49192D01*
X152276Y49157D01*
X152301Y49116D01*
X152352Y49074D01*
X152396Y49026D01*
X152438Y49004D01*
X152475Y48975D01*
X152537Y48954D01*
X152596Y48923D01*
X152650Y48915D01*
X152687Y48903D01*
X152727Y48904D01*
X152781Y48896D01*
X156334Y48896D01*
X157031Y48198D01*
X157086Y48160D01*
X157133Y48115D01*
X157177Y48097D01*
X157216Y48070D01*
X157279Y48053D01*
X157340Y48028D01*
X157387Y48026D01*
X157433Y48014D01*
X157498Y48021D01*
X157564Y48018D01*
X157609Y48032D01*
X157656Y48037D01*
X157715Y48066D01*
X157778Y48086D01*
X157822Y48119D01*
X157857Y48136D01*
X157884Y48165D01*
X157928Y48198D01*
X158626Y48896D01*
X171574Y48896D01*
X172467Y48003D01*
X172467Y42291D01*
X172478Y42226D01*
X172480Y42160D01*
X172498Y42117D01*
X172506Y42070D01*
X172540Y42013D01*
X172565Y41953D01*
X172596Y41918D01*
X172621Y41877D01*
X172672Y41835D01*
X172716Y41787D01*
X172758Y41765D01*
X172795Y41736D01*
X172857Y41715D01*
X172916Y41684D01*
X172970Y41676D01*
X173007Y41664D01*
X173047Y41665D01*
X173101Y41657D01*
X185757Y41657D01*
X188013Y39401D01*
X188086Y39351D01*
X188155Y39294D01*
X188177Y39287D01*
X188197Y39273D01*
X188283Y39251D01*
X188367Y39223D01*
X188391Y39223D01*
X188414Y39217D01*
X188503Y39227D01*
X188592Y39229D01*
X188614Y39238D01*
X188637Y39241D01*
X188717Y39280D01*
X188799Y39313D01*
X188817Y39329D01*
X188838Y39340D01*
X188899Y39405D01*
X188965Y39465D01*
X188976Y39486D01*
X188992Y39503D01*
X189027Y39585D01*
X189068Y39664D01*
X189071Y39691D01*
X189080Y39710D01*
X189082Y39760D01*
X189095Y39850D01*
X189095Y42517D01*
X189086Y42570D01*
X189086Y42623D01*
X189066Y42679D01*
X189056Y42738D01*
X189028Y42784D01*
X189010Y42834D01*
X188972Y42880D01*
X188941Y42931D01*
X188900Y42965D01*
X188866Y43006D01*
X188814Y43035D01*
X188767Y43072D01*
X188717Y43090D01*
X188670Y43116D01*
X188599Y43129D01*
X188555Y43144D01*
X188525Y43143D01*
X188486Y43151D01*
X186760Y43219D01*
X186730Y43215D01*
X186700Y43218D01*
X186619Y43199D01*
X186545Y43189D01*
X185585Y43265D01*
X185574Y43263D01*
X185560Y43266D01*
X184618Y43303D01*
X184006Y44020D01*
X183997Y44027D01*
X183989Y44039D01*
X183331Y44751D01*
X183325Y44774D01*
X183261Y44877D01*
X183240Y44916D01*
X183232Y44923D01*
X183226Y44933D01*
X175914Y53498D01*
X175862Y53540D01*
X175816Y53590D01*
X175775Y53611D01*
X175740Y53640D01*
X175676Y53662D01*
X175617Y53693D01*
X175564Y53700D01*
X175528Y53713D01*
X175487Y53712D01*
X175431Y53720D01*
X173576Y53720D01*
X171195Y56101D01*
X171195Y59469D01*
X173576Y61850D01*
X176944Y61850D01*
X179325Y59469D01*
X179325Y56780D01*
X179328Y56763D01*
X179326Y56745D01*
X179348Y56653D01*
X179364Y56559D01*
X179373Y56544D01*
X179377Y56527D01*
X179477Y56368D01*
X186617Y48005D01*
X186659Y47971D01*
X186695Y47929D01*
X186745Y47900D01*
X186790Y47863D01*
X186842Y47845D01*
X186890Y47818D01*
X186959Y47805D01*
X187002Y47790D01*
X187034Y47791D01*
X187074Y47783D01*
X188436Y47730D01*
X188513Y47741D01*
X188592Y47743D01*
X188624Y47756D01*
X188658Y47761D01*
X188727Y47798D01*
X188799Y47827D01*
X188825Y47851D01*
X188856Y47867D01*
X188908Y47926D01*
X188965Y47979D01*
X188981Y48009D01*
X189004Y48036D01*
X189032Y48109D01*
X189068Y48178D01*
X189073Y48217D01*
X189084Y48245D01*
X189085Y48292D01*
X189095Y48364D01*
X189095Y52192D01*
X189988Y53085D01*
X206252Y53085D01*
X207145Y52192D01*
X207145Y37928D01*
X206252Y37035D01*
X191910Y37035D01*
X191822Y37019D01*
X191734Y37010D01*
X191712Y37000D01*
X191689Y36996D01*
X191612Y36950D01*
X191533Y36911D01*
X191516Y36894D01*
X191496Y36881D01*
X191440Y36812D01*
X191379Y36748D01*
X191369Y36726D01*
X191354Y36707D01*
X191326Y36623D01*
X191291Y36541D01*
X191290Y36517D01*
X191283Y36495D01*
X191285Y36406D01*
X191281Y36317D01*
X191289Y36294D01*
X191289Y36270D01*
X191323Y36188D01*
X191350Y36103D01*
X191366Y36082D01*
X191373Y36063D01*
X191408Y36025D01*
X191461Y35953D01*
X193143Y34270D01*
X193178Y34246D01*
X193207Y34215D01*
X193270Y34183D01*
X193328Y34142D01*
X193369Y34132D01*
X193407Y34112D01*
X193496Y34099D01*
X193545Y34086D01*
X193566Y34089D01*
X193592Y34085D01*
X206252Y34085D01*
X207145Y33192D01*
X207145Y18928D01*
X206252Y18035D01*
X189988Y18035D01*
G37*
%LPD*%
%LPC*%
G36*
X18501Y17525D02*
X18501Y17525D01*
X15140Y18917D01*
X12567Y21490D01*
X11175Y24851D01*
X11175Y28489D01*
X12567Y31850D01*
X15140Y34423D01*
X18501Y35815D01*
X37379Y35815D01*
X40740Y34423D01*
X43313Y31850D01*
X44349Y29348D01*
X44378Y29303D01*
X44398Y29253D01*
X44438Y29209D01*
X44470Y29159D01*
X44513Y29127D01*
X44550Y29087D01*
X44602Y29060D01*
X44649Y29025D01*
X44701Y29009D01*
X44749Y28984D01*
X44820Y28974D01*
X44864Y28961D01*
X44895Y28963D01*
X44935Y28957D01*
X50100Y28957D01*
X50142Y28964D01*
X50184Y28962D01*
X50251Y28984D01*
X50321Y28996D01*
X50357Y29018D01*
X50398Y29031D01*
X50471Y29085D01*
X50514Y29111D01*
X50527Y29127D01*
X50549Y29143D01*
X104419Y83013D01*
X104469Y83086D01*
X104526Y83155D01*
X104533Y83177D01*
X104547Y83197D01*
X104569Y83283D01*
X104597Y83367D01*
X104597Y83391D01*
X104603Y83414D01*
X104593Y83503D01*
X104591Y83592D01*
X104582Y83614D01*
X104579Y83637D01*
X104540Y83717D01*
X104507Y83799D01*
X104491Y83817D01*
X104480Y83838D01*
X104415Y83899D01*
X104355Y83965D01*
X104334Y83976D01*
X104317Y83992D01*
X104235Y84027D01*
X104156Y84068D01*
X104129Y84071D01*
X104110Y84080D01*
X104060Y84082D01*
X103970Y84095D01*
X103878Y84095D01*
X103182Y84792D01*
X103128Y84829D01*
X103080Y84874D01*
X103037Y84893D01*
X102998Y84920D01*
X102934Y84936D01*
X102873Y84962D01*
X102826Y84964D01*
X102780Y84976D01*
X102715Y84969D01*
X102649Y84972D01*
X102604Y84957D01*
X102557Y84953D01*
X102498Y84923D01*
X102436Y84903D01*
X102392Y84871D01*
X102356Y84853D01*
X102329Y84824D01*
X102285Y84792D01*
X101848Y84355D01*
X98083Y84355D01*
X95421Y87017D01*
X95421Y90656D01*
X95406Y90744D01*
X95396Y90832D01*
X95386Y90854D01*
X95382Y90877D01*
X95336Y90954D01*
X95297Y91033D01*
X95280Y91050D01*
X95267Y91070D01*
X95198Y91126D01*
X95134Y91187D01*
X95112Y91197D01*
X95093Y91212D01*
X95009Y91240D01*
X94927Y91275D01*
X94903Y91276D01*
X94881Y91283D01*
X94792Y91281D01*
X94703Y91285D01*
X94680Y91277D01*
X94656Y91277D01*
X94574Y91243D01*
X94489Y91216D01*
X94468Y91200D01*
X94449Y91193D01*
X94411Y91158D01*
X94339Y91105D01*
X93630Y90397D01*
X93606Y90362D01*
X93575Y90333D01*
X93543Y90270D01*
X93502Y90212D01*
X93492Y90171D01*
X93472Y90133D01*
X93459Y90044D01*
X93446Y89995D01*
X93449Y89974D01*
X93445Y89948D01*
X93445Y87017D01*
X90783Y84355D01*
X87017Y84355D01*
X84355Y87017D01*
X84355Y89633D01*
X84339Y89721D01*
X84330Y89809D01*
X84320Y89830D01*
X84316Y89854D01*
X84270Y89931D01*
X84231Y90010D01*
X84214Y90027D01*
X84201Y90047D01*
X84132Y90103D01*
X84068Y90164D01*
X84046Y90173D01*
X84027Y90188D01*
X83943Y90217D01*
X83861Y90252D01*
X83837Y90253D01*
X83815Y90260D01*
X83726Y90258D01*
X83637Y90262D01*
X83614Y90254D01*
X83590Y90254D01*
X83508Y90220D01*
X83423Y90193D01*
X83402Y90177D01*
X83383Y90169D01*
X83345Y90135D01*
X83273Y90081D01*
X69900Y76709D01*
X68374Y75183D01*
X44935Y75183D01*
X44882Y75174D01*
X44827Y75174D01*
X44772Y75154D01*
X44714Y75144D01*
X44667Y75116D01*
X44616Y75098D01*
X44571Y75059D01*
X44521Y75029D01*
X44487Y74987D01*
X44445Y74952D01*
X44409Y74891D01*
X44379Y74855D01*
X44370Y74826D01*
X44349Y74792D01*
X43313Y72290D01*
X40740Y69717D01*
X37379Y68325D01*
X18501Y68325D01*
X15140Y69717D01*
X12567Y72290D01*
X11175Y75651D01*
X11175Y79289D01*
X12567Y82650D01*
X15140Y85223D01*
X18501Y86615D01*
X37379Y86615D01*
X40740Y85223D01*
X43313Y82650D01*
X44349Y80148D01*
X44378Y80103D01*
X44398Y80053D01*
X44438Y80009D01*
X44470Y79959D01*
X44513Y79927D01*
X44550Y79887D01*
X44602Y79860D01*
X44649Y79825D01*
X44701Y79809D01*
X44749Y79784D01*
X44820Y79774D01*
X44864Y79761D01*
X44895Y79763D01*
X44935Y79757D01*
X66217Y79757D01*
X66259Y79764D01*
X66301Y79762D01*
X66369Y79784D01*
X66438Y79796D01*
X66475Y79818D01*
X66515Y79831D01*
X66588Y79885D01*
X66631Y79911D01*
X66644Y79927D01*
X66666Y79943D01*
X91130Y104407D01*
X102351Y104407D01*
X102416Y104418D01*
X102482Y104420D01*
X102525Y104438D01*
X102572Y104446D01*
X102629Y104480D01*
X102689Y104505D01*
X102724Y104536D01*
X102765Y104561D01*
X102807Y104612D01*
X102855Y104656D01*
X102877Y104698D01*
X102906Y104735D01*
X102927Y104797D01*
X102958Y104856D01*
X102966Y104910D01*
X102978Y104947D01*
X102977Y104987D01*
X102985Y105041D01*
X102985Y109252D01*
X103878Y110145D01*
X118738Y110145D01*
X118780Y110152D01*
X118822Y110150D01*
X118889Y110172D01*
X118959Y110184D01*
X118995Y110206D01*
X119036Y110219D01*
X119109Y110273D01*
X119152Y110299D01*
X119165Y110315D01*
X119187Y110331D01*
X145507Y136651D01*
X145532Y136686D01*
X145563Y136715D01*
X145595Y136778D01*
X145636Y136836D01*
X145646Y136877D01*
X145666Y136915D01*
X145679Y137004D01*
X145692Y137053D01*
X145689Y137074D01*
X145693Y137100D01*
X145693Y151631D01*
X145682Y151696D01*
X145680Y151762D01*
X145662Y151805D01*
X145654Y151852D01*
X145620Y151909D01*
X145595Y151969D01*
X145564Y152004D01*
X145539Y152045D01*
X145488Y152087D01*
X145444Y152135D01*
X145402Y152157D01*
X145365Y152186D01*
X145303Y152207D01*
X145244Y152238D01*
X145190Y152246D01*
X145153Y152258D01*
X145113Y152257D01*
X145059Y152265D01*
X140848Y152265D01*
X139955Y153158D01*
X139955Y169422D01*
X140848Y170315D01*
X155112Y170315D01*
X156005Y169422D01*
X156005Y153158D01*
X155112Y152265D01*
X150901Y152265D01*
X150836Y152254D01*
X150770Y152252D01*
X150727Y152234D01*
X150680Y152226D01*
X150623Y152192D01*
X150563Y152167D01*
X150528Y152136D01*
X150487Y152111D01*
X150445Y152060D01*
X150397Y152016D01*
X150375Y151974D01*
X150346Y151937D01*
X150325Y151875D01*
X150294Y151816D01*
X150286Y151762D01*
X150274Y151725D01*
X150275Y151688D01*
X150274Y151685D01*
X150274Y151679D01*
X150267Y151631D01*
X150267Y134943D01*
X120721Y105397D01*
X120696Y105362D01*
X120665Y105333D01*
X120633Y105270D01*
X120592Y105212D01*
X120582Y105171D01*
X120562Y105133D01*
X120549Y105044D01*
X120536Y104995D01*
X120539Y104974D01*
X120539Y104973D01*
X120532Y104966D01*
X120514Y104923D01*
X120487Y104884D01*
X120470Y104820D01*
X120445Y104760D01*
X120443Y104713D01*
X120431Y104667D01*
X120438Y104602D01*
X120435Y104536D01*
X120449Y104491D01*
X120454Y104444D01*
X120483Y104385D01*
X120503Y104322D01*
X120535Y104280D01*
X120535Y99969D01*
X120532Y99966D01*
X120514Y99923D01*
X120487Y99884D01*
X120470Y99820D01*
X120445Y99760D01*
X120443Y99713D01*
X120431Y99667D01*
X120438Y99602D01*
X120435Y99536D01*
X120449Y99491D01*
X120454Y99444D01*
X120483Y99385D01*
X120503Y99322D01*
X120536Y99278D01*
X120547Y99256D01*
X120548Y99204D01*
X120566Y99161D01*
X120574Y99114D01*
X120608Y99057D01*
X120633Y98997D01*
X120664Y98962D01*
X120689Y98921D01*
X120740Y98879D01*
X120784Y98831D01*
X120826Y98809D01*
X120863Y98780D01*
X120925Y98759D01*
X120984Y98728D01*
X121038Y98720D01*
X121075Y98708D01*
X121107Y98709D01*
X124091Y95725D01*
X124091Y83515D01*
X96453Y55877D01*
X96428Y55842D01*
X96397Y55814D01*
X96365Y55751D01*
X96324Y55693D01*
X96314Y55652D01*
X96294Y55614D01*
X96281Y55525D01*
X96268Y55476D01*
X96271Y55455D01*
X96267Y55429D01*
X96267Y54989D01*
X96278Y54924D01*
X96280Y54858D01*
X96298Y54815D01*
X96306Y54768D01*
X96340Y54711D01*
X96365Y54651D01*
X96396Y54616D01*
X96421Y54575D01*
X96472Y54533D01*
X96516Y54485D01*
X96558Y54463D01*
X96595Y54434D01*
X96657Y54413D01*
X96716Y54382D01*
X96770Y54374D01*
X96807Y54362D01*
X96847Y54363D01*
X96901Y54355D01*
X102112Y54355D01*
X103005Y53462D01*
X103005Y39198D01*
X102112Y38305D01*
X85848Y38305D01*
X84955Y39198D01*
X84955Y53462D01*
X85848Y54355D01*
X91059Y54355D01*
X91124Y54366D01*
X91190Y54368D01*
X91233Y54386D01*
X91280Y54394D01*
X91337Y54428D01*
X91397Y54453D01*
X91432Y54484D01*
X91473Y54509D01*
X91515Y54560D01*
X91563Y54604D01*
X91585Y54646D01*
X91614Y54683D01*
X91635Y54745D01*
X91666Y54804D01*
X91674Y54858D01*
X91686Y54895D01*
X91685Y54935D01*
X91693Y54989D01*
X91693Y57586D01*
X117120Y83013D01*
X117171Y83086D01*
X117227Y83155D01*
X117234Y83177D01*
X117248Y83197D01*
X117270Y83283D01*
X117299Y83367D01*
X117298Y83391D01*
X117304Y83414D01*
X117295Y83503D01*
X117292Y83592D01*
X117283Y83614D01*
X117281Y83637D01*
X117241Y83717D01*
X117208Y83799D01*
X117192Y83817D01*
X117181Y83838D01*
X117116Y83899D01*
X117056Y83965D01*
X117035Y83976D01*
X117018Y83992D01*
X116936Y84027D01*
X116857Y84068D01*
X116831Y84071D01*
X116811Y84080D01*
X116761Y84082D01*
X116671Y84095D01*
X112232Y84095D01*
X112190Y84088D01*
X112148Y84090D01*
X112081Y84068D01*
X112011Y84056D01*
X111975Y84034D01*
X111934Y84021D01*
X111861Y83967D01*
X111818Y83941D01*
X111805Y83925D01*
X111783Y83909D01*
X53783Y25909D01*
X52257Y24383D01*
X44935Y24383D01*
X44882Y24374D01*
X44827Y24374D01*
X44772Y24354D01*
X44714Y24344D01*
X44667Y24316D01*
X44616Y24298D01*
X44571Y24259D01*
X44521Y24229D01*
X44487Y24187D01*
X44445Y24152D01*
X44409Y24091D01*
X44379Y24055D01*
X44370Y24026D01*
X44349Y23992D01*
X43313Y21490D01*
X40740Y18917D01*
X37379Y17525D01*
X18501Y17525D01*
G37*
%LPD*%
%LPC*%
G36*
X18501Y119125D02*
X18501Y119125D01*
X15140Y120517D01*
X12567Y123090D01*
X11175Y126451D01*
X11175Y130089D01*
X12567Y133450D01*
X15140Y136023D01*
X18501Y137415D01*
X37379Y137415D01*
X40740Y136023D01*
X43313Y133450D01*
X44349Y130948D01*
X44378Y130903D01*
X44398Y130853D01*
X44438Y130809D01*
X44470Y130759D01*
X44513Y130727D01*
X44550Y130687D01*
X44602Y130660D01*
X44649Y130625D01*
X44701Y130609D01*
X44749Y130584D01*
X44820Y130574D01*
X44864Y130561D01*
X44895Y130563D01*
X44935Y130557D01*
X85767Y130557D01*
X85809Y130564D01*
X85851Y130562D01*
X85918Y130584D01*
X85988Y130596D01*
X86024Y130618D01*
X86065Y130631D01*
X86137Y130685D01*
X86181Y130711D01*
X86194Y130727D01*
X86215Y130743D01*
X87017Y131545D01*
X90783Y131545D01*
X93445Y128883D01*
X93445Y125117D01*
X90783Y122455D01*
X87017Y122455D01*
X84355Y125117D01*
X84355Y125349D01*
X84344Y125414D01*
X84342Y125480D01*
X84324Y125523D01*
X84316Y125570D01*
X84282Y125627D01*
X84257Y125687D01*
X84226Y125722D01*
X84201Y125763D01*
X84150Y125805D01*
X84106Y125853D01*
X84064Y125875D01*
X84027Y125904D01*
X83965Y125925D01*
X83906Y125956D01*
X83852Y125964D01*
X83815Y125976D01*
X83775Y125975D01*
X83721Y125983D01*
X44935Y125983D01*
X44882Y125974D01*
X44827Y125974D01*
X44772Y125954D01*
X44714Y125944D01*
X44667Y125916D01*
X44616Y125898D01*
X44571Y125859D01*
X44521Y125829D01*
X44487Y125787D01*
X44445Y125752D01*
X44409Y125691D01*
X44379Y125655D01*
X44370Y125626D01*
X44349Y125592D01*
X43313Y123090D01*
X40740Y120517D01*
X37379Y119125D01*
X18501Y119125D01*
G37*
%LPD*%
%LPC*%
G36*
X18501Y93725D02*
X18501Y93725D01*
X15140Y95117D01*
X12567Y97690D01*
X11175Y101051D01*
X11175Y104689D01*
X12567Y108050D01*
X15140Y110623D01*
X18501Y112015D01*
X37379Y112015D01*
X40740Y110623D01*
X43313Y108050D01*
X44705Y104689D01*
X44705Y104521D01*
X44716Y104456D01*
X44718Y104390D01*
X44736Y104347D01*
X44744Y104300D01*
X44778Y104243D01*
X44803Y104183D01*
X44834Y104148D01*
X44859Y104107D01*
X44910Y104065D01*
X44954Y104017D01*
X44996Y103995D01*
X45033Y103966D01*
X45095Y103945D01*
X45154Y103914D01*
X45208Y103906D01*
X45245Y103894D01*
X45285Y103895D01*
X45339Y103887D01*
X59097Y103887D01*
X59139Y103894D01*
X59181Y103892D01*
X59248Y103914D01*
X59318Y103926D01*
X59354Y103948D01*
X59395Y103961D01*
X59467Y104015D01*
X59511Y104041D01*
X59524Y104057D01*
X59545Y104073D01*
X61618Y106145D01*
X65383Y106145D01*
X68045Y103483D01*
X68045Y99717D01*
X65383Y97055D01*
X61618Y97055D01*
X59545Y99127D01*
X59510Y99152D01*
X59482Y99183D01*
X59419Y99215D01*
X59361Y99256D01*
X59320Y99266D01*
X59282Y99286D01*
X59193Y99299D01*
X59144Y99312D01*
X59123Y99309D01*
X59097Y99313D01*
X44409Y99313D01*
X44355Y99304D01*
X44301Y99304D01*
X44246Y99284D01*
X44188Y99274D01*
X44141Y99246D01*
X44090Y99228D01*
X44045Y99189D01*
X43995Y99159D01*
X43961Y99117D01*
X43919Y99082D01*
X43883Y99021D01*
X43853Y98985D01*
X43844Y98956D01*
X43823Y98922D01*
X43313Y97690D01*
X40740Y95117D01*
X37379Y93725D01*
X18501Y93725D01*
G37*
%LPD*%
%LPC*%
G36*
X132737Y132615D02*
X132737Y132615D01*
X130075Y135277D01*
X130075Y138208D01*
X130068Y138250D01*
X130070Y138292D01*
X130048Y138359D01*
X130036Y138429D01*
X130014Y138465D01*
X130001Y138506D01*
X129947Y138579D01*
X129921Y138622D01*
X129905Y138635D01*
X129889Y138657D01*
X120243Y148303D01*
X120243Y151631D01*
X120232Y151696D01*
X120230Y151762D01*
X120212Y151805D01*
X120204Y151852D01*
X120170Y151909D01*
X120145Y151969D01*
X120114Y152004D01*
X120089Y152045D01*
X120038Y152087D01*
X119994Y152135D01*
X119952Y152157D01*
X119915Y152186D01*
X119853Y152207D01*
X119794Y152238D01*
X119740Y152246D01*
X119703Y152258D01*
X119663Y152257D01*
X119609Y152265D01*
X115398Y152265D01*
X114505Y153158D01*
X114505Y169422D01*
X115398Y170315D01*
X129662Y170315D01*
X130555Y169422D01*
X130555Y153158D01*
X129662Y152265D01*
X125451Y152265D01*
X125386Y152254D01*
X125320Y152252D01*
X125277Y152234D01*
X125230Y152226D01*
X125173Y152192D01*
X125113Y152167D01*
X125078Y152136D01*
X125037Y152111D01*
X124995Y152060D01*
X124947Y152016D01*
X124925Y151974D01*
X124896Y151937D01*
X124875Y151875D01*
X124844Y151816D01*
X124836Y151762D01*
X124824Y151725D01*
X124825Y151688D01*
X124824Y151685D01*
X124824Y151679D01*
X124817Y151631D01*
X124817Y150460D01*
X124824Y150418D01*
X124822Y150376D01*
X124844Y150309D01*
X124856Y150239D01*
X124878Y150203D01*
X124891Y150162D01*
X124945Y150089D01*
X124971Y150046D01*
X124987Y150033D01*
X125003Y150011D01*
X133123Y141891D01*
X133158Y141866D01*
X133187Y141835D01*
X133250Y141803D01*
X133308Y141762D01*
X133349Y141752D01*
X133387Y141732D01*
X133476Y141719D01*
X133525Y141706D01*
X133546Y141709D01*
X133572Y141705D01*
X136503Y141705D01*
X139165Y139043D01*
X139165Y135277D01*
X136503Y132615D01*
X132737Y132615D01*
G37*
%LPD*%
%LPC*%
G36*
X29209Y154939D02*
X29209Y154939D01*
X29209Y163831D01*
X36360Y163831D01*
X37939Y163581D01*
X39460Y163086D01*
X40885Y162360D01*
X42179Y161420D01*
X43310Y160289D01*
X44250Y158995D01*
X44976Y157570D01*
X45471Y156049D01*
X45646Y154939D01*
X29209Y154939D01*
G37*
%LPD*%
%LPC*%
G36*
X10234Y154939D02*
X10234Y154939D01*
X10409Y156049D01*
X10904Y157570D01*
X11630Y158995D01*
X12570Y160289D01*
X13701Y161420D01*
X14995Y162360D01*
X16420Y163086D01*
X17941Y163581D01*
X19520Y163831D01*
X26671Y163831D01*
X26671Y154939D01*
X10234Y154939D01*
G37*
%LPD*%
%LPC*%
G36*
X29209Y143509D02*
X29209Y143509D01*
X29209Y152401D01*
X45646Y152401D01*
X45471Y151291D01*
X44976Y149770D01*
X44250Y148345D01*
X43310Y147051D01*
X42179Y145920D01*
X40885Y144980D01*
X39460Y144254D01*
X37939Y143759D01*
X36360Y143509D01*
X29209Y143509D01*
G37*
%LPD*%
%LPC*%
G36*
X19520Y143509D02*
X19520Y143509D01*
X17941Y143759D01*
X16420Y144254D01*
X14995Y144980D01*
X13701Y145920D01*
X12570Y147051D01*
X11630Y148345D01*
X10904Y149770D01*
X10409Y151291D01*
X10234Y152401D01*
X26671Y152401D01*
X26671Y143509D01*
X19520Y143509D01*
G37*
%LPD*%
%LPC*%
G36*
X168249Y162559D02*
X168249Y162559D01*
X168249Y171331D01*
X173815Y171331D01*
X174461Y171158D01*
X175040Y170823D01*
X175513Y170350D01*
X175848Y169771D01*
X176021Y169125D01*
X176021Y162559D01*
X168249Y162559D01*
G37*
%LPD*%
%LPC*%
G36*
X193699Y162559D02*
X193699Y162559D01*
X193699Y171331D01*
X199265Y171331D01*
X199911Y171158D01*
X200490Y170823D01*
X200963Y170350D01*
X201298Y169771D01*
X201471Y169125D01*
X201471Y162559D01*
X193699Y162559D01*
G37*
%LPD*%
%LPC*%
G36*
X183389Y162559D02*
X183389Y162559D01*
X183389Y169125D01*
X183562Y169771D01*
X183897Y170350D01*
X184370Y170823D01*
X184949Y171158D01*
X185595Y171331D01*
X191161Y171331D01*
X191161Y162559D01*
X183389Y162559D01*
G37*
%LPD*%
%LPC*%
G36*
X157939Y162559D02*
X157939Y162559D01*
X157939Y169125D01*
X158112Y169771D01*
X158447Y170350D01*
X158920Y170823D01*
X159499Y171158D01*
X160145Y171331D01*
X165711Y171331D01*
X165711Y162559D01*
X157939Y162559D01*
G37*
%LPD*%
%LPC*%
G36*
X168249Y151249D02*
X168249Y151249D01*
X168249Y160021D01*
X176021Y160021D01*
X176021Y153455D01*
X175848Y152809D01*
X175513Y152230D01*
X175040Y151757D01*
X174461Y151422D01*
X173815Y151249D01*
X168249Y151249D01*
G37*
%LPD*%
%LPC*%
G36*
X160145Y151249D02*
X160145Y151249D01*
X159499Y151422D01*
X158920Y151757D01*
X158447Y152230D01*
X158112Y152809D01*
X157939Y153455D01*
X157939Y160021D01*
X165711Y160021D01*
X165711Y151249D01*
X160145Y151249D01*
G37*
%LPD*%
%LPC*%
G36*
X185595Y151249D02*
X185595Y151249D01*
X184949Y151422D01*
X184370Y151757D01*
X183897Y152230D01*
X183562Y152809D01*
X183389Y153455D01*
X183389Y160021D01*
X191161Y160021D01*
X191161Y151249D01*
X185595Y151249D01*
G37*
%LPD*%
%LPC*%
G36*
X27939Y153669D02*
X27939Y153669D01*
X27939Y153671D01*
X27941Y153671D01*
X27941Y153669D01*
X27939Y153669D01*
G37*
%LPD*%
%LPC*%
G36*
X166979Y161289D02*
X166979Y161289D01*
X166979Y161291D01*
X166981Y161291D01*
X166981Y161289D01*
X166979Y161289D01*
G37*
%LPD*%
%LPC*%
G36*
X192429Y161289D02*
X192429Y161289D01*
X192429Y161291D01*
X192431Y161291D01*
X192431Y161289D01*
X192429Y161289D01*
G37*
%LPD*%
D10*
X211430Y161290D03*
X192430Y161290D03*
X147980Y161290D03*
X166980Y161290D03*
D11*
X217170Y109220D02*
X232410Y109220D01*
X232410Y83820D02*
X217170Y83820D01*
X35560Y26670D02*
X20320Y26670D01*
X20320Y52070D02*
X35560Y52070D01*
X35560Y77470D02*
X20320Y77470D01*
X20320Y102870D02*
X35560Y102870D01*
X35560Y128270D02*
X20320Y128270D01*
X20320Y153670D02*
X35560Y153670D01*
D12*
X198120Y45060D03*
X198120Y26060D03*
X93980Y46330D03*
X93980Y27330D03*
D13*
X134620Y39370D03*
X149860Y39370D03*
X165100Y39370D03*
D14*
X111760Y87120D03*
X155760Y87120D03*
X155760Y92120D03*
X111760Y92120D03*
X111760Y97120D03*
X111760Y102120D03*
X111760Y107120D03*
X155760Y97120D03*
X155760Y102120D03*
X155760Y107120D03*
D10*
X122530Y161290D03*
X103530Y161290D03*
D15*
X147563Y105906D02*
X146224Y104567D01*
X146224Y89673D02*
X147563Y88334D01*
X146224Y89673D02*
X146224Y104567D01*
X154546Y105906D02*
X155760Y107120D01*
X154546Y105906D02*
X147563Y105906D01*
X147563Y88334D02*
X154546Y88334D01*
X155760Y87120D01*
X177140Y127000D02*
X211430Y161290D01*
X177140Y127000D02*
X156522Y106382D01*
X155711Y106382D01*
X155235Y105906D01*
X154546Y105906D01*
X87630Y128270D02*
X27940Y128270D01*
X87630Y128270D02*
X88900Y127000D01*
D16*
X88900Y127000D03*
X165100Y127000D03*
D15*
X177140Y127000D01*
X149860Y81220D02*
X149860Y39370D01*
X149860Y81220D02*
X155760Y87120D01*
X155760Y97120D02*
X199990Y97120D01*
X200660Y97790D01*
D16*
X200660Y97790D03*
D15*
X166980Y150520D02*
X166980Y161290D01*
X166980Y150520D02*
X177800Y139700D01*
D16*
X177800Y139700D03*
D15*
X177800Y146660D02*
X192430Y161290D01*
X177800Y146660D02*
X177800Y139700D01*
X111760Y97120D02*
X97120Y97120D01*
X88900Y88900D01*
D16*
X88900Y88900D03*
X63500Y101600D03*
D15*
X29210Y101600D01*
X27940Y102870D01*
X120167Y96414D02*
X121804Y94777D01*
X121804Y84463D01*
X120167Y96414D02*
X112466Y96414D01*
X111760Y97120D01*
X93980Y56639D02*
X93980Y46330D01*
X93980Y56639D02*
X121804Y84463D01*
X92077Y102120D02*
X67427Y77470D01*
X92077Y102120D02*
X111760Y102120D01*
X67427Y77470D02*
X27940Y77470D01*
X175260Y57785D02*
X185707Y45549D01*
X198120Y45060D01*
D17*
X175260Y57785D03*
D15*
X111760Y87120D02*
X51310Y26670D01*
X27940Y26670D01*
X156974Y103334D02*
X163957Y103334D01*
X156974Y103334D02*
X155760Y102120D01*
X169843Y109220D02*
X224790Y109220D01*
X169843Y109220D02*
X163957Y103334D01*
X163957Y90906D02*
X156974Y90906D01*
X155760Y92120D01*
X171043Y83820D02*
X224790Y83820D01*
X171043Y83820D02*
X163957Y90906D01*
X165100Y39370D02*
X184810Y39370D01*
X198120Y26060D01*
X134620Y39370D02*
X122580Y27330D01*
X93980Y27330D01*
X119210Y107120D02*
X147980Y135890D01*
X119210Y107120D02*
X111760Y107120D01*
X147980Y135890D02*
X147980Y161290D01*
X27940Y52070D02*
X19011Y52070D01*
X5080Y66001D01*
X5080Y170180D01*
X94640Y170180D02*
X103530Y161290D01*
X94640Y170180D02*
X5080Y170180D01*
D16*
X99966Y88900D03*
D15*
X111054Y91414D02*
X111760Y92120D01*
X111054Y91414D02*
X103353Y91414D01*
X99966Y88900D02*
X99966Y88027D01*
X103353Y91414D01*
D16*
X134620Y137160D03*
D15*
X122530Y149250D01*
X122530Y161290D01*
M02*
