G04 EAGLE Gerber RS-274X export*
G75*
%MOMM*%
%FSLAX34Y34*%
%LPD*%
%INSilkscreen Top*%
%IPPOS*%
%AMOC8*
5,1,8,0,0,1.08239X$1,22.5*%
G01*
%ADD10C,0.101600*%
%ADD11C,0.152400*%
%ADD12C,0.127000*%
%ADD13C,0.100000*%


D10*
X53312Y150509D02*
X55259Y150509D01*
X55259Y144018D01*
X51364Y144018D01*
X51265Y144020D01*
X51165Y144026D01*
X51066Y144035D01*
X50968Y144048D01*
X50870Y144065D01*
X50772Y144086D01*
X50676Y144111D01*
X50581Y144139D01*
X50487Y144171D01*
X50394Y144206D01*
X50302Y144245D01*
X50212Y144288D01*
X50124Y144333D01*
X50037Y144383D01*
X49953Y144435D01*
X49870Y144491D01*
X49790Y144549D01*
X49712Y144611D01*
X49637Y144676D01*
X49564Y144744D01*
X49494Y144814D01*
X49426Y144887D01*
X49361Y144962D01*
X49299Y145040D01*
X49241Y145120D01*
X49185Y145203D01*
X49133Y145287D01*
X49083Y145374D01*
X49038Y145462D01*
X48995Y145552D01*
X48956Y145644D01*
X48921Y145737D01*
X48889Y145831D01*
X48861Y145926D01*
X48836Y146022D01*
X48815Y146120D01*
X48798Y146218D01*
X48785Y146316D01*
X48776Y146415D01*
X48770Y146515D01*
X48768Y146614D01*
X48768Y153106D01*
X48770Y153205D01*
X48776Y153305D01*
X48785Y153404D01*
X48798Y153502D01*
X48815Y153600D01*
X48836Y153698D01*
X48861Y153794D01*
X48889Y153889D01*
X48921Y153983D01*
X48956Y154076D01*
X48995Y154168D01*
X49038Y154258D01*
X49083Y154346D01*
X49133Y154433D01*
X49185Y154517D01*
X49241Y154600D01*
X49299Y154680D01*
X49361Y154758D01*
X49426Y154833D01*
X49494Y154906D01*
X49564Y154976D01*
X49637Y155044D01*
X49712Y155109D01*
X49790Y155171D01*
X49870Y155229D01*
X49953Y155285D01*
X50037Y155337D01*
X50124Y155387D01*
X50212Y155432D01*
X50302Y155475D01*
X50394Y155514D01*
X50486Y155549D01*
X50581Y155581D01*
X50676Y155609D01*
X50772Y155634D01*
X50870Y155655D01*
X50968Y155672D01*
X51066Y155685D01*
X51165Y155694D01*
X51265Y155700D01*
X51364Y155702D01*
X55259Y155702D01*
X60960Y155702D02*
X60960Y144018D01*
X67451Y144018D02*
X60960Y155702D01*
X67451Y155702D02*
X67451Y144018D01*
X73152Y144018D02*
X73152Y155702D01*
X76397Y155702D01*
X76510Y155700D01*
X76623Y155694D01*
X76736Y155684D01*
X76849Y155670D01*
X76961Y155653D01*
X77072Y155631D01*
X77182Y155606D01*
X77292Y155576D01*
X77400Y155543D01*
X77507Y155506D01*
X77613Y155466D01*
X77717Y155421D01*
X77820Y155373D01*
X77921Y155322D01*
X78020Y155267D01*
X78117Y155209D01*
X78212Y155147D01*
X78305Y155082D01*
X78395Y155014D01*
X78483Y154943D01*
X78569Y154868D01*
X78652Y154791D01*
X78732Y154711D01*
X78809Y154628D01*
X78884Y154542D01*
X78955Y154454D01*
X79023Y154364D01*
X79088Y154271D01*
X79150Y154176D01*
X79208Y154079D01*
X79263Y153980D01*
X79314Y153879D01*
X79362Y153776D01*
X79407Y153672D01*
X79447Y153566D01*
X79484Y153459D01*
X79517Y153351D01*
X79547Y153241D01*
X79572Y153131D01*
X79594Y153020D01*
X79611Y152908D01*
X79625Y152795D01*
X79635Y152682D01*
X79641Y152569D01*
X79643Y152456D01*
X79643Y147264D01*
X79644Y147264D02*
X79642Y147151D01*
X79636Y147038D01*
X79626Y146925D01*
X79612Y146812D01*
X79595Y146700D01*
X79573Y146589D01*
X79548Y146479D01*
X79518Y146369D01*
X79485Y146261D01*
X79448Y146154D01*
X79408Y146048D01*
X79363Y145944D01*
X79315Y145841D01*
X79264Y145740D01*
X79209Y145641D01*
X79151Y145544D01*
X79089Y145449D01*
X79024Y145356D01*
X78956Y145266D01*
X78885Y145178D01*
X78810Y145092D01*
X78733Y145009D01*
X78653Y144929D01*
X78570Y144852D01*
X78484Y144777D01*
X78396Y144706D01*
X78306Y144638D01*
X78213Y144573D01*
X78118Y144511D01*
X78021Y144453D01*
X77922Y144398D01*
X77821Y144347D01*
X77718Y144299D01*
X77614Y144254D01*
X77508Y144214D01*
X77401Y144177D01*
X77293Y144144D01*
X77183Y144114D01*
X77073Y144089D01*
X76962Y144067D01*
X76850Y144050D01*
X76737Y144036D01*
X76624Y144026D01*
X76511Y144020D01*
X76398Y144018D01*
X76397Y144018D02*
X73152Y144018D01*
X56557Y123162D02*
X48768Y123162D01*
X52663Y127056D02*
X52663Y119267D01*
X61609Y118618D02*
X65504Y118618D01*
X65603Y118620D01*
X65703Y118626D01*
X65802Y118635D01*
X65900Y118648D01*
X65998Y118665D01*
X66096Y118686D01*
X66192Y118711D01*
X66287Y118739D01*
X66381Y118771D01*
X66474Y118806D01*
X66566Y118845D01*
X66656Y118888D01*
X66744Y118933D01*
X66831Y118983D01*
X66915Y119035D01*
X66998Y119091D01*
X67078Y119149D01*
X67156Y119211D01*
X67231Y119276D01*
X67304Y119344D01*
X67374Y119414D01*
X67442Y119487D01*
X67507Y119562D01*
X67569Y119640D01*
X67627Y119720D01*
X67683Y119803D01*
X67735Y119887D01*
X67785Y119974D01*
X67830Y120062D01*
X67873Y120152D01*
X67912Y120244D01*
X67947Y120337D01*
X67979Y120431D01*
X68007Y120526D01*
X68032Y120622D01*
X68053Y120720D01*
X68070Y120818D01*
X68083Y120916D01*
X68092Y121015D01*
X68098Y121115D01*
X68100Y121214D01*
X68100Y122513D01*
X68098Y122612D01*
X68092Y122712D01*
X68083Y122811D01*
X68070Y122909D01*
X68053Y123007D01*
X68032Y123105D01*
X68007Y123201D01*
X67979Y123296D01*
X67947Y123390D01*
X67912Y123483D01*
X67873Y123575D01*
X67830Y123665D01*
X67785Y123753D01*
X67735Y123840D01*
X67683Y123924D01*
X67627Y124007D01*
X67569Y124087D01*
X67507Y124165D01*
X67442Y124240D01*
X67374Y124313D01*
X67304Y124383D01*
X67231Y124451D01*
X67156Y124516D01*
X67078Y124578D01*
X66998Y124636D01*
X66915Y124692D01*
X66831Y124744D01*
X66744Y124794D01*
X66656Y124839D01*
X66566Y124882D01*
X66474Y124921D01*
X66381Y124956D01*
X66287Y124988D01*
X66192Y125016D01*
X66096Y125041D01*
X65998Y125062D01*
X65900Y125079D01*
X65802Y125092D01*
X65703Y125101D01*
X65603Y125107D01*
X65504Y125109D01*
X61609Y125109D01*
X61609Y130302D01*
X68100Y130302D01*
X72390Y130302D02*
X76285Y118618D01*
X80179Y130302D01*
X55259Y95814D02*
X55257Y95715D01*
X55251Y95615D01*
X55242Y95516D01*
X55229Y95418D01*
X55212Y95320D01*
X55191Y95222D01*
X55166Y95126D01*
X55138Y95031D01*
X55106Y94937D01*
X55071Y94844D01*
X55032Y94752D01*
X54989Y94662D01*
X54944Y94574D01*
X54894Y94487D01*
X54842Y94403D01*
X54786Y94320D01*
X54728Y94240D01*
X54666Y94162D01*
X54601Y94087D01*
X54533Y94014D01*
X54463Y93944D01*
X54390Y93876D01*
X54315Y93811D01*
X54237Y93749D01*
X54157Y93691D01*
X54074Y93635D01*
X53990Y93583D01*
X53903Y93533D01*
X53815Y93488D01*
X53725Y93445D01*
X53633Y93406D01*
X53540Y93371D01*
X53446Y93339D01*
X53351Y93311D01*
X53255Y93286D01*
X53157Y93265D01*
X53059Y93248D01*
X52961Y93235D01*
X52862Y93226D01*
X52762Y93220D01*
X52663Y93218D01*
X52519Y93220D01*
X52374Y93226D01*
X52230Y93235D01*
X52087Y93248D01*
X51943Y93265D01*
X51800Y93286D01*
X51658Y93311D01*
X51517Y93339D01*
X51376Y93371D01*
X51236Y93407D01*
X51097Y93446D01*
X50959Y93489D01*
X50823Y93536D01*
X50687Y93586D01*
X50553Y93640D01*
X50421Y93697D01*
X50290Y93758D01*
X50161Y93822D01*
X50033Y93890D01*
X49907Y93960D01*
X49783Y94035D01*
X49662Y94112D01*
X49542Y94193D01*
X49424Y94276D01*
X49309Y94363D01*
X49196Y94453D01*
X49085Y94546D01*
X48977Y94641D01*
X48871Y94740D01*
X48768Y94841D01*
X49093Y102306D02*
X49095Y102405D01*
X49101Y102505D01*
X49110Y102604D01*
X49123Y102702D01*
X49140Y102800D01*
X49161Y102898D01*
X49186Y102994D01*
X49214Y103089D01*
X49246Y103183D01*
X49281Y103276D01*
X49320Y103368D01*
X49363Y103458D01*
X49408Y103546D01*
X49458Y103633D01*
X49510Y103717D01*
X49566Y103800D01*
X49624Y103880D01*
X49686Y103958D01*
X49751Y104033D01*
X49819Y104106D01*
X49889Y104176D01*
X49962Y104244D01*
X50037Y104309D01*
X50115Y104371D01*
X50195Y104429D01*
X50278Y104485D01*
X50362Y104537D01*
X50449Y104587D01*
X50537Y104632D01*
X50627Y104675D01*
X50719Y104714D01*
X50812Y104749D01*
X50906Y104781D01*
X51001Y104809D01*
X51098Y104834D01*
X51195Y104855D01*
X51293Y104872D01*
X51391Y104885D01*
X51490Y104894D01*
X51590Y104900D01*
X51689Y104902D01*
X51825Y104900D01*
X51961Y104894D01*
X52097Y104885D01*
X52233Y104872D01*
X52368Y104854D01*
X52502Y104834D01*
X52636Y104809D01*
X52770Y104781D01*
X52902Y104748D01*
X53033Y104713D01*
X53164Y104673D01*
X53293Y104630D01*
X53421Y104584D01*
X53547Y104533D01*
X53673Y104480D01*
X53796Y104422D01*
X53918Y104362D01*
X54038Y104298D01*
X54157Y104230D01*
X54273Y104160D01*
X54387Y104086D01*
X54500Y104009D01*
X54610Y103928D01*
X50391Y100034D02*
X50305Y100087D01*
X50221Y100144D01*
X50139Y100203D01*
X50059Y100266D01*
X49982Y100332D01*
X49907Y100400D01*
X49835Y100472D01*
X49766Y100546D01*
X49700Y100623D01*
X49637Y100702D01*
X49577Y100784D01*
X49520Y100868D01*
X49466Y100954D01*
X49416Y101042D01*
X49369Y101132D01*
X49325Y101223D01*
X49286Y101317D01*
X49249Y101411D01*
X49217Y101507D01*
X49188Y101605D01*
X49163Y101703D01*
X49142Y101802D01*
X49124Y101902D01*
X49111Y102002D01*
X49101Y102103D01*
X49095Y102205D01*
X49093Y102306D01*
X53961Y98086D02*
X54047Y98033D01*
X54131Y97976D01*
X54213Y97917D01*
X54293Y97854D01*
X54370Y97788D01*
X54445Y97720D01*
X54517Y97648D01*
X54586Y97574D01*
X54652Y97497D01*
X54715Y97418D01*
X54775Y97336D01*
X54832Y97252D01*
X54886Y97166D01*
X54936Y97078D01*
X54983Y96988D01*
X55027Y96897D01*
X55066Y96803D01*
X55103Y96709D01*
X55135Y96613D01*
X55164Y96515D01*
X55189Y96417D01*
X55210Y96318D01*
X55228Y96218D01*
X55241Y96118D01*
X55251Y96017D01*
X55257Y95915D01*
X55259Y95814D01*
X53961Y98086D02*
X50391Y100034D01*
X60198Y104902D02*
X60198Y93218D01*
X60198Y104902D02*
X63444Y104902D01*
X63557Y104900D01*
X63670Y104894D01*
X63783Y104884D01*
X63896Y104870D01*
X64008Y104853D01*
X64119Y104831D01*
X64229Y104806D01*
X64339Y104776D01*
X64447Y104743D01*
X64554Y104706D01*
X64660Y104666D01*
X64764Y104621D01*
X64867Y104573D01*
X64968Y104522D01*
X65067Y104467D01*
X65164Y104409D01*
X65259Y104347D01*
X65352Y104282D01*
X65442Y104214D01*
X65530Y104143D01*
X65616Y104068D01*
X65699Y103991D01*
X65779Y103911D01*
X65856Y103828D01*
X65931Y103742D01*
X66002Y103654D01*
X66070Y103564D01*
X66135Y103471D01*
X66197Y103376D01*
X66255Y103279D01*
X66310Y103180D01*
X66361Y103079D01*
X66409Y102976D01*
X66454Y102872D01*
X66494Y102766D01*
X66531Y102659D01*
X66564Y102551D01*
X66594Y102441D01*
X66619Y102331D01*
X66641Y102220D01*
X66658Y102108D01*
X66672Y101995D01*
X66682Y101882D01*
X66688Y101769D01*
X66690Y101656D01*
X66689Y101656D02*
X66689Y96464D01*
X66690Y96464D02*
X66688Y96351D01*
X66682Y96238D01*
X66672Y96125D01*
X66658Y96012D01*
X66641Y95900D01*
X66619Y95789D01*
X66594Y95679D01*
X66564Y95569D01*
X66531Y95461D01*
X66494Y95354D01*
X66454Y95248D01*
X66409Y95144D01*
X66361Y95041D01*
X66310Y94940D01*
X66255Y94841D01*
X66197Y94744D01*
X66135Y94649D01*
X66070Y94556D01*
X66002Y94466D01*
X65931Y94378D01*
X65856Y94292D01*
X65779Y94209D01*
X65699Y94129D01*
X65616Y94052D01*
X65530Y93977D01*
X65442Y93906D01*
X65352Y93838D01*
X65259Y93773D01*
X65164Y93711D01*
X65067Y93653D01*
X64968Y93598D01*
X64867Y93547D01*
X64764Y93499D01*
X64660Y93454D01*
X64554Y93414D01*
X64447Y93377D01*
X64339Y93344D01*
X64229Y93314D01*
X64119Y93289D01*
X64008Y93267D01*
X63896Y93250D01*
X63783Y93236D01*
X63670Y93226D01*
X63557Y93220D01*
X63444Y93218D01*
X60198Y93218D01*
X71360Y93218D02*
X75255Y104902D01*
X79149Y93218D01*
X78176Y96139D02*
X72334Y96139D01*
X55259Y70414D02*
X55257Y70315D01*
X55251Y70215D01*
X55242Y70116D01*
X55229Y70018D01*
X55212Y69920D01*
X55191Y69822D01*
X55166Y69726D01*
X55138Y69631D01*
X55106Y69537D01*
X55071Y69444D01*
X55032Y69352D01*
X54989Y69262D01*
X54944Y69174D01*
X54894Y69087D01*
X54842Y69003D01*
X54786Y68920D01*
X54728Y68840D01*
X54666Y68762D01*
X54601Y68687D01*
X54533Y68614D01*
X54463Y68544D01*
X54390Y68476D01*
X54315Y68411D01*
X54237Y68349D01*
X54157Y68291D01*
X54074Y68235D01*
X53990Y68183D01*
X53903Y68133D01*
X53815Y68088D01*
X53725Y68045D01*
X53633Y68006D01*
X53540Y67971D01*
X53446Y67939D01*
X53351Y67911D01*
X53255Y67886D01*
X53157Y67865D01*
X53059Y67848D01*
X52961Y67835D01*
X52862Y67826D01*
X52762Y67820D01*
X52663Y67818D01*
X52519Y67820D01*
X52374Y67826D01*
X52230Y67835D01*
X52087Y67848D01*
X51943Y67865D01*
X51800Y67886D01*
X51658Y67911D01*
X51517Y67939D01*
X51376Y67971D01*
X51236Y68007D01*
X51097Y68046D01*
X50959Y68089D01*
X50823Y68136D01*
X50687Y68186D01*
X50553Y68240D01*
X50421Y68297D01*
X50290Y68358D01*
X50161Y68422D01*
X50033Y68490D01*
X49907Y68560D01*
X49783Y68635D01*
X49662Y68712D01*
X49542Y68793D01*
X49424Y68876D01*
X49309Y68963D01*
X49196Y69053D01*
X49085Y69146D01*
X48977Y69241D01*
X48871Y69340D01*
X48768Y69441D01*
X49093Y76906D02*
X49095Y77005D01*
X49101Y77105D01*
X49110Y77204D01*
X49123Y77302D01*
X49140Y77400D01*
X49161Y77498D01*
X49186Y77594D01*
X49214Y77689D01*
X49246Y77783D01*
X49281Y77876D01*
X49320Y77968D01*
X49363Y78058D01*
X49408Y78146D01*
X49458Y78233D01*
X49510Y78317D01*
X49566Y78400D01*
X49624Y78480D01*
X49686Y78558D01*
X49751Y78633D01*
X49819Y78706D01*
X49889Y78776D01*
X49962Y78844D01*
X50037Y78909D01*
X50115Y78971D01*
X50195Y79029D01*
X50278Y79085D01*
X50362Y79137D01*
X50449Y79187D01*
X50537Y79232D01*
X50627Y79275D01*
X50719Y79314D01*
X50812Y79349D01*
X50906Y79381D01*
X51001Y79409D01*
X51098Y79434D01*
X51195Y79455D01*
X51293Y79472D01*
X51391Y79485D01*
X51490Y79494D01*
X51590Y79500D01*
X51689Y79502D01*
X51825Y79500D01*
X51961Y79494D01*
X52097Y79485D01*
X52233Y79472D01*
X52368Y79454D01*
X52502Y79434D01*
X52636Y79409D01*
X52770Y79381D01*
X52902Y79348D01*
X53033Y79313D01*
X53164Y79273D01*
X53293Y79230D01*
X53421Y79184D01*
X53547Y79133D01*
X53673Y79080D01*
X53796Y79022D01*
X53918Y78962D01*
X54038Y78898D01*
X54157Y78830D01*
X54273Y78760D01*
X54387Y78686D01*
X54500Y78609D01*
X54610Y78528D01*
X50391Y74634D02*
X50305Y74687D01*
X50221Y74744D01*
X50139Y74803D01*
X50059Y74866D01*
X49982Y74932D01*
X49907Y75000D01*
X49835Y75072D01*
X49766Y75146D01*
X49700Y75223D01*
X49637Y75302D01*
X49577Y75384D01*
X49520Y75468D01*
X49466Y75554D01*
X49416Y75642D01*
X49369Y75732D01*
X49325Y75823D01*
X49286Y75917D01*
X49249Y76011D01*
X49217Y76107D01*
X49188Y76205D01*
X49163Y76303D01*
X49142Y76402D01*
X49124Y76502D01*
X49111Y76602D01*
X49101Y76703D01*
X49095Y76805D01*
X49093Y76906D01*
X53961Y72686D02*
X54047Y72633D01*
X54131Y72576D01*
X54213Y72517D01*
X54293Y72454D01*
X54370Y72388D01*
X54445Y72320D01*
X54517Y72248D01*
X54586Y72174D01*
X54652Y72097D01*
X54715Y72018D01*
X54775Y71936D01*
X54832Y71852D01*
X54886Y71766D01*
X54936Y71678D01*
X54983Y71588D01*
X55027Y71497D01*
X55066Y71403D01*
X55103Y71309D01*
X55135Y71213D01*
X55164Y71115D01*
X55189Y71017D01*
X55210Y70918D01*
X55228Y70818D01*
X55241Y70718D01*
X55251Y70617D01*
X55257Y70515D01*
X55259Y70414D01*
X53961Y72686D02*
X50391Y74634D01*
X62380Y67818D02*
X64977Y67818D01*
X62380Y67818D02*
X62281Y67820D01*
X62181Y67826D01*
X62082Y67835D01*
X61984Y67848D01*
X61886Y67865D01*
X61788Y67886D01*
X61692Y67911D01*
X61597Y67939D01*
X61503Y67971D01*
X61410Y68006D01*
X61318Y68045D01*
X61228Y68088D01*
X61140Y68133D01*
X61053Y68183D01*
X60969Y68235D01*
X60886Y68291D01*
X60806Y68349D01*
X60728Y68411D01*
X60653Y68476D01*
X60580Y68544D01*
X60510Y68614D01*
X60442Y68687D01*
X60377Y68762D01*
X60315Y68840D01*
X60257Y68920D01*
X60201Y69003D01*
X60149Y69087D01*
X60099Y69174D01*
X60054Y69262D01*
X60011Y69352D01*
X59972Y69444D01*
X59937Y69537D01*
X59905Y69631D01*
X59877Y69726D01*
X59852Y69822D01*
X59831Y69920D01*
X59814Y70018D01*
X59801Y70116D01*
X59792Y70215D01*
X59786Y70315D01*
X59784Y70414D01*
X59784Y76906D01*
X59786Y77005D01*
X59792Y77105D01*
X59801Y77204D01*
X59814Y77302D01*
X59831Y77400D01*
X59852Y77498D01*
X59877Y77594D01*
X59905Y77689D01*
X59937Y77783D01*
X59972Y77876D01*
X60011Y77968D01*
X60054Y78058D01*
X60099Y78146D01*
X60149Y78233D01*
X60201Y78317D01*
X60257Y78400D01*
X60315Y78480D01*
X60377Y78558D01*
X60442Y78633D01*
X60510Y78706D01*
X60580Y78776D01*
X60653Y78844D01*
X60728Y78909D01*
X60806Y78971D01*
X60886Y79029D01*
X60969Y79085D01*
X61053Y79137D01*
X61140Y79187D01*
X61228Y79232D01*
X61318Y79275D01*
X61410Y79314D01*
X61502Y79349D01*
X61597Y79381D01*
X61692Y79409D01*
X61788Y79434D01*
X61886Y79455D01*
X61984Y79472D01*
X62082Y79485D01*
X62181Y79494D01*
X62281Y79500D01*
X62380Y79502D01*
X64977Y79502D01*
X69746Y79502D02*
X69746Y67818D01*
X74938Y67818D01*
X50066Y54102D02*
X50066Y42418D01*
X48768Y42418D02*
X51364Y42418D01*
X51364Y54102D02*
X48768Y54102D01*
X56346Y54102D02*
X56346Y42418D01*
X62837Y42418D02*
X56346Y54102D01*
X62837Y54102D02*
X62837Y42418D01*
X53961Y17018D02*
X48768Y17018D01*
X48768Y28702D01*
X53961Y28702D01*
X52663Y23509D02*
X48768Y23509D01*
X58651Y28702D02*
X58651Y17018D01*
X65143Y17018D02*
X58651Y28702D01*
X65143Y28702D02*
X65143Y17018D01*
X185928Y74168D02*
X185928Y85852D01*
X189823Y79361D01*
X193717Y85852D01*
X193717Y74168D01*
X199263Y78712D02*
X207052Y78712D01*
X203158Y82606D02*
X203158Y74817D01*
X188468Y102108D02*
X188468Y113792D01*
X192363Y107301D01*
X196257Y113792D01*
X196257Y102108D01*
X201803Y106652D02*
X209592Y106652D01*
X204536Y132588D02*
X201939Y132588D01*
X201840Y132590D01*
X201740Y132596D01*
X201641Y132605D01*
X201543Y132618D01*
X201445Y132635D01*
X201347Y132656D01*
X201251Y132681D01*
X201156Y132709D01*
X201062Y132741D01*
X200969Y132776D01*
X200877Y132815D01*
X200787Y132858D01*
X200699Y132903D01*
X200612Y132953D01*
X200528Y133005D01*
X200445Y133061D01*
X200365Y133119D01*
X200287Y133181D01*
X200212Y133246D01*
X200139Y133314D01*
X200069Y133384D01*
X200001Y133457D01*
X199936Y133532D01*
X199874Y133610D01*
X199816Y133690D01*
X199760Y133773D01*
X199708Y133857D01*
X199658Y133944D01*
X199613Y134032D01*
X199570Y134122D01*
X199531Y134214D01*
X199496Y134307D01*
X199464Y134401D01*
X199436Y134496D01*
X199411Y134592D01*
X199390Y134690D01*
X199373Y134788D01*
X199360Y134886D01*
X199351Y134985D01*
X199345Y135085D01*
X199343Y135184D01*
X199343Y141676D01*
X199345Y141775D01*
X199351Y141875D01*
X199360Y141974D01*
X199373Y142072D01*
X199390Y142170D01*
X199411Y142268D01*
X199436Y142364D01*
X199464Y142459D01*
X199496Y142553D01*
X199531Y142646D01*
X199570Y142738D01*
X199613Y142828D01*
X199658Y142916D01*
X199708Y143003D01*
X199760Y143087D01*
X199816Y143170D01*
X199874Y143250D01*
X199936Y143328D01*
X200001Y143403D01*
X200069Y143476D01*
X200139Y143546D01*
X200212Y143614D01*
X200287Y143679D01*
X200365Y143741D01*
X200445Y143799D01*
X200528Y143855D01*
X200612Y143907D01*
X200699Y143957D01*
X200787Y144002D01*
X200877Y144045D01*
X200969Y144084D01*
X201061Y144119D01*
X201156Y144151D01*
X201251Y144179D01*
X201347Y144204D01*
X201445Y144225D01*
X201543Y144242D01*
X201641Y144255D01*
X201740Y144264D01*
X201840Y144270D01*
X201939Y144272D01*
X204536Y144272D01*
X208901Y141676D02*
X212146Y144272D01*
X212146Y132588D01*
X208901Y132588D02*
X215392Y132588D01*
X151751Y132588D02*
X149154Y132588D01*
X149055Y132590D01*
X148955Y132596D01*
X148856Y132605D01*
X148758Y132618D01*
X148660Y132635D01*
X148562Y132656D01*
X148466Y132681D01*
X148371Y132709D01*
X148277Y132741D01*
X148184Y132776D01*
X148092Y132815D01*
X148002Y132858D01*
X147914Y132903D01*
X147827Y132953D01*
X147743Y133005D01*
X147660Y133061D01*
X147580Y133119D01*
X147502Y133181D01*
X147427Y133246D01*
X147354Y133314D01*
X147284Y133384D01*
X147216Y133457D01*
X147151Y133532D01*
X147089Y133610D01*
X147031Y133690D01*
X146975Y133773D01*
X146923Y133857D01*
X146873Y133944D01*
X146828Y134032D01*
X146785Y134122D01*
X146746Y134214D01*
X146711Y134307D01*
X146679Y134401D01*
X146651Y134496D01*
X146626Y134592D01*
X146605Y134690D01*
X146588Y134788D01*
X146575Y134886D01*
X146566Y134985D01*
X146560Y135085D01*
X146558Y135184D01*
X146558Y141676D01*
X146560Y141775D01*
X146566Y141875D01*
X146575Y141974D01*
X146588Y142072D01*
X146605Y142170D01*
X146626Y142268D01*
X146651Y142364D01*
X146679Y142459D01*
X146711Y142553D01*
X146746Y142646D01*
X146785Y142738D01*
X146828Y142828D01*
X146873Y142916D01*
X146923Y143003D01*
X146975Y143087D01*
X147031Y143170D01*
X147089Y143250D01*
X147151Y143328D01*
X147216Y143403D01*
X147284Y143476D01*
X147354Y143546D01*
X147427Y143614D01*
X147502Y143679D01*
X147580Y143741D01*
X147660Y143799D01*
X147743Y143855D01*
X147827Y143907D01*
X147914Y143957D01*
X148002Y144002D01*
X148092Y144045D01*
X148184Y144084D01*
X148276Y144119D01*
X148371Y144151D01*
X148466Y144179D01*
X148562Y144204D01*
X148660Y144225D01*
X148758Y144242D01*
X148856Y144255D01*
X148955Y144264D01*
X149055Y144270D01*
X149154Y144272D01*
X151751Y144272D01*
X159686Y144272D02*
X159793Y144270D01*
X159899Y144264D01*
X160005Y144254D01*
X160111Y144241D01*
X160217Y144223D01*
X160321Y144202D01*
X160425Y144177D01*
X160528Y144148D01*
X160629Y144116D01*
X160729Y144079D01*
X160828Y144039D01*
X160926Y143996D01*
X161022Y143949D01*
X161116Y143898D01*
X161208Y143844D01*
X161298Y143787D01*
X161386Y143727D01*
X161471Y143663D01*
X161554Y143596D01*
X161635Y143526D01*
X161713Y143454D01*
X161789Y143378D01*
X161861Y143300D01*
X161931Y143219D01*
X161998Y143136D01*
X162062Y143051D01*
X162122Y142963D01*
X162179Y142873D01*
X162233Y142781D01*
X162284Y142687D01*
X162331Y142591D01*
X162374Y142493D01*
X162414Y142394D01*
X162451Y142294D01*
X162483Y142193D01*
X162512Y142090D01*
X162537Y141986D01*
X162558Y141882D01*
X162576Y141776D01*
X162589Y141670D01*
X162599Y141564D01*
X162605Y141458D01*
X162607Y141351D01*
X159686Y144272D02*
X159565Y144270D01*
X159444Y144264D01*
X159324Y144254D01*
X159203Y144241D01*
X159084Y144223D01*
X158964Y144202D01*
X158846Y144177D01*
X158729Y144148D01*
X158612Y144115D01*
X158497Y144079D01*
X158383Y144038D01*
X158270Y143995D01*
X158158Y143947D01*
X158049Y143896D01*
X157941Y143841D01*
X157834Y143783D01*
X157730Y143722D01*
X157628Y143657D01*
X157528Y143589D01*
X157430Y143518D01*
X157334Y143444D01*
X157241Y143367D01*
X157151Y143286D01*
X157063Y143203D01*
X156978Y143117D01*
X156895Y143028D01*
X156816Y142937D01*
X156739Y142843D01*
X156666Y142747D01*
X156596Y142649D01*
X156529Y142548D01*
X156465Y142445D01*
X156405Y142340D01*
X156348Y142233D01*
X156294Y142125D01*
X156244Y142015D01*
X156198Y141903D01*
X156155Y141790D01*
X156116Y141675D01*
X161634Y139079D02*
X161713Y139156D01*
X161789Y139237D01*
X161862Y139320D01*
X161932Y139405D01*
X161999Y139493D01*
X162063Y139583D01*
X162123Y139675D01*
X162180Y139770D01*
X162234Y139866D01*
X162285Y139964D01*
X162332Y140064D01*
X162376Y140166D01*
X162416Y140269D01*
X162452Y140373D01*
X162484Y140479D01*
X162513Y140585D01*
X162538Y140693D01*
X162560Y140801D01*
X162577Y140911D01*
X162591Y141020D01*
X162600Y141130D01*
X162606Y141241D01*
X162608Y141351D01*
X161634Y139079D02*
X156116Y132588D01*
X162607Y132588D01*
D11*
X238760Y111760D02*
X238760Y99060D01*
X232410Y92710D01*
X219710Y92710D01*
X213360Y99060D01*
X219710Y118110D02*
X232410Y118110D01*
X238760Y111760D01*
X219710Y118110D02*
X213360Y111760D01*
X213360Y99060D01*
X232410Y92710D02*
X238760Y86360D01*
X238760Y73660D01*
X232410Y67310D01*
X219710Y67310D01*
X213360Y73660D01*
X213360Y86360D01*
X219710Y92710D01*
X16510Y92710D02*
X16510Y105410D01*
X22860Y111760D01*
X35560Y111760D01*
X41910Y105410D01*
X22860Y111760D02*
X16510Y118110D01*
X16510Y130810D01*
X22860Y137160D01*
X35560Y137160D01*
X41910Y130810D01*
X41910Y118110D01*
X35560Y111760D01*
X16510Y67310D02*
X22860Y60960D01*
X16510Y67310D02*
X16510Y80010D01*
X22860Y86360D01*
X35560Y86360D01*
X41910Y80010D01*
X41910Y67310D01*
X35560Y60960D01*
X22860Y86360D02*
X16510Y92710D01*
X35560Y86360D02*
X41910Y92710D01*
X41910Y105410D01*
X16510Y29210D02*
X16510Y16510D01*
X16510Y29210D02*
X22860Y35560D01*
X35560Y35560D01*
X41910Y29210D01*
X22860Y35560D02*
X16510Y41910D01*
X16510Y54610D01*
X22860Y60960D01*
X35560Y60960D01*
X41910Y54610D01*
X41910Y41910D01*
X35560Y35560D01*
X35560Y10160D02*
X22860Y10160D01*
X16510Y16510D01*
X35560Y10160D02*
X41910Y16510D01*
X41910Y29210D01*
X16510Y143510D02*
X16510Y156210D01*
X22860Y162560D01*
X35560Y162560D01*
X41910Y156210D01*
X22860Y137160D02*
X16510Y143510D01*
X35560Y137160D02*
X41910Y143510D01*
X41910Y156210D01*
D10*
X212598Y19745D02*
X224282Y19745D01*
X212598Y19745D02*
X212598Y22990D01*
X212600Y23103D01*
X212606Y23216D01*
X212616Y23329D01*
X212630Y23442D01*
X212647Y23554D01*
X212669Y23665D01*
X212694Y23775D01*
X212724Y23885D01*
X212757Y23993D01*
X212794Y24100D01*
X212834Y24206D01*
X212879Y24310D01*
X212927Y24413D01*
X212978Y24514D01*
X213033Y24613D01*
X213091Y24710D01*
X213153Y24805D01*
X213218Y24898D01*
X213286Y24988D01*
X213357Y25076D01*
X213432Y25162D01*
X213509Y25245D01*
X213589Y25325D01*
X213672Y25402D01*
X213758Y25477D01*
X213846Y25548D01*
X213936Y25616D01*
X214029Y25681D01*
X214124Y25743D01*
X214221Y25801D01*
X214320Y25856D01*
X214421Y25907D01*
X214524Y25955D01*
X214628Y26000D01*
X214734Y26040D01*
X214841Y26077D01*
X214949Y26110D01*
X215059Y26140D01*
X215169Y26165D01*
X215280Y26187D01*
X215392Y26204D01*
X215505Y26218D01*
X215618Y26228D01*
X215731Y26234D01*
X215844Y26236D01*
X215957Y26234D01*
X216070Y26228D01*
X216183Y26218D01*
X216296Y26204D01*
X216408Y26187D01*
X216519Y26165D01*
X216629Y26140D01*
X216739Y26110D01*
X216847Y26077D01*
X216954Y26040D01*
X217060Y26000D01*
X217164Y25955D01*
X217267Y25907D01*
X217368Y25856D01*
X217467Y25801D01*
X217564Y25743D01*
X217659Y25681D01*
X217752Y25616D01*
X217842Y25548D01*
X217930Y25477D01*
X218016Y25402D01*
X218099Y25325D01*
X218179Y25245D01*
X218256Y25162D01*
X218331Y25076D01*
X218402Y24988D01*
X218470Y24898D01*
X218535Y24805D01*
X218597Y24710D01*
X218655Y24613D01*
X218710Y24514D01*
X218761Y24413D01*
X218809Y24310D01*
X218854Y24206D01*
X218894Y24100D01*
X218931Y23993D01*
X218964Y23885D01*
X218994Y23775D01*
X219019Y23665D01*
X219041Y23554D01*
X219058Y23442D01*
X219072Y23329D01*
X219082Y23216D01*
X219088Y23103D01*
X219090Y22990D01*
X219089Y22990D02*
X219089Y19745D01*
X219089Y23639D02*
X224282Y26236D01*
X215194Y31101D02*
X212598Y34346D01*
X224282Y34346D01*
X224282Y31101D02*
X224282Y37592D01*
X120142Y21015D02*
X108458Y21015D01*
X108458Y24260D01*
X108460Y24373D01*
X108466Y24486D01*
X108476Y24599D01*
X108490Y24712D01*
X108507Y24824D01*
X108529Y24935D01*
X108554Y25045D01*
X108584Y25155D01*
X108617Y25263D01*
X108654Y25370D01*
X108694Y25476D01*
X108739Y25580D01*
X108787Y25683D01*
X108838Y25784D01*
X108893Y25883D01*
X108951Y25980D01*
X109013Y26075D01*
X109078Y26168D01*
X109146Y26258D01*
X109217Y26346D01*
X109292Y26432D01*
X109369Y26515D01*
X109449Y26595D01*
X109532Y26672D01*
X109618Y26747D01*
X109706Y26818D01*
X109796Y26886D01*
X109889Y26951D01*
X109984Y27013D01*
X110081Y27071D01*
X110180Y27126D01*
X110281Y27177D01*
X110384Y27225D01*
X110488Y27270D01*
X110594Y27310D01*
X110701Y27347D01*
X110809Y27380D01*
X110919Y27410D01*
X111029Y27435D01*
X111140Y27457D01*
X111252Y27474D01*
X111365Y27488D01*
X111478Y27498D01*
X111591Y27504D01*
X111704Y27506D01*
X111817Y27504D01*
X111930Y27498D01*
X112043Y27488D01*
X112156Y27474D01*
X112268Y27457D01*
X112379Y27435D01*
X112489Y27410D01*
X112599Y27380D01*
X112707Y27347D01*
X112814Y27310D01*
X112920Y27270D01*
X113024Y27225D01*
X113127Y27177D01*
X113228Y27126D01*
X113327Y27071D01*
X113424Y27013D01*
X113519Y26951D01*
X113612Y26886D01*
X113702Y26818D01*
X113790Y26747D01*
X113876Y26672D01*
X113959Y26595D01*
X114039Y26515D01*
X114116Y26432D01*
X114191Y26346D01*
X114262Y26258D01*
X114330Y26168D01*
X114395Y26075D01*
X114457Y25980D01*
X114515Y25883D01*
X114570Y25784D01*
X114621Y25683D01*
X114669Y25580D01*
X114714Y25476D01*
X114754Y25370D01*
X114791Y25263D01*
X114824Y25155D01*
X114854Y25045D01*
X114879Y24935D01*
X114901Y24824D01*
X114918Y24712D01*
X114932Y24599D01*
X114942Y24486D01*
X114948Y24373D01*
X114950Y24260D01*
X114949Y24260D02*
X114949Y21015D01*
X114949Y24909D02*
X120142Y27506D01*
X111379Y38862D02*
X111272Y38860D01*
X111166Y38854D01*
X111060Y38844D01*
X110954Y38831D01*
X110848Y38813D01*
X110744Y38792D01*
X110640Y38767D01*
X110537Y38738D01*
X110436Y38706D01*
X110336Y38669D01*
X110237Y38629D01*
X110139Y38586D01*
X110043Y38539D01*
X109949Y38488D01*
X109857Y38434D01*
X109767Y38377D01*
X109679Y38317D01*
X109594Y38253D01*
X109511Y38186D01*
X109430Y38116D01*
X109352Y38044D01*
X109276Y37968D01*
X109204Y37890D01*
X109134Y37809D01*
X109067Y37726D01*
X109003Y37641D01*
X108943Y37553D01*
X108886Y37463D01*
X108832Y37371D01*
X108781Y37277D01*
X108734Y37181D01*
X108691Y37083D01*
X108651Y36984D01*
X108614Y36884D01*
X108582Y36783D01*
X108553Y36680D01*
X108528Y36576D01*
X108507Y36472D01*
X108489Y36366D01*
X108476Y36260D01*
X108466Y36154D01*
X108460Y36048D01*
X108458Y35941D01*
X108460Y35820D01*
X108466Y35699D01*
X108476Y35579D01*
X108489Y35458D01*
X108507Y35339D01*
X108528Y35219D01*
X108553Y35101D01*
X108582Y34984D01*
X108615Y34867D01*
X108651Y34752D01*
X108692Y34638D01*
X108735Y34525D01*
X108783Y34413D01*
X108834Y34304D01*
X108889Y34196D01*
X108947Y34089D01*
X109008Y33985D01*
X109073Y33883D01*
X109141Y33783D01*
X109212Y33685D01*
X109286Y33589D01*
X109363Y33496D01*
X109444Y33406D01*
X109527Y33318D01*
X109613Y33233D01*
X109702Y33150D01*
X109793Y33071D01*
X109887Y32994D01*
X109983Y32921D01*
X110081Y32851D01*
X110182Y32784D01*
X110285Y32720D01*
X110390Y32660D01*
X110497Y32602D01*
X110605Y32549D01*
X110715Y32499D01*
X110827Y32453D01*
X110940Y32410D01*
X111055Y32371D01*
X113651Y37888D02*
X113573Y37967D01*
X113493Y38043D01*
X113410Y38116D01*
X113324Y38186D01*
X113237Y38253D01*
X113146Y38317D01*
X113054Y38377D01*
X112960Y38435D01*
X112863Y38489D01*
X112765Y38539D01*
X112665Y38586D01*
X112564Y38630D01*
X112461Y38670D01*
X112356Y38706D01*
X112251Y38738D01*
X112144Y38767D01*
X112037Y38792D01*
X111928Y38814D01*
X111819Y38831D01*
X111710Y38845D01*
X111600Y38854D01*
X111489Y38860D01*
X111379Y38862D01*
X113651Y37888D02*
X120142Y32371D01*
X120142Y38862D01*
D11*
X129540Y25400D02*
X172720Y25400D01*
X175260Y43180D02*
X175258Y43280D01*
X175252Y43379D01*
X175242Y43479D01*
X175229Y43577D01*
X175211Y43676D01*
X175190Y43773D01*
X175165Y43869D01*
X175136Y43965D01*
X175103Y44059D01*
X175067Y44152D01*
X175027Y44243D01*
X174983Y44333D01*
X174936Y44421D01*
X174886Y44507D01*
X174832Y44591D01*
X174775Y44673D01*
X174715Y44752D01*
X174651Y44830D01*
X174585Y44904D01*
X174516Y44976D01*
X174444Y45045D01*
X174370Y45111D01*
X174292Y45175D01*
X174213Y45235D01*
X174131Y45292D01*
X174047Y45346D01*
X173961Y45396D01*
X173873Y45443D01*
X173783Y45487D01*
X173692Y45527D01*
X173599Y45563D01*
X173505Y45596D01*
X173409Y45625D01*
X173313Y45650D01*
X173216Y45671D01*
X173117Y45689D01*
X173019Y45702D01*
X172919Y45712D01*
X172820Y45718D01*
X172720Y45720D01*
X129540Y45720D02*
X129440Y45718D01*
X129341Y45712D01*
X129241Y45702D01*
X129143Y45689D01*
X129044Y45671D01*
X128947Y45650D01*
X128851Y45625D01*
X128755Y45596D01*
X128661Y45563D01*
X128568Y45527D01*
X128477Y45487D01*
X128387Y45443D01*
X128299Y45396D01*
X128213Y45346D01*
X128129Y45292D01*
X128047Y45235D01*
X127968Y45175D01*
X127890Y45111D01*
X127816Y45045D01*
X127744Y44976D01*
X127675Y44904D01*
X127609Y44830D01*
X127545Y44752D01*
X127485Y44673D01*
X127428Y44591D01*
X127374Y44507D01*
X127324Y44421D01*
X127277Y44333D01*
X127233Y44243D01*
X127193Y44152D01*
X127157Y44059D01*
X127124Y43965D01*
X127095Y43869D01*
X127070Y43773D01*
X127049Y43676D01*
X127031Y43577D01*
X127018Y43479D01*
X127008Y43379D01*
X127002Y43280D01*
X127000Y43180D01*
X127000Y27940D02*
X127002Y27840D01*
X127008Y27741D01*
X127018Y27641D01*
X127031Y27543D01*
X127049Y27444D01*
X127070Y27347D01*
X127095Y27251D01*
X127124Y27155D01*
X127157Y27061D01*
X127193Y26968D01*
X127233Y26877D01*
X127277Y26787D01*
X127324Y26699D01*
X127374Y26613D01*
X127428Y26529D01*
X127485Y26447D01*
X127545Y26368D01*
X127609Y26290D01*
X127675Y26216D01*
X127744Y26144D01*
X127816Y26075D01*
X127890Y26009D01*
X127968Y25945D01*
X128047Y25885D01*
X128129Y25828D01*
X128213Y25774D01*
X128299Y25724D01*
X128387Y25677D01*
X128477Y25633D01*
X128568Y25593D01*
X128661Y25557D01*
X128755Y25524D01*
X128851Y25495D01*
X128947Y25470D01*
X129044Y25449D01*
X129143Y25431D01*
X129241Y25418D01*
X129341Y25408D01*
X129440Y25402D01*
X129540Y25400D01*
X172720Y25400D02*
X172820Y25402D01*
X172919Y25408D01*
X173019Y25418D01*
X173117Y25431D01*
X173216Y25449D01*
X173313Y25470D01*
X173409Y25495D01*
X173505Y25524D01*
X173599Y25557D01*
X173692Y25593D01*
X173783Y25633D01*
X173873Y25677D01*
X173961Y25724D01*
X174047Y25774D01*
X174131Y25828D01*
X174213Y25885D01*
X174292Y25945D01*
X174370Y26009D01*
X174444Y26075D01*
X174516Y26144D01*
X174585Y26216D01*
X174651Y26290D01*
X174715Y26368D01*
X174775Y26447D01*
X174832Y26529D01*
X174886Y26613D01*
X174936Y26699D01*
X174983Y26787D01*
X175027Y26877D01*
X175067Y26968D01*
X175103Y27061D01*
X175136Y27155D01*
X175165Y27251D01*
X175190Y27347D01*
X175211Y27444D01*
X175229Y27543D01*
X175242Y27641D01*
X175252Y27741D01*
X175258Y27840D01*
X175260Y27940D01*
X175260Y43180D01*
X127000Y43180D02*
X127000Y27940D01*
X129540Y45720D02*
X172720Y45720D01*
D12*
X133985Y51435D02*
X133983Y51335D01*
X133977Y51236D01*
X133967Y51136D01*
X133954Y51038D01*
X133936Y50939D01*
X133915Y50842D01*
X133890Y50746D01*
X133861Y50650D01*
X133828Y50556D01*
X133792Y50463D01*
X133752Y50372D01*
X133708Y50282D01*
X133661Y50194D01*
X133611Y50108D01*
X133557Y50024D01*
X133500Y49942D01*
X133440Y49863D01*
X133376Y49785D01*
X133310Y49711D01*
X133241Y49639D01*
X133169Y49570D01*
X133095Y49504D01*
X133017Y49440D01*
X132938Y49380D01*
X132856Y49323D01*
X132772Y49269D01*
X132686Y49219D01*
X132598Y49172D01*
X132508Y49128D01*
X132417Y49088D01*
X132324Y49052D01*
X132230Y49019D01*
X132134Y48990D01*
X132038Y48965D01*
X131941Y48944D01*
X131842Y48926D01*
X131744Y48913D01*
X131644Y48903D01*
X131545Y48897D01*
X131445Y48895D01*
X131304Y48897D01*
X131163Y48902D01*
X131022Y48912D01*
X130881Y48925D01*
X130741Y48941D01*
X130601Y48962D01*
X130462Y48986D01*
X130323Y49014D01*
X130186Y49045D01*
X130049Y49080D01*
X129913Y49118D01*
X129778Y49160D01*
X129645Y49206D01*
X129512Y49255D01*
X129381Y49308D01*
X129252Y49364D01*
X129123Y49423D01*
X128997Y49486D01*
X128872Y49552D01*
X128749Y49621D01*
X128628Y49694D01*
X128509Y49770D01*
X128391Y49849D01*
X128276Y49930D01*
X128164Y50015D01*
X128053Y50103D01*
X127945Y50194D01*
X127839Y50287D01*
X127736Y50384D01*
X127635Y50483D01*
X127953Y57785D02*
X127955Y57885D01*
X127961Y57984D01*
X127971Y58084D01*
X127984Y58182D01*
X128002Y58281D01*
X128023Y58378D01*
X128048Y58474D01*
X128077Y58570D01*
X128110Y58664D01*
X128146Y58757D01*
X128186Y58848D01*
X128230Y58938D01*
X128277Y59026D01*
X128327Y59112D01*
X128381Y59196D01*
X128438Y59278D01*
X128498Y59357D01*
X128562Y59435D01*
X128628Y59509D01*
X128697Y59581D01*
X128769Y59650D01*
X128843Y59716D01*
X128921Y59780D01*
X129000Y59840D01*
X129082Y59897D01*
X129166Y59951D01*
X129252Y60001D01*
X129340Y60048D01*
X129430Y60092D01*
X129521Y60132D01*
X129614Y60168D01*
X129708Y60201D01*
X129804Y60230D01*
X129900Y60255D01*
X129997Y60276D01*
X130096Y60294D01*
X130194Y60307D01*
X130294Y60317D01*
X130393Y60323D01*
X130493Y60325D01*
X130493Y60326D02*
X130626Y60324D01*
X130759Y60319D01*
X130892Y60309D01*
X131025Y60296D01*
X131157Y60279D01*
X131289Y60259D01*
X131420Y60235D01*
X131550Y60207D01*
X131680Y60176D01*
X131808Y60141D01*
X131936Y60102D01*
X132062Y60060D01*
X132187Y60014D01*
X132311Y59965D01*
X132434Y59913D01*
X132555Y59857D01*
X132674Y59797D01*
X132792Y59735D01*
X132907Y59669D01*
X133021Y59600D01*
X133133Y59527D01*
X133243Y59452D01*
X133351Y59373D01*
X129222Y55562D02*
X129138Y55614D01*
X129055Y55669D01*
X128975Y55728D01*
X128897Y55789D01*
X128822Y55853D01*
X128749Y55921D01*
X128678Y55991D01*
X128611Y56063D01*
X128546Y56138D01*
X128484Y56216D01*
X128425Y56296D01*
X128369Y56378D01*
X128317Y56462D01*
X128268Y56548D01*
X128222Y56636D01*
X128179Y56726D01*
X128140Y56817D01*
X128105Y56910D01*
X128073Y57004D01*
X128045Y57099D01*
X128020Y57195D01*
X128000Y57292D01*
X127982Y57390D01*
X127969Y57488D01*
X127960Y57587D01*
X127954Y57686D01*
X127952Y57785D01*
X132715Y53658D02*
X132799Y53606D01*
X132882Y53551D01*
X132962Y53492D01*
X133040Y53431D01*
X133115Y53367D01*
X133188Y53299D01*
X133259Y53229D01*
X133326Y53157D01*
X133391Y53082D01*
X133453Y53004D01*
X133512Y52924D01*
X133568Y52842D01*
X133620Y52758D01*
X133669Y52672D01*
X133715Y52584D01*
X133758Y52494D01*
X133797Y52403D01*
X133832Y52310D01*
X133864Y52216D01*
X133892Y52121D01*
X133917Y52025D01*
X133937Y51928D01*
X133955Y51830D01*
X133968Y51732D01*
X133977Y51633D01*
X133983Y51534D01*
X133985Y51435D01*
X132715Y53658D02*
X129223Y55563D01*
X141276Y51435D02*
X141276Y60325D01*
X141276Y51435D02*
X141274Y51335D01*
X141268Y51236D01*
X141258Y51136D01*
X141245Y51038D01*
X141227Y50939D01*
X141206Y50842D01*
X141181Y50746D01*
X141152Y50650D01*
X141119Y50556D01*
X141083Y50463D01*
X141043Y50372D01*
X140999Y50282D01*
X140952Y50194D01*
X140902Y50108D01*
X140848Y50024D01*
X140791Y49942D01*
X140731Y49863D01*
X140667Y49785D01*
X140601Y49711D01*
X140532Y49639D01*
X140460Y49570D01*
X140386Y49504D01*
X140308Y49440D01*
X140229Y49380D01*
X140147Y49323D01*
X140063Y49269D01*
X139977Y49219D01*
X139889Y49172D01*
X139799Y49128D01*
X139708Y49088D01*
X139615Y49052D01*
X139521Y49019D01*
X139425Y48990D01*
X139329Y48965D01*
X139232Y48944D01*
X139133Y48926D01*
X139035Y48913D01*
X138935Y48903D01*
X138836Y48897D01*
X138736Y48895D01*
X137466Y48895D01*
X146685Y57785D02*
X149860Y60325D01*
X149860Y48895D01*
X146685Y48895D02*
X153035Y48895D01*
D13*
X118030Y108310D02*
X118032Y108373D01*
X118038Y108435D01*
X118048Y108497D01*
X118061Y108559D01*
X118079Y108619D01*
X118100Y108678D01*
X118125Y108736D01*
X118154Y108792D01*
X118186Y108846D01*
X118221Y108898D01*
X118259Y108947D01*
X118301Y108995D01*
X118345Y109039D01*
X118393Y109081D01*
X118442Y109119D01*
X118494Y109154D01*
X118548Y109186D01*
X118604Y109215D01*
X118662Y109240D01*
X118721Y109261D01*
X118781Y109279D01*
X118843Y109292D01*
X118905Y109302D01*
X118967Y109308D01*
X119030Y109310D01*
X119093Y109308D01*
X119155Y109302D01*
X119217Y109292D01*
X119279Y109279D01*
X119339Y109261D01*
X119398Y109240D01*
X119456Y109215D01*
X119512Y109186D01*
X119566Y109154D01*
X119618Y109119D01*
X119667Y109081D01*
X119715Y109039D01*
X119759Y108995D01*
X119801Y108947D01*
X119839Y108898D01*
X119874Y108846D01*
X119906Y108792D01*
X119935Y108736D01*
X119960Y108678D01*
X119981Y108619D01*
X119999Y108559D01*
X120012Y108497D01*
X120022Y108435D01*
X120028Y108373D01*
X120030Y108310D01*
X120028Y108247D01*
X120022Y108185D01*
X120012Y108123D01*
X119999Y108061D01*
X119981Y108001D01*
X119960Y107942D01*
X119935Y107884D01*
X119906Y107828D01*
X119874Y107774D01*
X119839Y107722D01*
X119801Y107673D01*
X119759Y107625D01*
X119715Y107581D01*
X119667Y107539D01*
X119618Y107501D01*
X119566Y107466D01*
X119512Y107434D01*
X119456Y107405D01*
X119398Y107380D01*
X119339Y107359D01*
X119279Y107341D01*
X119217Y107328D01*
X119155Y107318D01*
X119093Y107312D01*
X119030Y107310D01*
X118967Y107312D01*
X118905Y107318D01*
X118843Y107328D01*
X118781Y107341D01*
X118721Y107359D01*
X118662Y107380D01*
X118604Y107405D01*
X118548Y107434D01*
X118494Y107466D01*
X118442Y107501D01*
X118393Y107539D01*
X118345Y107581D01*
X118301Y107625D01*
X118259Y107673D01*
X118221Y107722D01*
X118186Y107774D01*
X118154Y107828D01*
X118125Y107884D01*
X118100Y107942D01*
X118079Y108001D01*
X118061Y108061D01*
X118048Y108123D01*
X118038Y108185D01*
X118032Y108247D01*
X118030Y108310D01*
X120030Y80310D02*
X150030Y80310D01*
X150030Y106310D02*
X120030Y106310D01*
D10*
X115636Y132588D02*
X113039Y132588D01*
X112940Y132590D01*
X112840Y132596D01*
X112741Y132605D01*
X112643Y132618D01*
X112545Y132635D01*
X112447Y132656D01*
X112351Y132681D01*
X112256Y132709D01*
X112162Y132741D01*
X112069Y132776D01*
X111977Y132815D01*
X111887Y132858D01*
X111799Y132903D01*
X111712Y132953D01*
X111628Y133005D01*
X111545Y133061D01*
X111465Y133119D01*
X111387Y133181D01*
X111312Y133246D01*
X111239Y133314D01*
X111169Y133384D01*
X111101Y133457D01*
X111036Y133532D01*
X110974Y133610D01*
X110916Y133690D01*
X110860Y133773D01*
X110808Y133857D01*
X110758Y133944D01*
X110713Y134032D01*
X110670Y134122D01*
X110631Y134214D01*
X110596Y134307D01*
X110564Y134401D01*
X110536Y134496D01*
X110511Y134592D01*
X110490Y134690D01*
X110473Y134788D01*
X110460Y134886D01*
X110451Y134985D01*
X110445Y135085D01*
X110443Y135184D01*
X110443Y141676D01*
X110445Y141775D01*
X110451Y141875D01*
X110460Y141974D01*
X110473Y142072D01*
X110490Y142170D01*
X110511Y142268D01*
X110536Y142364D01*
X110564Y142459D01*
X110596Y142553D01*
X110631Y142646D01*
X110670Y142738D01*
X110713Y142828D01*
X110758Y142916D01*
X110808Y143003D01*
X110860Y143087D01*
X110916Y143170D01*
X110974Y143250D01*
X111036Y143328D01*
X111101Y143403D01*
X111169Y143476D01*
X111239Y143546D01*
X111312Y143614D01*
X111387Y143679D01*
X111465Y143741D01*
X111545Y143799D01*
X111628Y143855D01*
X111712Y143907D01*
X111799Y143957D01*
X111887Y144002D01*
X111977Y144045D01*
X112069Y144084D01*
X112161Y144119D01*
X112256Y144151D01*
X112351Y144179D01*
X112447Y144204D01*
X112545Y144225D01*
X112643Y144242D01*
X112741Y144255D01*
X112840Y144264D01*
X112940Y144270D01*
X113039Y144272D01*
X115636Y144272D01*
X120001Y132588D02*
X123246Y132588D01*
X123359Y132590D01*
X123472Y132596D01*
X123585Y132606D01*
X123698Y132620D01*
X123810Y132637D01*
X123921Y132659D01*
X124031Y132684D01*
X124141Y132714D01*
X124249Y132747D01*
X124356Y132784D01*
X124462Y132824D01*
X124566Y132869D01*
X124669Y132917D01*
X124770Y132968D01*
X124869Y133023D01*
X124966Y133081D01*
X125061Y133143D01*
X125154Y133208D01*
X125244Y133276D01*
X125332Y133347D01*
X125418Y133422D01*
X125501Y133499D01*
X125581Y133579D01*
X125658Y133662D01*
X125733Y133748D01*
X125804Y133836D01*
X125872Y133926D01*
X125937Y134019D01*
X125999Y134114D01*
X126057Y134211D01*
X126112Y134310D01*
X126163Y134411D01*
X126211Y134514D01*
X126256Y134618D01*
X126296Y134724D01*
X126333Y134831D01*
X126366Y134939D01*
X126396Y135049D01*
X126421Y135159D01*
X126443Y135270D01*
X126460Y135382D01*
X126474Y135495D01*
X126484Y135608D01*
X126490Y135721D01*
X126492Y135834D01*
X126490Y135947D01*
X126484Y136060D01*
X126474Y136173D01*
X126460Y136286D01*
X126443Y136398D01*
X126421Y136509D01*
X126396Y136619D01*
X126366Y136729D01*
X126333Y136837D01*
X126296Y136944D01*
X126256Y137050D01*
X126211Y137154D01*
X126163Y137257D01*
X126112Y137358D01*
X126057Y137457D01*
X125999Y137554D01*
X125937Y137649D01*
X125872Y137742D01*
X125804Y137832D01*
X125733Y137920D01*
X125658Y138006D01*
X125581Y138089D01*
X125501Y138169D01*
X125418Y138246D01*
X125332Y138321D01*
X125244Y138392D01*
X125154Y138460D01*
X125061Y138525D01*
X124966Y138587D01*
X124869Y138645D01*
X124770Y138700D01*
X124669Y138751D01*
X124566Y138799D01*
X124462Y138844D01*
X124356Y138884D01*
X124249Y138921D01*
X124141Y138954D01*
X124031Y138984D01*
X123921Y139009D01*
X123810Y139031D01*
X123698Y139048D01*
X123585Y139062D01*
X123472Y139072D01*
X123359Y139078D01*
X123246Y139080D01*
X123896Y144272D02*
X120001Y144272D01*
X123896Y144272D02*
X123997Y144270D01*
X124097Y144264D01*
X124197Y144254D01*
X124297Y144241D01*
X124396Y144223D01*
X124495Y144202D01*
X124592Y144177D01*
X124689Y144148D01*
X124784Y144115D01*
X124878Y144079D01*
X124970Y144039D01*
X125061Y143996D01*
X125150Y143949D01*
X125237Y143899D01*
X125323Y143845D01*
X125406Y143788D01*
X125486Y143728D01*
X125565Y143665D01*
X125641Y143598D01*
X125714Y143529D01*
X125784Y143457D01*
X125852Y143383D01*
X125917Y143306D01*
X125978Y143226D01*
X126037Y143144D01*
X126092Y143060D01*
X126144Y142974D01*
X126193Y142886D01*
X126238Y142796D01*
X126280Y142704D01*
X126318Y142611D01*
X126352Y142516D01*
X126383Y142421D01*
X126410Y142324D01*
X126433Y142226D01*
X126453Y142127D01*
X126468Y142027D01*
X126480Y141927D01*
X126488Y141827D01*
X126492Y141726D01*
X126492Y141626D01*
X126488Y141525D01*
X126480Y141425D01*
X126468Y141325D01*
X126453Y141225D01*
X126433Y141126D01*
X126410Y141028D01*
X126383Y140931D01*
X126352Y140836D01*
X126318Y140741D01*
X126280Y140648D01*
X126238Y140556D01*
X126193Y140466D01*
X126144Y140378D01*
X126092Y140292D01*
X126037Y140208D01*
X125978Y140126D01*
X125917Y140046D01*
X125852Y139969D01*
X125784Y139895D01*
X125714Y139823D01*
X125641Y139754D01*
X125565Y139687D01*
X125486Y139624D01*
X125406Y139564D01*
X125323Y139507D01*
X125237Y139453D01*
X125150Y139403D01*
X125061Y139356D01*
X124970Y139313D01*
X124878Y139273D01*
X124784Y139237D01*
X124689Y139204D01*
X124592Y139175D01*
X124495Y139150D01*
X124396Y139129D01*
X124297Y139111D01*
X124197Y139098D01*
X124097Y139088D01*
X123997Y139082D01*
X123896Y139080D01*
X123896Y139079D02*
X121299Y139079D01*
M02*
