G04 EAGLE Gerber RS-274X export*
G75*
%MOMM*%
%FSLAX34Y34*%
%LPD*%
%INSilkscreen Top*%
%IPPOS*%
%AMOC8*
5,1,8,0,0,1.08239X$1,22.5*%
G01*
%ADD10C,0.101600*%
%ADD11C,0.076200*%
%ADD12C,0.152400*%
%ADD13C,0.127000*%
%ADD14C,0.100000*%


D10*
X52042Y154319D02*
X53989Y154319D01*
X53989Y147828D01*
X50094Y147828D01*
X49995Y147830D01*
X49895Y147836D01*
X49796Y147845D01*
X49698Y147858D01*
X49600Y147875D01*
X49502Y147896D01*
X49406Y147921D01*
X49311Y147949D01*
X49217Y147981D01*
X49124Y148016D01*
X49032Y148055D01*
X48942Y148098D01*
X48854Y148143D01*
X48767Y148193D01*
X48683Y148245D01*
X48600Y148301D01*
X48520Y148359D01*
X48442Y148421D01*
X48367Y148486D01*
X48294Y148554D01*
X48224Y148624D01*
X48156Y148697D01*
X48091Y148772D01*
X48029Y148850D01*
X47971Y148930D01*
X47915Y149013D01*
X47863Y149097D01*
X47813Y149184D01*
X47768Y149272D01*
X47725Y149362D01*
X47686Y149454D01*
X47651Y149547D01*
X47619Y149641D01*
X47591Y149736D01*
X47566Y149832D01*
X47545Y149930D01*
X47528Y150028D01*
X47515Y150126D01*
X47506Y150225D01*
X47500Y150325D01*
X47498Y150424D01*
X47498Y156916D01*
X47500Y157015D01*
X47506Y157115D01*
X47515Y157214D01*
X47528Y157312D01*
X47545Y157410D01*
X47566Y157508D01*
X47591Y157604D01*
X47619Y157699D01*
X47651Y157793D01*
X47686Y157886D01*
X47725Y157978D01*
X47768Y158068D01*
X47813Y158156D01*
X47863Y158243D01*
X47915Y158327D01*
X47971Y158410D01*
X48029Y158490D01*
X48091Y158568D01*
X48156Y158643D01*
X48224Y158716D01*
X48294Y158786D01*
X48367Y158854D01*
X48442Y158919D01*
X48520Y158981D01*
X48600Y159039D01*
X48683Y159095D01*
X48767Y159147D01*
X48854Y159197D01*
X48942Y159242D01*
X49032Y159285D01*
X49124Y159324D01*
X49216Y159359D01*
X49311Y159391D01*
X49406Y159419D01*
X49502Y159444D01*
X49600Y159465D01*
X49698Y159482D01*
X49796Y159495D01*
X49895Y159504D01*
X49995Y159510D01*
X50094Y159512D01*
X53989Y159512D01*
X59690Y159512D02*
X59690Y147828D01*
X66181Y147828D02*
X59690Y159512D01*
X66181Y159512D02*
X66181Y147828D01*
X71882Y147828D02*
X71882Y159512D01*
X75127Y159512D01*
X75240Y159510D01*
X75353Y159504D01*
X75466Y159494D01*
X75579Y159480D01*
X75691Y159463D01*
X75802Y159441D01*
X75912Y159416D01*
X76022Y159386D01*
X76130Y159353D01*
X76237Y159316D01*
X76343Y159276D01*
X76447Y159231D01*
X76550Y159183D01*
X76651Y159132D01*
X76750Y159077D01*
X76847Y159019D01*
X76942Y158957D01*
X77035Y158892D01*
X77125Y158824D01*
X77213Y158753D01*
X77299Y158678D01*
X77382Y158601D01*
X77462Y158521D01*
X77539Y158438D01*
X77614Y158352D01*
X77685Y158264D01*
X77753Y158174D01*
X77818Y158081D01*
X77880Y157986D01*
X77938Y157889D01*
X77993Y157790D01*
X78044Y157689D01*
X78092Y157586D01*
X78137Y157482D01*
X78177Y157376D01*
X78214Y157269D01*
X78247Y157161D01*
X78277Y157051D01*
X78302Y156941D01*
X78324Y156830D01*
X78341Y156718D01*
X78355Y156605D01*
X78365Y156492D01*
X78371Y156379D01*
X78373Y156266D01*
X78373Y151074D01*
X78374Y151074D02*
X78372Y150961D01*
X78366Y150848D01*
X78356Y150735D01*
X78342Y150622D01*
X78325Y150510D01*
X78303Y150399D01*
X78278Y150289D01*
X78248Y150179D01*
X78215Y150071D01*
X78178Y149964D01*
X78138Y149858D01*
X78093Y149754D01*
X78045Y149651D01*
X77994Y149550D01*
X77939Y149451D01*
X77881Y149354D01*
X77819Y149259D01*
X77754Y149166D01*
X77686Y149076D01*
X77615Y148988D01*
X77540Y148902D01*
X77463Y148819D01*
X77383Y148739D01*
X77300Y148662D01*
X77214Y148587D01*
X77126Y148516D01*
X77036Y148448D01*
X76943Y148383D01*
X76848Y148321D01*
X76751Y148263D01*
X76652Y148208D01*
X76551Y148157D01*
X76448Y148109D01*
X76344Y148064D01*
X76238Y148024D01*
X76131Y147987D01*
X76023Y147954D01*
X75913Y147924D01*
X75803Y147899D01*
X75692Y147877D01*
X75580Y147860D01*
X75467Y147846D01*
X75354Y147836D01*
X75241Y147830D01*
X75128Y147828D01*
X75127Y147828D02*
X71882Y147828D01*
X55287Y126972D02*
X47498Y126972D01*
X51393Y130866D02*
X51393Y123077D01*
X60339Y122428D02*
X64234Y122428D01*
X64333Y122430D01*
X64433Y122436D01*
X64532Y122445D01*
X64630Y122458D01*
X64728Y122475D01*
X64826Y122496D01*
X64922Y122521D01*
X65017Y122549D01*
X65111Y122581D01*
X65204Y122616D01*
X65296Y122655D01*
X65386Y122698D01*
X65474Y122743D01*
X65561Y122793D01*
X65645Y122845D01*
X65728Y122901D01*
X65808Y122959D01*
X65886Y123021D01*
X65961Y123086D01*
X66034Y123154D01*
X66104Y123224D01*
X66172Y123297D01*
X66237Y123372D01*
X66299Y123450D01*
X66357Y123530D01*
X66413Y123613D01*
X66465Y123697D01*
X66515Y123784D01*
X66560Y123872D01*
X66603Y123962D01*
X66642Y124054D01*
X66677Y124147D01*
X66709Y124241D01*
X66737Y124336D01*
X66762Y124432D01*
X66783Y124530D01*
X66800Y124628D01*
X66813Y124726D01*
X66822Y124825D01*
X66828Y124925D01*
X66830Y125024D01*
X66830Y126323D01*
X66828Y126422D01*
X66822Y126522D01*
X66813Y126621D01*
X66800Y126719D01*
X66783Y126817D01*
X66762Y126915D01*
X66737Y127011D01*
X66709Y127106D01*
X66677Y127200D01*
X66642Y127293D01*
X66603Y127385D01*
X66560Y127475D01*
X66515Y127563D01*
X66465Y127650D01*
X66413Y127734D01*
X66357Y127817D01*
X66299Y127897D01*
X66237Y127975D01*
X66172Y128050D01*
X66104Y128123D01*
X66034Y128193D01*
X65961Y128261D01*
X65886Y128326D01*
X65808Y128388D01*
X65728Y128446D01*
X65645Y128502D01*
X65561Y128554D01*
X65474Y128604D01*
X65386Y128649D01*
X65296Y128692D01*
X65204Y128731D01*
X65111Y128766D01*
X65017Y128798D01*
X64922Y128826D01*
X64826Y128851D01*
X64728Y128872D01*
X64630Y128889D01*
X64532Y128902D01*
X64433Y128911D01*
X64333Y128917D01*
X64234Y128919D01*
X60339Y128919D01*
X60339Y134112D01*
X66830Y134112D01*
X71120Y134112D02*
X75015Y122428D01*
X78909Y134112D01*
X53989Y99624D02*
X53987Y99525D01*
X53981Y99425D01*
X53972Y99326D01*
X53959Y99228D01*
X53942Y99130D01*
X53921Y99032D01*
X53896Y98936D01*
X53868Y98841D01*
X53836Y98747D01*
X53801Y98654D01*
X53762Y98562D01*
X53719Y98472D01*
X53674Y98384D01*
X53624Y98297D01*
X53572Y98213D01*
X53516Y98130D01*
X53458Y98050D01*
X53396Y97972D01*
X53331Y97897D01*
X53263Y97824D01*
X53193Y97754D01*
X53120Y97686D01*
X53045Y97621D01*
X52967Y97559D01*
X52887Y97501D01*
X52804Y97445D01*
X52720Y97393D01*
X52633Y97343D01*
X52545Y97298D01*
X52455Y97255D01*
X52363Y97216D01*
X52270Y97181D01*
X52176Y97149D01*
X52081Y97121D01*
X51985Y97096D01*
X51887Y97075D01*
X51789Y97058D01*
X51691Y97045D01*
X51592Y97036D01*
X51492Y97030D01*
X51393Y97028D01*
X51249Y97030D01*
X51104Y97036D01*
X50960Y97045D01*
X50817Y97058D01*
X50673Y97075D01*
X50530Y97096D01*
X50388Y97121D01*
X50247Y97149D01*
X50106Y97181D01*
X49966Y97217D01*
X49827Y97256D01*
X49689Y97299D01*
X49553Y97346D01*
X49417Y97396D01*
X49283Y97450D01*
X49151Y97507D01*
X49020Y97568D01*
X48891Y97632D01*
X48763Y97700D01*
X48637Y97770D01*
X48513Y97845D01*
X48392Y97922D01*
X48272Y98003D01*
X48154Y98086D01*
X48039Y98173D01*
X47926Y98263D01*
X47815Y98356D01*
X47707Y98451D01*
X47601Y98550D01*
X47498Y98651D01*
X47823Y106116D02*
X47825Y106215D01*
X47831Y106315D01*
X47840Y106414D01*
X47853Y106512D01*
X47870Y106610D01*
X47891Y106708D01*
X47916Y106804D01*
X47944Y106899D01*
X47976Y106993D01*
X48011Y107086D01*
X48050Y107178D01*
X48093Y107268D01*
X48138Y107356D01*
X48188Y107443D01*
X48240Y107527D01*
X48296Y107610D01*
X48354Y107690D01*
X48416Y107768D01*
X48481Y107843D01*
X48549Y107916D01*
X48619Y107986D01*
X48692Y108054D01*
X48767Y108119D01*
X48845Y108181D01*
X48925Y108239D01*
X49008Y108295D01*
X49092Y108347D01*
X49179Y108397D01*
X49267Y108442D01*
X49357Y108485D01*
X49449Y108524D01*
X49542Y108559D01*
X49636Y108591D01*
X49731Y108619D01*
X49828Y108644D01*
X49925Y108665D01*
X50023Y108682D01*
X50121Y108695D01*
X50220Y108704D01*
X50320Y108710D01*
X50419Y108712D01*
X50555Y108710D01*
X50691Y108704D01*
X50827Y108695D01*
X50963Y108682D01*
X51098Y108664D01*
X51232Y108644D01*
X51366Y108619D01*
X51500Y108591D01*
X51632Y108558D01*
X51763Y108523D01*
X51894Y108483D01*
X52023Y108440D01*
X52151Y108394D01*
X52277Y108343D01*
X52403Y108290D01*
X52526Y108232D01*
X52648Y108172D01*
X52768Y108108D01*
X52887Y108040D01*
X53003Y107970D01*
X53117Y107896D01*
X53230Y107819D01*
X53340Y107738D01*
X49121Y103844D02*
X49035Y103897D01*
X48951Y103954D01*
X48869Y104013D01*
X48789Y104076D01*
X48712Y104142D01*
X48637Y104210D01*
X48565Y104282D01*
X48496Y104356D01*
X48430Y104433D01*
X48367Y104512D01*
X48307Y104594D01*
X48250Y104678D01*
X48196Y104764D01*
X48146Y104852D01*
X48099Y104942D01*
X48055Y105033D01*
X48016Y105127D01*
X47979Y105221D01*
X47947Y105317D01*
X47918Y105415D01*
X47893Y105513D01*
X47872Y105612D01*
X47854Y105712D01*
X47841Y105812D01*
X47831Y105913D01*
X47825Y106015D01*
X47823Y106116D01*
X52691Y101896D02*
X52777Y101843D01*
X52861Y101786D01*
X52943Y101727D01*
X53023Y101664D01*
X53100Y101598D01*
X53175Y101530D01*
X53247Y101458D01*
X53316Y101384D01*
X53382Y101307D01*
X53445Y101228D01*
X53505Y101146D01*
X53562Y101062D01*
X53616Y100976D01*
X53666Y100888D01*
X53713Y100798D01*
X53757Y100707D01*
X53796Y100613D01*
X53833Y100519D01*
X53865Y100423D01*
X53894Y100325D01*
X53919Y100227D01*
X53940Y100128D01*
X53958Y100028D01*
X53971Y99928D01*
X53981Y99827D01*
X53987Y99725D01*
X53989Y99624D01*
X52691Y101896D02*
X49121Y103844D01*
X58928Y108712D02*
X58928Y97028D01*
X58928Y108712D02*
X62174Y108712D01*
X62287Y108710D01*
X62400Y108704D01*
X62513Y108694D01*
X62626Y108680D01*
X62738Y108663D01*
X62849Y108641D01*
X62959Y108616D01*
X63069Y108586D01*
X63177Y108553D01*
X63284Y108516D01*
X63390Y108476D01*
X63494Y108431D01*
X63597Y108383D01*
X63698Y108332D01*
X63797Y108277D01*
X63894Y108219D01*
X63989Y108157D01*
X64082Y108092D01*
X64172Y108024D01*
X64260Y107953D01*
X64346Y107878D01*
X64429Y107801D01*
X64509Y107721D01*
X64586Y107638D01*
X64661Y107552D01*
X64732Y107464D01*
X64800Y107374D01*
X64865Y107281D01*
X64927Y107186D01*
X64985Y107089D01*
X65040Y106990D01*
X65091Y106889D01*
X65139Y106786D01*
X65184Y106682D01*
X65224Y106576D01*
X65261Y106469D01*
X65294Y106361D01*
X65324Y106251D01*
X65349Y106141D01*
X65371Y106030D01*
X65388Y105918D01*
X65402Y105805D01*
X65412Y105692D01*
X65418Y105579D01*
X65420Y105466D01*
X65419Y105466D02*
X65419Y100274D01*
X65420Y100274D02*
X65418Y100161D01*
X65412Y100048D01*
X65402Y99935D01*
X65388Y99822D01*
X65371Y99710D01*
X65349Y99599D01*
X65324Y99489D01*
X65294Y99379D01*
X65261Y99271D01*
X65224Y99164D01*
X65184Y99058D01*
X65139Y98954D01*
X65091Y98851D01*
X65040Y98750D01*
X64985Y98651D01*
X64927Y98554D01*
X64865Y98459D01*
X64800Y98366D01*
X64732Y98276D01*
X64661Y98188D01*
X64586Y98102D01*
X64509Y98019D01*
X64429Y97939D01*
X64346Y97862D01*
X64260Y97787D01*
X64172Y97716D01*
X64082Y97648D01*
X63989Y97583D01*
X63894Y97521D01*
X63797Y97463D01*
X63698Y97408D01*
X63597Y97357D01*
X63494Y97309D01*
X63390Y97264D01*
X63284Y97224D01*
X63177Y97187D01*
X63069Y97154D01*
X62959Y97124D01*
X62849Y97099D01*
X62738Y97077D01*
X62626Y97060D01*
X62513Y97046D01*
X62400Y97036D01*
X62287Y97030D01*
X62174Y97028D01*
X58928Y97028D01*
X70090Y97028D02*
X73985Y108712D01*
X77879Y97028D01*
X76906Y99949D02*
X71064Y99949D01*
X53989Y74224D02*
X53987Y74125D01*
X53981Y74025D01*
X53972Y73926D01*
X53959Y73828D01*
X53942Y73730D01*
X53921Y73632D01*
X53896Y73536D01*
X53868Y73441D01*
X53836Y73347D01*
X53801Y73254D01*
X53762Y73162D01*
X53719Y73072D01*
X53674Y72984D01*
X53624Y72897D01*
X53572Y72813D01*
X53516Y72730D01*
X53458Y72650D01*
X53396Y72572D01*
X53331Y72497D01*
X53263Y72424D01*
X53193Y72354D01*
X53120Y72286D01*
X53045Y72221D01*
X52967Y72159D01*
X52887Y72101D01*
X52804Y72045D01*
X52720Y71993D01*
X52633Y71943D01*
X52545Y71898D01*
X52455Y71855D01*
X52363Y71816D01*
X52270Y71781D01*
X52176Y71749D01*
X52081Y71721D01*
X51985Y71696D01*
X51887Y71675D01*
X51789Y71658D01*
X51691Y71645D01*
X51592Y71636D01*
X51492Y71630D01*
X51393Y71628D01*
X51249Y71630D01*
X51104Y71636D01*
X50960Y71645D01*
X50817Y71658D01*
X50673Y71675D01*
X50530Y71696D01*
X50388Y71721D01*
X50247Y71749D01*
X50106Y71781D01*
X49966Y71817D01*
X49827Y71856D01*
X49689Y71899D01*
X49553Y71946D01*
X49417Y71996D01*
X49283Y72050D01*
X49151Y72107D01*
X49020Y72168D01*
X48891Y72232D01*
X48763Y72300D01*
X48637Y72370D01*
X48513Y72445D01*
X48392Y72522D01*
X48272Y72603D01*
X48154Y72686D01*
X48039Y72773D01*
X47926Y72863D01*
X47815Y72956D01*
X47707Y73051D01*
X47601Y73150D01*
X47498Y73251D01*
X47823Y80716D02*
X47825Y80815D01*
X47831Y80915D01*
X47840Y81014D01*
X47853Y81112D01*
X47870Y81210D01*
X47891Y81308D01*
X47916Y81404D01*
X47944Y81499D01*
X47976Y81593D01*
X48011Y81686D01*
X48050Y81778D01*
X48093Y81868D01*
X48138Y81956D01*
X48188Y82043D01*
X48240Y82127D01*
X48296Y82210D01*
X48354Y82290D01*
X48416Y82368D01*
X48481Y82443D01*
X48549Y82516D01*
X48619Y82586D01*
X48692Y82654D01*
X48767Y82719D01*
X48845Y82781D01*
X48925Y82839D01*
X49008Y82895D01*
X49092Y82947D01*
X49179Y82997D01*
X49267Y83042D01*
X49357Y83085D01*
X49449Y83124D01*
X49542Y83159D01*
X49636Y83191D01*
X49731Y83219D01*
X49828Y83244D01*
X49925Y83265D01*
X50023Y83282D01*
X50121Y83295D01*
X50220Y83304D01*
X50320Y83310D01*
X50419Y83312D01*
X50555Y83310D01*
X50691Y83304D01*
X50827Y83295D01*
X50963Y83282D01*
X51098Y83264D01*
X51232Y83244D01*
X51366Y83219D01*
X51500Y83191D01*
X51632Y83158D01*
X51763Y83123D01*
X51894Y83083D01*
X52023Y83040D01*
X52151Y82994D01*
X52277Y82943D01*
X52403Y82890D01*
X52526Y82832D01*
X52648Y82772D01*
X52768Y82708D01*
X52887Y82640D01*
X53003Y82570D01*
X53117Y82496D01*
X53230Y82419D01*
X53340Y82338D01*
X49121Y78444D02*
X49035Y78497D01*
X48951Y78554D01*
X48869Y78613D01*
X48789Y78676D01*
X48712Y78742D01*
X48637Y78810D01*
X48565Y78882D01*
X48496Y78956D01*
X48430Y79033D01*
X48367Y79112D01*
X48307Y79194D01*
X48250Y79278D01*
X48196Y79364D01*
X48146Y79452D01*
X48099Y79542D01*
X48055Y79633D01*
X48016Y79727D01*
X47979Y79821D01*
X47947Y79917D01*
X47918Y80015D01*
X47893Y80113D01*
X47872Y80212D01*
X47854Y80312D01*
X47841Y80412D01*
X47831Y80513D01*
X47825Y80615D01*
X47823Y80716D01*
X52691Y76496D02*
X52777Y76443D01*
X52861Y76386D01*
X52943Y76327D01*
X53023Y76264D01*
X53100Y76198D01*
X53175Y76130D01*
X53247Y76058D01*
X53316Y75984D01*
X53382Y75907D01*
X53445Y75828D01*
X53505Y75746D01*
X53562Y75662D01*
X53616Y75576D01*
X53666Y75488D01*
X53713Y75398D01*
X53757Y75307D01*
X53796Y75213D01*
X53833Y75119D01*
X53865Y75023D01*
X53894Y74925D01*
X53919Y74827D01*
X53940Y74728D01*
X53958Y74628D01*
X53971Y74528D01*
X53981Y74427D01*
X53987Y74325D01*
X53989Y74224D01*
X52691Y76496D02*
X49121Y78444D01*
X61110Y71628D02*
X63707Y71628D01*
X61110Y71628D02*
X61011Y71630D01*
X60911Y71636D01*
X60812Y71645D01*
X60714Y71658D01*
X60616Y71675D01*
X60518Y71696D01*
X60422Y71721D01*
X60327Y71749D01*
X60233Y71781D01*
X60140Y71816D01*
X60048Y71855D01*
X59958Y71898D01*
X59870Y71943D01*
X59783Y71993D01*
X59699Y72045D01*
X59616Y72101D01*
X59536Y72159D01*
X59458Y72221D01*
X59383Y72286D01*
X59310Y72354D01*
X59240Y72424D01*
X59172Y72497D01*
X59107Y72572D01*
X59045Y72650D01*
X58987Y72730D01*
X58931Y72813D01*
X58879Y72897D01*
X58829Y72984D01*
X58784Y73072D01*
X58741Y73162D01*
X58702Y73254D01*
X58667Y73347D01*
X58635Y73441D01*
X58607Y73536D01*
X58582Y73632D01*
X58561Y73730D01*
X58544Y73828D01*
X58531Y73926D01*
X58522Y74025D01*
X58516Y74125D01*
X58514Y74224D01*
X58514Y80716D01*
X58516Y80815D01*
X58522Y80915D01*
X58531Y81014D01*
X58544Y81112D01*
X58561Y81210D01*
X58582Y81308D01*
X58607Y81404D01*
X58635Y81499D01*
X58667Y81593D01*
X58702Y81686D01*
X58741Y81778D01*
X58784Y81868D01*
X58829Y81956D01*
X58879Y82043D01*
X58931Y82127D01*
X58987Y82210D01*
X59045Y82290D01*
X59107Y82368D01*
X59172Y82443D01*
X59240Y82516D01*
X59310Y82586D01*
X59383Y82654D01*
X59458Y82719D01*
X59536Y82781D01*
X59616Y82839D01*
X59699Y82895D01*
X59783Y82947D01*
X59870Y82997D01*
X59958Y83042D01*
X60048Y83085D01*
X60140Y83124D01*
X60232Y83159D01*
X60327Y83191D01*
X60422Y83219D01*
X60518Y83244D01*
X60616Y83265D01*
X60714Y83282D01*
X60812Y83295D01*
X60911Y83304D01*
X61011Y83310D01*
X61110Y83312D01*
X63707Y83312D01*
X68476Y83312D02*
X68476Y71628D01*
X73668Y71628D01*
X48796Y57912D02*
X48796Y46228D01*
X47498Y46228D02*
X50094Y46228D01*
X50094Y57912D02*
X47498Y57912D01*
X55076Y57912D02*
X55076Y46228D01*
X61567Y46228D02*
X55076Y57912D01*
X61567Y57912D02*
X61567Y46228D01*
X52691Y20828D02*
X47498Y20828D01*
X47498Y32512D01*
X52691Y32512D01*
X51393Y27319D02*
X47498Y27319D01*
X57381Y32512D02*
X57381Y20828D01*
X63873Y20828D02*
X57381Y32512D01*
X63873Y32512D02*
X63873Y20828D01*
X184658Y77978D02*
X184658Y89662D01*
X188553Y83171D01*
X192447Y89662D01*
X192447Y77978D01*
X197993Y82522D02*
X205782Y82522D01*
X201888Y86416D02*
X201888Y78627D01*
X187198Y105918D02*
X187198Y117602D01*
X191093Y111111D01*
X194987Y117602D01*
X194987Y105918D01*
X200533Y110462D02*
X208322Y110462D01*
D11*
X12224Y198501D02*
X12224Y207899D01*
X12224Y203722D02*
X17445Y203722D01*
X17445Y207899D02*
X17445Y198501D01*
X23367Y202156D02*
X25716Y202156D01*
X23367Y202155D02*
X23283Y202153D01*
X23198Y202147D01*
X23115Y202137D01*
X23031Y202124D01*
X22949Y202106D01*
X22867Y202085D01*
X22786Y202060D01*
X22707Y202032D01*
X22629Y201999D01*
X22553Y201963D01*
X22478Y201924D01*
X22405Y201881D01*
X22334Y201835D01*
X22266Y201786D01*
X22200Y201734D01*
X22136Y201678D01*
X22075Y201620D01*
X22017Y201559D01*
X21961Y201495D01*
X21909Y201429D01*
X21860Y201361D01*
X21814Y201290D01*
X21771Y201217D01*
X21732Y201142D01*
X21696Y201066D01*
X21663Y200988D01*
X21635Y200909D01*
X21610Y200828D01*
X21589Y200746D01*
X21571Y200664D01*
X21558Y200580D01*
X21548Y200497D01*
X21542Y200412D01*
X21540Y200328D01*
X21542Y200244D01*
X21548Y200159D01*
X21558Y200076D01*
X21571Y199992D01*
X21589Y199910D01*
X21610Y199828D01*
X21635Y199747D01*
X21663Y199668D01*
X21696Y199590D01*
X21732Y199514D01*
X21771Y199439D01*
X21814Y199366D01*
X21860Y199295D01*
X21909Y199227D01*
X21961Y199161D01*
X22017Y199097D01*
X22075Y199036D01*
X22136Y198978D01*
X22200Y198922D01*
X22266Y198870D01*
X22334Y198821D01*
X22405Y198775D01*
X22478Y198732D01*
X22553Y198693D01*
X22629Y198657D01*
X22707Y198624D01*
X22786Y198596D01*
X22867Y198571D01*
X22949Y198550D01*
X23031Y198532D01*
X23115Y198519D01*
X23198Y198509D01*
X23283Y198503D01*
X23367Y198501D01*
X25716Y198501D01*
X25716Y203200D01*
X25714Y203277D01*
X25708Y203353D01*
X25699Y203430D01*
X25686Y203506D01*
X25669Y203581D01*
X25649Y203655D01*
X25624Y203728D01*
X25597Y203799D01*
X25566Y203870D01*
X25531Y203938D01*
X25493Y204005D01*
X25452Y204070D01*
X25408Y204133D01*
X25361Y204193D01*
X25310Y204252D01*
X25257Y204307D01*
X25202Y204360D01*
X25143Y204411D01*
X25083Y204458D01*
X25020Y204502D01*
X24955Y204543D01*
X24888Y204581D01*
X24820Y204616D01*
X24749Y204647D01*
X24678Y204674D01*
X24605Y204699D01*
X24531Y204719D01*
X24456Y204736D01*
X24380Y204749D01*
X24303Y204758D01*
X24227Y204764D01*
X24150Y204766D01*
X22061Y204766D01*
X30165Y204766D02*
X30165Y195368D01*
X30165Y204766D02*
X32775Y204766D01*
X32852Y204764D01*
X32928Y204758D01*
X33005Y204749D01*
X33081Y204736D01*
X33156Y204719D01*
X33230Y204699D01*
X33303Y204674D01*
X33374Y204647D01*
X33445Y204616D01*
X33513Y204581D01*
X33580Y204543D01*
X33645Y204502D01*
X33708Y204458D01*
X33768Y204411D01*
X33827Y204360D01*
X33882Y204307D01*
X33935Y204252D01*
X33986Y204193D01*
X34033Y204133D01*
X34077Y204070D01*
X34118Y204005D01*
X34156Y203938D01*
X34191Y203870D01*
X34222Y203799D01*
X34249Y203728D01*
X34274Y203655D01*
X34294Y203581D01*
X34311Y203506D01*
X34324Y203430D01*
X34333Y203354D01*
X34339Y203277D01*
X34341Y203200D01*
X34342Y203200D02*
X34342Y200067D01*
X34341Y200067D02*
X34339Y199990D01*
X34333Y199914D01*
X34324Y199837D01*
X34311Y199761D01*
X34294Y199686D01*
X34274Y199612D01*
X34249Y199539D01*
X34222Y199468D01*
X34191Y199397D01*
X34156Y199329D01*
X34118Y199262D01*
X34077Y199197D01*
X34033Y199134D01*
X33986Y199074D01*
X33935Y199015D01*
X33882Y198960D01*
X33827Y198907D01*
X33768Y198856D01*
X33708Y198809D01*
X33645Y198765D01*
X33580Y198724D01*
X33513Y198686D01*
X33445Y198651D01*
X33374Y198620D01*
X33303Y198593D01*
X33230Y198568D01*
X33156Y198548D01*
X33081Y198531D01*
X33005Y198518D01*
X32928Y198509D01*
X32852Y198503D01*
X32775Y198501D01*
X30165Y198501D01*
X37275Y204766D02*
X40408Y204766D01*
X38320Y207899D02*
X38320Y200067D01*
X38322Y199990D01*
X38328Y199914D01*
X38337Y199837D01*
X38350Y199761D01*
X38367Y199686D01*
X38387Y199612D01*
X38412Y199539D01*
X38439Y199468D01*
X38470Y199397D01*
X38505Y199329D01*
X38543Y199262D01*
X38584Y199197D01*
X38628Y199134D01*
X38675Y199074D01*
X38726Y199015D01*
X38779Y198960D01*
X38834Y198907D01*
X38893Y198856D01*
X38953Y198809D01*
X39016Y198765D01*
X39081Y198724D01*
X39148Y198686D01*
X39216Y198651D01*
X39287Y198620D01*
X39358Y198593D01*
X39431Y198568D01*
X39505Y198548D01*
X39580Y198531D01*
X39656Y198518D01*
X39733Y198509D01*
X39809Y198503D01*
X39886Y198501D01*
X40408Y198501D01*
X43790Y198501D02*
X43790Y204766D01*
X43529Y207377D02*
X43529Y207899D01*
X44051Y207899D01*
X44051Y207377D01*
X43529Y207377D01*
X49069Y198501D02*
X51158Y198501D01*
X49069Y198501D02*
X48992Y198503D01*
X48916Y198509D01*
X48839Y198518D01*
X48763Y198531D01*
X48688Y198548D01*
X48614Y198568D01*
X48541Y198593D01*
X48470Y198620D01*
X48399Y198651D01*
X48331Y198686D01*
X48264Y198724D01*
X48199Y198765D01*
X48136Y198809D01*
X48076Y198856D01*
X48017Y198907D01*
X47962Y198960D01*
X47909Y199015D01*
X47858Y199074D01*
X47811Y199134D01*
X47767Y199197D01*
X47726Y199262D01*
X47688Y199329D01*
X47653Y199397D01*
X47622Y199468D01*
X47595Y199539D01*
X47570Y199612D01*
X47550Y199686D01*
X47533Y199761D01*
X47520Y199837D01*
X47511Y199914D01*
X47505Y199990D01*
X47503Y200067D01*
X47503Y203200D01*
X47505Y203277D01*
X47511Y203353D01*
X47520Y203430D01*
X47533Y203506D01*
X47550Y203581D01*
X47570Y203655D01*
X47595Y203728D01*
X47622Y203799D01*
X47653Y203870D01*
X47688Y203938D01*
X47726Y204005D01*
X47767Y204070D01*
X47811Y204133D01*
X47858Y204193D01*
X47909Y204252D01*
X47962Y204307D01*
X48017Y204360D01*
X48076Y204411D01*
X48136Y204458D01*
X48199Y204502D01*
X48264Y204543D01*
X48331Y204581D01*
X48399Y204616D01*
X48470Y204647D01*
X48541Y204674D01*
X48614Y204699D01*
X48688Y204719D01*
X48763Y204736D01*
X48839Y204749D01*
X48916Y204758D01*
X48992Y204764D01*
X49069Y204766D01*
X51158Y204766D01*
X59860Y207899D02*
X59860Y198501D01*
X62992Y202678D02*
X59860Y207899D01*
X62992Y202678D02*
X66125Y207899D01*
X66125Y198501D01*
X70353Y200589D02*
X70353Y202678D01*
X70355Y202768D01*
X70361Y202857D01*
X70370Y202947D01*
X70384Y203036D01*
X70401Y203124D01*
X70422Y203211D01*
X70447Y203298D01*
X70476Y203383D01*
X70508Y203467D01*
X70543Y203549D01*
X70583Y203630D01*
X70625Y203709D01*
X70671Y203786D01*
X70721Y203861D01*
X70773Y203934D01*
X70829Y204005D01*
X70887Y204073D01*
X70949Y204138D01*
X71013Y204201D01*
X71080Y204261D01*
X71149Y204318D01*
X71221Y204372D01*
X71295Y204423D01*
X71371Y204471D01*
X71449Y204515D01*
X71529Y204556D01*
X71611Y204594D01*
X71694Y204628D01*
X71779Y204658D01*
X71865Y204685D01*
X71951Y204708D01*
X72039Y204727D01*
X72128Y204742D01*
X72217Y204754D01*
X72306Y204762D01*
X72396Y204766D01*
X72486Y204766D01*
X72576Y204762D01*
X72665Y204754D01*
X72754Y204742D01*
X72843Y204727D01*
X72931Y204708D01*
X73017Y204685D01*
X73103Y204658D01*
X73188Y204628D01*
X73271Y204594D01*
X73353Y204556D01*
X73433Y204515D01*
X73511Y204471D01*
X73587Y204423D01*
X73661Y204372D01*
X73733Y204318D01*
X73802Y204261D01*
X73869Y204201D01*
X73933Y204138D01*
X73995Y204073D01*
X74053Y204005D01*
X74109Y203934D01*
X74161Y203861D01*
X74211Y203786D01*
X74257Y203709D01*
X74299Y203630D01*
X74339Y203549D01*
X74374Y203467D01*
X74406Y203383D01*
X74435Y203298D01*
X74460Y203211D01*
X74481Y203124D01*
X74498Y203036D01*
X74512Y202947D01*
X74521Y202857D01*
X74527Y202768D01*
X74529Y202678D01*
X74530Y202678D02*
X74530Y200589D01*
X74529Y200589D02*
X74527Y200499D01*
X74521Y200410D01*
X74512Y200320D01*
X74498Y200231D01*
X74481Y200143D01*
X74460Y200056D01*
X74435Y199969D01*
X74406Y199884D01*
X74374Y199800D01*
X74339Y199718D01*
X74299Y199637D01*
X74257Y199558D01*
X74211Y199481D01*
X74161Y199406D01*
X74109Y199333D01*
X74053Y199262D01*
X73995Y199194D01*
X73933Y199129D01*
X73869Y199066D01*
X73802Y199006D01*
X73733Y198949D01*
X73661Y198895D01*
X73587Y198844D01*
X73511Y198796D01*
X73433Y198752D01*
X73353Y198711D01*
X73271Y198673D01*
X73188Y198639D01*
X73103Y198609D01*
X73017Y198582D01*
X72931Y198559D01*
X72843Y198540D01*
X72754Y198525D01*
X72665Y198513D01*
X72576Y198505D01*
X72486Y198501D01*
X72396Y198501D01*
X72306Y198505D01*
X72217Y198513D01*
X72128Y198525D01*
X72039Y198540D01*
X71951Y198559D01*
X71865Y198582D01*
X71779Y198609D01*
X71694Y198639D01*
X71611Y198673D01*
X71529Y198711D01*
X71449Y198752D01*
X71371Y198796D01*
X71295Y198844D01*
X71221Y198895D01*
X71149Y198949D01*
X71080Y199006D01*
X71013Y199066D01*
X70949Y199129D01*
X70887Y199194D01*
X70829Y199262D01*
X70773Y199333D01*
X70721Y199406D01*
X70671Y199481D01*
X70625Y199558D01*
X70583Y199637D01*
X70543Y199718D01*
X70508Y199800D01*
X70476Y199884D01*
X70447Y199969D01*
X70422Y200056D01*
X70401Y200143D01*
X70384Y200231D01*
X70370Y200320D01*
X70361Y200410D01*
X70355Y200499D01*
X70353Y200589D01*
X77509Y204766D02*
X80641Y204766D01*
X78553Y207899D02*
X78553Y200067D01*
X78555Y199990D01*
X78561Y199914D01*
X78570Y199837D01*
X78583Y199761D01*
X78600Y199686D01*
X78620Y199612D01*
X78645Y199539D01*
X78672Y199468D01*
X78703Y199397D01*
X78738Y199329D01*
X78776Y199262D01*
X78817Y199197D01*
X78861Y199134D01*
X78908Y199074D01*
X78959Y199015D01*
X79012Y198960D01*
X79067Y198907D01*
X79126Y198856D01*
X79186Y198809D01*
X79249Y198765D01*
X79314Y198724D01*
X79381Y198686D01*
X79449Y198651D01*
X79520Y198620D01*
X79591Y198593D01*
X79664Y198568D01*
X79738Y198548D01*
X79813Y198531D01*
X79889Y198518D01*
X79966Y198509D01*
X80042Y198503D01*
X80119Y198501D01*
X80641Y198501D01*
X84069Y200589D02*
X84069Y202678D01*
X84071Y202768D01*
X84077Y202857D01*
X84086Y202947D01*
X84100Y203036D01*
X84117Y203124D01*
X84138Y203211D01*
X84163Y203298D01*
X84192Y203383D01*
X84224Y203467D01*
X84259Y203549D01*
X84299Y203630D01*
X84341Y203709D01*
X84387Y203786D01*
X84437Y203861D01*
X84489Y203934D01*
X84545Y204005D01*
X84603Y204073D01*
X84665Y204138D01*
X84729Y204201D01*
X84796Y204261D01*
X84865Y204318D01*
X84937Y204372D01*
X85011Y204423D01*
X85087Y204471D01*
X85165Y204515D01*
X85245Y204556D01*
X85327Y204594D01*
X85410Y204628D01*
X85495Y204658D01*
X85581Y204685D01*
X85667Y204708D01*
X85755Y204727D01*
X85844Y204742D01*
X85933Y204754D01*
X86022Y204762D01*
X86112Y204766D01*
X86202Y204766D01*
X86292Y204762D01*
X86381Y204754D01*
X86470Y204742D01*
X86559Y204727D01*
X86647Y204708D01*
X86733Y204685D01*
X86819Y204658D01*
X86904Y204628D01*
X86987Y204594D01*
X87069Y204556D01*
X87149Y204515D01*
X87227Y204471D01*
X87303Y204423D01*
X87377Y204372D01*
X87449Y204318D01*
X87518Y204261D01*
X87585Y204201D01*
X87649Y204138D01*
X87711Y204073D01*
X87769Y204005D01*
X87825Y203934D01*
X87877Y203861D01*
X87927Y203786D01*
X87973Y203709D01*
X88015Y203630D01*
X88055Y203549D01*
X88090Y203467D01*
X88122Y203383D01*
X88151Y203298D01*
X88176Y203211D01*
X88197Y203124D01*
X88214Y203036D01*
X88228Y202947D01*
X88237Y202857D01*
X88243Y202768D01*
X88245Y202678D01*
X88245Y200589D01*
X88243Y200499D01*
X88237Y200410D01*
X88228Y200320D01*
X88214Y200231D01*
X88197Y200143D01*
X88176Y200056D01*
X88151Y199969D01*
X88122Y199884D01*
X88090Y199800D01*
X88055Y199718D01*
X88015Y199637D01*
X87973Y199558D01*
X87927Y199481D01*
X87877Y199406D01*
X87825Y199333D01*
X87769Y199262D01*
X87711Y199194D01*
X87649Y199129D01*
X87585Y199066D01*
X87518Y199006D01*
X87449Y198949D01*
X87377Y198895D01*
X87303Y198844D01*
X87227Y198796D01*
X87149Y198752D01*
X87069Y198711D01*
X86987Y198673D01*
X86904Y198639D01*
X86819Y198609D01*
X86733Y198582D01*
X86647Y198559D01*
X86559Y198540D01*
X86470Y198525D01*
X86381Y198513D01*
X86292Y198505D01*
X86202Y198501D01*
X86112Y198501D01*
X86022Y198505D01*
X85933Y198513D01*
X85844Y198525D01*
X85755Y198540D01*
X85667Y198559D01*
X85581Y198582D01*
X85495Y198609D01*
X85410Y198639D01*
X85327Y198673D01*
X85245Y198711D01*
X85165Y198752D01*
X85087Y198796D01*
X85011Y198844D01*
X84937Y198895D01*
X84865Y198949D01*
X84796Y199006D01*
X84729Y199066D01*
X84665Y199129D01*
X84603Y199194D01*
X84545Y199262D01*
X84489Y199333D01*
X84437Y199406D01*
X84387Y199481D01*
X84341Y199558D01*
X84299Y199637D01*
X84259Y199718D01*
X84224Y199800D01*
X84192Y199884D01*
X84163Y199969D01*
X84138Y200056D01*
X84117Y200143D01*
X84100Y200231D01*
X84086Y200320D01*
X84077Y200410D01*
X84071Y200499D01*
X84069Y200589D01*
X92350Y198501D02*
X92350Y204766D01*
X95482Y204766D01*
X95482Y203722D01*
X103663Y207899D02*
X103663Y198501D01*
X103663Y207899D02*
X106274Y207899D01*
X106374Y207897D01*
X106474Y207891D01*
X106573Y207882D01*
X106673Y207868D01*
X106771Y207851D01*
X106869Y207830D01*
X106966Y207806D01*
X107062Y207777D01*
X107157Y207745D01*
X107250Y207710D01*
X107342Y207671D01*
X107433Y207628D01*
X107521Y207582D01*
X107608Y207532D01*
X107693Y207480D01*
X107776Y207424D01*
X107857Y207365D01*
X107935Y207302D01*
X108011Y207237D01*
X108085Y207169D01*
X108155Y207099D01*
X108223Y207025D01*
X108288Y206949D01*
X108351Y206871D01*
X108410Y206790D01*
X108466Y206707D01*
X108518Y206622D01*
X108568Y206535D01*
X108614Y206447D01*
X108657Y206356D01*
X108696Y206264D01*
X108731Y206171D01*
X108763Y206076D01*
X108792Y205980D01*
X108816Y205883D01*
X108837Y205785D01*
X108854Y205687D01*
X108868Y205587D01*
X108877Y205488D01*
X108883Y205388D01*
X108885Y205288D01*
X108884Y205288D02*
X108884Y201112D01*
X108885Y201112D02*
X108883Y201012D01*
X108877Y200912D01*
X108868Y200813D01*
X108854Y200713D01*
X108837Y200615D01*
X108816Y200517D01*
X108792Y200420D01*
X108763Y200324D01*
X108731Y200229D01*
X108696Y200136D01*
X108657Y200044D01*
X108614Y199953D01*
X108568Y199865D01*
X108518Y199778D01*
X108466Y199693D01*
X108410Y199610D01*
X108351Y199529D01*
X108288Y199451D01*
X108223Y199375D01*
X108155Y199301D01*
X108085Y199231D01*
X108011Y199163D01*
X107935Y199098D01*
X107857Y199035D01*
X107776Y198976D01*
X107693Y198920D01*
X107608Y198868D01*
X107521Y198818D01*
X107433Y198772D01*
X107342Y198729D01*
X107250Y198690D01*
X107157Y198655D01*
X107062Y198623D01*
X106966Y198594D01*
X106869Y198570D01*
X106771Y198549D01*
X106673Y198532D01*
X106573Y198518D01*
X106474Y198509D01*
X106374Y198503D01*
X106274Y198501D01*
X103663Y198501D01*
X113381Y198501D02*
X113381Y204766D01*
X116513Y204766D01*
X116513Y203722D01*
X119380Y204766D02*
X119380Y198501D01*
X119119Y207377D02*
X119119Y207899D01*
X119641Y207899D01*
X119641Y207377D01*
X119119Y207377D01*
X122778Y204766D02*
X124866Y198501D01*
X126955Y204766D01*
X131964Y198501D02*
X134575Y198501D01*
X131964Y198501D02*
X131887Y198503D01*
X131811Y198509D01*
X131734Y198518D01*
X131658Y198531D01*
X131583Y198548D01*
X131509Y198568D01*
X131436Y198593D01*
X131365Y198620D01*
X131294Y198651D01*
X131226Y198686D01*
X131159Y198724D01*
X131094Y198765D01*
X131031Y198809D01*
X130971Y198856D01*
X130912Y198907D01*
X130857Y198960D01*
X130804Y199015D01*
X130753Y199074D01*
X130706Y199134D01*
X130662Y199197D01*
X130621Y199262D01*
X130583Y199329D01*
X130548Y199397D01*
X130517Y199468D01*
X130490Y199539D01*
X130465Y199612D01*
X130445Y199686D01*
X130428Y199761D01*
X130415Y199837D01*
X130406Y199914D01*
X130400Y199990D01*
X130398Y200067D01*
X130398Y202678D01*
X130400Y202768D01*
X130406Y202857D01*
X130415Y202947D01*
X130429Y203036D01*
X130446Y203124D01*
X130467Y203211D01*
X130492Y203298D01*
X130521Y203383D01*
X130553Y203467D01*
X130588Y203549D01*
X130628Y203630D01*
X130670Y203709D01*
X130716Y203786D01*
X130766Y203861D01*
X130818Y203934D01*
X130874Y204005D01*
X130932Y204073D01*
X130994Y204138D01*
X131058Y204201D01*
X131125Y204261D01*
X131194Y204318D01*
X131266Y204372D01*
X131340Y204423D01*
X131416Y204471D01*
X131494Y204515D01*
X131574Y204556D01*
X131656Y204594D01*
X131739Y204628D01*
X131824Y204658D01*
X131910Y204685D01*
X131996Y204708D01*
X132084Y204727D01*
X132173Y204742D01*
X132262Y204754D01*
X132351Y204762D01*
X132441Y204766D01*
X132531Y204766D01*
X132621Y204762D01*
X132710Y204754D01*
X132799Y204742D01*
X132888Y204727D01*
X132976Y204708D01*
X133062Y204685D01*
X133148Y204658D01*
X133233Y204628D01*
X133316Y204594D01*
X133398Y204556D01*
X133478Y204515D01*
X133556Y204471D01*
X133632Y204423D01*
X133706Y204372D01*
X133778Y204318D01*
X133847Y204261D01*
X133914Y204201D01*
X133978Y204138D01*
X134040Y204073D01*
X134098Y204005D01*
X134154Y203934D01*
X134206Y203861D01*
X134256Y203786D01*
X134302Y203709D01*
X134344Y203630D01*
X134384Y203549D01*
X134419Y203467D01*
X134451Y203383D01*
X134480Y203298D01*
X134505Y203211D01*
X134526Y203124D01*
X134543Y203036D01*
X134557Y202947D01*
X134566Y202857D01*
X134572Y202768D01*
X134574Y202678D01*
X134575Y202678D02*
X134575Y201634D01*
X130398Y201634D01*
X138679Y198501D02*
X138679Y204766D01*
X141812Y204766D01*
X141812Y203722D01*
X150124Y203722D02*
X152734Y203722D01*
X152734Y203723D02*
X152835Y203721D01*
X152936Y203715D01*
X153037Y203705D01*
X153137Y203692D01*
X153237Y203674D01*
X153336Y203653D01*
X153434Y203627D01*
X153531Y203598D01*
X153627Y203566D01*
X153721Y203529D01*
X153814Y203489D01*
X153906Y203445D01*
X153995Y203398D01*
X154083Y203347D01*
X154169Y203293D01*
X154252Y203236D01*
X154334Y203176D01*
X154412Y203112D01*
X154489Y203046D01*
X154562Y202976D01*
X154633Y202904D01*
X154701Y202829D01*
X154766Y202751D01*
X154828Y202671D01*
X154887Y202589D01*
X154943Y202504D01*
X154995Y202417D01*
X155044Y202329D01*
X155090Y202238D01*
X155131Y202146D01*
X155170Y202052D01*
X155204Y201957D01*
X155235Y201861D01*
X155262Y201763D01*
X155286Y201665D01*
X155305Y201565D01*
X155321Y201465D01*
X155333Y201365D01*
X155341Y201264D01*
X155345Y201163D01*
X155345Y201061D01*
X155341Y200960D01*
X155333Y200859D01*
X155321Y200759D01*
X155305Y200659D01*
X155286Y200559D01*
X155262Y200461D01*
X155235Y200363D01*
X155204Y200267D01*
X155170Y200172D01*
X155131Y200078D01*
X155090Y199986D01*
X155044Y199895D01*
X154995Y199806D01*
X154943Y199720D01*
X154887Y199635D01*
X154828Y199553D01*
X154766Y199473D01*
X154701Y199395D01*
X154633Y199320D01*
X154562Y199248D01*
X154489Y199178D01*
X154412Y199112D01*
X154334Y199048D01*
X154252Y198988D01*
X154169Y198931D01*
X154083Y198877D01*
X153995Y198826D01*
X153906Y198779D01*
X153814Y198735D01*
X153721Y198695D01*
X153627Y198658D01*
X153531Y198626D01*
X153434Y198597D01*
X153336Y198571D01*
X153237Y198550D01*
X153137Y198532D01*
X153037Y198519D01*
X152936Y198509D01*
X152835Y198503D01*
X152734Y198501D01*
X150124Y198501D01*
X150124Y207899D01*
X152734Y207899D01*
X152824Y207897D01*
X152913Y207891D01*
X153003Y207882D01*
X153092Y207868D01*
X153180Y207851D01*
X153267Y207830D01*
X153354Y207805D01*
X153439Y207776D01*
X153523Y207744D01*
X153605Y207709D01*
X153686Y207669D01*
X153765Y207627D01*
X153842Y207581D01*
X153917Y207531D01*
X153990Y207479D01*
X154061Y207423D01*
X154129Y207365D01*
X154194Y207303D01*
X154257Y207239D01*
X154317Y207172D01*
X154374Y207103D01*
X154428Y207031D01*
X154479Y206957D01*
X154527Y206881D01*
X154571Y206803D01*
X154612Y206723D01*
X154650Y206641D01*
X154684Y206558D01*
X154714Y206473D01*
X154741Y206387D01*
X154764Y206301D01*
X154783Y206213D01*
X154798Y206124D01*
X154810Y206035D01*
X154818Y205946D01*
X154822Y205856D01*
X154822Y205766D01*
X154818Y205676D01*
X154810Y205587D01*
X154798Y205498D01*
X154783Y205409D01*
X154764Y205321D01*
X154741Y205235D01*
X154714Y205149D01*
X154684Y205064D01*
X154650Y204981D01*
X154612Y204899D01*
X154571Y204819D01*
X154527Y204741D01*
X154479Y204665D01*
X154428Y204591D01*
X154374Y204519D01*
X154317Y204450D01*
X154257Y204383D01*
X154194Y204319D01*
X154129Y204257D01*
X154061Y204199D01*
X153990Y204143D01*
X153917Y204091D01*
X153842Y204041D01*
X153765Y203995D01*
X153686Y203953D01*
X153605Y203913D01*
X153523Y203878D01*
X153439Y203846D01*
X153354Y203817D01*
X153267Y203792D01*
X153180Y203771D01*
X153092Y203754D01*
X153003Y203740D01*
X152913Y203731D01*
X152824Y203725D01*
X152734Y203723D01*
X159100Y204766D02*
X159100Y198501D01*
X159100Y204766D02*
X162233Y204766D01*
X162233Y203722D01*
X166711Y198501D02*
X169322Y198501D01*
X166711Y198501D02*
X166634Y198503D01*
X166558Y198509D01*
X166481Y198518D01*
X166405Y198531D01*
X166330Y198548D01*
X166256Y198568D01*
X166183Y198593D01*
X166112Y198620D01*
X166041Y198651D01*
X165973Y198686D01*
X165906Y198724D01*
X165841Y198765D01*
X165778Y198809D01*
X165718Y198856D01*
X165659Y198907D01*
X165604Y198960D01*
X165551Y199015D01*
X165500Y199074D01*
X165453Y199134D01*
X165409Y199197D01*
X165368Y199262D01*
X165330Y199329D01*
X165295Y199397D01*
X165264Y199468D01*
X165237Y199539D01*
X165212Y199612D01*
X165192Y199686D01*
X165175Y199761D01*
X165162Y199837D01*
X165153Y199914D01*
X165147Y199990D01*
X165145Y200067D01*
X165145Y202678D01*
X165147Y202768D01*
X165153Y202857D01*
X165162Y202947D01*
X165176Y203036D01*
X165193Y203124D01*
X165214Y203211D01*
X165239Y203298D01*
X165268Y203383D01*
X165300Y203467D01*
X165335Y203549D01*
X165375Y203630D01*
X165417Y203709D01*
X165463Y203786D01*
X165513Y203861D01*
X165565Y203934D01*
X165621Y204005D01*
X165679Y204073D01*
X165741Y204138D01*
X165805Y204201D01*
X165872Y204261D01*
X165941Y204318D01*
X166013Y204372D01*
X166087Y204423D01*
X166163Y204471D01*
X166241Y204515D01*
X166321Y204556D01*
X166403Y204594D01*
X166486Y204628D01*
X166571Y204658D01*
X166657Y204685D01*
X166743Y204708D01*
X166831Y204727D01*
X166920Y204742D01*
X167009Y204754D01*
X167098Y204762D01*
X167188Y204766D01*
X167278Y204766D01*
X167368Y204762D01*
X167457Y204754D01*
X167546Y204742D01*
X167635Y204727D01*
X167723Y204708D01*
X167809Y204685D01*
X167895Y204658D01*
X167980Y204628D01*
X168063Y204594D01*
X168145Y204556D01*
X168225Y204515D01*
X168303Y204471D01*
X168379Y204423D01*
X168453Y204372D01*
X168525Y204318D01*
X168594Y204261D01*
X168661Y204201D01*
X168725Y204138D01*
X168787Y204073D01*
X168845Y204005D01*
X168901Y203934D01*
X168953Y203861D01*
X169003Y203786D01*
X169049Y203709D01*
X169091Y203630D01*
X169131Y203549D01*
X169166Y203467D01*
X169198Y203383D01*
X169227Y203298D01*
X169252Y203211D01*
X169273Y203124D01*
X169290Y203036D01*
X169304Y202947D01*
X169313Y202857D01*
X169319Y202768D01*
X169321Y202678D01*
X169322Y202678D02*
X169322Y201634D01*
X165145Y201634D01*
X174851Y202156D02*
X177201Y202156D01*
X174851Y202155D02*
X174767Y202153D01*
X174682Y202147D01*
X174599Y202137D01*
X174515Y202124D01*
X174433Y202106D01*
X174351Y202085D01*
X174270Y202060D01*
X174191Y202032D01*
X174113Y201999D01*
X174037Y201963D01*
X173962Y201924D01*
X173889Y201881D01*
X173818Y201835D01*
X173750Y201786D01*
X173684Y201734D01*
X173620Y201678D01*
X173559Y201620D01*
X173501Y201559D01*
X173445Y201495D01*
X173393Y201429D01*
X173344Y201361D01*
X173298Y201290D01*
X173255Y201217D01*
X173216Y201142D01*
X173180Y201066D01*
X173147Y200988D01*
X173119Y200909D01*
X173094Y200828D01*
X173073Y200746D01*
X173055Y200664D01*
X173042Y200580D01*
X173032Y200497D01*
X173026Y200412D01*
X173024Y200328D01*
X173026Y200244D01*
X173032Y200159D01*
X173042Y200076D01*
X173055Y199992D01*
X173073Y199910D01*
X173094Y199828D01*
X173119Y199747D01*
X173147Y199668D01*
X173180Y199590D01*
X173216Y199514D01*
X173255Y199439D01*
X173298Y199366D01*
X173344Y199295D01*
X173393Y199227D01*
X173445Y199161D01*
X173501Y199097D01*
X173559Y199036D01*
X173620Y198978D01*
X173684Y198922D01*
X173750Y198870D01*
X173818Y198821D01*
X173889Y198775D01*
X173962Y198732D01*
X174037Y198693D01*
X174113Y198657D01*
X174191Y198624D01*
X174270Y198596D01*
X174351Y198571D01*
X174433Y198550D01*
X174515Y198532D01*
X174599Y198519D01*
X174682Y198509D01*
X174767Y198503D01*
X174851Y198501D01*
X177201Y198501D01*
X177201Y203200D01*
X177199Y203277D01*
X177193Y203353D01*
X177184Y203430D01*
X177171Y203506D01*
X177154Y203581D01*
X177134Y203655D01*
X177109Y203728D01*
X177082Y203799D01*
X177051Y203870D01*
X177016Y203938D01*
X176978Y204005D01*
X176937Y204070D01*
X176893Y204133D01*
X176846Y204193D01*
X176795Y204252D01*
X176742Y204307D01*
X176687Y204360D01*
X176628Y204411D01*
X176568Y204458D01*
X176505Y204502D01*
X176440Y204543D01*
X176373Y204581D01*
X176305Y204616D01*
X176234Y204647D01*
X176163Y204674D01*
X176090Y204699D01*
X176016Y204719D01*
X175941Y204736D01*
X175865Y204749D01*
X175788Y204758D01*
X175712Y204764D01*
X175635Y204766D01*
X173546Y204766D01*
X181709Y207899D02*
X181709Y198501D01*
X181709Y201634D02*
X185886Y204766D01*
X183536Y202939D02*
X185886Y198501D01*
X189224Y200589D02*
X189224Y202678D01*
X189226Y202768D01*
X189232Y202857D01*
X189241Y202947D01*
X189255Y203036D01*
X189272Y203124D01*
X189293Y203211D01*
X189318Y203298D01*
X189347Y203383D01*
X189379Y203467D01*
X189414Y203549D01*
X189454Y203630D01*
X189496Y203709D01*
X189542Y203786D01*
X189592Y203861D01*
X189644Y203934D01*
X189700Y204005D01*
X189758Y204073D01*
X189820Y204138D01*
X189884Y204201D01*
X189951Y204261D01*
X190020Y204318D01*
X190092Y204372D01*
X190166Y204423D01*
X190242Y204471D01*
X190320Y204515D01*
X190400Y204556D01*
X190482Y204594D01*
X190565Y204628D01*
X190650Y204658D01*
X190736Y204685D01*
X190822Y204708D01*
X190910Y204727D01*
X190999Y204742D01*
X191088Y204754D01*
X191177Y204762D01*
X191267Y204766D01*
X191357Y204766D01*
X191447Y204762D01*
X191536Y204754D01*
X191625Y204742D01*
X191714Y204727D01*
X191802Y204708D01*
X191888Y204685D01*
X191974Y204658D01*
X192059Y204628D01*
X192142Y204594D01*
X192224Y204556D01*
X192304Y204515D01*
X192382Y204471D01*
X192458Y204423D01*
X192532Y204372D01*
X192604Y204318D01*
X192673Y204261D01*
X192740Y204201D01*
X192804Y204138D01*
X192866Y204073D01*
X192924Y204005D01*
X192980Y203934D01*
X193032Y203861D01*
X193082Y203786D01*
X193128Y203709D01*
X193170Y203630D01*
X193210Y203549D01*
X193245Y203467D01*
X193277Y203383D01*
X193306Y203298D01*
X193331Y203211D01*
X193352Y203124D01*
X193369Y203036D01*
X193383Y202947D01*
X193392Y202857D01*
X193398Y202768D01*
X193400Y202678D01*
X193401Y202678D02*
X193401Y200589D01*
X193400Y200589D02*
X193398Y200499D01*
X193392Y200410D01*
X193383Y200320D01*
X193369Y200231D01*
X193352Y200143D01*
X193331Y200056D01*
X193306Y199969D01*
X193277Y199884D01*
X193245Y199800D01*
X193210Y199718D01*
X193170Y199637D01*
X193128Y199558D01*
X193082Y199481D01*
X193032Y199406D01*
X192980Y199333D01*
X192924Y199262D01*
X192866Y199194D01*
X192804Y199129D01*
X192740Y199066D01*
X192673Y199006D01*
X192604Y198949D01*
X192532Y198895D01*
X192458Y198844D01*
X192382Y198796D01*
X192304Y198752D01*
X192224Y198711D01*
X192142Y198673D01*
X192059Y198639D01*
X191974Y198609D01*
X191888Y198582D01*
X191802Y198559D01*
X191714Y198540D01*
X191625Y198525D01*
X191536Y198513D01*
X191447Y198505D01*
X191357Y198501D01*
X191267Y198501D01*
X191177Y198505D01*
X191088Y198513D01*
X190999Y198525D01*
X190910Y198540D01*
X190822Y198559D01*
X190736Y198582D01*
X190650Y198609D01*
X190565Y198639D01*
X190482Y198673D01*
X190400Y198711D01*
X190320Y198752D01*
X190242Y198796D01*
X190166Y198844D01*
X190092Y198895D01*
X190020Y198949D01*
X189951Y199006D01*
X189884Y199066D01*
X189820Y199129D01*
X189758Y199194D01*
X189700Y199262D01*
X189644Y199333D01*
X189592Y199406D01*
X189542Y199481D01*
X189496Y199558D01*
X189454Y199637D01*
X189414Y199718D01*
X189379Y199800D01*
X189347Y199884D01*
X189318Y199969D01*
X189293Y200056D01*
X189272Y200143D01*
X189255Y200231D01*
X189241Y200320D01*
X189232Y200410D01*
X189226Y200499D01*
X189224Y200589D01*
X197454Y200067D02*
X197454Y204766D01*
X197454Y200067D02*
X197456Y199990D01*
X197462Y199914D01*
X197471Y199837D01*
X197484Y199761D01*
X197501Y199686D01*
X197521Y199612D01*
X197546Y199539D01*
X197573Y199468D01*
X197604Y199397D01*
X197639Y199329D01*
X197677Y199262D01*
X197718Y199197D01*
X197762Y199134D01*
X197809Y199074D01*
X197860Y199015D01*
X197913Y198960D01*
X197968Y198907D01*
X198027Y198856D01*
X198087Y198809D01*
X198150Y198765D01*
X198215Y198724D01*
X198282Y198686D01*
X198350Y198651D01*
X198421Y198620D01*
X198492Y198593D01*
X198565Y198568D01*
X198639Y198548D01*
X198714Y198531D01*
X198790Y198518D01*
X198867Y198509D01*
X198943Y198503D01*
X199020Y198501D01*
X201630Y198501D01*
X201630Y204766D01*
X204914Y204766D02*
X208047Y204766D01*
X205959Y207899D02*
X205959Y200067D01*
X205961Y199990D01*
X205967Y199914D01*
X205976Y199837D01*
X205989Y199761D01*
X206006Y199686D01*
X206026Y199612D01*
X206051Y199539D01*
X206078Y199468D01*
X206109Y199397D01*
X206144Y199329D01*
X206182Y199262D01*
X206223Y199197D01*
X206267Y199134D01*
X206314Y199074D01*
X206365Y199015D01*
X206418Y198960D01*
X206473Y198907D01*
X206532Y198856D01*
X206592Y198809D01*
X206655Y198765D01*
X206720Y198724D01*
X206787Y198686D01*
X206855Y198651D01*
X206926Y198620D01*
X206997Y198593D01*
X207070Y198568D01*
X207144Y198548D01*
X207219Y198531D01*
X207295Y198518D01*
X207372Y198509D01*
X207448Y198503D01*
X207525Y198501D01*
X208047Y198501D01*
X218135Y198501D02*
X216046Y204766D01*
X220223Y204766D02*
X218135Y198501D01*
X223754Y205811D02*
X226364Y207899D01*
X226364Y198501D01*
X223754Y198501D02*
X228975Y198501D01*
X232504Y198501D02*
X232504Y199023D01*
X233026Y199023D01*
X233026Y198501D01*
X232504Y198501D01*
X236555Y203200D02*
X236557Y203385D01*
X236564Y203570D01*
X236575Y203754D01*
X236590Y203938D01*
X236610Y204122D01*
X236634Y204306D01*
X236663Y204488D01*
X236696Y204670D01*
X236733Y204851D01*
X236775Y205031D01*
X236821Y205211D01*
X236871Y205389D01*
X236925Y205565D01*
X236984Y205741D01*
X237046Y205915D01*
X237113Y206087D01*
X237184Y206258D01*
X237259Y206427D01*
X237338Y206594D01*
X237368Y206674D01*
X237401Y206753D01*
X237438Y206830D01*
X237478Y206906D01*
X237521Y206980D01*
X237567Y207052D01*
X237617Y207121D01*
X237669Y207189D01*
X237725Y207254D01*
X237783Y207317D01*
X237845Y207376D01*
X237908Y207434D01*
X237975Y207488D01*
X238043Y207539D01*
X238114Y207587D01*
X238187Y207632D01*
X238261Y207674D01*
X238338Y207712D01*
X238416Y207747D01*
X238495Y207779D01*
X238576Y207807D01*
X238658Y207831D01*
X238742Y207852D01*
X238825Y207869D01*
X238910Y207882D01*
X238995Y207891D01*
X239080Y207897D01*
X239166Y207899D01*
X239252Y207897D01*
X239337Y207891D01*
X239422Y207882D01*
X239507Y207869D01*
X239590Y207852D01*
X239674Y207831D01*
X239756Y207807D01*
X239837Y207779D01*
X239916Y207747D01*
X239994Y207712D01*
X240071Y207674D01*
X240145Y207632D01*
X240218Y207587D01*
X240289Y207539D01*
X240357Y207488D01*
X240424Y207434D01*
X240487Y207376D01*
X240549Y207317D01*
X240607Y207254D01*
X240663Y207189D01*
X240715Y207121D01*
X240765Y207052D01*
X240811Y206980D01*
X240854Y206906D01*
X240894Y206830D01*
X240931Y206753D01*
X240964Y206674D01*
X240994Y206594D01*
X241073Y206427D01*
X241148Y206258D01*
X241219Y206087D01*
X241286Y205915D01*
X241348Y205741D01*
X241407Y205565D01*
X241461Y205389D01*
X241511Y205211D01*
X241557Y205031D01*
X241599Y204851D01*
X241636Y204670D01*
X241669Y204488D01*
X241698Y204306D01*
X241722Y204122D01*
X241742Y203938D01*
X241757Y203754D01*
X241768Y203570D01*
X241775Y203385D01*
X241777Y203200D01*
X236555Y203200D02*
X236557Y203015D01*
X236564Y202830D01*
X236575Y202646D01*
X236590Y202462D01*
X236610Y202278D01*
X236634Y202094D01*
X236663Y201912D01*
X236696Y201730D01*
X236733Y201549D01*
X236775Y201369D01*
X236821Y201189D01*
X236871Y201011D01*
X236925Y200835D01*
X236984Y200659D01*
X237046Y200485D01*
X237113Y200313D01*
X237184Y200142D01*
X237259Y199973D01*
X237338Y199806D01*
X237368Y199726D01*
X237401Y199647D01*
X237438Y199570D01*
X237478Y199494D01*
X237521Y199420D01*
X237567Y199348D01*
X237617Y199279D01*
X237670Y199211D01*
X237725Y199146D01*
X237784Y199083D01*
X237845Y199024D01*
X237908Y198966D01*
X237975Y198912D01*
X238043Y198861D01*
X238114Y198813D01*
X238187Y198768D01*
X238261Y198726D01*
X238338Y198688D01*
X238416Y198653D01*
X238495Y198621D01*
X238576Y198593D01*
X238658Y198569D01*
X238742Y198548D01*
X238825Y198531D01*
X238910Y198518D01*
X238995Y198509D01*
X239080Y198503D01*
X239166Y198501D01*
X240993Y199806D02*
X241072Y199973D01*
X241147Y200142D01*
X241218Y200313D01*
X241285Y200485D01*
X241347Y200659D01*
X241406Y200835D01*
X241460Y201011D01*
X241510Y201189D01*
X241556Y201369D01*
X241598Y201549D01*
X241635Y201730D01*
X241668Y201912D01*
X241697Y202094D01*
X241721Y202278D01*
X241741Y202462D01*
X241756Y202646D01*
X241767Y202830D01*
X241774Y203015D01*
X241776Y203200D01*
X240994Y199806D02*
X240964Y199726D01*
X240931Y199647D01*
X240894Y199570D01*
X240854Y199494D01*
X240811Y199420D01*
X240765Y199348D01*
X240715Y199279D01*
X240663Y199211D01*
X240607Y199146D01*
X240549Y199083D01*
X240487Y199024D01*
X240424Y198966D01*
X240357Y198912D01*
X240289Y198861D01*
X240218Y198813D01*
X240145Y198768D01*
X240071Y198726D01*
X239994Y198688D01*
X239916Y198653D01*
X239837Y198621D01*
X239756Y198593D01*
X239674Y198569D01*
X239590Y198548D01*
X239507Y198531D01*
X239422Y198518D01*
X239337Y198509D01*
X239252Y198503D01*
X239166Y198501D01*
X237077Y200589D02*
X241254Y205811D01*
X16903Y193929D02*
X16903Y184531D01*
X15859Y184531D02*
X17947Y184531D01*
X17947Y193929D02*
X15859Y193929D01*
X21871Y193929D02*
X21871Y184531D01*
X24481Y184531D01*
X24558Y184533D01*
X24634Y184539D01*
X24711Y184548D01*
X24787Y184561D01*
X24862Y184578D01*
X24936Y184598D01*
X25009Y184623D01*
X25080Y184650D01*
X25151Y184681D01*
X25219Y184716D01*
X25286Y184754D01*
X25351Y184795D01*
X25414Y184839D01*
X25474Y184886D01*
X25533Y184937D01*
X25588Y184990D01*
X25641Y185045D01*
X25692Y185104D01*
X25739Y185164D01*
X25783Y185227D01*
X25824Y185292D01*
X25862Y185359D01*
X25897Y185427D01*
X25928Y185498D01*
X25955Y185569D01*
X25980Y185642D01*
X26000Y185716D01*
X26017Y185791D01*
X26030Y185867D01*
X26039Y185943D01*
X26045Y186020D01*
X26047Y186097D01*
X26047Y189230D01*
X26045Y189307D01*
X26039Y189383D01*
X26030Y189460D01*
X26017Y189536D01*
X26000Y189611D01*
X25980Y189685D01*
X25955Y189758D01*
X25928Y189829D01*
X25897Y189900D01*
X25862Y189968D01*
X25824Y190035D01*
X25783Y190100D01*
X25739Y190163D01*
X25692Y190223D01*
X25641Y190282D01*
X25588Y190337D01*
X25533Y190390D01*
X25474Y190441D01*
X25414Y190488D01*
X25351Y190532D01*
X25286Y190573D01*
X25219Y190611D01*
X25151Y190646D01*
X25080Y190677D01*
X25009Y190704D01*
X24936Y190729D01*
X24862Y190749D01*
X24787Y190766D01*
X24711Y190779D01*
X24634Y190788D01*
X24558Y190794D01*
X24481Y190796D01*
X21871Y190796D01*
X30106Y190796D02*
X30106Y184531D01*
X30106Y190796D02*
X33239Y190796D01*
X33239Y189752D01*
X37932Y188186D02*
X40282Y188186D01*
X37932Y188185D02*
X37848Y188183D01*
X37763Y188177D01*
X37680Y188167D01*
X37596Y188154D01*
X37514Y188136D01*
X37432Y188115D01*
X37351Y188090D01*
X37272Y188062D01*
X37194Y188029D01*
X37118Y187993D01*
X37043Y187954D01*
X36970Y187911D01*
X36899Y187865D01*
X36831Y187816D01*
X36765Y187764D01*
X36701Y187708D01*
X36640Y187650D01*
X36582Y187589D01*
X36526Y187525D01*
X36474Y187459D01*
X36425Y187391D01*
X36379Y187320D01*
X36336Y187247D01*
X36297Y187172D01*
X36261Y187096D01*
X36228Y187018D01*
X36200Y186939D01*
X36175Y186858D01*
X36154Y186776D01*
X36136Y186694D01*
X36123Y186610D01*
X36113Y186527D01*
X36107Y186442D01*
X36105Y186358D01*
X36107Y186274D01*
X36113Y186189D01*
X36123Y186106D01*
X36136Y186022D01*
X36154Y185940D01*
X36175Y185858D01*
X36200Y185777D01*
X36228Y185698D01*
X36261Y185620D01*
X36297Y185544D01*
X36336Y185469D01*
X36379Y185396D01*
X36425Y185325D01*
X36474Y185257D01*
X36526Y185191D01*
X36582Y185127D01*
X36640Y185066D01*
X36701Y185008D01*
X36765Y184952D01*
X36831Y184900D01*
X36899Y184851D01*
X36970Y184805D01*
X37043Y184762D01*
X37118Y184723D01*
X37194Y184687D01*
X37272Y184654D01*
X37351Y184626D01*
X37432Y184601D01*
X37514Y184580D01*
X37596Y184562D01*
X37680Y184549D01*
X37763Y184539D01*
X37848Y184533D01*
X37932Y184531D01*
X40282Y184531D01*
X40282Y189230D01*
X40281Y189230D02*
X40279Y189307D01*
X40273Y189383D01*
X40264Y189460D01*
X40251Y189536D01*
X40234Y189611D01*
X40214Y189685D01*
X40189Y189758D01*
X40162Y189829D01*
X40131Y189900D01*
X40096Y189968D01*
X40058Y190035D01*
X40017Y190100D01*
X39973Y190163D01*
X39926Y190223D01*
X39875Y190282D01*
X39822Y190337D01*
X39767Y190390D01*
X39708Y190441D01*
X39648Y190488D01*
X39585Y190532D01*
X39520Y190573D01*
X39453Y190611D01*
X39385Y190646D01*
X39314Y190677D01*
X39243Y190704D01*
X39170Y190729D01*
X39096Y190749D01*
X39021Y190766D01*
X38945Y190779D01*
X38868Y190788D01*
X38792Y190794D01*
X38715Y190796D01*
X36627Y190796D01*
X44685Y193929D02*
X44685Y184531D01*
X44685Y190796D02*
X47295Y190796D01*
X47372Y190794D01*
X47448Y190788D01*
X47525Y190779D01*
X47601Y190766D01*
X47676Y190749D01*
X47750Y190729D01*
X47823Y190704D01*
X47894Y190677D01*
X47965Y190646D01*
X48033Y190611D01*
X48100Y190573D01*
X48165Y190532D01*
X48228Y190488D01*
X48288Y190441D01*
X48347Y190390D01*
X48402Y190337D01*
X48455Y190282D01*
X48506Y190223D01*
X48553Y190163D01*
X48597Y190100D01*
X48638Y190035D01*
X48676Y189968D01*
X48711Y189900D01*
X48742Y189829D01*
X48769Y189758D01*
X48794Y189685D01*
X48814Y189611D01*
X48831Y189536D01*
X48844Y189460D01*
X48853Y189384D01*
X48859Y189307D01*
X48861Y189230D01*
X48862Y189230D02*
X48862Y184531D01*
X52869Y184531D02*
X52869Y190796D01*
X52608Y193407D02*
X52608Y193929D01*
X53130Y193929D01*
X53130Y193407D01*
X52608Y193407D01*
X57052Y190796D02*
X57052Y184531D01*
X57052Y190796D02*
X61751Y190796D01*
X61828Y190794D01*
X61904Y190788D01*
X61981Y190779D01*
X62057Y190766D01*
X62132Y190749D01*
X62206Y190729D01*
X62279Y190704D01*
X62350Y190677D01*
X62421Y190646D01*
X62489Y190611D01*
X62556Y190573D01*
X62621Y190532D01*
X62684Y190488D01*
X62744Y190441D01*
X62803Y190390D01*
X62858Y190337D01*
X62911Y190282D01*
X62962Y190223D01*
X63009Y190163D01*
X63053Y190100D01*
X63094Y190035D01*
X63132Y189968D01*
X63167Y189900D01*
X63198Y189829D01*
X63225Y189758D01*
X63250Y189685D01*
X63270Y189611D01*
X63287Y189536D01*
X63300Y189460D01*
X63309Y189383D01*
X63315Y189307D01*
X63317Y189230D01*
X63317Y184531D01*
X60184Y184531D02*
X60184Y190796D01*
X71987Y184531D02*
X75119Y193929D01*
X78252Y184531D01*
X77469Y186881D02*
X72770Y186881D01*
X81691Y186097D02*
X81691Y193929D01*
X81691Y186097D02*
X81693Y186020D01*
X81699Y185944D01*
X81708Y185867D01*
X81721Y185791D01*
X81738Y185716D01*
X81758Y185642D01*
X81783Y185569D01*
X81810Y185498D01*
X81841Y185427D01*
X81876Y185359D01*
X81914Y185292D01*
X81955Y185227D01*
X81999Y185164D01*
X82046Y185104D01*
X82097Y185045D01*
X82150Y184990D01*
X82205Y184937D01*
X82264Y184886D01*
X82324Y184839D01*
X82387Y184795D01*
X82452Y184754D01*
X82519Y184716D01*
X82587Y184681D01*
X82658Y184650D01*
X82729Y184623D01*
X82802Y184598D01*
X82876Y184578D01*
X82951Y184561D01*
X83027Y184548D01*
X83104Y184539D01*
X83180Y184533D01*
X83257Y184531D01*
X87047Y187142D02*
X87047Y191318D01*
X87046Y191318D02*
X87048Y191419D01*
X87054Y191520D01*
X87064Y191621D01*
X87077Y191721D01*
X87095Y191821D01*
X87116Y191920D01*
X87142Y192018D01*
X87171Y192115D01*
X87203Y192211D01*
X87240Y192305D01*
X87280Y192398D01*
X87324Y192490D01*
X87371Y192579D01*
X87422Y192667D01*
X87476Y192753D01*
X87533Y192836D01*
X87593Y192918D01*
X87657Y192996D01*
X87723Y193073D01*
X87793Y193146D01*
X87865Y193217D01*
X87940Y193285D01*
X88018Y193350D01*
X88098Y193412D01*
X88180Y193471D01*
X88265Y193527D01*
X88352Y193579D01*
X88440Y193628D01*
X88531Y193674D01*
X88623Y193715D01*
X88717Y193754D01*
X88812Y193788D01*
X88908Y193819D01*
X89006Y193846D01*
X89104Y193870D01*
X89204Y193889D01*
X89304Y193905D01*
X89404Y193917D01*
X89505Y193925D01*
X89606Y193929D01*
X89708Y193929D01*
X89809Y193925D01*
X89910Y193917D01*
X90010Y193905D01*
X90110Y193889D01*
X90210Y193870D01*
X90308Y193846D01*
X90406Y193819D01*
X90502Y193788D01*
X90597Y193754D01*
X90691Y193715D01*
X90783Y193674D01*
X90874Y193628D01*
X90963Y193579D01*
X91049Y193527D01*
X91134Y193471D01*
X91216Y193412D01*
X91296Y193350D01*
X91374Y193285D01*
X91449Y193217D01*
X91521Y193146D01*
X91591Y193073D01*
X91657Y192996D01*
X91721Y192918D01*
X91781Y192836D01*
X91838Y192753D01*
X91892Y192667D01*
X91943Y192579D01*
X91990Y192490D01*
X92034Y192398D01*
X92074Y192305D01*
X92111Y192211D01*
X92143Y192115D01*
X92172Y192018D01*
X92198Y191920D01*
X92219Y191821D01*
X92237Y191721D01*
X92250Y191621D01*
X92260Y191520D01*
X92266Y191419D01*
X92268Y191318D01*
X92268Y187142D01*
X92266Y187041D01*
X92260Y186940D01*
X92250Y186839D01*
X92237Y186739D01*
X92219Y186639D01*
X92198Y186540D01*
X92172Y186442D01*
X92143Y186345D01*
X92111Y186249D01*
X92074Y186155D01*
X92034Y186062D01*
X91990Y185970D01*
X91943Y185881D01*
X91892Y185793D01*
X91838Y185707D01*
X91781Y185624D01*
X91721Y185542D01*
X91657Y185464D01*
X91591Y185387D01*
X91521Y185314D01*
X91449Y185243D01*
X91374Y185175D01*
X91296Y185110D01*
X91216Y185048D01*
X91134Y184989D01*
X91049Y184933D01*
X90962Y184881D01*
X90874Y184832D01*
X90783Y184786D01*
X90691Y184745D01*
X90597Y184706D01*
X90502Y184672D01*
X90406Y184641D01*
X90308Y184614D01*
X90210Y184590D01*
X90110Y184571D01*
X90010Y184555D01*
X89910Y184543D01*
X89809Y184535D01*
X89708Y184531D01*
X89606Y184531D01*
X89505Y184535D01*
X89404Y184543D01*
X89304Y184555D01*
X89204Y184571D01*
X89104Y184590D01*
X89006Y184614D01*
X88908Y184641D01*
X88812Y184672D01*
X88717Y184706D01*
X88623Y184745D01*
X88531Y184786D01*
X88440Y184832D01*
X88352Y184881D01*
X88265Y184933D01*
X88180Y184989D01*
X88098Y185048D01*
X88018Y185110D01*
X87940Y185175D01*
X87865Y185243D01*
X87793Y185314D01*
X87723Y185387D01*
X87657Y185464D01*
X87593Y185542D01*
X87533Y185624D01*
X87476Y185707D01*
X87422Y185793D01*
X87371Y185881D01*
X87324Y185970D01*
X87280Y186062D01*
X87240Y186155D01*
X87203Y186249D01*
X87171Y186345D01*
X87142Y186442D01*
X87116Y186540D01*
X87095Y186639D01*
X87077Y186739D01*
X87064Y186839D01*
X87054Y186940D01*
X87048Y187041D01*
X87046Y187142D01*
X91223Y186619D02*
X93312Y184531D01*
X97673Y188186D02*
X100022Y188186D01*
X97673Y188185D02*
X97589Y188183D01*
X97504Y188177D01*
X97421Y188167D01*
X97337Y188154D01*
X97255Y188136D01*
X97173Y188115D01*
X97092Y188090D01*
X97013Y188062D01*
X96935Y188029D01*
X96859Y187993D01*
X96784Y187954D01*
X96711Y187911D01*
X96640Y187865D01*
X96572Y187816D01*
X96506Y187764D01*
X96442Y187708D01*
X96381Y187650D01*
X96323Y187589D01*
X96267Y187525D01*
X96215Y187459D01*
X96166Y187391D01*
X96120Y187320D01*
X96077Y187247D01*
X96038Y187172D01*
X96002Y187096D01*
X95969Y187018D01*
X95941Y186939D01*
X95916Y186858D01*
X95895Y186776D01*
X95877Y186694D01*
X95864Y186610D01*
X95854Y186527D01*
X95848Y186442D01*
X95846Y186358D01*
X95848Y186274D01*
X95854Y186189D01*
X95864Y186106D01*
X95877Y186022D01*
X95895Y185940D01*
X95916Y185858D01*
X95941Y185777D01*
X95969Y185698D01*
X96002Y185620D01*
X96038Y185544D01*
X96077Y185469D01*
X96120Y185396D01*
X96166Y185325D01*
X96215Y185257D01*
X96267Y185191D01*
X96323Y185127D01*
X96381Y185066D01*
X96442Y185008D01*
X96506Y184952D01*
X96572Y184900D01*
X96640Y184851D01*
X96711Y184805D01*
X96784Y184762D01*
X96859Y184723D01*
X96935Y184687D01*
X97013Y184654D01*
X97092Y184626D01*
X97173Y184601D01*
X97255Y184580D01*
X97337Y184562D01*
X97421Y184549D01*
X97504Y184539D01*
X97589Y184533D01*
X97673Y184531D01*
X100022Y184531D01*
X100022Y189230D01*
X100020Y189307D01*
X100014Y189383D01*
X100005Y189460D01*
X99992Y189536D01*
X99975Y189611D01*
X99955Y189685D01*
X99930Y189758D01*
X99903Y189829D01*
X99872Y189900D01*
X99837Y189968D01*
X99799Y190035D01*
X99758Y190100D01*
X99714Y190163D01*
X99667Y190223D01*
X99616Y190282D01*
X99563Y190337D01*
X99508Y190390D01*
X99449Y190441D01*
X99389Y190488D01*
X99326Y190532D01*
X99261Y190573D01*
X99194Y190611D01*
X99126Y190646D01*
X99055Y190677D01*
X98984Y190704D01*
X98911Y190729D01*
X98837Y190749D01*
X98762Y190766D01*
X98686Y190779D01*
X98609Y190788D01*
X98533Y190794D01*
X98456Y190796D01*
X96367Y190796D01*
X103352Y190796D02*
X106484Y190796D01*
X104396Y193929D02*
X104396Y186097D01*
X104398Y186020D01*
X104404Y185944D01*
X104413Y185867D01*
X104426Y185791D01*
X104443Y185716D01*
X104463Y185642D01*
X104488Y185569D01*
X104515Y185498D01*
X104546Y185427D01*
X104581Y185359D01*
X104619Y185292D01*
X104660Y185227D01*
X104704Y185164D01*
X104751Y185104D01*
X104802Y185045D01*
X104855Y184990D01*
X104910Y184937D01*
X104969Y184886D01*
X105029Y184839D01*
X105092Y184795D01*
X105157Y184754D01*
X105224Y184716D01*
X105292Y184681D01*
X105363Y184650D01*
X105434Y184623D01*
X105507Y184598D01*
X105581Y184578D01*
X105656Y184561D01*
X105732Y184548D01*
X105809Y184539D01*
X105885Y184533D01*
X105962Y184531D01*
X106484Y184531D01*
X109143Y190796D02*
X112275Y190796D01*
X110187Y193929D02*
X110187Y186097D01*
X110189Y186020D01*
X110195Y185944D01*
X110204Y185867D01*
X110217Y185791D01*
X110234Y185716D01*
X110254Y185642D01*
X110279Y185569D01*
X110306Y185498D01*
X110337Y185427D01*
X110372Y185359D01*
X110410Y185292D01*
X110451Y185227D01*
X110495Y185164D01*
X110542Y185104D01*
X110593Y185045D01*
X110646Y184990D01*
X110701Y184937D01*
X110760Y184886D01*
X110820Y184839D01*
X110883Y184795D01*
X110948Y184754D01*
X111015Y184716D01*
X111083Y184681D01*
X111154Y184650D01*
X111225Y184623D01*
X111298Y184598D01*
X111372Y184578D01*
X111447Y184561D01*
X111523Y184548D01*
X111600Y184539D01*
X111676Y184533D01*
X111753Y184531D01*
X112275Y184531D01*
X117484Y188186D02*
X119834Y188186D01*
X117484Y188185D02*
X117400Y188183D01*
X117315Y188177D01*
X117232Y188167D01*
X117148Y188154D01*
X117066Y188136D01*
X116984Y188115D01*
X116903Y188090D01*
X116824Y188062D01*
X116746Y188029D01*
X116670Y187993D01*
X116595Y187954D01*
X116522Y187911D01*
X116451Y187865D01*
X116383Y187816D01*
X116317Y187764D01*
X116253Y187708D01*
X116192Y187650D01*
X116134Y187589D01*
X116078Y187525D01*
X116026Y187459D01*
X115977Y187391D01*
X115931Y187320D01*
X115888Y187247D01*
X115849Y187172D01*
X115813Y187096D01*
X115780Y187018D01*
X115752Y186939D01*
X115727Y186858D01*
X115706Y186776D01*
X115688Y186694D01*
X115675Y186610D01*
X115665Y186527D01*
X115659Y186442D01*
X115657Y186358D01*
X115659Y186274D01*
X115665Y186189D01*
X115675Y186106D01*
X115688Y186022D01*
X115706Y185940D01*
X115727Y185858D01*
X115752Y185777D01*
X115780Y185698D01*
X115813Y185620D01*
X115849Y185544D01*
X115888Y185469D01*
X115931Y185396D01*
X115977Y185325D01*
X116026Y185257D01*
X116078Y185191D01*
X116134Y185127D01*
X116192Y185066D01*
X116253Y185008D01*
X116317Y184952D01*
X116383Y184900D01*
X116451Y184851D01*
X116522Y184805D01*
X116595Y184762D01*
X116670Y184723D01*
X116746Y184687D01*
X116824Y184654D01*
X116903Y184626D01*
X116984Y184601D01*
X117066Y184580D01*
X117148Y184562D01*
X117232Y184549D01*
X117315Y184539D01*
X117400Y184533D01*
X117484Y184531D01*
X119834Y184531D01*
X119834Y189230D01*
X119832Y189307D01*
X119826Y189383D01*
X119817Y189460D01*
X119804Y189536D01*
X119787Y189611D01*
X119767Y189685D01*
X119742Y189758D01*
X119715Y189829D01*
X119684Y189900D01*
X119649Y189968D01*
X119611Y190035D01*
X119570Y190100D01*
X119526Y190163D01*
X119479Y190223D01*
X119428Y190282D01*
X119375Y190337D01*
X119320Y190390D01*
X119261Y190441D01*
X119201Y190488D01*
X119138Y190532D01*
X119073Y190573D01*
X119006Y190611D01*
X118938Y190646D01*
X118867Y190677D01*
X118796Y190704D01*
X118723Y190729D01*
X118649Y190749D01*
X118574Y190766D01*
X118498Y190779D01*
X118421Y190788D01*
X118345Y190794D01*
X118268Y190796D01*
X116179Y190796D01*
X124237Y190796D02*
X124237Y184531D01*
X124237Y190796D02*
X126848Y190796D01*
X126925Y190794D01*
X127001Y190788D01*
X127078Y190779D01*
X127154Y190766D01*
X127229Y190749D01*
X127303Y190729D01*
X127376Y190704D01*
X127447Y190677D01*
X127518Y190646D01*
X127586Y190611D01*
X127653Y190573D01*
X127718Y190532D01*
X127781Y190488D01*
X127841Y190441D01*
X127900Y190390D01*
X127955Y190337D01*
X128008Y190282D01*
X128059Y190223D01*
X128106Y190163D01*
X128150Y190100D01*
X128191Y190035D01*
X128229Y189968D01*
X128264Y189900D01*
X128295Y189829D01*
X128322Y189758D01*
X128347Y189685D01*
X128367Y189611D01*
X128384Y189536D01*
X128397Y189460D01*
X128406Y189384D01*
X128412Y189307D01*
X128414Y189230D01*
X128414Y184531D01*
X142395Y188186D02*
X148660Y188186D01*
X161507Y189752D02*
X163073Y189752D01*
X163073Y184531D01*
X159941Y184531D01*
X159852Y184533D01*
X159764Y184539D01*
X159676Y184548D01*
X159588Y184561D01*
X159501Y184578D01*
X159415Y184598D01*
X159330Y184623D01*
X159245Y184650D01*
X159162Y184682D01*
X159081Y184716D01*
X159001Y184755D01*
X158923Y184796D01*
X158846Y184841D01*
X158772Y184889D01*
X158699Y184940D01*
X158629Y184994D01*
X158562Y185052D01*
X158496Y185112D01*
X158434Y185174D01*
X158374Y185240D01*
X158316Y185307D01*
X158262Y185377D01*
X158211Y185450D01*
X158163Y185524D01*
X158118Y185601D01*
X158077Y185679D01*
X158038Y185759D01*
X158004Y185840D01*
X157972Y185923D01*
X157945Y186008D01*
X157920Y186093D01*
X157900Y186179D01*
X157883Y186266D01*
X157870Y186354D01*
X157861Y186442D01*
X157855Y186530D01*
X157853Y186619D01*
X157852Y186619D02*
X157852Y191841D01*
X157853Y191841D02*
X157855Y191932D01*
X157861Y192023D01*
X157871Y192114D01*
X157885Y192204D01*
X157902Y192293D01*
X157924Y192381D01*
X157950Y192469D01*
X157979Y192555D01*
X158012Y192640D01*
X158049Y192723D01*
X158089Y192805D01*
X158133Y192885D01*
X158180Y192963D01*
X158231Y193039D01*
X158284Y193112D01*
X158341Y193183D01*
X158402Y193252D01*
X158465Y193317D01*
X158530Y193380D01*
X158599Y193440D01*
X158670Y193498D01*
X158743Y193551D01*
X158819Y193602D01*
X158897Y193649D01*
X158977Y193693D01*
X159059Y193733D01*
X159142Y193770D01*
X159227Y193803D01*
X159313Y193832D01*
X159401Y193858D01*
X159489Y193880D01*
X159578Y193897D01*
X159668Y193911D01*
X159759Y193921D01*
X159850Y193927D01*
X159941Y193929D01*
X163073Y193929D01*
X167168Y190796D02*
X167168Y184531D01*
X166907Y193407D02*
X166907Y193929D01*
X167430Y193929D01*
X167430Y193407D01*
X166907Y193407D01*
X171654Y188186D02*
X174265Y187142D01*
X171654Y188186D02*
X171588Y188214D01*
X171523Y188247D01*
X171460Y188282D01*
X171399Y188321D01*
X171340Y188363D01*
X171284Y188408D01*
X171230Y188456D01*
X171179Y188507D01*
X171130Y188560D01*
X171085Y188617D01*
X171042Y188675D01*
X171003Y188735D01*
X170966Y188798D01*
X170934Y188863D01*
X170905Y188929D01*
X170879Y188996D01*
X170857Y189065D01*
X170839Y189135D01*
X170824Y189206D01*
X170813Y189277D01*
X170806Y189349D01*
X170803Y189421D01*
X170804Y189493D01*
X170809Y189566D01*
X170817Y189637D01*
X170829Y189709D01*
X170845Y189779D01*
X170865Y189848D01*
X170889Y189917D01*
X170916Y189984D01*
X170946Y190049D01*
X170980Y190113D01*
X171018Y190175D01*
X171058Y190235D01*
X171102Y190292D01*
X171149Y190347D01*
X171199Y190400D01*
X171251Y190449D01*
X171306Y190496D01*
X171363Y190540D01*
X171423Y190581D01*
X171485Y190618D01*
X171549Y190653D01*
X171614Y190683D01*
X171681Y190711D01*
X171749Y190734D01*
X171819Y190754D01*
X171889Y190770D01*
X171960Y190783D01*
X172032Y190791D01*
X172104Y190796D01*
X172176Y190797D01*
X172177Y190796D02*
X172328Y190792D01*
X172479Y190784D01*
X172630Y190773D01*
X172781Y190757D01*
X172931Y190737D01*
X173081Y190714D01*
X173230Y190687D01*
X173378Y190656D01*
X173526Y190621D01*
X173672Y190583D01*
X173818Y190540D01*
X173962Y190494D01*
X174105Y190445D01*
X174247Y190392D01*
X174387Y190335D01*
X174526Y190274D01*
X174265Y187142D02*
X174331Y187114D01*
X174396Y187081D01*
X174459Y187046D01*
X174520Y187007D01*
X174579Y186965D01*
X174635Y186920D01*
X174689Y186872D01*
X174740Y186821D01*
X174789Y186768D01*
X174834Y186711D01*
X174877Y186653D01*
X174916Y186593D01*
X174953Y186530D01*
X174985Y186465D01*
X175014Y186399D01*
X175040Y186332D01*
X175062Y186263D01*
X175080Y186193D01*
X175095Y186122D01*
X175106Y186051D01*
X175113Y185979D01*
X175116Y185907D01*
X175115Y185835D01*
X175110Y185762D01*
X175102Y185691D01*
X175090Y185619D01*
X175074Y185549D01*
X175054Y185480D01*
X175030Y185411D01*
X175003Y185344D01*
X174973Y185279D01*
X174939Y185215D01*
X174901Y185153D01*
X174861Y185093D01*
X174817Y185036D01*
X174770Y184981D01*
X174720Y184928D01*
X174668Y184879D01*
X174613Y184832D01*
X174556Y184788D01*
X174496Y184747D01*
X174434Y184710D01*
X174370Y184675D01*
X174305Y184645D01*
X174238Y184617D01*
X174170Y184594D01*
X174100Y184574D01*
X174030Y184558D01*
X173959Y184545D01*
X173887Y184537D01*
X173815Y184532D01*
X173743Y184531D01*
X173533Y184536D01*
X173324Y184547D01*
X173115Y184562D01*
X172907Y184582D01*
X172699Y184608D01*
X172492Y184638D01*
X172285Y184673D01*
X172080Y184713D01*
X171875Y184757D01*
X171672Y184807D01*
X171469Y184861D01*
X171268Y184921D01*
X171069Y184984D01*
X170871Y185053D01*
X180362Y184531D02*
X182973Y184531D01*
X180362Y184531D02*
X180285Y184533D01*
X180209Y184539D01*
X180132Y184548D01*
X180056Y184561D01*
X179981Y184578D01*
X179907Y184598D01*
X179834Y184623D01*
X179763Y184650D01*
X179692Y184681D01*
X179624Y184716D01*
X179557Y184754D01*
X179492Y184795D01*
X179429Y184839D01*
X179369Y184886D01*
X179310Y184937D01*
X179255Y184990D01*
X179202Y185045D01*
X179151Y185104D01*
X179104Y185164D01*
X179060Y185227D01*
X179019Y185292D01*
X178981Y185359D01*
X178946Y185427D01*
X178915Y185498D01*
X178888Y185569D01*
X178863Y185642D01*
X178843Y185716D01*
X178826Y185791D01*
X178813Y185867D01*
X178804Y185944D01*
X178798Y186020D01*
X178796Y186097D01*
X178796Y188708D01*
X178798Y188798D01*
X178804Y188887D01*
X178813Y188977D01*
X178827Y189066D01*
X178844Y189154D01*
X178865Y189241D01*
X178890Y189328D01*
X178919Y189413D01*
X178951Y189497D01*
X178986Y189579D01*
X179026Y189660D01*
X179068Y189739D01*
X179114Y189816D01*
X179164Y189891D01*
X179216Y189964D01*
X179272Y190035D01*
X179330Y190103D01*
X179392Y190168D01*
X179456Y190231D01*
X179523Y190291D01*
X179592Y190348D01*
X179664Y190402D01*
X179738Y190453D01*
X179814Y190501D01*
X179892Y190545D01*
X179972Y190586D01*
X180054Y190624D01*
X180137Y190658D01*
X180222Y190688D01*
X180308Y190715D01*
X180394Y190738D01*
X180482Y190757D01*
X180571Y190772D01*
X180660Y190784D01*
X180749Y190792D01*
X180839Y190796D01*
X180929Y190796D01*
X181019Y190792D01*
X181108Y190784D01*
X181197Y190772D01*
X181286Y190757D01*
X181374Y190738D01*
X181460Y190715D01*
X181546Y190688D01*
X181631Y190658D01*
X181714Y190624D01*
X181796Y190586D01*
X181876Y190545D01*
X181954Y190501D01*
X182030Y190453D01*
X182104Y190402D01*
X182176Y190348D01*
X182245Y190291D01*
X182312Y190231D01*
X182376Y190168D01*
X182438Y190103D01*
X182496Y190035D01*
X182552Y189964D01*
X182604Y189891D01*
X182654Y189816D01*
X182700Y189739D01*
X182742Y189660D01*
X182782Y189579D01*
X182817Y189497D01*
X182849Y189413D01*
X182878Y189328D01*
X182903Y189241D01*
X182924Y189154D01*
X182941Y189066D01*
X182955Y188977D01*
X182964Y188887D01*
X182970Y188798D01*
X182972Y188708D01*
X182973Y188708D02*
X182973Y187664D01*
X178796Y187664D01*
X186846Y186097D02*
X186846Y193929D01*
X186846Y186097D02*
X186848Y186020D01*
X186854Y185944D01*
X186863Y185867D01*
X186876Y185791D01*
X186893Y185716D01*
X186913Y185642D01*
X186938Y185569D01*
X186965Y185498D01*
X186996Y185427D01*
X187031Y185359D01*
X187069Y185292D01*
X187110Y185227D01*
X187154Y185164D01*
X187201Y185104D01*
X187252Y185045D01*
X187305Y184990D01*
X187360Y184937D01*
X187419Y184886D01*
X187479Y184839D01*
X187542Y184795D01*
X187607Y184754D01*
X187674Y184716D01*
X187742Y184681D01*
X187813Y184650D01*
X187884Y184623D01*
X187957Y184598D01*
X188031Y184578D01*
X188106Y184561D01*
X188182Y184548D01*
X188259Y184539D01*
X188335Y184533D01*
X188412Y184531D01*
X191723Y186097D02*
X191723Y193929D01*
X191723Y186097D02*
X191725Y186020D01*
X191731Y185944D01*
X191740Y185867D01*
X191753Y185791D01*
X191770Y185716D01*
X191790Y185642D01*
X191815Y185569D01*
X191842Y185498D01*
X191873Y185427D01*
X191908Y185359D01*
X191946Y185292D01*
X191987Y185227D01*
X192031Y185164D01*
X192078Y185104D01*
X192129Y185045D01*
X192182Y184990D01*
X192237Y184937D01*
X192296Y184886D01*
X192356Y184839D01*
X192419Y184795D01*
X192484Y184754D01*
X192551Y184716D01*
X192619Y184681D01*
X192690Y184650D01*
X192761Y184623D01*
X192834Y184598D01*
X192908Y184578D01*
X192983Y184561D01*
X193059Y184548D01*
X193136Y184539D01*
X193212Y184533D01*
X193289Y184531D01*
X198041Y184531D02*
X200651Y184531D01*
X198041Y184531D02*
X197964Y184533D01*
X197888Y184539D01*
X197811Y184548D01*
X197735Y184561D01*
X197660Y184578D01*
X197586Y184598D01*
X197513Y184623D01*
X197442Y184650D01*
X197371Y184681D01*
X197303Y184716D01*
X197236Y184754D01*
X197171Y184795D01*
X197108Y184839D01*
X197048Y184886D01*
X196989Y184937D01*
X196934Y184990D01*
X196881Y185045D01*
X196830Y185104D01*
X196783Y185164D01*
X196739Y185227D01*
X196698Y185292D01*
X196660Y185359D01*
X196625Y185427D01*
X196594Y185498D01*
X196567Y185569D01*
X196542Y185642D01*
X196522Y185716D01*
X196505Y185791D01*
X196492Y185867D01*
X196483Y185944D01*
X196477Y186020D01*
X196475Y186097D01*
X196474Y186097D02*
X196474Y188708D01*
X196475Y188708D02*
X196477Y188798D01*
X196483Y188887D01*
X196492Y188977D01*
X196506Y189066D01*
X196523Y189154D01*
X196544Y189241D01*
X196569Y189328D01*
X196598Y189413D01*
X196630Y189497D01*
X196665Y189579D01*
X196705Y189660D01*
X196747Y189739D01*
X196793Y189816D01*
X196843Y189891D01*
X196895Y189964D01*
X196951Y190035D01*
X197009Y190103D01*
X197071Y190168D01*
X197135Y190231D01*
X197202Y190291D01*
X197271Y190348D01*
X197343Y190402D01*
X197417Y190453D01*
X197493Y190501D01*
X197571Y190545D01*
X197651Y190586D01*
X197733Y190624D01*
X197816Y190658D01*
X197901Y190688D01*
X197987Y190715D01*
X198073Y190738D01*
X198161Y190757D01*
X198250Y190772D01*
X198339Y190784D01*
X198428Y190792D01*
X198518Y190796D01*
X198608Y190796D01*
X198698Y190792D01*
X198787Y190784D01*
X198876Y190772D01*
X198965Y190757D01*
X199053Y190738D01*
X199139Y190715D01*
X199225Y190688D01*
X199310Y190658D01*
X199393Y190624D01*
X199475Y190586D01*
X199555Y190545D01*
X199633Y190501D01*
X199709Y190453D01*
X199783Y190402D01*
X199855Y190348D01*
X199924Y190291D01*
X199991Y190231D01*
X200055Y190168D01*
X200117Y190103D01*
X200175Y190035D01*
X200231Y189964D01*
X200283Y189891D01*
X200333Y189816D01*
X200379Y189739D01*
X200421Y189660D01*
X200461Y189579D01*
X200496Y189497D01*
X200528Y189413D01*
X200557Y189328D01*
X200582Y189241D01*
X200603Y189154D01*
X200620Y189066D01*
X200634Y188977D01*
X200643Y188887D01*
X200649Y188798D01*
X200651Y188708D01*
X200651Y187664D01*
X196474Y187664D01*
X209799Y184531D02*
X209799Y193929D01*
X215020Y193929D02*
X209799Y188186D01*
X211888Y190274D02*
X215020Y184531D01*
X218420Y186619D02*
X218420Y188708D01*
X218422Y188798D01*
X218428Y188887D01*
X218437Y188977D01*
X218451Y189066D01*
X218468Y189154D01*
X218489Y189241D01*
X218514Y189328D01*
X218543Y189413D01*
X218575Y189497D01*
X218610Y189579D01*
X218650Y189660D01*
X218692Y189739D01*
X218738Y189816D01*
X218788Y189891D01*
X218840Y189964D01*
X218896Y190035D01*
X218954Y190103D01*
X219016Y190168D01*
X219080Y190231D01*
X219147Y190291D01*
X219216Y190348D01*
X219288Y190402D01*
X219362Y190453D01*
X219438Y190501D01*
X219516Y190545D01*
X219596Y190586D01*
X219678Y190624D01*
X219761Y190658D01*
X219846Y190688D01*
X219932Y190715D01*
X220018Y190738D01*
X220106Y190757D01*
X220195Y190772D01*
X220284Y190784D01*
X220373Y190792D01*
X220463Y190796D01*
X220553Y190796D01*
X220643Y190792D01*
X220732Y190784D01*
X220821Y190772D01*
X220910Y190757D01*
X220998Y190738D01*
X221084Y190715D01*
X221170Y190688D01*
X221255Y190658D01*
X221338Y190624D01*
X221420Y190586D01*
X221500Y190545D01*
X221578Y190501D01*
X221654Y190453D01*
X221728Y190402D01*
X221800Y190348D01*
X221869Y190291D01*
X221936Y190231D01*
X222000Y190168D01*
X222062Y190103D01*
X222120Y190035D01*
X222176Y189964D01*
X222228Y189891D01*
X222278Y189816D01*
X222324Y189739D01*
X222366Y189660D01*
X222406Y189579D01*
X222441Y189497D01*
X222473Y189413D01*
X222502Y189328D01*
X222527Y189241D01*
X222548Y189154D01*
X222565Y189066D01*
X222579Y188977D01*
X222588Y188887D01*
X222594Y188798D01*
X222596Y188708D01*
X222597Y188708D02*
X222597Y186619D01*
X222596Y186619D02*
X222594Y186529D01*
X222588Y186440D01*
X222579Y186350D01*
X222565Y186261D01*
X222548Y186173D01*
X222527Y186086D01*
X222502Y185999D01*
X222473Y185914D01*
X222441Y185830D01*
X222406Y185748D01*
X222366Y185667D01*
X222324Y185588D01*
X222278Y185511D01*
X222228Y185436D01*
X222176Y185363D01*
X222120Y185292D01*
X222062Y185224D01*
X222000Y185159D01*
X221936Y185096D01*
X221869Y185036D01*
X221800Y184979D01*
X221728Y184925D01*
X221654Y184874D01*
X221578Y184826D01*
X221500Y184782D01*
X221420Y184741D01*
X221338Y184703D01*
X221255Y184669D01*
X221170Y184639D01*
X221084Y184612D01*
X220998Y184589D01*
X220910Y184570D01*
X220821Y184555D01*
X220732Y184543D01*
X220643Y184535D01*
X220553Y184531D01*
X220463Y184531D01*
X220373Y184535D01*
X220284Y184543D01*
X220195Y184555D01*
X220106Y184570D01*
X220018Y184589D01*
X219932Y184612D01*
X219846Y184639D01*
X219761Y184669D01*
X219678Y184703D01*
X219596Y184741D01*
X219516Y184782D01*
X219438Y184826D01*
X219362Y184874D01*
X219288Y184925D01*
X219216Y184979D01*
X219147Y185036D01*
X219080Y185096D01*
X219016Y185159D01*
X218954Y185224D01*
X218896Y185292D01*
X218840Y185363D01*
X218788Y185436D01*
X218738Y185511D01*
X218692Y185588D01*
X218650Y185667D01*
X218610Y185748D01*
X218575Y185830D01*
X218543Y185914D01*
X218514Y185999D01*
X218489Y186086D01*
X218468Y186173D01*
X218451Y186261D01*
X218437Y186350D01*
X218428Y186440D01*
X218422Y186529D01*
X218420Y186619D01*
X226344Y186619D02*
X226344Y188708D01*
X226345Y188708D02*
X226347Y188798D01*
X226353Y188887D01*
X226362Y188977D01*
X226376Y189066D01*
X226393Y189154D01*
X226414Y189241D01*
X226439Y189328D01*
X226468Y189413D01*
X226500Y189497D01*
X226535Y189579D01*
X226575Y189660D01*
X226617Y189739D01*
X226663Y189816D01*
X226713Y189891D01*
X226765Y189964D01*
X226821Y190035D01*
X226879Y190103D01*
X226941Y190168D01*
X227005Y190231D01*
X227072Y190291D01*
X227141Y190348D01*
X227213Y190402D01*
X227287Y190453D01*
X227363Y190501D01*
X227441Y190545D01*
X227521Y190586D01*
X227603Y190624D01*
X227686Y190658D01*
X227771Y190688D01*
X227857Y190715D01*
X227943Y190738D01*
X228031Y190757D01*
X228120Y190772D01*
X228209Y190784D01*
X228298Y190792D01*
X228388Y190796D01*
X228478Y190796D01*
X228568Y190792D01*
X228657Y190784D01*
X228746Y190772D01*
X228835Y190757D01*
X228923Y190738D01*
X229009Y190715D01*
X229095Y190688D01*
X229180Y190658D01*
X229263Y190624D01*
X229345Y190586D01*
X229425Y190545D01*
X229503Y190501D01*
X229579Y190453D01*
X229653Y190402D01*
X229725Y190348D01*
X229794Y190291D01*
X229861Y190231D01*
X229925Y190168D01*
X229987Y190103D01*
X230045Y190035D01*
X230101Y189964D01*
X230153Y189891D01*
X230203Y189816D01*
X230249Y189739D01*
X230291Y189660D01*
X230331Y189579D01*
X230366Y189497D01*
X230398Y189413D01*
X230427Y189328D01*
X230452Y189241D01*
X230473Y189154D01*
X230490Y189066D01*
X230504Y188977D01*
X230513Y188887D01*
X230519Y188798D01*
X230521Y188708D01*
X230521Y186619D01*
X230519Y186529D01*
X230513Y186440D01*
X230504Y186350D01*
X230490Y186261D01*
X230473Y186173D01*
X230452Y186086D01*
X230427Y185999D01*
X230398Y185914D01*
X230366Y185830D01*
X230331Y185748D01*
X230291Y185667D01*
X230249Y185588D01*
X230203Y185511D01*
X230153Y185436D01*
X230101Y185363D01*
X230045Y185292D01*
X229987Y185224D01*
X229925Y185159D01*
X229861Y185096D01*
X229794Y185036D01*
X229725Y184979D01*
X229653Y184925D01*
X229579Y184874D01*
X229503Y184826D01*
X229425Y184782D01*
X229345Y184741D01*
X229263Y184703D01*
X229180Y184669D01*
X229095Y184639D01*
X229009Y184612D01*
X228923Y184589D01*
X228835Y184570D01*
X228746Y184555D01*
X228657Y184543D01*
X228568Y184535D01*
X228478Y184531D01*
X228388Y184531D01*
X228298Y184535D01*
X228209Y184543D01*
X228120Y184555D01*
X228031Y184570D01*
X227943Y184589D01*
X227857Y184612D01*
X227771Y184639D01*
X227686Y184669D01*
X227603Y184703D01*
X227521Y184741D01*
X227441Y184782D01*
X227363Y184826D01*
X227287Y184874D01*
X227213Y184925D01*
X227141Y184979D01*
X227072Y185036D01*
X227005Y185096D01*
X226941Y185159D01*
X226879Y185224D01*
X226821Y185292D01*
X226765Y185363D01*
X226713Y185436D01*
X226663Y185511D01*
X226617Y185588D01*
X226575Y185667D01*
X226535Y185748D01*
X226500Y185830D01*
X226468Y185914D01*
X226439Y185999D01*
X226414Y186086D01*
X226393Y186173D01*
X226376Y186261D01*
X226362Y186350D01*
X226353Y186440D01*
X226347Y186529D01*
X226345Y186619D01*
D10*
X203266Y136398D02*
X200669Y136398D01*
X200570Y136400D01*
X200470Y136406D01*
X200371Y136415D01*
X200273Y136428D01*
X200175Y136445D01*
X200077Y136466D01*
X199981Y136491D01*
X199886Y136519D01*
X199792Y136551D01*
X199699Y136586D01*
X199607Y136625D01*
X199517Y136668D01*
X199429Y136713D01*
X199342Y136763D01*
X199258Y136815D01*
X199175Y136871D01*
X199095Y136929D01*
X199017Y136991D01*
X198942Y137056D01*
X198869Y137124D01*
X198799Y137194D01*
X198731Y137267D01*
X198666Y137342D01*
X198604Y137420D01*
X198546Y137500D01*
X198490Y137583D01*
X198438Y137667D01*
X198388Y137754D01*
X198343Y137842D01*
X198300Y137932D01*
X198261Y138024D01*
X198226Y138117D01*
X198194Y138211D01*
X198166Y138306D01*
X198141Y138402D01*
X198120Y138500D01*
X198103Y138598D01*
X198090Y138696D01*
X198081Y138795D01*
X198075Y138895D01*
X198073Y138994D01*
X198073Y145486D01*
X198075Y145585D01*
X198081Y145685D01*
X198090Y145784D01*
X198103Y145882D01*
X198120Y145980D01*
X198141Y146078D01*
X198166Y146174D01*
X198194Y146269D01*
X198226Y146363D01*
X198261Y146456D01*
X198300Y146548D01*
X198343Y146638D01*
X198388Y146726D01*
X198438Y146813D01*
X198490Y146897D01*
X198546Y146980D01*
X198604Y147060D01*
X198666Y147138D01*
X198731Y147213D01*
X198799Y147286D01*
X198869Y147356D01*
X198942Y147424D01*
X199017Y147489D01*
X199095Y147551D01*
X199175Y147609D01*
X199258Y147665D01*
X199342Y147717D01*
X199429Y147767D01*
X199517Y147812D01*
X199607Y147855D01*
X199699Y147894D01*
X199791Y147929D01*
X199886Y147961D01*
X199981Y147989D01*
X200077Y148014D01*
X200175Y148035D01*
X200273Y148052D01*
X200371Y148065D01*
X200470Y148074D01*
X200570Y148080D01*
X200669Y148082D01*
X203266Y148082D01*
X207631Y145486D02*
X210876Y148082D01*
X210876Y136398D01*
X207631Y136398D02*
X214122Y136398D01*
X150481Y136398D02*
X147884Y136398D01*
X147785Y136400D01*
X147685Y136406D01*
X147586Y136415D01*
X147488Y136428D01*
X147390Y136445D01*
X147292Y136466D01*
X147196Y136491D01*
X147101Y136519D01*
X147007Y136551D01*
X146914Y136586D01*
X146822Y136625D01*
X146732Y136668D01*
X146644Y136713D01*
X146557Y136763D01*
X146473Y136815D01*
X146390Y136871D01*
X146310Y136929D01*
X146232Y136991D01*
X146157Y137056D01*
X146084Y137124D01*
X146014Y137194D01*
X145946Y137267D01*
X145881Y137342D01*
X145819Y137420D01*
X145761Y137500D01*
X145705Y137583D01*
X145653Y137667D01*
X145603Y137754D01*
X145558Y137842D01*
X145515Y137932D01*
X145476Y138024D01*
X145441Y138117D01*
X145409Y138211D01*
X145381Y138306D01*
X145356Y138402D01*
X145335Y138500D01*
X145318Y138598D01*
X145305Y138696D01*
X145296Y138795D01*
X145290Y138895D01*
X145288Y138994D01*
X145288Y145486D01*
X145290Y145585D01*
X145296Y145685D01*
X145305Y145784D01*
X145318Y145882D01*
X145335Y145980D01*
X145356Y146078D01*
X145381Y146174D01*
X145409Y146269D01*
X145441Y146363D01*
X145476Y146456D01*
X145515Y146548D01*
X145558Y146638D01*
X145603Y146726D01*
X145653Y146813D01*
X145705Y146897D01*
X145761Y146980D01*
X145819Y147060D01*
X145881Y147138D01*
X145946Y147213D01*
X146014Y147286D01*
X146084Y147356D01*
X146157Y147424D01*
X146232Y147489D01*
X146310Y147551D01*
X146390Y147609D01*
X146473Y147665D01*
X146557Y147717D01*
X146644Y147767D01*
X146732Y147812D01*
X146822Y147855D01*
X146914Y147894D01*
X147006Y147929D01*
X147101Y147961D01*
X147196Y147989D01*
X147292Y148014D01*
X147390Y148035D01*
X147488Y148052D01*
X147586Y148065D01*
X147685Y148074D01*
X147785Y148080D01*
X147884Y148082D01*
X150481Y148082D01*
X158416Y148082D02*
X158523Y148080D01*
X158629Y148074D01*
X158735Y148064D01*
X158841Y148051D01*
X158947Y148033D01*
X159051Y148012D01*
X159155Y147987D01*
X159258Y147958D01*
X159359Y147926D01*
X159459Y147889D01*
X159558Y147849D01*
X159656Y147806D01*
X159752Y147759D01*
X159846Y147708D01*
X159938Y147654D01*
X160028Y147597D01*
X160116Y147537D01*
X160201Y147473D01*
X160284Y147406D01*
X160365Y147336D01*
X160443Y147264D01*
X160519Y147188D01*
X160591Y147110D01*
X160661Y147029D01*
X160728Y146946D01*
X160792Y146861D01*
X160852Y146773D01*
X160909Y146683D01*
X160963Y146591D01*
X161014Y146497D01*
X161061Y146401D01*
X161104Y146303D01*
X161144Y146204D01*
X161181Y146104D01*
X161213Y146003D01*
X161242Y145900D01*
X161267Y145796D01*
X161288Y145692D01*
X161306Y145586D01*
X161319Y145480D01*
X161329Y145374D01*
X161335Y145268D01*
X161337Y145161D01*
X158416Y148082D02*
X158295Y148080D01*
X158174Y148074D01*
X158054Y148064D01*
X157933Y148051D01*
X157814Y148033D01*
X157694Y148012D01*
X157576Y147987D01*
X157459Y147958D01*
X157342Y147925D01*
X157227Y147889D01*
X157113Y147848D01*
X157000Y147805D01*
X156888Y147757D01*
X156779Y147706D01*
X156671Y147651D01*
X156564Y147593D01*
X156460Y147532D01*
X156358Y147467D01*
X156258Y147399D01*
X156160Y147328D01*
X156064Y147254D01*
X155971Y147177D01*
X155881Y147096D01*
X155793Y147013D01*
X155708Y146927D01*
X155625Y146838D01*
X155546Y146747D01*
X155469Y146653D01*
X155396Y146557D01*
X155326Y146459D01*
X155259Y146358D01*
X155195Y146255D01*
X155135Y146150D01*
X155078Y146043D01*
X155024Y145935D01*
X154974Y145825D01*
X154928Y145713D01*
X154885Y145600D01*
X154846Y145485D01*
X160364Y142889D02*
X160443Y142966D01*
X160519Y143047D01*
X160592Y143130D01*
X160662Y143215D01*
X160729Y143303D01*
X160793Y143393D01*
X160853Y143485D01*
X160910Y143580D01*
X160964Y143676D01*
X161015Y143774D01*
X161062Y143874D01*
X161106Y143976D01*
X161146Y144079D01*
X161182Y144183D01*
X161214Y144289D01*
X161243Y144395D01*
X161268Y144503D01*
X161290Y144611D01*
X161307Y144721D01*
X161321Y144830D01*
X161330Y144940D01*
X161336Y145051D01*
X161338Y145161D01*
X160364Y142889D02*
X154846Y136398D01*
X161337Y136398D01*
D12*
X237490Y115570D02*
X237490Y102870D01*
X231140Y96520D01*
X218440Y96520D01*
X212090Y102870D01*
X218440Y121920D02*
X231140Y121920D01*
X237490Y115570D01*
X218440Y121920D02*
X212090Y115570D01*
X212090Y102870D01*
X231140Y96520D02*
X237490Y90170D01*
X237490Y77470D01*
X231140Y71120D01*
X218440Y71120D01*
X212090Y77470D01*
X212090Y90170D01*
X218440Y96520D01*
X15240Y96520D02*
X15240Y109220D01*
X21590Y115570D01*
X34290Y115570D01*
X40640Y109220D01*
X21590Y115570D02*
X15240Y121920D01*
X15240Y134620D01*
X21590Y140970D01*
X34290Y140970D01*
X40640Y134620D01*
X40640Y121920D01*
X34290Y115570D01*
X15240Y71120D02*
X21590Y64770D01*
X15240Y71120D02*
X15240Y83820D01*
X21590Y90170D01*
X34290Y90170D01*
X40640Y83820D01*
X40640Y71120D01*
X34290Y64770D01*
X21590Y90170D02*
X15240Y96520D01*
X34290Y90170D02*
X40640Y96520D01*
X40640Y109220D01*
X15240Y33020D02*
X15240Y20320D01*
X15240Y33020D02*
X21590Y39370D01*
X34290Y39370D01*
X40640Y33020D01*
X21590Y39370D02*
X15240Y45720D01*
X15240Y58420D01*
X21590Y64770D01*
X34290Y64770D01*
X40640Y58420D01*
X40640Y45720D01*
X34290Y39370D01*
X34290Y13970D02*
X21590Y13970D01*
X15240Y20320D01*
X34290Y13970D02*
X40640Y20320D01*
X40640Y33020D01*
X15240Y147320D02*
X15240Y160020D01*
X21590Y166370D01*
X34290Y166370D01*
X40640Y160020D01*
X21590Y140970D02*
X15240Y147320D01*
X34290Y140970D02*
X40640Y147320D01*
X40640Y160020D01*
D10*
X211328Y23555D02*
X223012Y23555D01*
X211328Y23555D02*
X211328Y26800D01*
X211330Y26913D01*
X211336Y27026D01*
X211346Y27139D01*
X211360Y27252D01*
X211377Y27364D01*
X211399Y27475D01*
X211424Y27585D01*
X211454Y27695D01*
X211487Y27803D01*
X211524Y27910D01*
X211564Y28016D01*
X211609Y28120D01*
X211657Y28223D01*
X211708Y28324D01*
X211763Y28423D01*
X211821Y28520D01*
X211883Y28615D01*
X211948Y28708D01*
X212016Y28798D01*
X212087Y28886D01*
X212162Y28972D01*
X212239Y29055D01*
X212319Y29135D01*
X212402Y29212D01*
X212488Y29287D01*
X212576Y29358D01*
X212666Y29426D01*
X212759Y29491D01*
X212854Y29553D01*
X212951Y29611D01*
X213050Y29666D01*
X213151Y29717D01*
X213254Y29765D01*
X213358Y29810D01*
X213464Y29850D01*
X213571Y29887D01*
X213679Y29920D01*
X213789Y29950D01*
X213899Y29975D01*
X214010Y29997D01*
X214122Y30014D01*
X214235Y30028D01*
X214348Y30038D01*
X214461Y30044D01*
X214574Y30046D01*
X214687Y30044D01*
X214800Y30038D01*
X214913Y30028D01*
X215026Y30014D01*
X215138Y29997D01*
X215249Y29975D01*
X215359Y29950D01*
X215469Y29920D01*
X215577Y29887D01*
X215684Y29850D01*
X215790Y29810D01*
X215894Y29765D01*
X215997Y29717D01*
X216098Y29666D01*
X216197Y29611D01*
X216294Y29553D01*
X216389Y29491D01*
X216482Y29426D01*
X216572Y29358D01*
X216660Y29287D01*
X216746Y29212D01*
X216829Y29135D01*
X216909Y29055D01*
X216986Y28972D01*
X217061Y28886D01*
X217132Y28798D01*
X217200Y28708D01*
X217265Y28615D01*
X217327Y28520D01*
X217385Y28423D01*
X217440Y28324D01*
X217491Y28223D01*
X217539Y28120D01*
X217584Y28016D01*
X217624Y27910D01*
X217661Y27803D01*
X217694Y27695D01*
X217724Y27585D01*
X217749Y27475D01*
X217771Y27364D01*
X217788Y27252D01*
X217802Y27139D01*
X217812Y27026D01*
X217818Y26913D01*
X217820Y26800D01*
X217819Y26800D02*
X217819Y23555D01*
X217819Y27449D02*
X223012Y30046D01*
X213924Y34911D02*
X211328Y38156D01*
X223012Y38156D01*
X223012Y34911D02*
X223012Y41402D01*
X118872Y24825D02*
X107188Y24825D01*
X107188Y28070D01*
X107190Y28183D01*
X107196Y28296D01*
X107206Y28409D01*
X107220Y28522D01*
X107237Y28634D01*
X107259Y28745D01*
X107284Y28855D01*
X107314Y28965D01*
X107347Y29073D01*
X107384Y29180D01*
X107424Y29286D01*
X107469Y29390D01*
X107517Y29493D01*
X107568Y29594D01*
X107623Y29693D01*
X107681Y29790D01*
X107743Y29885D01*
X107808Y29978D01*
X107876Y30068D01*
X107947Y30156D01*
X108022Y30242D01*
X108099Y30325D01*
X108179Y30405D01*
X108262Y30482D01*
X108348Y30557D01*
X108436Y30628D01*
X108526Y30696D01*
X108619Y30761D01*
X108714Y30823D01*
X108811Y30881D01*
X108910Y30936D01*
X109011Y30987D01*
X109114Y31035D01*
X109218Y31080D01*
X109324Y31120D01*
X109431Y31157D01*
X109539Y31190D01*
X109649Y31220D01*
X109759Y31245D01*
X109870Y31267D01*
X109982Y31284D01*
X110095Y31298D01*
X110208Y31308D01*
X110321Y31314D01*
X110434Y31316D01*
X110547Y31314D01*
X110660Y31308D01*
X110773Y31298D01*
X110886Y31284D01*
X110998Y31267D01*
X111109Y31245D01*
X111219Y31220D01*
X111329Y31190D01*
X111437Y31157D01*
X111544Y31120D01*
X111650Y31080D01*
X111754Y31035D01*
X111857Y30987D01*
X111958Y30936D01*
X112057Y30881D01*
X112154Y30823D01*
X112249Y30761D01*
X112342Y30696D01*
X112432Y30628D01*
X112520Y30557D01*
X112606Y30482D01*
X112689Y30405D01*
X112769Y30325D01*
X112846Y30242D01*
X112921Y30156D01*
X112992Y30068D01*
X113060Y29978D01*
X113125Y29885D01*
X113187Y29790D01*
X113245Y29693D01*
X113300Y29594D01*
X113351Y29493D01*
X113399Y29390D01*
X113444Y29286D01*
X113484Y29180D01*
X113521Y29073D01*
X113554Y28965D01*
X113584Y28855D01*
X113609Y28745D01*
X113631Y28634D01*
X113648Y28522D01*
X113662Y28409D01*
X113672Y28296D01*
X113678Y28183D01*
X113680Y28070D01*
X113679Y28070D02*
X113679Y24825D01*
X113679Y28719D02*
X118872Y31316D01*
X110109Y42672D02*
X110002Y42670D01*
X109896Y42664D01*
X109790Y42654D01*
X109684Y42641D01*
X109578Y42623D01*
X109474Y42602D01*
X109370Y42577D01*
X109267Y42548D01*
X109166Y42516D01*
X109066Y42479D01*
X108967Y42439D01*
X108869Y42396D01*
X108773Y42349D01*
X108679Y42298D01*
X108587Y42244D01*
X108497Y42187D01*
X108409Y42127D01*
X108324Y42063D01*
X108241Y41996D01*
X108160Y41926D01*
X108082Y41854D01*
X108006Y41778D01*
X107934Y41700D01*
X107864Y41619D01*
X107797Y41536D01*
X107733Y41451D01*
X107673Y41363D01*
X107616Y41273D01*
X107562Y41181D01*
X107511Y41087D01*
X107464Y40991D01*
X107421Y40893D01*
X107381Y40794D01*
X107344Y40694D01*
X107312Y40593D01*
X107283Y40490D01*
X107258Y40386D01*
X107237Y40282D01*
X107219Y40176D01*
X107206Y40070D01*
X107196Y39964D01*
X107190Y39858D01*
X107188Y39751D01*
X107190Y39630D01*
X107196Y39509D01*
X107206Y39389D01*
X107219Y39268D01*
X107237Y39149D01*
X107258Y39029D01*
X107283Y38911D01*
X107312Y38794D01*
X107345Y38677D01*
X107381Y38562D01*
X107422Y38448D01*
X107465Y38335D01*
X107513Y38223D01*
X107564Y38114D01*
X107619Y38006D01*
X107677Y37899D01*
X107738Y37795D01*
X107803Y37693D01*
X107871Y37593D01*
X107942Y37495D01*
X108016Y37399D01*
X108093Y37306D01*
X108174Y37216D01*
X108257Y37128D01*
X108343Y37043D01*
X108432Y36960D01*
X108523Y36881D01*
X108617Y36804D01*
X108713Y36731D01*
X108811Y36661D01*
X108912Y36594D01*
X109015Y36530D01*
X109120Y36470D01*
X109227Y36412D01*
X109335Y36359D01*
X109445Y36309D01*
X109557Y36263D01*
X109670Y36220D01*
X109785Y36181D01*
X112381Y41698D02*
X112303Y41777D01*
X112223Y41853D01*
X112140Y41926D01*
X112054Y41996D01*
X111967Y42063D01*
X111876Y42127D01*
X111784Y42187D01*
X111690Y42245D01*
X111593Y42299D01*
X111495Y42349D01*
X111395Y42396D01*
X111294Y42440D01*
X111191Y42480D01*
X111086Y42516D01*
X110981Y42548D01*
X110874Y42577D01*
X110767Y42602D01*
X110658Y42624D01*
X110549Y42641D01*
X110440Y42655D01*
X110330Y42664D01*
X110219Y42670D01*
X110109Y42672D01*
X112381Y41698D02*
X118872Y36181D01*
X118872Y42672D01*
D12*
X128270Y29210D02*
X171450Y29210D01*
X173990Y46990D02*
X173988Y47090D01*
X173982Y47189D01*
X173972Y47289D01*
X173959Y47387D01*
X173941Y47486D01*
X173920Y47583D01*
X173895Y47679D01*
X173866Y47775D01*
X173833Y47869D01*
X173797Y47962D01*
X173757Y48053D01*
X173713Y48143D01*
X173666Y48231D01*
X173616Y48317D01*
X173562Y48401D01*
X173505Y48483D01*
X173445Y48562D01*
X173381Y48640D01*
X173315Y48714D01*
X173246Y48786D01*
X173174Y48855D01*
X173100Y48921D01*
X173022Y48985D01*
X172943Y49045D01*
X172861Y49102D01*
X172777Y49156D01*
X172691Y49206D01*
X172603Y49253D01*
X172513Y49297D01*
X172422Y49337D01*
X172329Y49373D01*
X172235Y49406D01*
X172139Y49435D01*
X172043Y49460D01*
X171946Y49481D01*
X171847Y49499D01*
X171749Y49512D01*
X171649Y49522D01*
X171550Y49528D01*
X171450Y49530D01*
X128270Y49530D02*
X128170Y49528D01*
X128071Y49522D01*
X127971Y49512D01*
X127873Y49499D01*
X127774Y49481D01*
X127677Y49460D01*
X127581Y49435D01*
X127485Y49406D01*
X127391Y49373D01*
X127298Y49337D01*
X127207Y49297D01*
X127117Y49253D01*
X127029Y49206D01*
X126943Y49156D01*
X126859Y49102D01*
X126777Y49045D01*
X126698Y48985D01*
X126620Y48921D01*
X126546Y48855D01*
X126474Y48786D01*
X126405Y48714D01*
X126339Y48640D01*
X126275Y48562D01*
X126215Y48483D01*
X126158Y48401D01*
X126104Y48317D01*
X126054Y48231D01*
X126007Y48143D01*
X125963Y48053D01*
X125923Y47962D01*
X125887Y47869D01*
X125854Y47775D01*
X125825Y47679D01*
X125800Y47583D01*
X125779Y47486D01*
X125761Y47387D01*
X125748Y47289D01*
X125738Y47189D01*
X125732Y47090D01*
X125730Y46990D01*
X125730Y31750D02*
X125732Y31650D01*
X125738Y31551D01*
X125748Y31451D01*
X125761Y31353D01*
X125779Y31254D01*
X125800Y31157D01*
X125825Y31061D01*
X125854Y30965D01*
X125887Y30871D01*
X125923Y30778D01*
X125963Y30687D01*
X126007Y30597D01*
X126054Y30509D01*
X126104Y30423D01*
X126158Y30339D01*
X126215Y30257D01*
X126275Y30178D01*
X126339Y30100D01*
X126405Y30026D01*
X126474Y29954D01*
X126546Y29885D01*
X126620Y29819D01*
X126698Y29755D01*
X126777Y29695D01*
X126859Y29638D01*
X126943Y29584D01*
X127029Y29534D01*
X127117Y29487D01*
X127207Y29443D01*
X127298Y29403D01*
X127391Y29367D01*
X127485Y29334D01*
X127581Y29305D01*
X127677Y29280D01*
X127774Y29259D01*
X127873Y29241D01*
X127971Y29228D01*
X128071Y29218D01*
X128170Y29212D01*
X128270Y29210D01*
X171450Y29210D02*
X171550Y29212D01*
X171649Y29218D01*
X171749Y29228D01*
X171847Y29241D01*
X171946Y29259D01*
X172043Y29280D01*
X172139Y29305D01*
X172235Y29334D01*
X172329Y29367D01*
X172422Y29403D01*
X172513Y29443D01*
X172603Y29487D01*
X172691Y29534D01*
X172777Y29584D01*
X172861Y29638D01*
X172943Y29695D01*
X173022Y29755D01*
X173100Y29819D01*
X173174Y29885D01*
X173246Y29954D01*
X173315Y30026D01*
X173381Y30100D01*
X173445Y30178D01*
X173505Y30257D01*
X173562Y30339D01*
X173616Y30423D01*
X173666Y30509D01*
X173713Y30597D01*
X173757Y30687D01*
X173797Y30778D01*
X173833Y30871D01*
X173866Y30965D01*
X173895Y31061D01*
X173920Y31157D01*
X173941Y31254D01*
X173959Y31353D01*
X173972Y31451D01*
X173982Y31551D01*
X173988Y31650D01*
X173990Y31750D01*
X173990Y46990D01*
X125730Y46990D02*
X125730Y31750D01*
X128270Y49530D02*
X171450Y49530D01*
D13*
X132715Y55245D02*
X132713Y55145D01*
X132707Y55046D01*
X132697Y54946D01*
X132684Y54848D01*
X132666Y54749D01*
X132645Y54652D01*
X132620Y54556D01*
X132591Y54460D01*
X132558Y54366D01*
X132522Y54273D01*
X132482Y54182D01*
X132438Y54092D01*
X132391Y54004D01*
X132341Y53918D01*
X132287Y53834D01*
X132230Y53752D01*
X132170Y53673D01*
X132106Y53595D01*
X132040Y53521D01*
X131971Y53449D01*
X131899Y53380D01*
X131825Y53314D01*
X131747Y53250D01*
X131668Y53190D01*
X131586Y53133D01*
X131502Y53079D01*
X131416Y53029D01*
X131328Y52982D01*
X131238Y52938D01*
X131147Y52898D01*
X131054Y52862D01*
X130960Y52829D01*
X130864Y52800D01*
X130768Y52775D01*
X130671Y52754D01*
X130572Y52736D01*
X130474Y52723D01*
X130374Y52713D01*
X130275Y52707D01*
X130175Y52705D01*
X130034Y52707D01*
X129893Y52712D01*
X129752Y52722D01*
X129611Y52735D01*
X129471Y52751D01*
X129331Y52772D01*
X129192Y52796D01*
X129053Y52824D01*
X128916Y52855D01*
X128779Y52890D01*
X128643Y52928D01*
X128508Y52970D01*
X128375Y53016D01*
X128242Y53065D01*
X128111Y53118D01*
X127982Y53174D01*
X127853Y53233D01*
X127727Y53296D01*
X127602Y53362D01*
X127479Y53431D01*
X127358Y53504D01*
X127239Y53580D01*
X127121Y53659D01*
X127006Y53740D01*
X126894Y53825D01*
X126783Y53913D01*
X126675Y54004D01*
X126569Y54097D01*
X126466Y54194D01*
X126365Y54293D01*
X126683Y61595D02*
X126685Y61695D01*
X126691Y61794D01*
X126701Y61894D01*
X126714Y61992D01*
X126732Y62091D01*
X126753Y62188D01*
X126778Y62284D01*
X126807Y62380D01*
X126840Y62474D01*
X126876Y62567D01*
X126916Y62658D01*
X126960Y62748D01*
X127007Y62836D01*
X127057Y62922D01*
X127111Y63006D01*
X127168Y63088D01*
X127228Y63167D01*
X127292Y63245D01*
X127358Y63319D01*
X127427Y63391D01*
X127499Y63460D01*
X127573Y63526D01*
X127651Y63590D01*
X127730Y63650D01*
X127812Y63707D01*
X127896Y63761D01*
X127982Y63811D01*
X128070Y63858D01*
X128160Y63902D01*
X128251Y63942D01*
X128344Y63978D01*
X128438Y64011D01*
X128534Y64040D01*
X128630Y64065D01*
X128727Y64086D01*
X128826Y64104D01*
X128924Y64117D01*
X129024Y64127D01*
X129123Y64133D01*
X129223Y64135D01*
X129223Y64136D02*
X129356Y64134D01*
X129489Y64129D01*
X129622Y64119D01*
X129755Y64106D01*
X129887Y64089D01*
X130019Y64069D01*
X130150Y64045D01*
X130280Y64017D01*
X130410Y63986D01*
X130538Y63951D01*
X130666Y63912D01*
X130792Y63870D01*
X130917Y63824D01*
X131041Y63775D01*
X131164Y63723D01*
X131285Y63667D01*
X131404Y63607D01*
X131522Y63545D01*
X131637Y63479D01*
X131751Y63410D01*
X131863Y63337D01*
X131973Y63262D01*
X132081Y63183D01*
X127952Y59372D02*
X127868Y59424D01*
X127785Y59479D01*
X127705Y59538D01*
X127627Y59599D01*
X127552Y59663D01*
X127479Y59731D01*
X127408Y59801D01*
X127341Y59873D01*
X127276Y59948D01*
X127214Y60026D01*
X127155Y60106D01*
X127099Y60188D01*
X127047Y60272D01*
X126998Y60358D01*
X126952Y60446D01*
X126909Y60536D01*
X126870Y60627D01*
X126835Y60720D01*
X126803Y60814D01*
X126775Y60909D01*
X126750Y61005D01*
X126730Y61102D01*
X126712Y61200D01*
X126699Y61298D01*
X126690Y61397D01*
X126684Y61496D01*
X126682Y61595D01*
X131445Y57468D02*
X131529Y57416D01*
X131612Y57361D01*
X131692Y57302D01*
X131770Y57241D01*
X131845Y57177D01*
X131918Y57109D01*
X131989Y57039D01*
X132056Y56967D01*
X132121Y56892D01*
X132183Y56814D01*
X132242Y56734D01*
X132298Y56652D01*
X132350Y56568D01*
X132399Y56482D01*
X132445Y56394D01*
X132488Y56304D01*
X132527Y56213D01*
X132562Y56120D01*
X132594Y56026D01*
X132622Y55931D01*
X132647Y55835D01*
X132667Y55738D01*
X132685Y55640D01*
X132698Y55542D01*
X132707Y55443D01*
X132713Y55344D01*
X132715Y55245D01*
X131445Y57468D02*
X127953Y59373D01*
X140006Y55245D02*
X140006Y64135D01*
X140006Y55245D02*
X140004Y55145D01*
X139998Y55046D01*
X139988Y54946D01*
X139975Y54848D01*
X139957Y54749D01*
X139936Y54652D01*
X139911Y54556D01*
X139882Y54460D01*
X139849Y54366D01*
X139813Y54273D01*
X139773Y54182D01*
X139729Y54092D01*
X139682Y54004D01*
X139632Y53918D01*
X139578Y53834D01*
X139521Y53752D01*
X139461Y53673D01*
X139397Y53595D01*
X139331Y53521D01*
X139262Y53449D01*
X139190Y53380D01*
X139116Y53314D01*
X139038Y53250D01*
X138959Y53190D01*
X138877Y53133D01*
X138793Y53079D01*
X138707Y53029D01*
X138619Y52982D01*
X138529Y52938D01*
X138438Y52898D01*
X138345Y52862D01*
X138251Y52829D01*
X138155Y52800D01*
X138059Y52775D01*
X137962Y52754D01*
X137863Y52736D01*
X137765Y52723D01*
X137665Y52713D01*
X137566Y52707D01*
X137466Y52705D01*
X136196Y52705D01*
X145415Y61595D02*
X148590Y64135D01*
X148590Y52705D01*
X145415Y52705D02*
X151765Y52705D01*
D14*
X116760Y112120D02*
X116762Y112183D01*
X116768Y112245D01*
X116778Y112307D01*
X116791Y112369D01*
X116809Y112429D01*
X116830Y112488D01*
X116855Y112546D01*
X116884Y112602D01*
X116916Y112656D01*
X116951Y112708D01*
X116989Y112757D01*
X117031Y112805D01*
X117075Y112849D01*
X117123Y112891D01*
X117172Y112929D01*
X117224Y112964D01*
X117278Y112996D01*
X117334Y113025D01*
X117392Y113050D01*
X117451Y113071D01*
X117511Y113089D01*
X117573Y113102D01*
X117635Y113112D01*
X117697Y113118D01*
X117760Y113120D01*
X117823Y113118D01*
X117885Y113112D01*
X117947Y113102D01*
X118009Y113089D01*
X118069Y113071D01*
X118128Y113050D01*
X118186Y113025D01*
X118242Y112996D01*
X118296Y112964D01*
X118348Y112929D01*
X118397Y112891D01*
X118445Y112849D01*
X118489Y112805D01*
X118531Y112757D01*
X118569Y112708D01*
X118604Y112656D01*
X118636Y112602D01*
X118665Y112546D01*
X118690Y112488D01*
X118711Y112429D01*
X118729Y112369D01*
X118742Y112307D01*
X118752Y112245D01*
X118758Y112183D01*
X118760Y112120D01*
X118758Y112057D01*
X118752Y111995D01*
X118742Y111933D01*
X118729Y111871D01*
X118711Y111811D01*
X118690Y111752D01*
X118665Y111694D01*
X118636Y111638D01*
X118604Y111584D01*
X118569Y111532D01*
X118531Y111483D01*
X118489Y111435D01*
X118445Y111391D01*
X118397Y111349D01*
X118348Y111311D01*
X118296Y111276D01*
X118242Y111244D01*
X118186Y111215D01*
X118128Y111190D01*
X118069Y111169D01*
X118009Y111151D01*
X117947Y111138D01*
X117885Y111128D01*
X117823Y111122D01*
X117760Y111120D01*
X117697Y111122D01*
X117635Y111128D01*
X117573Y111138D01*
X117511Y111151D01*
X117451Y111169D01*
X117392Y111190D01*
X117334Y111215D01*
X117278Y111244D01*
X117224Y111276D01*
X117172Y111311D01*
X117123Y111349D01*
X117075Y111391D01*
X117031Y111435D01*
X116989Y111483D01*
X116951Y111532D01*
X116916Y111584D01*
X116884Y111638D01*
X116855Y111694D01*
X116830Y111752D01*
X116809Y111811D01*
X116791Y111871D01*
X116778Y111933D01*
X116768Y111995D01*
X116762Y112057D01*
X116760Y112120D01*
X118760Y84120D02*
X148760Y84120D01*
X148760Y110120D02*
X118760Y110120D01*
D10*
X102268Y124274D02*
X102268Y132712D01*
X102268Y124274D02*
X102270Y124161D01*
X102276Y124048D01*
X102286Y123935D01*
X102300Y123822D01*
X102317Y123710D01*
X102339Y123599D01*
X102364Y123489D01*
X102394Y123379D01*
X102427Y123271D01*
X102464Y123164D01*
X102504Y123058D01*
X102549Y122954D01*
X102597Y122851D01*
X102648Y122750D01*
X102703Y122651D01*
X102761Y122554D01*
X102823Y122459D01*
X102888Y122366D01*
X102956Y122276D01*
X103027Y122188D01*
X103102Y122102D01*
X103179Y122019D01*
X103259Y121939D01*
X103342Y121862D01*
X103428Y121787D01*
X103516Y121716D01*
X103606Y121648D01*
X103699Y121583D01*
X103794Y121521D01*
X103891Y121463D01*
X103990Y121408D01*
X104091Y121357D01*
X104194Y121309D01*
X104298Y121264D01*
X104404Y121224D01*
X104511Y121187D01*
X104619Y121154D01*
X104729Y121124D01*
X104839Y121099D01*
X104950Y121077D01*
X105062Y121060D01*
X105175Y121046D01*
X105288Y121036D01*
X105401Y121030D01*
X105514Y121028D01*
X105627Y121030D01*
X105740Y121036D01*
X105853Y121046D01*
X105966Y121060D01*
X106078Y121077D01*
X106189Y121099D01*
X106299Y121124D01*
X106409Y121154D01*
X106517Y121187D01*
X106624Y121224D01*
X106730Y121264D01*
X106834Y121309D01*
X106937Y121357D01*
X107038Y121408D01*
X107137Y121463D01*
X107234Y121521D01*
X107329Y121583D01*
X107422Y121648D01*
X107512Y121716D01*
X107600Y121787D01*
X107686Y121862D01*
X107769Y121939D01*
X107849Y122019D01*
X107926Y122102D01*
X108001Y122188D01*
X108072Y122276D01*
X108140Y122366D01*
X108205Y122459D01*
X108267Y122554D01*
X108325Y122651D01*
X108380Y122750D01*
X108431Y122851D01*
X108479Y122954D01*
X108524Y123058D01*
X108564Y123164D01*
X108601Y123271D01*
X108634Y123379D01*
X108664Y123489D01*
X108689Y123599D01*
X108711Y123710D01*
X108728Y123822D01*
X108742Y123935D01*
X108752Y124048D01*
X108758Y124161D01*
X108760Y124274D01*
X108759Y124274D02*
X108759Y132712D01*
X116563Y132712D02*
X116563Y121028D01*
X116563Y126870D02*
X114940Y127844D01*
X114939Y127843D02*
X114866Y127890D01*
X114795Y127939D01*
X114725Y127992D01*
X114659Y128048D01*
X114595Y128107D01*
X114533Y128168D01*
X114475Y128232D01*
X114419Y128299D01*
X114367Y128368D01*
X114317Y128440D01*
X114271Y128514D01*
X114228Y128589D01*
X114189Y128667D01*
X114153Y128746D01*
X114121Y128827D01*
X114092Y128909D01*
X114067Y128992D01*
X114046Y129076D01*
X114029Y129161D01*
X114015Y129247D01*
X114006Y129333D01*
X114000Y129420D01*
X113998Y129507D01*
X114000Y129594D01*
X114006Y129681D01*
X114016Y129767D01*
X114029Y129853D01*
X114047Y129938D01*
X114068Y130022D01*
X114093Y130105D01*
X114122Y130188D01*
X114154Y130268D01*
X114190Y130347D01*
X114229Y130425D01*
X114272Y130500D01*
X114319Y130574D01*
X114368Y130645D01*
X114421Y130715D01*
X114476Y130781D01*
X114535Y130845D01*
X114596Y130907D01*
X114661Y130966D01*
X114727Y131021D01*
X114796Y131074D01*
X114868Y131124D01*
X114941Y131170D01*
X115017Y131213D01*
X115094Y131252D01*
X115173Y131288D01*
X115254Y131321D01*
X115336Y131349D01*
X115419Y131375D01*
X115503Y131396D01*
X115589Y131413D01*
X115589Y131414D02*
X115729Y131438D01*
X115871Y131458D01*
X116012Y131474D01*
X116154Y131485D01*
X116297Y131493D01*
X116439Y131497D01*
X116582Y131498D01*
X116725Y131494D01*
X116867Y131486D01*
X117009Y131474D01*
X117151Y131458D01*
X117292Y131439D01*
X117433Y131415D01*
X117573Y131388D01*
X117712Y131356D01*
X117850Y131321D01*
X117988Y131282D01*
X118124Y131239D01*
X118258Y131193D01*
X118392Y131142D01*
X118524Y131089D01*
X118654Y131031D01*
X118783Y130970D01*
X118910Y130905D01*
X119036Y130837D01*
X119159Y130765D01*
X116563Y126870D02*
X118185Y125896D01*
X118186Y125897D02*
X118259Y125850D01*
X118330Y125801D01*
X118400Y125748D01*
X118466Y125692D01*
X118530Y125633D01*
X118592Y125572D01*
X118650Y125508D01*
X118706Y125441D01*
X118758Y125372D01*
X118808Y125300D01*
X118854Y125226D01*
X118897Y125151D01*
X118936Y125073D01*
X118972Y124994D01*
X119004Y124913D01*
X119033Y124831D01*
X119058Y124748D01*
X119079Y124664D01*
X119096Y124579D01*
X119110Y124493D01*
X119119Y124407D01*
X119125Y124320D01*
X119127Y124233D01*
X119125Y124146D01*
X119119Y124059D01*
X119109Y123973D01*
X119096Y123887D01*
X119078Y123802D01*
X119057Y123718D01*
X119032Y123635D01*
X119003Y123552D01*
X118971Y123472D01*
X118935Y123393D01*
X118896Y123315D01*
X118853Y123240D01*
X118806Y123166D01*
X118757Y123095D01*
X118704Y123025D01*
X118649Y122959D01*
X118590Y122895D01*
X118529Y122833D01*
X118464Y122774D01*
X118398Y122719D01*
X118329Y122666D01*
X118257Y122616D01*
X118184Y122570D01*
X118108Y122527D01*
X118031Y122488D01*
X117952Y122452D01*
X117871Y122419D01*
X117789Y122391D01*
X117706Y122365D01*
X117622Y122344D01*
X117537Y122327D01*
X117536Y122326D02*
X117396Y122302D01*
X117254Y122282D01*
X117113Y122266D01*
X116971Y122255D01*
X116828Y122247D01*
X116686Y122243D01*
X116543Y122242D01*
X116400Y122246D01*
X116258Y122254D01*
X116116Y122266D01*
X115974Y122282D01*
X115833Y122301D01*
X115692Y122325D01*
X115552Y122352D01*
X115413Y122384D01*
X115275Y122419D01*
X115137Y122458D01*
X115001Y122501D01*
X114867Y122547D01*
X114733Y122598D01*
X114601Y122651D01*
X114471Y122709D01*
X114342Y122770D01*
X114215Y122835D01*
X114089Y122903D01*
X113966Y122975D01*
X123985Y130116D02*
X127231Y132712D01*
X127231Y121028D01*
X130476Y121028D02*
X123985Y121028D01*
X114366Y136398D02*
X111769Y136398D01*
X111670Y136400D01*
X111570Y136406D01*
X111471Y136415D01*
X111373Y136428D01*
X111275Y136445D01*
X111177Y136466D01*
X111081Y136491D01*
X110986Y136519D01*
X110892Y136551D01*
X110799Y136586D01*
X110707Y136625D01*
X110617Y136668D01*
X110529Y136713D01*
X110442Y136763D01*
X110358Y136815D01*
X110275Y136871D01*
X110195Y136929D01*
X110117Y136991D01*
X110042Y137056D01*
X109969Y137124D01*
X109899Y137194D01*
X109831Y137267D01*
X109766Y137342D01*
X109704Y137420D01*
X109646Y137500D01*
X109590Y137583D01*
X109538Y137667D01*
X109488Y137754D01*
X109443Y137842D01*
X109400Y137932D01*
X109361Y138024D01*
X109326Y138117D01*
X109294Y138211D01*
X109266Y138306D01*
X109241Y138402D01*
X109220Y138500D01*
X109203Y138598D01*
X109190Y138696D01*
X109181Y138795D01*
X109175Y138895D01*
X109173Y138994D01*
X109173Y145486D01*
X109175Y145585D01*
X109181Y145685D01*
X109190Y145784D01*
X109203Y145882D01*
X109220Y145980D01*
X109241Y146078D01*
X109266Y146174D01*
X109294Y146269D01*
X109326Y146363D01*
X109361Y146456D01*
X109400Y146548D01*
X109443Y146638D01*
X109488Y146726D01*
X109538Y146813D01*
X109590Y146897D01*
X109646Y146980D01*
X109704Y147060D01*
X109766Y147138D01*
X109831Y147213D01*
X109899Y147286D01*
X109969Y147356D01*
X110042Y147424D01*
X110117Y147489D01*
X110195Y147551D01*
X110275Y147609D01*
X110358Y147665D01*
X110442Y147717D01*
X110529Y147767D01*
X110617Y147812D01*
X110707Y147855D01*
X110799Y147894D01*
X110891Y147929D01*
X110986Y147961D01*
X111081Y147989D01*
X111177Y148014D01*
X111275Y148035D01*
X111373Y148052D01*
X111471Y148065D01*
X111570Y148074D01*
X111670Y148080D01*
X111769Y148082D01*
X114366Y148082D01*
X118731Y136398D02*
X121976Y136398D01*
X122089Y136400D01*
X122202Y136406D01*
X122315Y136416D01*
X122428Y136430D01*
X122540Y136447D01*
X122651Y136469D01*
X122761Y136494D01*
X122871Y136524D01*
X122979Y136557D01*
X123086Y136594D01*
X123192Y136634D01*
X123296Y136679D01*
X123399Y136727D01*
X123500Y136778D01*
X123599Y136833D01*
X123696Y136891D01*
X123791Y136953D01*
X123884Y137018D01*
X123974Y137086D01*
X124062Y137157D01*
X124148Y137232D01*
X124231Y137309D01*
X124311Y137389D01*
X124388Y137472D01*
X124463Y137558D01*
X124534Y137646D01*
X124602Y137736D01*
X124667Y137829D01*
X124729Y137924D01*
X124787Y138021D01*
X124842Y138120D01*
X124893Y138221D01*
X124941Y138324D01*
X124986Y138428D01*
X125026Y138534D01*
X125063Y138641D01*
X125096Y138749D01*
X125126Y138859D01*
X125151Y138969D01*
X125173Y139080D01*
X125190Y139192D01*
X125204Y139305D01*
X125214Y139418D01*
X125220Y139531D01*
X125222Y139644D01*
X125220Y139757D01*
X125214Y139870D01*
X125204Y139983D01*
X125190Y140096D01*
X125173Y140208D01*
X125151Y140319D01*
X125126Y140429D01*
X125096Y140539D01*
X125063Y140647D01*
X125026Y140754D01*
X124986Y140860D01*
X124941Y140964D01*
X124893Y141067D01*
X124842Y141168D01*
X124787Y141267D01*
X124729Y141364D01*
X124667Y141459D01*
X124602Y141552D01*
X124534Y141642D01*
X124463Y141730D01*
X124388Y141816D01*
X124311Y141899D01*
X124231Y141979D01*
X124148Y142056D01*
X124062Y142131D01*
X123974Y142202D01*
X123884Y142270D01*
X123791Y142335D01*
X123696Y142397D01*
X123599Y142455D01*
X123500Y142510D01*
X123399Y142561D01*
X123296Y142609D01*
X123192Y142654D01*
X123086Y142694D01*
X122979Y142731D01*
X122871Y142764D01*
X122761Y142794D01*
X122651Y142819D01*
X122540Y142841D01*
X122428Y142858D01*
X122315Y142872D01*
X122202Y142882D01*
X122089Y142888D01*
X121976Y142890D01*
X122626Y148082D02*
X118731Y148082D01*
X122626Y148082D02*
X122727Y148080D01*
X122827Y148074D01*
X122927Y148064D01*
X123027Y148051D01*
X123126Y148033D01*
X123225Y148012D01*
X123322Y147987D01*
X123419Y147958D01*
X123514Y147925D01*
X123608Y147889D01*
X123700Y147849D01*
X123791Y147806D01*
X123880Y147759D01*
X123967Y147709D01*
X124053Y147655D01*
X124136Y147598D01*
X124216Y147538D01*
X124295Y147475D01*
X124371Y147408D01*
X124444Y147339D01*
X124514Y147267D01*
X124582Y147193D01*
X124647Y147116D01*
X124708Y147036D01*
X124767Y146954D01*
X124822Y146870D01*
X124874Y146784D01*
X124923Y146696D01*
X124968Y146606D01*
X125010Y146514D01*
X125048Y146421D01*
X125082Y146326D01*
X125113Y146231D01*
X125140Y146134D01*
X125163Y146036D01*
X125183Y145937D01*
X125198Y145837D01*
X125210Y145737D01*
X125218Y145637D01*
X125222Y145536D01*
X125222Y145436D01*
X125218Y145335D01*
X125210Y145235D01*
X125198Y145135D01*
X125183Y145035D01*
X125163Y144936D01*
X125140Y144838D01*
X125113Y144741D01*
X125082Y144646D01*
X125048Y144551D01*
X125010Y144458D01*
X124968Y144366D01*
X124923Y144276D01*
X124874Y144188D01*
X124822Y144102D01*
X124767Y144018D01*
X124708Y143936D01*
X124647Y143856D01*
X124582Y143779D01*
X124514Y143705D01*
X124444Y143633D01*
X124371Y143564D01*
X124295Y143497D01*
X124216Y143434D01*
X124136Y143374D01*
X124053Y143317D01*
X123967Y143263D01*
X123880Y143213D01*
X123791Y143166D01*
X123700Y143123D01*
X123608Y143083D01*
X123514Y143047D01*
X123419Y143014D01*
X123322Y142985D01*
X123225Y142960D01*
X123126Y142939D01*
X123027Y142921D01*
X122927Y142908D01*
X122827Y142898D01*
X122727Y142892D01*
X122626Y142890D01*
X122626Y142889D02*
X120029Y142889D01*
M02*
