G04 EAGLE Gerber RS-274X export*
G75*
%MOMM*%
%FSLAX34Y34*%
%LPD*%
%INSilkscreen Bottom*%
%IPPOS*%
%AMOC8*
5,1,8,0,0,1.08239X$1,22.5*%
G01*
%ADD10C,0.101600*%


D10*
X71882Y57658D02*
X71882Y69342D01*
X71882Y64149D02*
X78373Y64149D01*
X78373Y69342D02*
X78373Y57658D01*
X85793Y62202D02*
X88714Y62202D01*
X85793Y62202D02*
X85699Y62200D01*
X85605Y62194D01*
X85512Y62185D01*
X85419Y62171D01*
X85327Y62154D01*
X85235Y62132D01*
X85145Y62108D01*
X85055Y62079D01*
X84967Y62047D01*
X84880Y62011D01*
X84795Y61971D01*
X84712Y61928D01*
X84630Y61882D01*
X84550Y61832D01*
X84473Y61779D01*
X84398Y61723D01*
X84325Y61664D01*
X84254Y61602D01*
X84186Y61537D01*
X84121Y61469D01*
X84059Y61398D01*
X84000Y61325D01*
X83944Y61250D01*
X83891Y61173D01*
X83841Y61093D01*
X83795Y61011D01*
X83752Y60928D01*
X83712Y60843D01*
X83676Y60756D01*
X83644Y60668D01*
X83615Y60578D01*
X83591Y60488D01*
X83569Y60396D01*
X83552Y60304D01*
X83538Y60211D01*
X83529Y60118D01*
X83523Y60024D01*
X83521Y59930D01*
X83523Y59836D01*
X83529Y59742D01*
X83538Y59649D01*
X83552Y59556D01*
X83569Y59464D01*
X83591Y59372D01*
X83615Y59282D01*
X83644Y59192D01*
X83676Y59104D01*
X83712Y59017D01*
X83752Y58932D01*
X83795Y58849D01*
X83841Y58767D01*
X83891Y58687D01*
X83944Y58610D01*
X84000Y58535D01*
X84059Y58462D01*
X84121Y58391D01*
X84186Y58323D01*
X84254Y58258D01*
X84325Y58196D01*
X84398Y58137D01*
X84473Y58081D01*
X84550Y58028D01*
X84630Y57978D01*
X84712Y57932D01*
X84795Y57889D01*
X84880Y57849D01*
X84967Y57813D01*
X85055Y57781D01*
X85145Y57752D01*
X85235Y57728D01*
X85327Y57706D01*
X85419Y57689D01*
X85512Y57675D01*
X85605Y57666D01*
X85699Y57660D01*
X85793Y57658D01*
X88714Y57658D01*
X88714Y63500D01*
X88712Y63587D01*
X88706Y63675D01*
X88696Y63761D01*
X88683Y63848D01*
X88665Y63933D01*
X88644Y64018D01*
X88619Y64102D01*
X88590Y64184D01*
X88557Y64265D01*
X88521Y64345D01*
X88482Y64423D01*
X88438Y64499D01*
X88392Y64573D01*
X88342Y64644D01*
X88289Y64714D01*
X88233Y64781D01*
X88174Y64845D01*
X88112Y64907D01*
X88048Y64966D01*
X87981Y65022D01*
X87911Y65075D01*
X87840Y65125D01*
X87766Y65171D01*
X87690Y65215D01*
X87612Y65254D01*
X87532Y65290D01*
X87451Y65323D01*
X87369Y65352D01*
X87285Y65377D01*
X87200Y65398D01*
X87115Y65416D01*
X87028Y65429D01*
X86942Y65439D01*
X86854Y65445D01*
X86767Y65447D01*
X84171Y65447D01*
X94307Y65447D02*
X94307Y53763D01*
X94307Y65447D02*
X97553Y65447D01*
X97640Y65445D01*
X97728Y65439D01*
X97814Y65429D01*
X97901Y65416D01*
X97986Y65398D01*
X98071Y65377D01*
X98155Y65352D01*
X98237Y65323D01*
X98318Y65290D01*
X98398Y65254D01*
X98476Y65215D01*
X98552Y65171D01*
X98626Y65125D01*
X98697Y65075D01*
X98767Y65022D01*
X98834Y64966D01*
X98898Y64907D01*
X98960Y64846D01*
X99019Y64781D01*
X99075Y64714D01*
X99128Y64644D01*
X99178Y64573D01*
X99224Y64499D01*
X99268Y64423D01*
X99307Y64345D01*
X99343Y64265D01*
X99376Y64184D01*
X99405Y64102D01*
X99430Y64018D01*
X99451Y63933D01*
X99469Y63848D01*
X99482Y63761D01*
X99492Y63675D01*
X99498Y63587D01*
X99500Y63500D01*
X99500Y59605D01*
X99498Y59518D01*
X99492Y59430D01*
X99482Y59344D01*
X99469Y59257D01*
X99451Y59172D01*
X99430Y59087D01*
X99405Y59003D01*
X99376Y58921D01*
X99343Y58840D01*
X99307Y58760D01*
X99268Y58682D01*
X99224Y58606D01*
X99178Y58532D01*
X99128Y58461D01*
X99075Y58391D01*
X99019Y58324D01*
X98960Y58260D01*
X98898Y58198D01*
X98834Y58139D01*
X98767Y58083D01*
X98697Y58030D01*
X98626Y57980D01*
X98552Y57934D01*
X98476Y57890D01*
X98398Y57851D01*
X98318Y57815D01*
X98237Y57782D01*
X98155Y57753D01*
X98071Y57728D01*
X97986Y57707D01*
X97901Y57689D01*
X97814Y57676D01*
X97728Y57666D01*
X97640Y57660D01*
X97553Y57658D01*
X94307Y57658D01*
X103187Y65447D02*
X107082Y65447D01*
X104485Y69342D02*
X104485Y59605D01*
X104486Y59605D02*
X104488Y59518D01*
X104494Y59430D01*
X104504Y59344D01*
X104517Y59257D01*
X104535Y59172D01*
X104556Y59087D01*
X104581Y59003D01*
X104610Y58921D01*
X104643Y58840D01*
X104679Y58760D01*
X104718Y58682D01*
X104762Y58606D01*
X104808Y58532D01*
X104858Y58461D01*
X104911Y58391D01*
X104967Y58324D01*
X105026Y58260D01*
X105088Y58198D01*
X105152Y58139D01*
X105219Y58083D01*
X105289Y58030D01*
X105360Y57980D01*
X105434Y57934D01*
X105510Y57890D01*
X105588Y57851D01*
X105668Y57815D01*
X105749Y57782D01*
X105831Y57753D01*
X105915Y57728D01*
X106000Y57707D01*
X106085Y57689D01*
X106172Y57676D01*
X106258Y57666D01*
X106346Y57660D01*
X106433Y57658D01*
X107082Y57658D01*
X111323Y57658D02*
X111323Y65447D01*
X110998Y68693D02*
X110998Y69342D01*
X111647Y69342D01*
X111647Y68693D01*
X110998Y68693D01*
X117926Y57658D02*
X120522Y57658D01*
X117926Y57658D02*
X117839Y57660D01*
X117751Y57666D01*
X117665Y57676D01*
X117578Y57689D01*
X117493Y57707D01*
X117408Y57728D01*
X117324Y57753D01*
X117242Y57782D01*
X117161Y57815D01*
X117081Y57851D01*
X117003Y57890D01*
X116927Y57934D01*
X116853Y57980D01*
X116782Y58030D01*
X116712Y58083D01*
X116645Y58139D01*
X116581Y58198D01*
X116519Y58260D01*
X116460Y58324D01*
X116404Y58391D01*
X116351Y58461D01*
X116301Y58532D01*
X116255Y58606D01*
X116211Y58682D01*
X116172Y58760D01*
X116136Y58840D01*
X116103Y58921D01*
X116074Y59003D01*
X116049Y59087D01*
X116028Y59172D01*
X116010Y59257D01*
X115997Y59344D01*
X115987Y59430D01*
X115981Y59518D01*
X115979Y59605D01*
X115979Y63500D01*
X115981Y63587D01*
X115987Y63675D01*
X115997Y63761D01*
X116010Y63848D01*
X116028Y63933D01*
X116049Y64018D01*
X116074Y64102D01*
X116103Y64184D01*
X116136Y64265D01*
X116172Y64345D01*
X116211Y64423D01*
X116255Y64499D01*
X116301Y64573D01*
X116351Y64644D01*
X116404Y64714D01*
X116460Y64781D01*
X116519Y64845D01*
X116581Y64907D01*
X116645Y64966D01*
X116712Y65022D01*
X116782Y65075D01*
X116853Y65125D01*
X116927Y65171D01*
X117003Y65215D01*
X117081Y65254D01*
X117161Y65290D01*
X117242Y65323D01*
X117324Y65352D01*
X117408Y65377D01*
X117493Y65398D01*
X117578Y65416D01*
X117665Y65429D01*
X117751Y65439D01*
X117839Y65445D01*
X117926Y65447D01*
X120522Y65447D01*
X131431Y69342D02*
X131431Y57658D01*
X135326Y62851D02*
X131431Y69342D01*
X135326Y62851D02*
X139220Y69342D01*
X139220Y57658D01*
X144540Y60254D02*
X144540Y62851D01*
X144541Y62851D02*
X144543Y62952D01*
X144549Y63052D01*
X144559Y63152D01*
X144572Y63252D01*
X144590Y63351D01*
X144611Y63450D01*
X144636Y63547D01*
X144665Y63644D01*
X144698Y63739D01*
X144734Y63833D01*
X144774Y63925D01*
X144817Y64016D01*
X144864Y64105D01*
X144914Y64192D01*
X144968Y64278D01*
X145025Y64361D01*
X145085Y64441D01*
X145148Y64520D01*
X145215Y64596D01*
X145284Y64669D01*
X145356Y64739D01*
X145430Y64807D01*
X145507Y64872D01*
X145587Y64933D01*
X145669Y64992D01*
X145753Y65047D01*
X145839Y65099D01*
X145927Y65148D01*
X146017Y65193D01*
X146109Y65235D01*
X146202Y65273D01*
X146297Y65307D01*
X146392Y65338D01*
X146489Y65365D01*
X146587Y65388D01*
X146686Y65408D01*
X146786Y65423D01*
X146886Y65435D01*
X146986Y65443D01*
X147087Y65447D01*
X147187Y65447D01*
X147288Y65443D01*
X147388Y65435D01*
X147488Y65423D01*
X147588Y65408D01*
X147687Y65388D01*
X147785Y65365D01*
X147882Y65338D01*
X147977Y65307D01*
X148072Y65273D01*
X148165Y65235D01*
X148257Y65193D01*
X148347Y65148D01*
X148435Y65099D01*
X148521Y65047D01*
X148605Y64992D01*
X148687Y64933D01*
X148767Y64872D01*
X148844Y64807D01*
X148918Y64739D01*
X148990Y64669D01*
X149059Y64596D01*
X149126Y64520D01*
X149189Y64441D01*
X149249Y64361D01*
X149306Y64278D01*
X149360Y64192D01*
X149410Y64105D01*
X149457Y64016D01*
X149500Y63925D01*
X149540Y63833D01*
X149576Y63739D01*
X149609Y63644D01*
X149638Y63547D01*
X149663Y63450D01*
X149684Y63351D01*
X149702Y63252D01*
X149715Y63152D01*
X149725Y63052D01*
X149731Y62952D01*
X149733Y62851D01*
X149733Y60254D01*
X149731Y60153D01*
X149725Y60053D01*
X149715Y59953D01*
X149702Y59853D01*
X149684Y59754D01*
X149663Y59655D01*
X149638Y59558D01*
X149609Y59461D01*
X149576Y59366D01*
X149540Y59272D01*
X149500Y59180D01*
X149457Y59089D01*
X149410Y59000D01*
X149360Y58913D01*
X149306Y58827D01*
X149249Y58744D01*
X149189Y58664D01*
X149126Y58585D01*
X149059Y58509D01*
X148990Y58436D01*
X148918Y58366D01*
X148844Y58298D01*
X148767Y58233D01*
X148687Y58172D01*
X148605Y58113D01*
X148521Y58058D01*
X148435Y58006D01*
X148347Y57957D01*
X148257Y57912D01*
X148165Y57870D01*
X148072Y57832D01*
X147977Y57798D01*
X147882Y57767D01*
X147785Y57740D01*
X147687Y57717D01*
X147588Y57697D01*
X147488Y57682D01*
X147388Y57670D01*
X147288Y57662D01*
X147187Y57658D01*
X147087Y57658D01*
X146986Y57662D01*
X146886Y57670D01*
X146786Y57682D01*
X146686Y57697D01*
X146587Y57717D01*
X146489Y57740D01*
X146392Y57767D01*
X146297Y57798D01*
X146202Y57832D01*
X146109Y57870D01*
X146017Y57912D01*
X145927Y57957D01*
X145839Y58006D01*
X145753Y58058D01*
X145669Y58113D01*
X145587Y58172D01*
X145507Y58233D01*
X145430Y58298D01*
X145356Y58366D01*
X145284Y58436D01*
X145215Y58509D01*
X145148Y58585D01*
X145085Y58664D01*
X145025Y58744D01*
X144968Y58827D01*
X144914Y58913D01*
X144864Y59000D01*
X144817Y59089D01*
X144774Y59180D01*
X144734Y59272D01*
X144698Y59366D01*
X144665Y59461D01*
X144636Y59558D01*
X144611Y59655D01*
X144590Y59754D01*
X144572Y59853D01*
X144559Y59953D01*
X144549Y60053D01*
X144543Y60153D01*
X144541Y60254D01*
X153479Y65447D02*
X157374Y65447D01*
X154777Y69342D02*
X154777Y59605D01*
X154779Y59518D01*
X154785Y59430D01*
X154795Y59344D01*
X154808Y59257D01*
X154826Y59172D01*
X154847Y59087D01*
X154872Y59003D01*
X154901Y58921D01*
X154934Y58840D01*
X154970Y58760D01*
X155009Y58682D01*
X155053Y58606D01*
X155099Y58532D01*
X155149Y58461D01*
X155202Y58391D01*
X155258Y58324D01*
X155317Y58260D01*
X155379Y58198D01*
X155443Y58139D01*
X155510Y58083D01*
X155580Y58030D01*
X155651Y57980D01*
X155725Y57934D01*
X155801Y57890D01*
X155879Y57851D01*
X155959Y57815D01*
X156040Y57782D01*
X156122Y57753D01*
X156206Y57728D01*
X156291Y57707D01*
X156376Y57689D01*
X156463Y57676D01*
X156549Y57666D01*
X156637Y57660D01*
X156724Y57658D01*
X157374Y57658D01*
X161685Y60254D02*
X161685Y62851D01*
X161686Y62851D02*
X161688Y62952D01*
X161694Y63052D01*
X161704Y63152D01*
X161717Y63252D01*
X161735Y63351D01*
X161756Y63450D01*
X161781Y63547D01*
X161810Y63644D01*
X161843Y63739D01*
X161879Y63833D01*
X161919Y63925D01*
X161962Y64016D01*
X162009Y64105D01*
X162059Y64192D01*
X162113Y64278D01*
X162170Y64361D01*
X162230Y64441D01*
X162293Y64520D01*
X162360Y64596D01*
X162429Y64669D01*
X162501Y64739D01*
X162575Y64807D01*
X162652Y64872D01*
X162732Y64933D01*
X162814Y64992D01*
X162898Y65047D01*
X162984Y65099D01*
X163072Y65148D01*
X163162Y65193D01*
X163254Y65235D01*
X163347Y65273D01*
X163442Y65307D01*
X163537Y65338D01*
X163634Y65365D01*
X163732Y65388D01*
X163831Y65408D01*
X163931Y65423D01*
X164031Y65435D01*
X164131Y65443D01*
X164232Y65447D01*
X164332Y65447D01*
X164433Y65443D01*
X164533Y65435D01*
X164633Y65423D01*
X164733Y65408D01*
X164832Y65388D01*
X164930Y65365D01*
X165027Y65338D01*
X165122Y65307D01*
X165217Y65273D01*
X165310Y65235D01*
X165402Y65193D01*
X165492Y65148D01*
X165580Y65099D01*
X165666Y65047D01*
X165750Y64992D01*
X165832Y64933D01*
X165912Y64872D01*
X165989Y64807D01*
X166063Y64739D01*
X166135Y64669D01*
X166204Y64596D01*
X166271Y64520D01*
X166334Y64441D01*
X166394Y64361D01*
X166451Y64278D01*
X166505Y64192D01*
X166555Y64105D01*
X166602Y64016D01*
X166645Y63925D01*
X166685Y63833D01*
X166721Y63739D01*
X166754Y63644D01*
X166783Y63547D01*
X166808Y63450D01*
X166829Y63351D01*
X166847Y63252D01*
X166860Y63152D01*
X166870Y63052D01*
X166876Y62952D01*
X166878Y62851D01*
X166878Y60254D01*
X166876Y60153D01*
X166870Y60053D01*
X166860Y59953D01*
X166847Y59853D01*
X166829Y59754D01*
X166808Y59655D01*
X166783Y59558D01*
X166754Y59461D01*
X166721Y59366D01*
X166685Y59272D01*
X166645Y59180D01*
X166602Y59089D01*
X166555Y59000D01*
X166505Y58913D01*
X166451Y58827D01*
X166394Y58744D01*
X166334Y58664D01*
X166271Y58585D01*
X166204Y58509D01*
X166135Y58436D01*
X166063Y58366D01*
X165989Y58298D01*
X165912Y58233D01*
X165832Y58172D01*
X165750Y58113D01*
X165666Y58058D01*
X165580Y58006D01*
X165492Y57957D01*
X165402Y57912D01*
X165310Y57870D01*
X165217Y57832D01*
X165122Y57798D01*
X165027Y57767D01*
X164930Y57740D01*
X164832Y57717D01*
X164733Y57697D01*
X164633Y57682D01*
X164533Y57670D01*
X164433Y57662D01*
X164332Y57658D01*
X164232Y57658D01*
X164131Y57662D01*
X164031Y57670D01*
X163931Y57682D01*
X163831Y57697D01*
X163732Y57717D01*
X163634Y57740D01*
X163537Y57767D01*
X163442Y57798D01*
X163347Y57832D01*
X163254Y57870D01*
X163162Y57912D01*
X163072Y57957D01*
X162984Y58006D01*
X162898Y58058D01*
X162814Y58113D01*
X162732Y58172D01*
X162652Y58233D01*
X162575Y58298D01*
X162501Y58366D01*
X162429Y58436D01*
X162360Y58509D01*
X162293Y58585D01*
X162230Y58664D01*
X162170Y58744D01*
X162113Y58827D01*
X162059Y58913D01*
X162009Y59000D01*
X161962Y59089D01*
X161919Y59180D01*
X161879Y59272D01*
X161843Y59366D01*
X161810Y59461D01*
X161781Y59558D01*
X161756Y59655D01*
X161735Y59754D01*
X161717Y59853D01*
X161704Y59953D01*
X161694Y60053D01*
X161688Y60153D01*
X161686Y60254D01*
X172039Y57658D02*
X172039Y65447D01*
X175933Y65447D01*
X175933Y64149D01*
X186182Y69342D02*
X186182Y57658D01*
X186182Y69342D02*
X189428Y69342D01*
X189541Y69340D01*
X189654Y69334D01*
X189767Y69324D01*
X189880Y69310D01*
X189992Y69293D01*
X190103Y69271D01*
X190213Y69246D01*
X190323Y69216D01*
X190431Y69183D01*
X190538Y69146D01*
X190644Y69106D01*
X190748Y69061D01*
X190851Y69013D01*
X190952Y68962D01*
X191051Y68907D01*
X191148Y68849D01*
X191243Y68787D01*
X191336Y68722D01*
X191426Y68654D01*
X191514Y68583D01*
X191600Y68508D01*
X191683Y68431D01*
X191763Y68351D01*
X191840Y68268D01*
X191915Y68182D01*
X191986Y68094D01*
X192054Y68004D01*
X192119Y67911D01*
X192181Y67816D01*
X192239Y67719D01*
X192294Y67620D01*
X192345Y67519D01*
X192393Y67416D01*
X192438Y67312D01*
X192478Y67206D01*
X192515Y67099D01*
X192548Y66991D01*
X192578Y66881D01*
X192603Y66771D01*
X192625Y66660D01*
X192642Y66548D01*
X192656Y66435D01*
X192666Y66322D01*
X192672Y66209D01*
X192674Y66096D01*
X192673Y66096D02*
X192673Y60904D01*
X192674Y60904D02*
X192672Y60791D01*
X192666Y60678D01*
X192656Y60565D01*
X192642Y60452D01*
X192625Y60340D01*
X192603Y60229D01*
X192578Y60119D01*
X192548Y60009D01*
X192515Y59901D01*
X192478Y59794D01*
X192438Y59688D01*
X192393Y59584D01*
X192345Y59481D01*
X192294Y59380D01*
X192239Y59281D01*
X192181Y59184D01*
X192119Y59089D01*
X192054Y58996D01*
X191986Y58906D01*
X191915Y58818D01*
X191840Y58732D01*
X191763Y58649D01*
X191683Y58569D01*
X191600Y58492D01*
X191514Y58417D01*
X191426Y58346D01*
X191336Y58278D01*
X191243Y58213D01*
X191148Y58151D01*
X191051Y58093D01*
X190952Y58038D01*
X190851Y57987D01*
X190748Y57939D01*
X190644Y57894D01*
X190538Y57854D01*
X190431Y57817D01*
X190323Y57784D01*
X190213Y57754D01*
X190103Y57729D01*
X189992Y57707D01*
X189880Y57690D01*
X189767Y57676D01*
X189654Y57666D01*
X189541Y57660D01*
X189428Y57658D01*
X186182Y57658D01*
X198328Y57658D02*
X198328Y65447D01*
X202222Y65447D01*
X202222Y64149D01*
X205811Y65447D02*
X205811Y57658D01*
X205486Y68693D02*
X205486Y69342D01*
X206135Y69342D01*
X206135Y68693D01*
X205486Y68693D01*
X210072Y65447D02*
X212669Y57658D01*
X215265Y65447D01*
X221544Y57658D02*
X224790Y57658D01*
X221544Y57658D02*
X221457Y57660D01*
X221369Y57666D01*
X221283Y57676D01*
X221196Y57689D01*
X221111Y57707D01*
X221026Y57728D01*
X220942Y57753D01*
X220860Y57782D01*
X220779Y57815D01*
X220699Y57851D01*
X220621Y57890D01*
X220545Y57934D01*
X220471Y57980D01*
X220400Y58030D01*
X220330Y58083D01*
X220263Y58139D01*
X220199Y58198D01*
X220137Y58260D01*
X220078Y58324D01*
X220022Y58391D01*
X219969Y58461D01*
X219919Y58532D01*
X219873Y58606D01*
X219829Y58682D01*
X219790Y58760D01*
X219754Y58840D01*
X219721Y58921D01*
X219692Y59003D01*
X219667Y59087D01*
X219646Y59172D01*
X219628Y59257D01*
X219615Y59344D01*
X219605Y59430D01*
X219599Y59518D01*
X219597Y59605D01*
X219597Y62851D01*
X219598Y62851D02*
X219600Y62952D01*
X219606Y63052D01*
X219616Y63152D01*
X219629Y63252D01*
X219647Y63351D01*
X219668Y63450D01*
X219693Y63547D01*
X219722Y63644D01*
X219755Y63739D01*
X219791Y63833D01*
X219831Y63925D01*
X219874Y64016D01*
X219921Y64105D01*
X219971Y64192D01*
X220025Y64278D01*
X220082Y64361D01*
X220142Y64441D01*
X220205Y64520D01*
X220272Y64596D01*
X220341Y64669D01*
X220413Y64739D01*
X220487Y64807D01*
X220564Y64872D01*
X220644Y64933D01*
X220726Y64992D01*
X220810Y65047D01*
X220896Y65099D01*
X220984Y65148D01*
X221074Y65193D01*
X221166Y65235D01*
X221259Y65273D01*
X221354Y65307D01*
X221449Y65338D01*
X221546Y65365D01*
X221644Y65388D01*
X221743Y65408D01*
X221843Y65423D01*
X221943Y65435D01*
X222043Y65443D01*
X222144Y65447D01*
X222244Y65447D01*
X222345Y65443D01*
X222445Y65435D01*
X222545Y65423D01*
X222645Y65408D01*
X222744Y65388D01*
X222842Y65365D01*
X222939Y65338D01*
X223034Y65307D01*
X223129Y65273D01*
X223222Y65235D01*
X223314Y65193D01*
X223404Y65148D01*
X223492Y65099D01*
X223578Y65047D01*
X223662Y64992D01*
X223744Y64933D01*
X223824Y64872D01*
X223901Y64807D01*
X223975Y64739D01*
X224047Y64669D01*
X224116Y64596D01*
X224183Y64520D01*
X224246Y64441D01*
X224306Y64361D01*
X224363Y64278D01*
X224417Y64192D01*
X224467Y64105D01*
X224514Y64016D01*
X224557Y63925D01*
X224597Y63833D01*
X224633Y63739D01*
X224666Y63644D01*
X224695Y63547D01*
X224720Y63450D01*
X224741Y63351D01*
X224759Y63252D01*
X224772Y63152D01*
X224782Y63052D01*
X224788Y62952D01*
X224790Y62851D01*
X224790Y61553D01*
X219597Y61553D01*
X229951Y57658D02*
X229951Y65447D01*
X233845Y65447D01*
X233845Y64149D01*
X75128Y45099D02*
X71882Y45099D01*
X75128Y45100D02*
X75241Y45098D01*
X75354Y45092D01*
X75467Y45082D01*
X75580Y45068D01*
X75692Y45051D01*
X75803Y45029D01*
X75913Y45004D01*
X76023Y44974D01*
X76131Y44941D01*
X76238Y44904D01*
X76344Y44864D01*
X76448Y44819D01*
X76551Y44771D01*
X76652Y44720D01*
X76751Y44665D01*
X76848Y44607D01*
X76943Y44545D01*
X77036Y44480D01*
X77126Y44412D01*
X77214Y44341D01*
X77300Y44266D01*
X77383Y44189D01*
X77463Y44109D01*
X77540Y44026D01*
X77615Y43940D01*
X77686Y43852D01*
X77754Y43762D01*
X77819Y43669D01*
X77881Y43574D01*
X77939Y43477D01*
X77994Y43378D01*
X78045Y43277D01*
X78093Y43174D01*
X78138Y43070D01*
X78178Y42964D01*
X78215Y42857D01*
X78248Y42749D01*
X78278Y42639D01*
X78303Y42529D01*
X78325Y42418D01*
X78342Y42306D01*
X78356Y42193D01*
X78366Y42080D01*
X78372Y41967D01*
X78374Y41854D01*
X78372Y41741D01*
X78366Y41628D01*
X78356Y41515D01*
X78342Y41402D01*
X78325Y41290D01*
X78303Y41179D01*
X78278Y41069D01*
X78248Y40959D01*
X78215Y40851D01*
X78178Y40744D01*
X78138Y40638D01*
X78093Y40534D01*
X78045Y40431D01*
X77994Y40330D01*
X77939Y40231D01*
X77881Y40134D01*
X77819Y40039D01*
X77754Y39946D01*
X77686Y39856D01*
X77615Y39768D01*
X77540Y39682D01*
X77463Y39599D01*
X77383Y39519D01*
X77300Y39442D01*
X77214Y39367D01*
X77126Y39296D01*
X77036Y39228D01*
X76943Y39163D01*
X76848Y39101D01*
X76751Y39043D01*
X76652Y38988D01*
X76551Y38937D01*
X76448Y38889D01*
X76344Y38844D01*
X76238Y38804D01*
X76131Y38767D01*
X76023Y38734D01*
X75913Y38704D01*
X75803Y38679D01*
X75692Y38657D01*
X75580Y38640D01*
X75467Y38626D01*
X75354Y38616D01*
X75241Y38610D01*
X75128Y38608D01*
X71882Y38608D01*
X71882Y50292D01*
X75128Y50292D01*
X75229Y50290D01*
X75329Y50284D01*
X75429Y50274D01*
X75529Y50261D01*
X75628Y50243D01*
X75727Y50222D01*
X75824Y50197D01*
X75921Y50168D01*
X76016Y50135D01*
X76110Y50099D01*
X76202Y50059D01*
X76293Y50016D01*
X76382Y49969D01*
X76469Y49919D01*
X76555Y49865D01*
X76638Y49808D01*
X76718Y49748D01*
X76797Y49685D01*
X76873Y49618D01*
X76946Y49549D01*
X77016Y49477D01*
X77084Y49403D01*
X77149Y49326D01*
X77210Y49246D01*
X77269Y49164D01*
X77324Y49080D01*
X77376Y48994D01*
X77425Y48906D01*
X77470Y48816D01*
X77512Y48724D01*
X77550Y48631D01*
X77584Y48536D01*
X77615Y48441D01*
X77642Y48344D01*
X77665Y48246D01*
X77685Y48147D01*
X77700Y48047D01*
X77712Y47947D01*
X77720Y47847D01*
X77724Y47746D01*
X77724Y47646D01*
X77720Y47545D01*
X77712Y47445D01*
X77700Y47345D01*
X77685Y47245D01*
X77665Y47146D01*
X77642Y47048D01*
X77615Y46951D01*
X77584Y46856D01*
X77550Y46761D01*
X77512Y46668D01*
X77470Y46576D01*
X77425Y46486D01*
X77376Y46398D01*
X77324Y46312D01*
X77269Y46228D01*
X77210Y46146D01*
X77149Y46066D01*
X77084Y45989D01*
X77016Y45915D01*
X76946Y45843D01*
X76873Y45774D01*
X76797Y45707D01*
X76718Y45644D01*
X76638Y45584D01*
X76555Y45527D01*
X76469Y45473D01*
X76382Y45423D01*
X76293Y45376D01*
X76202Y45333D01*
X76110Y45293D01*
X76016Y45257D01*
X75921Y45224D01*
X75824Y45195D01*
X75727Y45170D01*
X75628Y45149D01*
X75529Y45131D01*
X75429Y45118D01*
X75329Y45108D01*
X75229Y45102D01*
X75128Y45100D01*
X83096Y46397D02*
X83096Y38608D01*
X83096Y46397D02*
X86991Y46397D01*
X86991Y45099D01*
X92597Y38608D02*
X95843Y38608D01*
X92597Y38608D02*
X92510Y38610D01*
X92422Y38616D01*
X92336Y38626D01*
X92249Y38639D01*
X92164Y38657D01*
X92079Y38678D01*
X91995Y38703D01*
X91913Y38732D01*
X91832Y38765D01*
X91752Y38801D01*
X91674Y38840D01*
X91598Y38884D01*
X91524Y38930D01*
X91453Y38980D01*
X91383Y39033D01*
X91316Y39089D01*
X91252Y39148D01*
X91190Y39210D01*
X91131Y39274D01*
X91075Y39341D01*
X91022Y39411D01*
X90972Y39482D01*
X90926Y39556D01*
X90882Y39632D01*
X90843Y39710D01*
X90807Y39790D01*
X90774Y39871D01*
X90745Y39953D01*
X90720Y40037D01*
X90699Y40122D01*
X90681Y40207D01*
X90668Y40294D01*
X90658Y40380D01*
X90652Y40468D01*
X90650Y40555D01*
X90650Y43801D01*
X90652Y43902D01*
X90658Y44002D01*
X90668Y44102D01*
X90681Y44202D01*
X90699Y44301D01*
X90720Y44400D01*
X90745Y44497D01*
X90774Y44594D01*
X90807Y44689D01*
X90843Y44783D01*
X90883Y44875D01*
X90926Y44966D01*
X90973Y45055D01*
X91023Y45142D01*
X91077Y45228D01*
X91134Y45311D01*
X91194Y45391D01*
X91257Y45470D01*
X91324Y45546D01*
X91393Y45619D01*
X91465Y45689D01*
X91539Y45757D01*
X91616Y45822D01*
X91696Y45883D01*
X91778Y45942D01*
X91862Y45997D01*
X91948Y46049D01*
X92036Y46098D01*
X92126Y46143D01*
X92218Y46185D01*
X92311Y46223D01*
X92406Y46257D01*
X92501Y46288D01*
X92598Y46315D01*
X92696Y46338D01*
X92795Y46358D01*
X92895Y46373D01*
X92995Y46385D01*
X93095Y46393D01*
X93196Y46397D01*
X93296Y46397D01*
X93397Y46393D01*
X93497Y46385D01*
X93597Y46373D01*
X93697Y46358D01*
X93796Y46338D01*
X93894Y46315D01*
X93991Y46288D01*
X94086Y46257D01*
X94181Y46223D01*
X94274Y46185D01*
X94366Y46143D01*
X94456Y46098D01*
X94544Y46049D01*
X94630Y45997D01*
X94714Y45942D01*
X94796Y45883D01*
X94876Y45822D01*
X94953Y45757D01*
X95027Y45689D01*
X95099Y45619D01*
X95168Y45546D01*
X95235Y45470D01*
X95298Y45391D01*
X95358Y45311D01*
X95415Y45228D01*
X95469Y45142D01*
X95519Y45055D01*
X95566Y44966D01*
X95609Y44875D01*
X95649Y44783D01*
X95685Y44689D01*
X95718Y44594D01*
X95747Y44497D01*
X95772Y44400D01*
X95793Y44301D01*
X95811Y44202D01*
X95824Y44102D01*
X95834Y44002D01*
X95840Y43902D01*
X95842Y43801D01*
X95843Y43801D02*
X95843Y42503D01*
X90650Y42503D01*
X102769Y43152D02*
X105690Y43152D01*
X102769Y43152D02*
X102675Y43150D01*
X102581Y43144D01*
X102488Y43135D01*
X102395Y43121D01*
X102303Y43104D01*
X102211Y43082D01*
X102121Y43058D01*
X102031Y43029D01*
X101943Y42997D01*
X101856Y42961D01*
X101771Y42921D01*
X101688Y42878D01*
X101606Y42832D01*
X101526Y42782D01*
X101449Y42729D01*
X101374Y42673D01*
X101301Y42614D01*
X101230Y42552D01*
X101162Y42487D01*
X101097Y42419D01*
X101035Y42348D01*
X100976Y42275D01*
X100920Y42200D01*
X100867Y42123D01*
X100817Y42043D01*
X100771Y41961D01*
X100728Y41878D01*
X100688Y41793D01*
X100652Y41706D01*
X100620Y41618D01*
X100591Y41528D01*
X100567Y41438D01*
X100545Y41346D01*
X100528Y41254D01*
X100514Y41161D01*
X100505Y41068D01*
X100499Y40974D01*
X100497Y40880D01*
X100499Y40786D01*
X100505Y40692D01*
X100514Y40599D01*
X100528Y40506D01*
X100545Y40414D01*
X100567Y40322D01*
X100591Y40232D01*
X100620Y40142D01*
X100652Y40054D01*
X100688Y39967D01*
X100728Y39882D01*
X100771Y39799D01*
X100817Y39717D01*
X100867Y39637D01*
X100920Y39560D01*
X100976Y39485D01*
X101035Y39412D01*
X101097Y39341D01*
X101162Y39273D01*
X101230Y39208D01*
X101301Y39146D01*
X101374Y39087D01*
X101449Y39031D01*
X101526Y38978D01*
X101606Y38928D01*
X101688Y38882D01*
X101771Y38839D01*
X101856Y38799D01*
X101943Y38763D01*
X102031Y38731D01*
X102121Y38702D01*
X102211Y38678D01*
X102303Y38656D01*
X102395Y38639D01*
X102488Y38625D01*
X102581Y38616D01*
X102675Y38610D01*
X102769Y38608D01*
X105690Y38608D01*
X105690Y44450D01*
X105688Y44537D01*
X105682Y44625D01*
X105672Y44711D01*
X105659Y44798D01*
X105641Y44883D01*
X105620Y44968D01*
X105595Y45052D01*
X105566Y45134D01*
X105533Y45215D01*
X105497Y45295D01*
X105458Y45373D01*
X105414Y45449D01*
X105368Y45523D01*
X105318Y45594D01*
X105265Y45664D01*
X105209Y45731D01*
X105150Y45795D01*
X105088Y45857D01*
X105024Y45916D01*
X104957Y45972D01*
X104887Y46025D01*
X104816Y46075D01*
X104742Y46121D01*
X104666Y46165D01*
X104588Y46204D01*
X104508Y46240D01*
X104427Y46273D01*
X104345Y46302D01*
X104261Y46327D01*
X104176Y46348D01*
X104091Y46366D01*
X104004Y46379D01*
X103918Y46389D01*
X103830Y46395D01*
X103743Y46397D01*
X101146Y46397D01*
X111359Y50292D02*
X111359Y38608D01*
X111359Y42503D02*
X116552Y46397D01*
X113631Y44125D02*
X116552Y38608D01*
X120749Y41204D02*
X120749Y43801D01*
X120751Y43902D01*
X120757Y44002D01*
X120767Y44102D01*
X120780Y44202D01*
X120798Y44301D01*
X120819Y44400D01*
X120844Y44497D01*
X120873Y44594D01*
X120906Y44689D01*
X120942Y44783D01*
X120982Y44875D01*
X121025Y44966D01*
X121072Y45055D01*
X121122Y45142D01*
X121176Y45228D01*
X121233Y45311D01*
X121293Y45391D01*
X121356Y45470D01*
X121423Y45546D01*
X121492Y45619D01*
X121564Y45689D01*
X121638Y45757D01*
X121715Y45822D01*
X121795Y45883D01*
X121877Y45942D01*
X121961Y45997D01*
X122047Y46049D01*
X122135Y46098D01*
X122225Y46143D01*
X122317Y46185D01*
X122410Y46223D01*
X122505Y46257D01*
X122600Y46288D01*
X122697Y46315D01*
X122795Y46338D01*
X122894Y46358D01*
X122994Y46373D01*
X123094Y46385D01*
X123194Y46393D01*
X123295Y46397D01*
X123395Y46397D01*
X123496Y46393D01*
X123596Y46385D01*
X123696Y46373D01*
X123796Y46358D01*
X123895Y46338D01*
X123993Y46315D01*
X124090Y46288D01*
X124185Y46257D01*
X124280Y46223D01*
X124373Y46185D01*
X124465Y46143D01*
X124555Y46098D01*
X124643Y46049D01*
X124729Y45997D01*
X124813Y45942D01*
X124895Y45883D01*
X124975Y45822D01*
X125052Y45757D01*
X125126Y45689D01*
X125198Y45619D01*
X125267Y45546D01*
X125334Y45470D01*
X125397Y45391D01*
X125457Y45311D01*
X125514Y45228D01*
X125568Y45142D01*
X125618Y45055D01*
X125665Y44966D01*
X125708Y44875D01*
X125748Y44783D01*
X125784Y44689D01*
X125817Y44594D01*
X125846Y44497D01*
X125871Y44400D01*
X125892Y44301D01*
X125910Y44202D01*
X125923Y44102D01*
X125933Y44002D01*
X125939Y43902D01*
X125941Y43801D01*
X125942Y43801D02*
X125942Y41204D01*
X125941Y41204D02*
X125939Y41103D01*
X125933Y41003D01*
X125923Y40903D01*
X125910Y40803D01*
X125892Y40704D01*
X125871Y40605D01*
X125846Y40508D01*
X125817Y40411D01*
X125784Y40316D01*
X125748Y40222D01*
X125708Y40130D01*
X125665Y40039D01*
X125618Y39950D01*
X125568Y39863D01*
X125514Y39777D01*
X125457Y39694D01*
X125397Y39614D01*
X125334Y39535D01*
X125267Y39459D01*
X125198Y39386D01*
X125126Y39316D01*
X125052Y39248D01*
X124975Y39183D01*
X124895Y39122D01*
X124813Y39063D01*
X124729Y39008D01*
X124643Y38956D01*
X124555Y38907D01*
X124465Y38862D01*
X124373Y38820D01*
X124280Y38782D01*
X124185Y38748D01*
X124090Y38717D01*
X123993Y38690D01*
X123895Y38667D01*
X123796Y38647D01*
X123696Y38632D01*
X123596Y38620D01*
X123496Y38612D01*
X123395Y38608D01*
X123295Y38608D01*
X123194Y38612D01*
X123094Y38620D01*
X122994Y38632D01*
X122894Y38647D01*
X122795Y38667D01*
X122697Y38690D01*
X122600Y38717D01*
X122505Y38748D01*
X122410Y38782D01*
X122317Y38820D01*
X122225Y38862D01*
X122135Y38907D01*
X122047Y38956D01*
X121961Y39008D01*
X121877Y39063D01*
X121795Y39122D01*
X121715Y39183D01*
X121638Y39248D01*
X121564Y39316D01*
X121492Y39386D01*
X121423Y39459D01*
X121356Y39535D01*
X121293Y39614D01*
X121233Y39694D01*
X121176Y39777D01*
X121122Y39863D01*
X121072Y39950D01*
X121025Y40039D01*
X120982Y40130D01*
X120942Y40222D01*
X120906Y40316D01*
X120873Y40411D01*
X120844Y40508D01*
X120819Y40605D01*
X120798Y40704D01*
X120780Y40803D01*
X120767Y40903D01*
X120757Y41003D01*
X120751Y41103D01*
X120749Y41204D01*
X131036Y40555D02*
X131036Y46397D01*
X131036Y40555D02*
X131038Y40468D01*
X131044Y40380D01*
X131054Y40294D01*
X131067Y40207D01*
X131085Y40122D01*
X131106Y40037D01*
X131131Y39953D01*
X131160Y39871D01*
X131193Y39790D01*
X131229Y39710D01*
X131268Y39632D01*
X131312Y39556D01*
X131358Y39482D01*
X131408Y39411D01*
X131461Y39341D01*
X131517Y39274D01*
X131576Y39210D01*
X131638Y39148D01*
X131702Y39089D01*
X131769Y39033D01*
X131839Y38980D01*
X131910Y38930D01*
X131984Y38884D01*
X132060Y38840D01*
X132138Y38801D01*
X132218Y38765D01*
X132299Y38732D01*
X132381Y38703D01*
X132465Y38678D01*
X132550Y38657D01*
X132635Y38639D01*
X132722Y38626D01*
X132808Y38616D01*
X132896Y38610D01*
X132983Y38608D01*
X136229Y38608D01*
X136229Y46397D01*
X140356Y46397D02*
X144250Y46397D01*
X141654Y50292D02*
X141654Y40555D01*
X141656Y40468D01*
X141662Y40380D01*
X141672Y40294D01*
X141685Y40207D01*
X141703Y40122D01*
X141724Y40037D01*
X141749Y39953D01*
X141778Y39871D01*
X141811Y39790D01*
X141847Y39710D01*
X141886Y39632D01*
X141930Y39556D01*
X141976Y39482D01*
X142026Y39411D01*
X142079Y39341D01*
X142135Y39274D01*
X142194Y39210D01*
X142256Y39148D01*
X142320Y39089D01*
X142387Y39033D01*
X142457Y38980D01*
X142528Y38930D01*
X142602Y38884D01*
X142678Y38840D01*
X142756Y38801D01*
X142836Y38765D01*
X142917Y38732D01*
X142999Y38703D01*
X143083Y38678D01*
X143168Y38657D01*
X143253Y38639D01*
X143340Y38626D01*
X143426Y38616D01*
X143514Y38610D01*
X143601Y38608D01*
X144250Y38608D01*
X154587Y36661D02*
X154587Y52239D01*
X164945Y46397D02*
X167541Y38608D01*
X170138Y46397D01*
X174583Y47696D02*
X177828Y50292D01*
X177828Y38608D01*
X174583Y38608D02*
X181074Y38608D01*
X185505Y38608D02*
X185505Y39257D01*
X186154Y39257D01*
X186154Y38608D01*
X185505Y38608D01*
X190585Y44450D02*
X190588Y44680D01*
X190596Y44910D01*
X190610Y45139D01*
X190629Y45368D01*
X190654Y45597D01*
X190684Y45824D01*
X190719Y46052D01*
X190760Y46278D01*
X190806Y46503D01*
X190858Y46727D01*
X190915Y46949D01*
X190977Y47171D01*
X191045Y47390D01*
X191118Y47608D01*
X191196Y47825D01*
X191279Y48039D01*
X191367Y48251D01*
X191460Y48461D01*
X191559Y48669D01*
X191558Y48669D02*
X191591Y48759D01*
X191627Y48848D01*
X191667Y48936D01*
X191711Y49021D01*
X191758Y49105D01*
X191808Y49187D01*
X191862Y49267D01*
X191918Y49344D01*
X191978Y49420D01*
X192041Y49493D01*
X192106Y49563D01*
X192175Y49631D01*
X192246Y49695D01*
X192319Y49757D01*
X192395Y49816D01*
X192473Y49872D01*
X192554Y49925D01*
X192636Y49974D01*
X192720Y50020D01*
X192807Y50063D01*
X192894Y50102D01*
X192984Y50138D01*
X193074Y50170D01*
X193166Y50198D01*
X193259Y50223D01*
X193353Y50244D01*
X193447Y50261D01*
X193542Y50275D01*
X193638Y50284D01*
X193734Y50290D01*
X193830Y50292D01*
X193926Y50290D01*
X194022Y50284D01*
X194118Y50275D01*
X194213Y50261D01*
X194307Y50244D01*
X194401Y50223D01*
X194494Y50198D01*
X194586Y50170D01*
X194676Y50138D01*
X194766Y50102D01*
X194853Y50063D01*
X194940Y50020D01*
X195024Y49974D01*
X195106Y49925D01*
X195187Y49872D01*
X195265Y49816D01*
X195341Y49757D01*
X195414Y49695D01*
X195485Y49631D01*
X195554Y49563D01*
X195619Y49493D01*
X195682Y49420D01*
X195742Y49344D01*
X195798Y49267D01*
X195852Y49187D01*
X195902Y49105D01*
X195949Y49021D01*
X195993Y48936D01*
X196033Y48848D01*
X196069Y48759D01*
X196102Y48669D01*
X196201Y48462D01*
X196294Y48252D01*
X196382Y48039D01*
X196465Y47825D01*
X196543Y47609D01*
X196616Y47391D01*
X196684Y47171D01*
X196746Y46950D01*
X196803Y46727D01*
X196855Y46503D01*
X196901Y46278D01*
X196942Y46052D01*
X196977Y45825D01*
X197007Y45597D01*
X197032Y45368D01*
X197051Y45139D01*
X197065Y44910D01*
X197073Y44680D01*
X197076Y44450D01*
X190584Y44450D02*
X190587Y44220D01*
X190595Y43990D01*
X190609Y43761D01*
X190628Y43532D01*
X190653Y43303D01*
X190683Y43075D01*
X190718Y42848D01*
X190759Y42622D01*
X190805Y42397D01*
X190857Y42173D01*
X190914Y41950D01*
X190976Y41729D01*
X191044Y41509D01*
X191117Y41291D01*
X191195Y41075D01*
X191278Y40861D01*
X191366Y40649D01*
X191459Y40438D01*
X191558Y40231D01*
X191591Y40141D01*
X191627Y40052D01*
X191668Y39964D01*
X191711Y39879D01*
X191758Y39795D01*
X191808Y39713D01*
X191862Y39633D01*
X191918Y39556D01*
X191978Y39480D01*
X192041Y39407D01*
X192106Y39337D01*
X192175Y39269D01*
X192246Y39205D01*
X192319Y39143D01*
X192395Y39084D01*
X192473Y39028D01*
X192554Y38975D01*
X192636Y38926D01*
X192720Y38880D01*
X192807Y38837D01*
X192894Y38798D01*
X192984Y38762D01*
X193074Y38730D01*
X193166Y38702D01*
X193259Y38677D01*
X193353Y38656D01*
X193447Y38639D01*
X193542Y38625D01*
X193638Y38616D01*
X193734Y38610D01*
X193830Y38608D01*
X196102Y40231D02*
X196201Y40438D01*
X196294Y40649D01*
X196382Y40861D01*
X196465Y41075D01*
X196543Y41291D01*
X196616Y41509D01*
X196684Y41729D01*
X196746Y41950D01*
X196803Y42173D01*
X196855Y42397D01*
X196901Y42622D01*
X196942Y42848D01*
X196977Y43075D01*
X197007Y43303D01*
X197032Y43532D01*
X197051Y43761D01*
X197065Y43990D01*
X197073Y44220D01*
X197076Y44450D01*
X196102Y40231D02*
X196069Y40141D01*
X196033Y40052D01*
X195993Y39964D01*
X195949Y39879D01*
X195902Y39795D01*
X195852Y39713D01*
X195798Y39633D01*
X195742Y39556D01*
X195682Y39480D01*
X195619Y39407D01*
X195554Y39337D01*
X195485Y39269D01*
X195414Y39205D01*
X195341Y39143D01*
X195265Y39084D01*
X195187Y39028D01*
X195106Y38975D01*
X195024Y38926D01*
X194940Y38880D01*
X194853Y38837D01*
X194766Y38798D01*
X194676Y38762D01*
X194586Y38730D01*
X194494Y38702D01*
X194401Y38677D01*
X194307Y38656D01*
X194213Y38639D01*
X194118Y38625D01*
X194022Y38616D01*
X193926Y38610D01*
X193830Y38608D01*
X191234Y41204D02*
X196427Y47696D01*
X97607Y36322D02*
X97607Y24638D01*
X96309Y24638D02*
X98905Y24638D01*
X98905Y36322D02*
X96309Y36322D01*
X103832Y36322D02*
X103832Y24638D01*
X107078Y24638D01*
X107165Y24640D01*
X107253Y24646D01*
X107339Y24656D01*
X107426Y24669D01*
X107511Y24687D01*
X107596Y24708D01*
X107680Y24733D01*
X107762Y24762D01*
X107843Y24795D01*
X107923Y24831D01*
X108001Y24870D01*
X108077Y24914D01*
X108151Y24960D01*
X108222Y25010D01*
X108292Y25063D01*
X108359Y25119D01*
X108423Y25178D01*
X108485Y25239D01*
X108544Y25304D01*
X108600Y25371D01*
X108653Y25441D01*
X108703Y25512D01*
X108749Y25586D01*
X108793Y25662D01*
X108832Y25740D01*
X108868Y25820D01*
X108901Y25901D01*
X108930Y25983D01*
X108955Y26067D01*
X108976Y26152D01*
X108994Y26237D01*
X109007Y26324D01*
X109017Y26410D01*
X109023Y26498D01*
X109025Y26585D01*
X109025Y30480D01*
X109023Y30567D01*
X109017Y30655D01*
X109007Y30741D01*
X108994Y30828D01*
X108976Y30913D01*
X108955Y30998D01*
X108930Y31082D01*
X108901Y31164D01*
X108868Y31245D01*
X108832Y31325D01*
X108793Y31403D01*
X108749Y31479D01*
X108703Y31553D01*
X108653Y31624D01*
X108600Y31694D01*
X108544Y31761D01*
X108485Y31825D01*
X108423Y31887D01*
X108359Y31946D01*
X108292Y32002D01*
X108222Y32055D01*
X108151Y32105D01*
X108077Y32151D01*
X108001Y32195D01*
X107923Y32234D01*
X107843Y32270D01*
X107762Y32303D01*
X107680Y32332D01*
X107596Y32357D01*
X107511Y32378D01*
X107426Y32396D01*
X107339Y32409D01*
X107253Y32419D01*
X107165Y32425D01*
X107078Y32427D01*
X103832Y32427D01*
X114127Y32427D02*
X114127Y24638D01*
X114127Y32427D02*
X118021Y32427D01*
X118021Y31129D01*
X123893Y29182D02*
X126814Y29182D01*
X123893Y29182D02*
X123799Y29180D01*
X123705Y29174D01*
X123612Y29165D01*
X123519Y29151D01*
X123427Y29134D01*
X123335Y29112D01*
X123245Y29088D01*
X123155Y29059D01*
X123067Y29027D01*
X122980Y28991D01*
X122895Y28951D01*
X122812Y28908D01*
X122730Y28862D01*
X122650Y28812D01*
X122573Y28759D01*
X122498Y28703D01*
X122425Y28644D01*
X122354Y28582D01*
X122286Y28517D01*
X122221Y28449D01*
X122159Y28378D01*
X122100Y28305D01*
X122044Y28230D01*
X121991Y28153D01*
X121941Y28073D01*
X121895Y27991D01*
X121852Y27908D01*
X121812Y27823D01*
X121776Y27736D01*
X121744Y27648D01*
X121715Y27558D01*
X121691Y27468D01*
X121669Y27376D01*
X121652Y27284D01*
X121638Y27191D01*
X121629Y27098D01*
X121623Y27004D01*
X121621Y26910D01*
X121623Y26816D01*
X121629Y26722D01*
X121638Y26629D01*
X121652Y26536D01*
X121669Y26444D01*
X121691Y26352D01*
X121715Y26262D01*
X121744Y26172D01*
X121776Y26084D01*
X121812Y25997D01*
X121852Y25912D01*
X121895Y25829D01*
X121941Y25747D01*
X121991Y25667D01*
X122044Y25590D01*
X122100Y25515D01*
X122159Y25442D01*
X122221Y25371D01*
X122286Y25303D01*
X122354Y25238D01*
X122425Y25176D01*
X122498Y25117D01*
X122573Y25061D01*
X122650Y25008D01*
X122730Y24958D01*
X122812Y24912D01*
X122895Y24869D01*
X122980Y24829D01*
X123067Y24793D01*
X123155Y24761D01*
X123245Y24732D01*
X123335Y24708D01*
X123427Y24686D01*
X123519Y24669D01*
X123612Y24655D01*
X123705Y24646D01*
X123799Y24640D01*
X123893Y24638D01*
X126814Y24638D01*
X126814Y30480D01*
X126812Y30567D01*
X126806Y30655D01*
X126796Y30741D01*
X126783Y30828D01*
X126765Y30913D01*
X126744Y30998D01*
X126719Y31082D01*
X126690Y31164D01*
X126657Y31245D01*
X126621Y31325D01*
X126582Y31403D01*
X126538Y31479D01*
X126492Y31553D01*
X126442Y31624D01*
X126389Y31694D01*
X126333Y31761D01*
X126274Y31825D01*
X126212Y31887D01*
X126148Y31946D01*
X126081Y32002D01*
X126011Y32055D01*
X125940Y32105D01*
X125866Y32151D01*
X125790Y32195D01*
X125712Y32234D01*
X125632Y32270D01*
X125551Y32303D01*
X125469Y32332D01*
X125385Y32357D01*
X125300Y32378D01*
X125215Y32396D01*
X125128Y32409D01*
X125042Y32419D01*
X124954Y32425D01*
X124867Y32427D01*
X122271Y32427D01*
X132348Y36322D02*
X132348Y24638D01*
X132348Y32427D02*
X135594Y32427D01*
X135681Y32425D01*
X135769Y32419D01*
X135855Y32409D01*
X135942Y32396D01*
X136027Y32378D01*
X136112Y32357D01*
X136196Y32332D01*
X136278Y32303D01*
X136359Y32270D01*
X136439Y32234D01*
X136517Y32195D01*
X136593Y32151D01*
X136667Y32105D01*
X136738Y32055D01*
X136808Y32002D01*
X136875Y31946D01*
X136939Y31887D01*
X137001Y31826D01*
X137060Y31761D01*
X137116Y31694D01*
X137169Y31624D01*
X137219Y31553D01*
X137265Y31479D01*
X137309Y31403D01*
X137348Y31325D01*
X137384Y31245D01*
X137417Y31164D01*
X137446Y31082D01*
X137471Y30998D01*
X137492Y30913D01*
X137510Y30828D01*
X137523Y30741D01*
X137533Y30655D01*
X137539Y30567D01*
X137541Y30480D01*
X137541Y24638D01*
X142565Y24638D02*
X142565Y32427D01*
X142240Y35673D02*
X142240Y36322D01*
X142889Y36322D01*
X142889Y35673D01*
X142240Y35673D01*
X147814Y32427D02*
X147814Y24638D01*
X147814Y32427D02*
X153656Y32427D01*
X153743Y32425D01*
X153831Y32419D01*
X153917Y32409D01*
X154004Y32396D01*
X154089Y32378D01*
X154174Y32357D01*
X154258Y32332D01*
X154340Y32303D01*
X154421Y32270D01*
X154501Y32234D01*
X154579Y32195D01*
X154655Y32151D01*
X154729Y32105D01*
X154800Y32055D01*
X154870Y32002D01*
X154937Y31946D01*
X155001Y31887D01*
X155063Y31825D01*
X155122Y31761D01*
X155178Y31694D01*
X155231Y31624D01*
X155281Y31553D01*
X155327Y31479D01*
X155371Y31403D01*
X155410Y31325D01*
X155446Y31245D01*
X155479Y31164D01*
X155508Y31082D01*
X155533Y30998D01*
X155554Y30913D01*
X155572Y30828D01*
X155585Y30741D01*
X155595Y30655D01*
X155601Y30567D01*
X155603Y30480D01*
X155603Y24638D01*
X151709Y24638D02*
X151709Y32427D01*
X166483Y24638D02*
X170378Y36322D01*
X174272Y24638D01*
X173299Y27559D02*
X167457Y27559D01*
X178599Y26585D02*
X178599Y36322D01*
X178599Y26585D02*
X178601Y26498D01*
X178607Y26410D01*
X178617Y26324D01*
X178630Y26237D01*
X178648Y26152D01*
X178669Y26067D01*
X178694Y25983D01*
X178723Y25901D01*
X178756Y25820D01*
X178792Y25740D01*
X178831Y25662D01*
X178875Y25586D01*
X178921Y25512D01*
X178971Y25441D01*
X179024Y25371D01*
X179080Y25304D01*
X179139Y25240D01*
X179201Y25178D01*
X179265Y25119D01*
X179332Y25063D01*
X179402Y25010D01*
X179473Y24960D01*
X179547Y24914D01*
X179623Y24870D01*
X179701Y24831D01*
X179781Y24795D01*
X179862Y24762D01*
X179944Y24733D01*
X180028Y24708D01*
X180113Y24687D01*
X180198Y24669D01*
X180285Y24656D01*
X180371Y24646D01*
X180459Y24640D01*
X180546Y24638D01*
X185325Y27884D02*
X185325Y33076D01*
X185327Y33189D01*
X185333Y33302D01*
X185343Y33415D01*
X185357Y33528D01*
X185374Y33640D01*
X185396Y33751D01*
X185421Y33861D01*
X185451Y33971D01*
X185484Y34079D01*
X185521Y34186D01*
X185561Y34292D01*
X185606Y34396D01*
X185654Y34499D01*
X185705Y34600D01*
X185760Y34699D01*
X185818Y34796D01*
X185880Y34891D01*
X185945Y34984D01*
X186013Y35074D01*
X186084Y35162D01*
X186159Y35248D01*
X186236Y35331D01*
X186316Y35411D01*
X186399Y35488D01*
X186485Y35563D01*
X186573Y35634D01*
X186663Y35702D01*
X186756Y35767D01*
X186851Y35829D01*
X186948Y35887D01*
X187047Y35942D01*
X187148Y35993D01*
X187251Y36041D01*
X187355Y36086D01*
X187461Y36126D01*
X187568Y36163D01*
X187676Y36196D01*
X187786Y36226D01*
X187896Y36251D01*
X188007Y36273D01*
X188119Y36290D01*
X188232Y36304D01*
X188345Y36314D01*
X188458Y36320D01*
X188571Y36322D01*
X188684Y36320D01*
X188797Y36314D01*
X188910Y36304D01*
X189023Y36290D01*
X189135Y36273D01*
X189246Y36251D01*
X189356Y36226D01*
X189466Y36196D01*
X189574Y36163D01*
X189681Y36126D01*
X189787Y36086D01*
X189891Y36041D01*
X189994Y35993D01*
X190095Y35942D01*
X190194Y35887D01*
X190291Y35829D01*
X190386Y35767D01*
X190479Y35702D01*
X190569Y35634D01*
X190657Y35563D01*
X190743Y35488D01*
X190826Y35411D01*
X190906Y35331D01*
X190983Y35248D01*
X191058Y35162D01*
X191129Y35074D01*
X191197Y34984D01*
X191262Y34891D01*
X191324Y34796D01*
X191382Y34699D01*
X191437Y34600D01*
X191488Y34499D01*
X191536Y34396D01*
X191581Y34292D01*
X191621Y34186D01*
X191658Y34079D01*
X191691Y33971D01*
X191721Y33861D01*
X191746Y33751D01*
X191768Y33640D01*
X191785Y33528D01*
X191799Y33415D01*
X191809Y33302D01*
X191815Y33189D01*
X191817Y33076D01*
X191816Y33076D02*
X191816Y27884D01*
X191817Y27884D02*
X191815Y27771D01*
X191809Y27658D01*
X191799Y27545D01*
X191785Y27432D01*
X191768Y27320D01*
X191746Y27209D01*
X191721Y27099D01*
X191691Y26989D01*
X191658Y26881D01*
X191621Y26774D01*
X191581Y26668D01*
X191536Y26564D01*
X191488Y26461D01*
X191437Y26360D01*
X191382Y26261D01*
X191324Y26164D01*
X191262Y26069D01*
X191197Y25976D01*
X191129Y25886D01*
X191058Y25798D01*
X190983Y25712D01*
X190906Y25629D01*
X190826Y25549D01*
X190743Y25472D01*
X190657Y25397D01*
X190569Y25326D01*
X190479Y25258D01*
X190386Y25193D01*
X190291Y25131D01*
X190194Y25073D01*
X190095Y25018D01*
X189994Y24967D01*
X189891Y24919D01*
X189787Y24874D01*
X189681Y24834D01*
X189574Y24797D01*
X189466Y24764D01*
X189356Y24734D01*
X189246Y24709D01*
X189135Y24687D01*
X189023Y24670D01*
X188910Y24656D01*
X188797Y24646D01*
X188684Y24640D01*
X188571Y24638D01*
X188458Y24640D01*
X188345Y24646D01*
X188232Y24656D01*
X188119Y24670D01*
X188007Y24687D01*
X187896Y24709D01*
X187786Y24734D01*
X187676Y24764D01*
X187568Y24797D01*
X187461Y24834D01*
X187355Y24874D01*
X187251Y24919D01*
X187148Y24967D01*
X187047Y25018D01*
X186948Y25073D01*
X186851Y25131D01*
X186756Y25193D01*
X186663Y25258D01*
X186573Y25326D01*
X186485Y25397D01*
X186399Y25472D01*
X186316Y25549D01*
X186236Y25629D01*
X186159Y25712D01*
X186084Y25798D01*
X186013Y25886D01*
X185945Y25976D01*
X185880Y26069D01*
X185818Y26164D01*
X185760Y26261D01*
X185705Y26360D01*
X185654Y26461D01*
X185606Y26564D01*
X185561Y26668D01*
X185521Y26774D01*
X185484Y26881D01*
X185451Y26989D01*
X185421Y27099D01*
X185396Y27209D01*
X185374Y27320D01*
X185357Y27432D01*
X185343Y27545D01*
X185333Y27658D01*
X185327Y27771D01*
X185325Y27884D01*
X190518Y27234D02*
X193115Y24638D01*
X198569Y29182D02*
X201490Y29182D01*
X198569Y29182D02*
X198475Y29180D01*
X198381Y29174D01*
X198288Y29165D01*
X198195Y29151D01*
X198103Y29134D01*
X198011Y29112D01*
X197921Y29088D01*
X197831Y29059D01*
X197743Y29027D01*
X197656Y28991D01*
X197571Y28951D01*
X197488Y28908D01*
X197406Y28862D01*
X197326Y28812D01*
X197249Y28759D01*
X197174Y28703D01*
X197101Y28644D01*
X197030Y28582D01*
X196962Y28517D01*
X196897Y28449D01*
X196835Y28378D01*
X196776Y28305D01*
X196720Y28230D01*
X196667Y28153D01*
X196617Y28073D01*
X196571Y27991D01*
X196528Y27908D01*
X196488Y27823D01*
X196452Y27736D01*
X196420Y27648D01*
X196391Y27558D01*
X196367Y27468D01*
X196345Y27376D01*
X196328Y27284D01*
X196314Y27191D01*
X196305Y27098D01*
X196299Y27004D01*
X196297Y26910D01*
X196299Y26816D01*
X196305Y26722D01*
X196314Y26629D01*
X196328Y26536D01*
X196345Y26444D01*
X196367Y26352D01*
X196391Y26262D01*
X196420Y26172D01*
X196452Y26084D01*
X196488Y25997D01*
X196528Y25912D01*
X196571Y25829D01*
X196617Y25747D01*
X196667Y25667D01*
X196720Y25590D01*
X196776Y25515D01*
X196835Y25442D01*
X196897Y25371D01*
X196962Y25303D01*
X197030Y25238D01*
X197101Y25176D01*
X197174Y25117D01*
X197249Y25061D01*
X197326Y25008D01*
X197406Y24958D01*
X197488Y24912D01*
X197571Y24869D01*
X197656Y24829D01*
X197743Y24793D01*
X197831Y24761D01*
X197921Y24732D01*
X198011Y24708D01*
X198103Y24686D01*
X198195Y24669D01*
X198288Y24655D01*
X198381Y24646D01*
X198475Y24640D01*
X198569Y24638D01*
X201490Y24638D01*
X201490Y30480D01*
X201488Y30567D01*
X201482Y30655D01*
X201472Y30741D01*
X201459Y30828D01*
X201441Y30913D01*
X201420Y30998D01*
X201395Y31082D01*
X201366Y31164D01*
X201333Y31245D01*
X201297Y31325D01*
X201258Y31403D01*
X201214Y31479D01*
X201168Y31553D01*
X201118Y31624D01*
X201065Y31694D01*
X201009Y31761D01*
X200950Y31825D01*
X200888Y31887D01*
X200824Y31946D01*
X200757Y32002D01*
X200687Y32055D01*
X200616Y32105D01*
X200542Y32151D01*
X200466Y32195D01*
X200388Y32234D01*
X200308Y32270D01*
X200227Y32303D01*
X200145Y32332D01*
X200061Y32357D01*
X199976Y32378D01*
X199891Y32396D01*
X199804Y32409D01*
X199718Y32419D01*
X199630Y32425D01*
X199543Y32427D01*
X196946Y32427D01*
X205676Y32427D02*
X209571Y32427D01*
X206974Y36322D02*
X206974Y26585D01*
X206976Y26498D01*
X206982Y26410D01*
X206992Y26324D01*
X207005Y26237D01*
X207023Y26152D01*
X207044Y26067D01*
X207069Y25983D01*
X207098Y25901D01*
X207131Y25820D01*
X207167Y25740D01*
X207206Y25662D01*
X207250Y25586D01*
X207296Y25512D01*
X207346Y25441D01*
X207399Y25371D01*
X207455Y25304D01*
X207514Y25240D01*
X207576Y25178D01*
X207640Y25119D01*
X207707Y25063D01*
X207777Y25010D01*
X207848Y24960D01*
X207922Y24914D01*
X207998Y24870D01*
X208076Y24831D01*
X208156Y24795D01*
X208237Y24762D01*
X208319Y24733D01*
X208403Y24708D01*
X208488Y24687D01*
X208573Y24669D01*
X208660Y24656D01*
X208746Y24646D01*
X208834Y24640D01*
X208921Y24638D01*
X209571Y24638D01*
X212915Y32427D02*
X216810Y32427D01*
X214213Y36322D02*
X214213Y26585D01*
X214215Y26498D01*
X214221Y26410D01*
X214231Y26324D01*
X214244Y26237D01*
X214262Y26152D01*
X214283Y26067D01*
X214308Y25983D01*
X214337Y25901D01*
X214370Y25820D01*
X214406Y25740D01*
X214445Y25662D01*
X214489Y25586D01*
X214535Y25512D01*
X214585Y25441D01*
X214638Y25371D01*
X214694Y25304D01*
X214753Y25240D01*
X214815Y25178D01*
X214879Y25119D01*
X214946Y25063D01*
X215016Y25010D01*
X215087Y24960D01*
X215161Y24914D01*
X215237Y24870D01*
X215315Y24831D01*
X215395Y24795D01*
X215476Y24762D01*
X215558Y24733D01*
X215642Y24708D01*
X215727Y24687D01*
X215812Y24669D01*
X215899Y24656D01*
X215985Y24646D01*
X216073Y24640D01*
X216160Y24638D01*
X216810Y24638D01*
X223334Y29182D02*
X226255Y29182D01*
X223334Y29182D02*
X223240Y29180D01*
X223146Y29174D01*
X223053Y29165D01*
X222960Y29151D01*
X222868Y29134D01*
X222776Y29112D01*
X222686Y29088D01*
X222596Y29059D01*
X222508Y29027D01*
X222421Y28991D01*
X222336Y28951D01*
X222253Y28908D01*
X222171Y28862D01*
X222091Y28812D01*
X222014Y28759D01*
X221939Y28703D01*
X221866Y28644D01*
X221795Y28582D01*
X221727Y28517D01*
X221662Y28449D01*
X221600Y28378D01*
X221541Y28305D01*
X221485Y28230D01*
X221432Y28153D01*
X221382Y28073D01*
X221336Y27991D01*
X221293Y27908D01*
X221253Y27823D01*
X221217Y27736D01*
X221185Y27648D01*
X221156Y27558D01*
X221132Y27468D01*
X221110Y27376D01*
X221093Y27284D01*
X221079Y27191D01*
X221070Y27098D01*
X221064Y27004D01*
X221062Y26910D01*
X221064Y26816D01*
X221070Y26722D01*
X221079Y26629D01*
X221093Y26536D01*
X221110Y26444D01*
X221132Y26352D01*
X221156Y26262D01*
X221185Y26172D01*
X221217Y26084D01*
X221253Y25997D01*
X221293Y25912D01*
X221336Y25829D01*
X221382Y25747D01*
X221432Y25667D01*
X221485Y25590D01*
X221541Y25515D01*
X221600Y25442D01*
X221662Y25371D01*
X221727Y25303D01*
X221795Y25238D01*
X221866Y25176D01*
X221939Y25117D01*
X222014Y25061D01*
X222091Y25008D01*
X222171Y24958D01*
X222253Y24912D01*
X222336Y24869D01*
X222421Y24829D01*
X222508Y24793D01*
X222596Y24761D01*
X222686Y24732D01*
X222776Y24708D01*
X222868Y24686D01*
X222960Y24669D01*
X223053Y24655D01*
X223146Y24646D01*
X223240Y24640D01*
X223334Y24638D01*
X226255Y24638D01*
X226255Y30480D01*
X226253Y30567D01*
X226247Y30655D01*
X226237Y30741D01*
X226224Y30828D01*
X226206Y30913D01*
X226185Y30998D01*
X226160Y31082D01*
X226131Y31164D01*
X226098Y31245D01*
X226062Y31325D01*
X226023Y31403D01*
X225979Y31479D01*
X225933Y31553D01*
X225883Y31624D01*
X225830Y31694D01*
X225774Y31761D01*
X225715Y31825D01*
X225653Y31887D01*
X225589Y31946D01*
X225522Y32002D01*
X225452Y32055D01*
X225381Y32105D01*
X225307Y32151D01*
X225231Y32195D01*
X225153Y32234D01*
X225073Y32270D01*
X224992Y32303D01*
X224910Y32332D01*
X224826Y32357D01*
X224741Y32378D01*
X224656Y32396D01*
X224569Y32409D01*
X224483Y32419D01*
X224395Y32425D01*
X224308Y32427D01*
X221711Y32427D01*
X231789Y32427D02*
X231789Y24638D01*
X231789Y32427D02*
X235035Y32427D01*
X235122Y32425D01*
X235210Y32419D01*
X235296Y32409D01*
X235383Y32396D01*
X235468Y32378D01*
X235553Y32357D01*
X235637Y32332D01*
X235719Y32303D01*
X235800Y32270D01*
X235880Y32234D01*
X235958Y32195D01*
X236034Y32151D01*
X236108Y32105D01*
X236179Y32055D01*
X236249Y32002D01*
X236316Y31946D01*
X236380Y31887D01*
X236442Y31826D01*
X236501Y31761D01*
X236557Y31694D01*
X236610Y31624D01*
X236660Y31553D01*
X236706Y31479D01*
X236750Y31403D01*
X236789Y31325D01*
X236825Y31245D01*
X236858Y31164D01*
X236887Y31082D01*
X236912Y30998D01*
X236933Y30913D01*
X236951Y30828D01*
X236964Y30741D01*
X236974Y30655D01*
X236980Y30567D01*
X236982Y30480D01*
X236982Y24638D01*
X152668Y12079D02*
X150721Y12079D01*
X152668Y12079D02*
X152668Y5588D01*
X148774Y5588D01*
X148675Y5590D01*
X148575Y5596D01*
X148476Y5605D01*
X148378Y5618D01*
X148280Y5635D01*
X148182Y5656D01*
X148086Y5681D01*
X147991Y5709D01*
X147897Y5741D01*
X147804Y5776D01*
X147712Y5815D01*
X147622Y5858D01*
X147534Y5903D01*
X147447Y5953D01*
X147363Y6005D01*
X147280Y6061D01*
X147200Y6119D01*
X147122Y6181D01*
X147047Y6246D01*
X146974Y6314D01*
X146904Y6384D01*
X146836Y6457D01*
X146771Y6532D01*
X146709Y6610D01*
X146651Y6690D01*
X146595Y6773D01*
X146543Y6857D01*
X146493Y6944D01*
X146448Y7032D01*
X146405Y7122D01*
X146366Y7214D01*
X146331Y7307D01*
X146299Y7401D01*
X146271Y7496D01*
X146246Y7592D01*
X146225Y7690D01*
X146208Y7788D01*
X146195Y7886D01*
X146186Y7985D01*
X146180Y8085D01*
X146178Y8184D01*
X146177Y8184D02*
X146177Y14676D01*
X146178Y14676D02*
X146180Y14775D01*
X146186Y14875D01*
X146195Y14974D01*
X146208Y15072D01*
X146225Y15170D01*
X146246Y15268D01*
X146271Y15364D01*
X146299Y15459D01*
X146331Y15553D01*
X146366Y15646D01*
X146405Y15738D01*
X146448Y15828D01*
X146493Y15916D01*
X146543Y16003D01*
X146595Y16087D01*
X146651Y16170D01*
X146709Y16250D01*
X146771Y16328D01*
X146836Y16403D01*
X146904Y16476D01*
X146974Y16546D01*
X147047Y16614D01*
X147122Y16679D01*
X147200Y16741D01*
X147280Y16799D01*
X147363Y16855D01*
X147447Y16907D01*
X147534Y16957D01*
X147622Y17002D01*
X147712Y17045D01*
X147804Y17084D01*
X147896Y17119D01*
X147991Y17151D01*
X148086Y17179D01*
X148182Y17204D01*
X148280Y17225D01*
X148378Y17242D01*
X148476Y17255D01*
X148575Y17264D01*
X148675Y17270D01*
X148774Y17272D01*
X152668Y17272D01*
X157805Y13377D02*
X157805Y5588D01*
X157480Y16623D02*
X157480Y17272D01*
X158129Y17272D01*
X158129Y16623D01*
X157480Y16623D01*
X163421Y10132D02*
X166666Y8834D01*
X163421Y10131D02*
X163346Y10164D01*
X163272Y10200D01*
X163200Y10239D01*
X163130Y10282D01*
X163063Y10328D01*
X162997Y10378D01*
X162935Y10430D01*
X162874Y10486D01*
X162817Y10544D01*
X162762Y10605D01*
X162711Y10669D01*
X162663Y10735D01*
X162618Y10804D01*
X162576Y10874D01*
X162538Y10947D01*
X162503Y11021D01*
X162472Y11097D01*
X162445Y11174D01*
X162422Y11253D01*
X162402Y11332D01*
X162387Y11413D01*
X162375Y11494D01*
X162367Y11576D01*
X162363Y11657D01*
X162364Y11739D01*
X162368Y11821D01*
X162376Y11903D01*
X162388Y11984D01*
X162404Y12064D01*
X162424Y12144D01*
X162448Y12222D01*
X162476Y12299D01*
X162507Y12375D01*
X162542Y12449D01*
X162580Y12521D01*
X162622Y12592D01*
X162668Y12660D01*
X162716Y12726D01*
X162768Y12789D01*
X162823Y12850D01*
X162881Y12908D01*
X162941Y12964D01*
X163004Y13016D01*
X163070Y13065D01*
X163138Y13111D01*
X163208Y13153D01*
X163280Y13193D01*
X163354Y13228D01*
X163429Y13260D01*
X163506Y13288D01*
X163584Y13312D01*
X163664Y13333D01*
X163744Y13350D01*
X163825Y13362D01*
X163906Y13371D01*
X163988Y13376D01*
X164070Y13377D01*
X164247Y13373D01*
X164424Y13364D01*
X164601Y13350D01*
X164778Y13333D01*
X164953Y13311D01*
X165129Y13286D01*
X165303Y13255D01*
X165477Y13221D01*
X165650Y13183D01*
X165822Y13140D01*
X165993Y13093D01*
X166163Y13043D01*
X166332Y12988D01*
X166499Y12929D01*
X166664Y12866D01*
X166829Y12799D01*
X166991Y12728D01*
X166666Y8834D02*
X166741Y8801D01*
X166815Y8765D01*
X166887Y8726D01*
X166957Y8683D01*
X167024Y8637D01*
X167090Y8587D01*
X167152Y8535D01*
X167213Y8479D01*
X167270Y8421D01*
X167325Y8360D01*
X167376Y8296D01*
X167424Y8230D01*
X167469Y8161D01*
X167511Y8091D01*
X167549Y8018D01*
X167584Y7944D01*
X167615Y7868D01*
X167642Y7791D01*
X167665Y7712D01*
X167685Y7633D01*
X167700Y7552D01*
X167712Y7471D01*
X167720Y7389D01*
X167724Y7308D01*
X167723Y7226D01*
X167719Y7144D01*
X167711Y7062D01*
X167699Y6981D01*
X167683Y6901D01*
X167663Y6821D01*
X167639Y6743D01*
X167611Y6666D01*
X167580Y6590D01*
X167545Y6516D01*
X167507Y6444D01*
X167465Y6373D01*
X167419Y6305D01*
X167371Y6239D01*
X167319Y6176D01*
X167264Y6115D01*
X167206Y6057D01*
X167146Y6001D01*
X167083Y5949D01*
X167017Y5900D01*
X166949Y5854D01*
X166879Y5812D01*
X166807Y5772D01*
X166733Y5737D01*
X166658Y5705D01*
X166581Y5677D01*
X166503Y5653D01*
X166423Y5632D01*
X166343Y5615D01*
X166262Y5603D01*
X166181Y5594D01*
X166099Y5589D01*
X166017Y5588D01*
X166018Y5588D02*
X165758Y5595D01*
X165498Y5608D01*
X165238Y5627D01*
X164979Y5652D01*
X164720Y5684D01*
X164463Y5721D01*
X164206Y5765D01*
X163950Y5814D01*
X163696Y5870D01*
X163443Y5931D01*
X163192Y5999D01*
X162942Y6073D01*
X162694Y6152D01*
X162448Y6237D01*
X174301Y5588D02*
X177546Y5588D01*
X174301Y5588D02*
X174214Y5590D01*
X174126Y5596D01*
X174040Y5606D01*
X173953Y5619D01*
X173868Y5637D01*
X173783Y5658D01*
X173699Y5683D01*
X173617Y5712D01*
X173536Y5745D01*
X173456Y5781D01*
X173378Y5820D01*
X173302Y5864D01*
X173228Y5910D01*
X173157Y5960D01*
X173087Y6013D01*
X173020Y6069D01*
X172956Y6128D01*
X172894Y6190D01*
X172835Y6254D01*
X172779Y6321D01*
X172726Y6391D01*
X172676Y6462D01*
X172630Y6536D01*
X172586Y6612D01*
X172547Y6690D01*
X172511Y6770D01*
X172478Y6851D01*
X172449Y6933D01*
X172424Y7017D01*
X172403Y7102D01*
X172385Y7187D01*
X172372Y7274D01*
X172362Y7360D01*
X172356Y7448D01*
X172354Y7535D01*
X172353Y7535D02*
X172353Y10781D01*
X172354Y10781D02*
X172356Y10882D01*
X172362Y10982D01*
X172372Y11082D01*
X172385Y11182D01*
X172403Y11281D01*
X172424Y11380D01*
X172449Y11477D01*
X172478Y11574D01*
X172511Y11669D01*
X172547Y11763D01*
X172587Y11855D01*
X172630Y11946D01*
X172677Y12035D01*
X172727Y12122D01*
X172781Y12208D01*
X172838Y12291D01*
X172898Y12371D01*
X172961Y12450D01*
X173028Y12526D01*
X173097Y12599D01*
X173169Y12669D01*
X173243Y12737D01*
X173320Y12802D01*
X173400Y12863D01*
X173482Y12922D01*
X173566Y12977D01*
X173652Y13029D01*
X173740Y13078D01*
X173830Y13123D01*
X173922Y13165D01*
X174015Y13203D01*
X174110Y13237D01*
X174205Y13268D01*
X174302Y13295D01*
X174400Y13318D01*
X174499Y13338D01*
X174599Y13353D01*
X174699Y13365D01*
X174799Y13373D01*
X174900Y13377D01*
X175000Y13377D01*
X175101Y13373D01*
X175201Y13365D01*
X175301Y13353D01*
X175401Y13338D01*
X175500Y13318D01*
X175598Y13295D01*
X175695Y13268D01*
X175790Y13237D01*
X175885Y13203D01*
X175978Y13165D01*
X176070Y13123D01*
X176160Y13078D01*
X176248Y13029D01*
X176334Y12977D01*
X176418Y12922D01*
X176500Y12863D01*
X176580Y12802D01*
X176657Y12737D01*
X176731Y12669D01*
X176803Y12599D01*
X176872Y12526D01*
X176939Y12450D01*
X177002Y12371D01*
X177062Y12291D01*
X177119Y12208D01*
X177173Y12122D01*
X177223Y12035D01*
X177270Y11946D01*
X177313Y11855D01*
X177353Y11763D01*
X177389Y11669D01*
X177422Y11574D01*
X177451Y11477D01*
X177476Y11380D01*
X177497Y11281D01*
X177515Y11182D01*
X177528Y11082D01*
X177538Y10982D01*
X177544Y10882D01*
X177546Y10781D01*
X177546Y9483D01*
X172353Y9483D01*
X182409Y7535D02*
X182409Y17272D01*
X182409Y7535D02*
X182411Y7448D01*
X182417Y7360D01*
X182427Y7274D01*
X182440Y7187D01*
X182458Y7102D01*
X182479Y7017D01*
X182504Y6933D01*
X182533Y6851D01*
X182566Y6770D01*
X182602Y6690D01*
X182641Y6612D01*
X182685Y6536D01*
X182731Y6462D01*
X182781Y6391D01*
X182834Y6321D01*
X182890Y6254D01*
X182949Y6190D01*
X183011Y6128D01*
X183075Y6069D01*
X183142Y6013D01*
X183212Y5960D01*
X183283Y5910D01*
X183357Y5864D01*
X183433Y5820D01*
X183511Y5781D01*
X183591Y5745D01*
X183672Y5712D01*
X183754Y5683D01*
X183838Y5658D01*
X183923Y5637D01*
X184008Y5619D01*
X184095Y5606D01*
X184181Y5596D01*
X184269Y5590D01*
X184356Y5588D01*
X188505Y7535D02*
X188505Y17272D01*
X188505Y7535D02*
X188507Y7448D01*
X188513Y7360D01*
X188523Y7274D01*
X188536Y7187D01*
X188554Y7102D01*
X188575Y7017D01*
X188600Y6933D01*
X188629Y6851D01*
X188662Y6770D01*
X188698Y6690D01*
X188737Y6612D01*
X188781Y6536D01*
X188827Y6462D01*
X188877Y6391D01*
X188930Y6321D01*
X188986Y6254D01*
X189045Y6190D01*
X189107Y6128D01*
X189171Y6069D01*
X189238Y6013D01*
X189308Y5960D01*
X189379Y5910D01*
X189453Y5864D01*
X189529Y5820D01*
X189607Y5781D01*
X189687Y5745D01*
X189768Y5712D01*
X189850Y5683D01*
X189934Y5658D01*
X190019Y5637D01*
X190104Y5619D01*
X190191Y5606D01*
X190277Y5596D01*
X190365Y5590D01*
X190452Y5588D01*
X196398Y5588D02*
X199644Y5588D01*
X196398Y5588D02*
X196311Y5590D01*
X196223Y5596D01*
X196137Y5606D01*
X196050Y5619D01*
X195965Y5637D01*
X195880Y5658D01*
X195796Y5683D01*
X195714Y5712D01*
X195633Y5745D01*
X195553Y5781D01*
X195475Y5820D01*
X195399Y5864D01*
X195325Y5910D01*
X195254Y5960D01*
X195184Y6013D01*
X195117Y6069D01*
X195053Y6128D01*
X194991Y6190D01*
X194932Y6254D01*
X194876Y6321D01*
X194823Y6391D01*
X194773Y6462D01*
X194727Y6536D01*
X194683Y6612D01*
X194644Y6690D01*
X194608Y6770D01*
X194575Y6851D01*
X194546Y6933D01*
X194521Y7017D01*
X194500Y7102D01*
X194482Y7187D01*
X194469Y7274D01*
X194459Y7360D01*
X194453Y7448D01*
X194451Y7535D01*
X194451Y10781D01*
X194452Y10781D02*
X194454Y10882D01*
X194460Y10982D01*
X194470Y11082D01*
X194483Y11182D01*
X194501Y11281D01*
X194522Y11380D01*
X194547Y11477D01*
X194576Y11574D01*
X194609Y11669D01*
X194645Y11763D01*
X194685Y11855D01*
X194728Y11946D01*
X194775Y12035D01*
X194825Y12122D01*
X194879Y12208D01*
X194936Y12291D01*
X194996Y12371D01*
X195059Y12450D01*
X195126Y12526D01*
X195195Y12599D01*
X195267Y12669D01*
X195341Y12737D01*
X195418Y12802D01*
X195498Y12863D01*
X195580Y12922D01*
X195664Y12977D01*
X195750Y13029D01*
X195838Y13078D01*
X195928Y13123D01*
X196020Y13165D01*
X196113Y13203D01*
X196208Y13237D01*
X196303Y13268D01*
X196400Y13295D01*
X196498Y13318D01*
X196597Y13338D01*
X196697Y13353D01*
X196797Y13365D01*
X196897Y13373D01*
X196998Y13377D01*
X197098Y13377D01*
X197199Y13373D01*
X197299Y13365D01*
X197399Y13353D01*
X197499Y13338D01*
X197598Y13318D01*
X197696Y13295D01*
X197793Y13268D01*
X197888Y13237D01*
X197983Y13203D01*
X198076Y13165D01*
X198168Y13123D01*
X198258Y13078D01*
X198346Y13029D01*
X198432Y12977D01*
X198516Y12922D01*
X198598Y12863D01*
X198678Y12802D01*
X198755Y12737D01*
X198829Y12669D01*
X198901Y12599D01*
X198970Y12526D01*
X199037Y12450D01*
X199100Y12371D01*
X199160Y12291D01*
X199217Y12208D01*
X199271Y12122D01*
X199321Y12035D01*
X199368Y11946D01*
X199411Y11855D01*
X199451Y11763D01*
X199487Y11669D01*
X199520Y11574D01*
X199549Y11477D01*
X199574Y11380D01*
X199595Y11281D01*
X199613Y11182D01*
X199626Y11082D01*
X199636Y10982D01*
X199642Y10882D01*
X199644Y10781D01*
X199644Y9483D01*
X194451Y9483D01*
X211116Y5588D02*
X211116Y17272D01*
X217607Y17272D02*
X211116Y10132D01*
X213713Y12728D02*
X217607Y5588D01*
X221883Y8184D02*
X221883Y10781D01*
X221884Y10781D02*
X221886Y10882D01*
X221892Y10982D01*
X221902Y11082D01*
X221915Y11182D01*
X221933Y11281D01*
X221954Y11380D01*
X221979Y11477D01*
X222008Y11574D01*
X222041Y11669D01*
X222077Y11763D01*
X222117Y11855D01*
X222160Y11946D01*
X222207Y12035D01*
X222257Y12122D01*
X222311Y12208D01*
X222368Y12291D01*
X222428Y12371D01*
X222491Y12450D01*
X222558Y12526D01*
X222627Y12599D01*
X222699Y12669D01*
X222773Y12737D01*
X222850Y12802D01*
X222930Y12863D01*
X223012Y12922D01*
X223096Y12977D01*
X223182Y13029D01*
X223270Y13078D01*
X223360Y13123D01*
X223452Y13165D01*
X223545Y13203D01*
X223640Y13237D01*
X223735Y13268D01*
X223832Y13295D01*
X223930Y13318D01*
X224029Y13338D01*
X224129Y13353D01*
X224229Y13365D01*
X224329Y13373D01*
X224430Y13377D01*
X224530Y13377D01*
X224631Y13373D01*
X224731Y13365D01*
X224831Y13353D01*
X224931Y13338D01*
X225030Y13318D01*
X225128Y13295D01*
X225225Y13268D01*
X225320Y13237D01*
X225415Y13203D01*
X225508Y13165D01*
X225600Y13123D01*
X225690Y13078D01*
X225778Y13029D01*
X225864Y12977D01*
X225948Y12922D01*
X226030Y12863D01*
X226110Y12802D01*
X226187Y12737D01*
X226261Y12669D01*
X226333Y12599D01*
X226402Y12526D01*
X226469Y12450D01*
X226532Y12371D01*
X226592Y12291D01*
X226649Y12208D01*
X226703Y12122D01*
X226753Y12035D01*
X226800Y11946D01*
X226843Y11855D01*
X226883Y11763D01*
X226919Y11669D01*
X226952Y11574D01*
X226981Y11477D01*
X227006Y11380D01*
X227027Y11281D01*
X227045Y11182D01*
X227058Y11082D01*
X227068Y10982D01*
X227074Y10882D01*
X227076Y10781D01*
X227076Y8184D01*
X227074Y8083D01*
X227068Y7983D01*
X227058Y7883D01*
X227045Y7783D01*
X227027Y7684D01*
X227006Y7585D01*
X226981Y7488D01*
X226952Y7391D01*
X226919Y7296D01*
X226883Y7202D01*
X226843Y7110D01*
X226800Y7019D01*
X226753Y6930D01*
X226703Y6843D01*
X226649Y6757D01*
X226592Y6674D01*
X226532Y6594D01*
X226469Y6515D01*
X226402Y6439D01*
X226333Y6366D01*
X226261Y6296D01*
X226187Y6228D01*
X226110Y6163D01*
X226030Y6102D01*
X225948Y6043D01*
X225864Y5988D01*
X225778Y5936D01*
X225690Y5887D01*
X225600Y5842D01*
X225508Y5800D01*
X225415Y5762D01*
X225320Y5728D01*
X225225Y5697D01*
X225128Y5670D01*
X225030Y5647D01*
X224931Y5627D01*
X224831Y5612D01*
X224731Y5600D01*
X224631Y5592D01*
X224530Y5588D01*
X224430Y5588D01*
X224329Y5592D01*
X224229Y5600D01*
X224129Y5612D01*
X224029Y5627D01*
X223930Y5647D01*
X223832Y5670D01*
X223735Y5697D01*
X223640Y5728D01*
X223545Y5762D01*
X223452Y5800D01*
X223360Y5842D01*
X223270Y5887D01*
X223182Y5936D01*
X223096Y5988D01*
X223012Y6043D01*
X222930Y6102D01*
X222850Y6163D01*
X222773Y6228D01*
X222699Y6296D01*
X222627Y6366D01*
X222558Y6439D01*
X222491Y6515D01*
X222428Y6594D01*
X222368Y6674D01*
X222311Y6757D01*
X222257Y6843D01*
X222207Y6930D01*
X222160Y7019D01*
X222117Y7110D01*
X222077Y7202D01*
X222041Y7296D01*
X222008Y7391D01*
X221979Y7488D01*
X221954Y7585D01*
X221933Y7684D01*
X221915Y7783D01*
X221902Y7883D01*
X221892Y7983D01*
X221886Y8083D01*
X221884Y8184D01*
X231789Y8184D02*
X231789Y10781D01*
X231790Y10781D02*
X231792Y10882D01*
X231798Y10982D01*
X231808Y11082D01*
X231821Y11182D01*
X231839Y11281D01*
X231860Y11380D01*
X231885Y11477D01*
X231914Y11574D01*
X231947Y11669D01*
X231983Y11763D01*
X232023Y11855D01*
X232066Y11946D01*
X232113Y12035D01*
X232163Y12122D01*
X232217Y12208D01*
X232274Y12291D01*
X232334Y12371D01*
X232397Y12450D01*
X232464Y12526D01*
X232533Y12599D01*
X232605Y12669D01*
X232679Y12737D01*
X232756Y12802D01*
X232836Y12863D01*
X232918Y12922D01*
X233002Y12977D01*
X233088Y13029D01*
X233176Y13078D01*
X233266Y13123D01*
X233358Y13165D01*
X233451Y13203D01*
X233546Y13237D01*
X233641Y13268D01*
X233738Y13295D01*
X233836Y13318D01*
X233935Y13338D01*
X234035Y13353D01*
X234135Y13365D01*
X234235Y13373D01*
X234336Y13377D01*
X234436Y13377D01*
X234537Y13373D01*
X234637Y13365D01*
X234737Y13353D01*
X234837Y13338D01*
X234936Y13318D01*
X235034Y13295D01*
X235131Y13268D01*
X235226Y13237D01*
X235321Y13203D01*
X235414Y13165D01*
X235506Y13123D01*
X235596Y13078D01*
X235684Y13029D01*
X235770Y12977D01*
X235854Y12922D01*
X235936Y12863D01*
X236016Y12802D01*
X236093Y12737D01*
X236167Y12669D01*
X236239Y12599D01*
X236308Y12526D01*
X236375Y12450D01*
X236438Y12371D01*
X236498Y12291D01*
X236555Y12208D01*
X236609Y12122D01*
X236659Y12035D01*
X236706Y11946D01*
X236749Y11855D01*
X236789Y11763D01*
X236825Y11669D01*
X236858Y11574D01*
X236887Y11477D01*
X236912Y11380D01*
X236933Y11281D01*
X236951Y11182D01*
X236964Y11082D01*
X236974Y10982D01*
X236980Y10882D01*
X236982Y10781D01*
X236982Y8184D01*
X236980Y8083D01*
X236974Y7983D01*
X236964Y7883D01*
X236951Y7783D01*
X236933Y7684D01*
X236912Y7585D01*
X236887Y7488D01*
X236858Y7391D01*
X236825Y7296D01*
X236789Y7202D01*
X236749Y7110D01*
X236706Y7019D01*
X236659Y6930D01*
X236609Y6843D01*
X236555Y6757D01*
X236498Y6674D01*
X236438Y6594D01*
X236375Y6515D01*
X236308Y6439D01*
X236239Y6366D01*
X236167Y6296D01*
X236093Y6228D01*
X236016Y6163D01*
X235936Y6102D01*
X235854Y6043D01*
X235770Y5988D01*
X235684Y5936D01*
X235596Y5887D01*
X235506Y5842D01*
X235414Y5800D01*
X235321Y5762D01*
X235226Y5728D01*
X235131Y5697D01*
X235034Y5670D01*
X234936Y5647D01*
X234837Y5627D01*
X234737Y5612D01*
X234637Y5600D01*
X234537Y5592D01*
X234436Y5588D01*
X234336Y5588D01*
X234235Y5592D01*
X234135Y5600D01*
X234035Y5612D01*
X233935Y5627D01*
X233836Y5647D01*
X233738Y5670D01*
X233641Y5697D01*
X233546Y5728D01*
X233451Y5762D01*
X233358Y5800D01*
X233266Y5842D01*
X233176Y5887D01*
X233088Y5936D01*
X233002Y5988D01*
X232918Y6043D01*
X232836Y6102D01*
X232756Y6163D01*
X232679Y6228D01*
X232605Y6296D01*
X232533Y6366D01*
X232464Y6439D01*
X232397Y6515D01*
X232334Y6594D01*
X232274Y6674D01*
X232217Y6757D01*
X232163Y6843D01*
X232113Y6930D01*
X232066Y7019D01*
X232023Y7110D01*
X231983Y7202D01*
X231947Y7296D01*
X231914Y7391D01*
X231885Y7488D01*
X231860Y7585D01*
X231839Y7684D01*
X231821Y7783D01*
X231808Y7883D01*
X231798Y7983D01*
X231792Y8083D01*
X231790Y8184D01*
M02*
