G04 EAGLE Gerber RS-274X export*
G75*
%MOMM*%
%FSLAX34Y34*%
%LPD*%
%INSoldermask Top*%
%IPPOS*%
%AMOC8*
5,1,8,0,0,1.08239X$1,22.5*%
G01*
%ADD10R,1.427000X1.627000*%
%ADD11C,1.651000*%
%ADD12R,1.627000X1.427000*%
%ADD13R,1.295400X1.727200*%
%ADD14R,1.577000X0.427000*%
%ADD15C,0.731000*%
%ADD16C,0.635000*%


D10*
X211430Y161290D03*
X192430Y161290D03*
X147980Y161290D03*
X166980Y161290D03*
D11*
X217170Y109220D02*
X232410Y109220D01*
X232410Y83820D02*
X217170Y83820D01*
X35560Y26670D02*
X20320Y26670D01*
X20320Y52070D02*
X35560Y52070D01*
X35560Y77470D02*
X20320Y77470D01*
X20320Y102870D02*
X35560Y102870D01*
X35560Y128270D02*
X20320Y128270D01*
X20320Y153670D02*
X35560Y153670D01*
D12*
X198120Y45060D03*
X198120Y26060D03*
X93980Y46330D03*
X93980Y27330D03*
D13*
X134620Y39370D03*
X149860Y39370D03*
X165100Y39370D03*
D14*
X111760Y87120D03*
X155760Y87120D03*
X155760Y92120D03*
X111760Y92120D03*
X111760Y97120D03*
X111760Y102120D03*
X111760Y107120D03*
X155760Y97120D03*
X155760Y102120D03*
X155760Y107120D03*
D10*
X122530Y161290D03*
X103530Y161290D03*
D15*
X88900Y127000D03*
X165100Y127000D03*
X200660Y97790D03*
X177800Y139700D03*
X88900Y88900D03*
X63500Y101600D03*
D16*
X175260Y57785D03*
D15*
X99966Y88900D03*
X134620Y137160D03*
M02*
